G04*
G04 #@! TF.GenerationSoftware,Altium Limited,Altium Designer,19.1.9 (167)*
G04*
G04 Layer_Color=255*
%FSLAX43Y43*%
%MOMM*%
G71*
G01*
G75*
%ADD65C,1.524*%
%ADD66R,1.206X1.206*%
%ADD67C,1.206*%
%ADD68C,1.400*%
%ADD69R,1.400X1.400*%
%ADD70O,1.500X3.000*%
%ADD71O,3.000X1.500*%
%ADD72C,1.500*%
%ADD73R,1.500X1.500*%
D65*
X3864Y4328D02*
D03*
X29264D02*
D03*
X26724D02*
D03*
X24184D02*
D03*
X21644D02*
D03*
X19104D02*
D03*
X16564D02*
D03*
X14024D02*
D03*
X11484D02*
D03*
X8944D02*
D03*
X6404D02*
D03*
X1324D02*
D03*
X29264Y1788D02*
D03*
X26724D02*
D03*
X24184D02*
D03*
X21644D02*
D03*
X19104D02*
D03*
X16564D02*
D03*
X14024D02*
D03*
X11484D02*
D03*
X8944D02*
D03*
X6404D02*
D03*
X3864D02*
D03*
X1324D02*
D03*
X29264Y52588D02*
D03*
X26724D02*
D03*
X24184D02*
D03*
X21644D02*
D03*
X19104D02*
D03*
X16564D02*
D03*
X14024D02*
D03*
X11484D02*
D03*
X8944D02*
D03*
X6404D02*
D03*
X3864D02*
D03*
X1324D02*
D03*
X29264Y50048D02*
D03*
X26724D02*
D03*
X24184D02*
D03*
X21644D02*
D03*
X19104D02*
D03*
X16564D02*
D03*
X14024D02*
D03*
X11484D02*
D03*
X8944D02*
D03*
X6404D02*
D03*
X3864D02*
D03*
X1324D02*
D03*
D66*
X3876Y25987D02*
D03*
X4481Y32943D02*
D03*
D67*
X3876Y23487D02*
D03*
X4481Y38023D02*
D03*
D68*
X9800Y43721D02*
D03*
D69*
X14800D02*
D03*
D70*
X8232Y16384D02*
D03*
X14231D02*
D03*
D71*
X11232Y11684D02*
D03*
D72*
X31873Y14149D02*
D03*
D73*
Y11609D02*
D03*
M02*
