G04*
G04 #@! TF.GenerationSoftware,Altium Limited,Altium Designer,19.1.9 (167)*
G04*
G04 Layer_Physical_Order=1*
G04 Layer_Color=255*
%FSLAX43Y43*%
%MOMM*%
G71*
G01*
G75*
%ADD11C,0.254*%
%ADD23R,0.400X0.500*%
%ADD24R,1.100X1.700*%
%ADD25R,1.100X2.600*%
G04:AMPARAMS|DCode=26|XSize=0.6mm|YSize=1mm|CornerRadius=0.075mm|HoleSize=0mm|Usage=FLASHONLY|Rotation=180.000|XOffset=0mm|YOffset=0mm|HoleType=Round|Shape=RoundedRectangle|*
%AMROUNDEDRECTD26*
21,1,0.600,0.850,0,0,180.0*
21,1,0.450,1.000,0,0,180.0*
1,1,0.150,-0.225,0.425*
1,1,0.150,0.225,0.425*
1,1,0.150,0.225,-0.425*
1,1,0.150,-0.225,-0.425*
%
%ADD26ROUNDEDRECTD26*%
%ADD27R,0.900X0.800*%
%ADD28R,0.800X0.900*%
%ADD29R,0.650X1.100*%
%ADD30R,0.500X3.300*%
%ADD31R,1.300X3.300*%
G04:AMPARAMS|DCode=32|XSize=0.6mm|YSize=1mm|CornerRadius=0.075mm|HoleSize=0mm|Usage=FLASHONLY|Rotation=270.000|XOffset=0mm|YOffset=0mm|HoleType=Round|Shape=RoundedRectangle|*
%AMROUNDEDRECTD32*
21,1,0.600,0.850,0,0,270.0*
21,1,0.450,1.000,0,0,270.0*
1,1,0.150,-0.425,-0.225*
1,1,0.150,-0.425,0.225*
1,1,0.150,0.425,0.225*
1,1,0.150,0.425,-0.225*
%
%ADD32ROUNDEDRECTD32*%
G04:AMPARAMS|DCode=33|XSize=2.2mm|YSize=1.5mm|CornerRadius=0.188mm|HoleSize=0mm|Usage=FLASHONLY|Rotation=90.000|XOffset=0mm|YOffset=0mm|HoleType=Round|Shape=RoundedRectangle|*
%AMROUNDEDRECTD33*
21,1,2.200,1.125,0,0,90.0*
21,1,1.825,1.500,0,0,90.0*
1,1,0.375,0.563,0.913*
1,1,0.375,0.563,-0.913*
1,1,0.375,-0.563,-0.913*
1,1,0.375,-0.563,0.913*
%
%ADD33ROUNDEDRECTD33*%
G04:AMPARAMS|DCode=34|XSize=10.5mm|YSize=10.5mm|CornerRadius=1.313mm|HoleSize=0mm|Usage=FLASHONLY|Rotation=90.000|XOffset=0mm|YOffset=0mm|HoleType=Round|Shape=RoundedRectangle|*
%AMROUNDEDRECTD34*
21,1,10.500,7.875,0,0,90.0*
21,1,7.875,10.500,0,0,90.0*
1,1,2.625,3.938,3.938*
1,1,2.625,3.938,-3.938*
1,1,2.625,-3.938,-3.938*
1,1,2.625,-3.938,3.938*
%
%ADD34ROUNDEDRECTD34*%
G04:AMPARAMS|DCode=35|XSize=2.95mm|YSize=1.05mm|CornerRadius=0.131mm|HoleSize=0mm|Usage=FLASHONLY|Rotation=90.000|XOffset=0mm|YOffset=0mm|HoleType=Round|Shape=RoundedRectangle|*
%AMROUNDEDRECTD35*
21,1,2.950,0.788,0,0,90.0*
21,1,2.688,1.050,0,0,90.0*
1,1,0.263,0.394,1.344*
1,1,0.263,0.394,-1.344*
1,1,0.263,-0.394,-1.344*
1,1,0.263,-0.394,1.344*
%
%ADD35ROUNDEDRECTD35*%
G04:AMPARAMS|DCode=36|XSize=0.41mm|YSize=1.02mm|CornerRadius=0.103mm|HoleSize=0mm|Usage=FLASHONLY|Rotation=90.000|XOffset=0mm|YOffset=0mm|HoleType=Round|Shape=RoundedRectangle|*
%AMROUNDEDRECTD36*
21,1,0.410,0.815,0,0,90.0*
21,1,0.205,1.020,0,0,90.0*
1,1,0.205,0.407,0.103*
1,1,0.205,0.407,-0.103*
1,1,0.205,-0.407,-0.103*
1,1,0.205,-0.407,0.103*
%
%ADD36ROUNDEDRECTD36*%
%ADD63C,0.300*%
%ADD64C,0.400*%
%ADD65C,1.524*%
%ADD66R,1.206X1.206*%
%ADD67C,1.206*%
%ADD68C,1.400*%
%ADD69R,1.400X1.400*%
%ADD70O,1.500X3.000*%
%ADD71O,3.000X1.500*%
%ADD72C,1.500*%
%ADD73R,1.500X1.500*%
%ADD74C,1.270*%
%ADD75C,0.900*%
%ADD76C,1.000*%
G36*
X35192Y53985D02*
Y53985D01*
X35192D01*
X35593Y53739D01*
X36347Y53177D01*
X37048Y52550D01*
X37689Y51862D01*
X38266Y51119D01*
X38773Y50327D01*
X39207Y49493D01*
X39565Y48623D01*
X39704Y48174D01*
X39704Y19571D01*
X18388Y19571D01*
X18388Y18555D01*
X39704Y18555D01*
X39704Y5071D01*
X39703Y5071D01*
X39603Y4758D01*
X39339Y4155D01*
X39018Y3582D01*
X38641Y3043D01*
X38213Y2545D01*
X37737Y2091D01*
X37218Y1686D01*
X36662Y1336D01*
X36074Y1042D01*
X35460Y807D01*
X34825Y635D01*
X34177Y527D01*
X33849Y505D01*
X709Y505D01*
Y967D01*
X823Y1023D01*
X864Y991D01*
X1086Y900D01*
X1324Y868D01*
X1562Y900D01*
X1784Y991D01*
X1974Y1138D01*
X2121Y1328D01*
X2213Y1550D01*
X2244Y1788D01*
X2213Y2026D01*
X2121Y2248D01*
X1974Y2438D01*
X1784Y2585D01*
X1562Y2677D01*
X1324Y2708D01*
X1086Y2677D01*
X864Y2585D01*
X823Y2553D01*
X709Y2610D01*
Y3507D01*
X823Y3563D01*
X864Y3531D01*
X1086Y3440D01*
X1324Y3408D01*
X1562Y3440D01*
X1784Y3531D01*
X1974Y3678D01*
X2121Y3868D01*
X2213Y4090D01*
X2244Y4328D01*
X2213Y4566D01*
X2121Y4788D01*
X1974Y4978D01*
X1784Y5125D01*
X1562Y5217D01*
X1324Y5248D01*
X1086Y5217D01*
X864Y5125D01*
X823Y5093D01*
X709Y5150D01*
X709Y28913D01*
X836Y28998D01*
X901Y28971D01*
X1106Y28944D01*
X1311Y28971D01*
X1502Y29050D01*
X1666Y29176D01*
X1671Y29182D01*
X1798Y29139D01*
Y29124D01*
X2898D01*
Y30324D01*
X1798D01*
X1798Y30324D01*
Y30324D01*
X1671Y30289D01*
X1666Y30295D01*
X1502Y30421D01*
X1311Y30500D01*
X1106Y30527D01*
X901Y30500D01*
X836Y30473D01*
X709Y30558D01*
X709Y49227D01*
X823Y49283D01*
X864Y49251D01*
X1086Y49160D01*
X1324Y49128D01*
X1562Y49160D01*
X1784Y49251D01*
X1974Y49398D01*
X2121Y49588D01*
X2213Y49810D01*
X2244Y50048D01*
X2213Y50286D01*
X2121Y50508D01*
X1974Y50698D01*
X1784Y50845D01*
X1562Y50937D01*
X1324Y50968D01*
X1086Y50937D01*
X864Y50845D01*
X823Y50813D01*
X709Y50870D01*
Y51767D01*
X823Y51823D01*
X864Y51791D01*
X1086Y51700D01*
X1324Y51668D01*
X1562Y51700D01*
X1784Y51791D01*
X1974Y51938D01*
X2121Y52128D01*
X2213Y52350D01*
X2244Y52588D01*
X2213Y52826D01*
X2121Y53048D01*
X1974Y53238D01*
X1784Y53385D01*
X1562Y53477D01*
X1324Y53508D01*
X1086Y53477D01*
X864Y53385D01*
X823Y53353D01*
X709Y53410D01*
Y53985D01*
X35074D01*
X35192Y53985D01*
D02*
G37*
%LPC*%
G36*
X26724Y53508D02*
X26486Y53477D01*
X26264Y53385D01*
X26074Y53238D01*
X25927Y53048D01*
X25835Y52826D01*
X25804Y52588D01*
X25835Y52350D01*
X25927Y52128D01*
X26074Y51938D01*
X26264Y51791D01*
X26486Y51700D01*
X26724Y51668D01*
X26962Y51700D01*
X27184Y51791D01*
X27374Y51938D01*
X27521Y52128D01*
X27613Y52350D01*
X27644Y52588D01*
X27613Y52826D01*
X27521Y53048D01*
X27374Y53238D01*
X27184Y53385D01*
X26962Y53477D01*
X26724Y53508D01*
D02*
G37*
G36*
X24184D02*
X23946Y53477D01*
X23724Y53385D01*
X23534Y53238D01*
X23387Y53048D01*
X23295Y52826D01*
X23264Y52588D01*
X23295Y52350D01*
X23387Y52128D01*
X23534Y51938D01*
X23724Y51791D01*
X23946Y51700D01*
X24184Y51668D01*
X24422Y51700D01*
X24644Y51791D01*
X24834Y51938D01*
X24981Y52128D01*
X25073Y52350D01*
X25104Y52588D01*
X25073Y52826D01*
X24981Y53048D01*
X24834Y53238D01*
X24644Y53385D01*
X24422Y53477D01*
X24184Y53508D01*
D02*
G37*
G36*
X21644D02*
X21406Y53477D01*
X21184Y53385D01*
X20994Y53238D01*
X20847Y53048D01*
X20755Y52826D01*
X20724Y52588D01*
X20755Y52350D01*
X20847Y52128D01*
X20994Y51938D01*
X21184Y51791D01*
X21406Y51700D01*
X21644Y51668D01*
X21882Y51700D01*
X22104Y51791D01*
X22294Y51938D01*
X22441Y52128D01*
X22533Y52350D01*
X22564Y52588D01*
X22533Y52826D01*
X22441Y53048D01*
X22294Y53238D01*
X22104Y53385D01*
X21882Y53477D01*
X21644Y53508D01*
D02*
G37*
G36*
X19104D02*
X18866Y53477D01*
X18644Y53385D01*
X18454Y53238D01*
X18307Y53048D01*
X18215Y52826D01*
X18184Y52588D01*
X18215Y52350D01*
X18307Y52128D01*
X18454Y51938D01*
X18644Y51791D01*
X18866Y51700D01*
X19104Y51668D01*
X19342Y51700D01*
X19564Y51791D01*
X19754Y51938D01*
X19901Y52128D01*
X19993Y52350D01*
X20024Y52588D01*
X19993Y52826D01*
X19901Y53048D01*
X19754Y53238D01*
X19564Y53385D01*
X19342Y53477D01*
X19104Y53508D01*
D02*
G37*
G36*
X16564D02*
X16326Y53477D01*
X16104Y53385D01*
X15914Y53238D01*
X15767Y53048D01*
X15675Y52826D01*
X15644Y52588D01*
X15675Y52350D01*
X15767Y52128D01*
X15914Y51938D01*
X16104Y51791D01*
X16326Y51700D01*
X16564Y51668D01*
X16802Y51700D01*
X17024Y51791D01*
X17214Y51938D01*
X17361Y52128D01*
X17453Y52350D01*
X17484Y52588D01*
X17453Y52826D01*
X17361Y53048D01*
X17214Y53238D01*
X17024Y53385D01*
X16802Y53477D01*
X16564Y53508D01*
D02*
G37*
G36*
X14024D02*
X13786Y53477D01*
X13564Y53385D01*
X13374Y53238D01*
X13227Y53048D01*
X13135Y52826D01*
X13104Y52588D01*
X13135Y52350D01*
X13227Y52128D01*
X13374Y51938D01*
X13564Y51791D01*
X13786Y51700D01*
X14024Y51668D01*
X14262Y51700D01*
X14484Y51791D01*
X14674Y51938D01*
X14821Y52128D01*
X14913Y52350D01*
X14944Y52588D01*
X14913Y52826D01*
X14821Y53048D01*
X14674Y53238D01*
X14484Y53385D01*
X14262Y53477D01*
X14024Y53508D01*
D02*
G37*
G36*
X11484D02*
X11246Y53477D01*
X11024Y53385D01*
X10834Y53238D01*
X10687Y53048D01*
X10595Y52826D01*
X10564Y52588D01*
X10595Y52350D01*
X10687Y52128D01*
X10834Y51938D01*
X11024Y51791D01*
X11246Y51700D01*
X11484Y51668D01*
X11722Y51700D01*
X11944Y51791D01*
X12134Y51938D01*
X12281Y52128D01*
X12373Y52350D01*
X12404Y52588D01*
X12373Y52826D01*
X12281Y53048D01*
X12134Y53238D01*
X11944Y53385D01*
X11722Y53477D01*
X11484Y53508D01*
D02*
G37*
G36*
X8944D02*
X8706Y53477D01*
X8484Y53385D01*
X8294Y53238D01*
X8147Y53048D01*
X8055Y52826D01*
X8024Y52588D01*
X8055Y52350D01*
X8147Y52128D01*
X8294Y51938D01*
X8484Y51791D01*
X8706Y51700D01*
X8944Y51668D01*
X9182Y51700D01*
X9404Y51791D01*
X9594Y51938D01*
X9741Y52128D01*
X9833Y52350D01*
X9864Y52588D01*
X9833Y52826D01*
X9741Y53048D01*
X9594Y53238D01*
X9404Y53385D01*
X9182Y53477D01*
X8944Y53508D01*
D02*
G37*
G36*
X6404D02*
X6166Y53477D01*
X5944Y53385D01*
X5754Y53238D01*
X5607Y53048D01*
X5515Y52826D01*
X5484Y52588D01*
X5515Y52350D01*
X5607Y52128D01*
X5754Y51938D01*
X5944Y51791D01*
X6166Y51700D01*
X6404Y51668D01*
X6642Y51700D01*
X6864Y51791D01*
X7054Y51938D01*
X7201Y52128D01*
X7293Y52350D01*
X7324Y52588D01*
X7293Y52826D01*
X7201Y53048D01*
X7054Y53238D01*
X6864Y53385D01*
X6642Y53477D01*
X6404Y53508D01*
D02*
G37*
G36*
X3864D02*
X3626Y53477D01*
X3404Y53385D01*
X3214Y53238D01*
X3067Y53048D01*
X2975Y52826D01*
X2944Y52588D01*
X2975Y52350D01*
X3067Y52128D01*
X3214Y51938D01*
X3404Y51791D01*
X3626Y51700D01*
X3864Y51668D01*
X4102Y51700D01*
X4324Y51791D01*
X4514Y51938D01*
X4661Y52128D01*
X4753Y52350D01*
X4784Y52588D01*
X4753Y52826D01*
X4661Y53048D01*
X4514Y53238D01*
X4324Y53385D01*
X4102Y53477D01*
X3864Y53508D01*
D02*
G37*
G36*
X29264Y50968D02*
X29026Y50937D01*
X28804Y50845D01*
X28614Y50698D01*
X28467Y50508D01*
X28378Y50293D01*
X28335Y50264D01*
X28335Y50264D01*
X27657Y49586D01*
X27550Y49658D01*
X27613Y49810D01*
X27644Y50048D01*
X27613Y50286D01*
X27521Y50508D01*
X27374Y50698D01*
X27184Y50845D01*
X26962Y50937D01*
X26724Y50968D01*
X26486Y50937D01*
X26264Y50845D01*
X26074Y50698D01*
X25927Y50508D01*
X25835Y50286D01*
X25804Y50048D01*
X25835Y49810D01*
X25927Y49588D01*
X26074Y49398D01*
X26264Y49251D01*
X26486Y49160D01*
X26724Y49128D01*
X26962Y49160D01*
X27114Y49222D01*
X27186Y49115D01*
X26678Y48607D01*
X26285D01*
Y47207D01*
X27108D01*
X27235Y47207D01*
Y47207D01*
X27235D01*
Y47207D01*
X29135D01*
Y47601D01*
X30080D01*
Y46537D01*
X31280D01*
Y47637D01*
X30986D01*
Y47809D01*
X31043Y47817D01*
X31233Y47896D01*
X31397Y48022D01*
X31523Y48185D01*
X31602Y48376D01*
X31629Y48581D01*
X31602Y48786D01*
X31523Y48977D01*
X31397Y49141D01*
X31233Y49267D01*
X31043Y49346D01*
X30838Y49373D01*
X30633Y49346D01*
X30442Y49267D01*
X30278Y49141D01*
X30152Y48977D01*
X30073Y48786D01*
X30046Y48581D01*
X30073Y48376D01*
X30099Y48314D01*
X30018Y48213D01*
X29135D01*
Y48607D01*
X27709D01*
X27661Y48724D01*
X28424Y49488D01*
X28551Y49479D01*
X28614Y49398D01*
X28804Y49251D01*
X29026Y49160D01*
X29264Y49128D01*
X29502Y49160D01*
X29724Y49251D01*
X29914Y49398D01*
X30061Y49588D01*
X30153Y49810D01*
X30184Y50048D01*
X30153Y50286D01*
X30061Y50508D01*
X29914Y50698D01*
X29724Y50845D01*
X29502Y50937D01*
X29264Y50968D01*
D02*
G37*
G36*
X24184D02*
X23946Y50937D01*
X23724Y50845D01*
X23534Y50698D01*
X23387Y50508D01*
X23295Y50286D01*
X23264Y50048D01*
X23295Y49810D01*
X23387Y49588D01*
X23534Y49398D01*
X23724Y49251D01*
X23946Y49160D01*
X24184Y49128D01*
X24422Y49160D01*
X24644Y49251D01*
X24834Y49398D01*
X24981Y49588D01*
X25073Y49810D01*
X25104Y50048D01*
X25073Y50286D01*
X24981Y50508D01*
X24834Y50698D01*
X24644Y50845D01*
X24422Y50937D01*
X24184Y50968D01*
D02*
G37*
G36*
X21644D02*
X21406Y50937D01*
X21184Y50845D01*
X20994Y50698D01*
X20847Y50508D01*
X20755Y50286D01*
X20724Y50048D01*
X20755Y49810D01*
X20847Y49588D01*
X20994Y49398D01*
X21184Y49251D01*
X21406Y49160D01*
X21644Y49128D01*
X21882Y49160D01*
X22104Y49251D01*
X22294Y49398D01*
X22441Y49588D01*
X22533Y49810D01*
X22564Y50048D01*
X22533Y50286D01*
X22441Y50508D01*
X22294Y50698D01*
X22104Y50845D01*
X21882Y50937D01*
X21644Y50968D01*
D02*
G37*
G36*
X19104D02*
X18866Y50937D01*
X18644Y50845D01*
X18454Y50698D01*
X18307Y50508D01*
X18215Y50286D01*
X18184Y50048D01*
X18215Y49810D01*
X18307Y49588D01*
X18454Y49398D01*
X18644Y49251D01*
X18866Y49160D01*
X19104Y49128D01*
X19342Y49160D01*
X19564Y49251D01*
X19754Y49398D01*
X19901Y49588D01*
X19993Y49810D01*
X20024Y50048D01*
X19993Y50286D01*
X19901Y50508D01*
X19754Y50698D01*
X19564Y50845D01*
X19342Y50937D01*
X19104Y50968D01*
D02*
G37*
G36*
X16564D02*
X16326Y50937D01*
X16104Y50845D01*
X15914Y50698D01*
X15767Y50508D01*
X15675Y50286D01*
X15644Y50048D01*
X15675Y49810D01*
X15767Y49588D01*
X15914Y49398D01*
X16104Y49251D01*
X16326Y49160D01*
X16564Y49128D01*
X16802Y49160D01*
X17024Y49251D01*
X17214Y49398D01*
X17361Y49588D01*
X17453Y49810D01*
X17484Y50048D01*
X17453Y50286D01*
X17361Y50508D01*
X17214Y50698D01*
X17024Y50845D01*
X16802Y50937D01*
X16564Y50968D01*
D02*
G37*
G36*
X14024D02*
X13786Y50937D01*
X13564Y50845D01*
X13374Y50698D01*
X13227Y50508D01*
X13135Y50286D01*
X13104Y50048D01*
X13135Y49810D01*
X13227Y49588D01*
X13374Y49398D01*
X13564Y49251D01*
X13786Y49160D01*
X14024Y49128D01*
X14262Y49160D01*
X14484Y49251D01*
X14674Y49398D01*
X14821Y49588D01*
X14913Y49810D01*
X14944Y50048D01*
X14913Y50286D01*
X14821Y50508D01*
X14674Y50698D01*
X14484Y50845D01*
X14262Y50937D01*
X14024Y50968D01*
D02*
G37*
G36*
X11484D02*
X11246Y50937D01*
X11024Y50845D01*
X10834Y50698D01*
X10687Y50508D01*
X10595Y50286D01*
X10564Y50048D01*
X10595Y49810D01*
X10687Y49588D01*
X10834Y49398D01*
X11024Y49251D01*
X11246Y49160D01*
X11484Y49128D01*
X11722Y49160D01*
X11944Y49251D01*
X12134Y49398D01*
X12281Y49588D01*
X12373Y49810D01*
X12404Y50048D01*
X12373Y50286D01*
X12281Y50508D01*
X12134Y50698D01*
X11944Y50845D01*
X11722Y50937D01*
X11484Y50968D01*
D02*
G37*
G36*
X8944D02*
X8706Y50937D01*
X8484Y50845D01*
X8294Y50698D01*
X8147Y50508D01*
X8055Y50286D01*
X8024Y50048D01*
X8055Y49810D01*
X8147Y49588D01*
X8294Y49398D01*
X8484Y49251D01*
X8706Y49160D01*
X8944Y49128D01*
X9182Y49160D01*
X9404Y49251D01*
X9594Y49398D01*
X9741Y49588D01*
X9833Y49810D01*
X9864Y50048D01*
X9833Y50286D01*
X9741Y50508D01*
X9594Y50698D01*
X9404Y50845D01*
X9182Y50937D01*
X8944Y50968D01*
D02*
G37*
G36*
X6404D02*
X6166Y50937D01*
X5944Y50845D01*
X5754Y50698D01*
X5607Y50508D01*
X5515Y50286D01*
X5484Y50048D01*
X5515Y49810D01*
X5607Y49588D01*
X5754Y49398D01*
X5944Y49251D01*
X6166Y49160D01*
X6404Y49128D01*
X6642Y49160D01*
X6864Y49251D01*
X7054Y49398D01*
X7201Y49588D01*
X7293Y49810D01*
X7324Y50048D01*
X7293Y50286D01*
X7201Y50508D01*
X7054Y50698D01*
X6864Y50845D01*
X6642Y50937D01*
X6404Y50968D01*
D02*
G37*
G36*
X3864D02*
X3626Y50937D01*
X3404Y50845D01*
X3214Y50698D01*
X3067Y50508D01*
X2975Y50286D01*
X2944Y50048D01*
X2975Y49810D01*
X3067Y49588D01*
X3214Y49398D01*
X3404Y49251D01*
X3626Y49160D01*
X3864Y49128D01*
X4102Y49160D01*
X4324Y49251D01*
X4514Y49398D01*
X4661Y49588D01*
X4753Y49810D01*
X4784Y50048D01*
X4753Y50286D01*
X4661Y50508D01*
X4514Y50698D01*
X4324Y50845D01*
X4102Y50937D01*
X3864Y50968D01*
D02*
G37*
G36*
X29264Y53508D02*
X29026Y53477D01*
X28804Y53385D01*
X28614Y53238D01*
X28467Y53048D01*
X28375Y52826D01*
X28344Y52588D01*
X28375Y52350D01*
X28467Y52128D01*
X28614Y51938D01*
X28804Y51791D01*
X29026Y51700D01*
X29264Y51668D01*
X29502Y51700D01*
X29605Y51742D01*
X32218Y49129D01*
Y48607D01*
X32100D01*
Y47207D01*
X33873D01*
X34000Y47207D01*
Y47207D01*
X34000D01*
Y47207D01*
X34950D01*
Y47601D01*
X35300D01*
X35309Y47578D01*
X35435Y47414D01*
X35599Y47288D01*
X35790Y47209D01*
X35995Y47182D01*
X36200Y47209D01*
X36391Y47288D01*
X36555Y47414D01*
X36681Y47578D01*
X36760Y47769D01*
X36787Y47973D01*
X36760Y48178D01*
X36681Y48369D01*
X36555Y48533D01*
X36391Y48659D01*
X36200Y48738D01*
X35995Y48765D01*
X35790Y48738D01*
X35599Y48659D01*
X35435Y48533D01*
X35309Y48369D01*
X35245Y48213D01*
X34950D01*
Y48607D01*
X34127D01*
X34000Y48607D01*
Y48607D01*
X34000D01*
Y48607D01*
X32932D01*
Y49277D01*
X32904Y49414D01*
X32827Y49530D01*
X30110Y52247D01*
X30153Y52350D01*
X30184Y52588D01*
X30153Y52826D01*
X30061Y53048D01*
X29914Y53238D01*
X29724Y53385D01*
X29502Y53477D01*
X29264Y53508D01*
D02*
G37*
G36*
X22758Y47922D02*
X22553Y47895D01*
X22362Y47816D01*
X22198Y47690D01*
X22072Y47526D01*
X21993Y47335D01*
X21966Y47130D01*
X21993Y46925D01*
X22072Y46734D01*
X22198Y46570D01*
X22362Y46445D01*
X22553Y46365D01*
X22758Y46338D01*
X22963Y46365D01*
X23154Y46445D01*
X23318Y46570D01*
X23444Y46734D01*
X23481Y46824D01*
X24172D01*
Y46537D01*
X25372D01*
Y47637D01*
X24172D01*
Y47436D01*
X23481D01*
X23444Y47526D01*
X23318Y47690D01*
X23154Y47816D01*
X22963Y47895D01*
X22758Y47922D01*
D02*
G37*
G36*
X31968Y46380D02*
Y45993D01*
X31384D01*
Y46341D01*
X30807D01*
Y45687D01*
Y45033D01*
X31384D01*
Y45381D01*
X31879D01*
X31968Y45291D01*
X31968Y44707D01*
X31996Y44703D01*
X32094Y44703D01*
X33154D01*
X33168Y44582D01*
Y44402D01*
X32827D01*
Y43202D01*
X33787D01*
X33839Y43075D01*
X33454Y42690D01*
X33079D01*
X32991Y42672D01*
X32917Y42623D01*
X32867Y42548D01*
X32849Y42460D01*
Y41610D01*
X32867Y41523D01*
X32917Y41448D01*
X32991Y41398D01*
X33079Y41381D01*
X33529D01*
X33617Y41398D01*
X33691Y41448D01*
X33741Y41523D01*
X33758Y41610D01*
Y41985D01*
X34976Y43202D01*
X35327D01*
Y44402D01*
X34832D01*
Y44807D01*
X34950D01*
Y46207D01*
X34127D01*
X34000Y46207D01*
X33873Y46207D01*
X33202D01*
Y46380D01*
X31968Y46380D01*
D02*
G37*
G36*
X24645Y46341D02*
X24068D01*
Y45814D01*
X24645D01*
Y46341D01*
D02*
G37*
G36*
X30553D02*
X29976D01*
Y45814D01*
X30553D01*
Y46341D01*
D02*
G37*
G36*
Y45560D02*
X29976D01*
Y45033D01*
X30553D01*
Y45560D01*
D02*
G37*
G36*
X24645D02*
X24068D01*
Y45033D01*
X24645D01*
Y45560D01*
D02*
G37*
G36*
X7015Y43957D02*
X5815D01*
Y43764D01*
X5334D01*
Y43957D01*
X4134D01*
Y42857D01*
X5334D01*
Y43050D01*
X5815D01*
Y42857D01*
X6460D01*
X9565Y39752D01*
X9565Y39752D01*
X9681Y39674D01*
X9818Y39647D01*
X12556D01*
X13966Y38237D01*
X13904Y38119D01*
X13156D01*
X12910Y38070D01*
X12701Y37931D01*
X12562Y37722D01*
X12513Y37705D01*
X12426Y37689D01*
X12348Y37741D01*
X12239Y37763D01*
X12084D01*
X11121Y38726D01*
X11005Y38804D01*
X10868Y38831D01*
X4932D01*
X4796Y38804D01*
X4707Y38744D01*
X4677Y38756D01*
X4481Y38782D01*
X4284Y38756D01*
X4101Y38680D01*
X4084Y38667D01*
X2717Y40034D01*
Y41253D01*
X2923D01*
X3055Y41279D01*
X3166Y41354D01*
X3241Y41466D01*
X3267Y41597D01*
Y43422D01*
X3241Y43554D01*
X3166Y43666D01*
X3055Y43740D01*
X2923Y43767D01*
X1798D01*
X1666Y43740D01*
X1555Y43666D01*
X1480Y43554D01*
X1454Y43422D01*
Y41597D01*
X1480Y41466D01*
X1555Y41354D01*
X1666Y41279D01*
X1798Y41253D01*
X2004D01*
Y39886D01*
X2031Y39750D01*
X2108Y39634D01*
X3722Y38020D01*
X3747Y37826D01*
X3823Y37643D01*
X3944Y37486D01*
X4101Y37365D01*
X4284Y37289D01*
X4481Y37263D01*
X4677Y37289D01*
X4861Y37365D01*
X5018Y37486D01*
X5139Y37643D01*
X5214Y37826D01*
X5240Y38023D01*
X5323Y38117D01*
X10720D01*
X10864Y37973D01*
X10812Y37846D01*
X10647D01*
X10534Y37869D01*
X9746D01*
X9633Y37846D01*
X9351D01*
Y34985D01*
X4529Y30163D01*
X4402Y30216D01*
Y30428D01*
X4402Y30428D01*
X4104D01*
Y32062D01*
X4128Y32085D01*
X5338D01*
Y32086D01*
X5338D01*
Y33800D01*
X3624D01*
Y33799D01*
X3624D01*
Y32590D01*
X3495Y32462D01*
X3418Y32346D01*
X3391Y32209D01*
Y30428D01*
X3094D01*
Y30428D01*
X3094D01*
Y29020D01*
X3519D01*
Y26844D01*
X3019D01*
Y26114D01*
X3876D01*
X4733D01*
Y26844D01*
X4233D01*
Y28930D01*
X4322Y29020D01*
X4402Y29020D01*
X4402Y29020D01*
X4402Y29147D01*
Y29367D01*
X4594D01*
X4731Y29394D01*
X4846Y29471D01*
X9770Y34396D01*
X10933D01*
Y37725D01*
X11060Y37777D01*
X11213Y37625D01*
X11186Y37586D01*
X11164Y37476D01*
Y34788D01*
X11186Y34679D01*
X11248Y34586D01*
X11341Y34523D01*
X11451Y34502D01*
X12239D01*
X12348Y34523D01*
X12426Y34575D01*
X12513Y34560D01*
X12562Y34542D01*
X12701Y34333D01*
X12910Y34194D01*
X13156Y34145D01*
X13193D01*
Y32491D01*
X9612D01*
X9257Y32456D01*
X8915Y32352D01*
X8601Y32184D01*
X8325Y31957D01*
X8098Y31681D01*
X7930Y31367D01*
X7826Y31025D01*
X7791Y30670D01*
Y22795D01*
X7826Y22439D01*
X7930Y22098D01*
X8098Y21783D01*
X8325Y21507D01*
X8601Y21280D01*
X8915Y21112D01*
X9257Y21008D01*
X9612Y20973D01*
X17487D01*
X17843Y21008D01*
X18184Y21112D01*
X18499Y21280D01*
X18775Y21507D01*
X19002Y21783D01*
X19170Y22098D01*
X19274Y22439D01*
X19309Y22795D01*
Y30670D01*
X19274Y31025D01*
X19170Y31367D01*
X19002Y31681D01*
X18775Y31957D01*
X18499Y32184D01*
X18184Y32352D01*
X17843Y32456D01*
X17487Y32491D01*
X13907D01*
Y34145D01*
X13944D01*
X14190Y34194D01*
X14399Y34333D01*
X14538Y34542D01*
X14587Y34560D01*
X14674Y34575D01*
X14751Y34523D01*
X14861Y34502D01*
X15649D01*
X15758Y34523D01*
X15851Y34586D01*
X15914Y34679D01*
X15935Y34788D01*
Y37476D01*
X15914Y37586D01*
X15851Y37679D01*
X15758Y37741D01*
X15649Y37763D01*
X15450D01*
X12956Y40256D01*
X12841Y40334D01*
X12704Y40361D01*
X9965D01*
X7015Y43311D01*
Y43957D01*
D02*
G37*
G36*
Y45357D02*
X5815D01*
Y44257D01*
X7015D01*
Y44450D01*
X8567D01*
X9002Y44015D01*
X8972Y43943D01*
X8943Y43721D01*
X8972Y43499D01*
X9058Y43292D01*
X9194Y43115D01*
X9372Y42979D01*
X9578Y42893D01*
X9800Y42864D01*
X10022Y42893D01*
X10229Y42979D01*
X10406Y43115D01*
X10543Y43292D01*
X10628Y43499D01*
X10658Y43721D01*
X10628Y43943D01*
X10543Y44150D01*
X10406Y44327D01*
X10229Y44464D01*
X10022Y44549D01*
X9800Y44578D01*
X9578Y44549D01*
X9507Y44520D01*
X8967Y45059D01*
X8851Y45136D01*
X8715Y45164D01*
X7015D01*
Y45357D01*
D02*
G37*
G36*
X25476Y46341D02*
X24899D01*
Y45687D01*
Y45033D01*
X25476D01*
Y45381D01*
X26091D01*
X26181Y45291D01*
X26181Y44703D01*
X26181Y44703D01*
X26308Y44703D01*
X27339D01*
X27353Y44582D01*
Y44444D01*
X27312Y44402D01*
X26667D01*
Y43202D01*
X27346D01*
X27395Y43085D01*
X26702Y42392D01*
X25623D01*
Y42460D01*
X25605Y42548D01*
X25556Y42623D01*
X25481Y42672D01*
X25393Y42690D01*
X24943D01*
X24856Y42672D01*
X24781Y42623D01*
X24731Y42548D01*
X24714Y42460D01*
Y41610D01*
X24731Y41523D01*
X24781Y41448D01*
X24856Y41398D01*
X24943Y41381D01*
X25393D01*
X25481Y41398D01*
X25556Y41448D01*
X25605Y41523D01*
X25623Y41610D01*
Y41678D01*
X26849D01*
X26986Y41706D01*
X27102Y41783D01*
X28521Y43202D01*
X29167D01*
Y44402D01*
X28973D01*
Y44807D01*
X29135D01*
Y46207D01*
X27407D01*
X27339Y46311D01*
X27336Y46311D01*
X27336Y46311D01*
X27212Y46311D01*
X26181Y46311D01*
Y45993D01*
X25476D01*
Y46341D01*
D02*
G37*
G36*
X31210Y44255D02*
X31005Y44228D01*
X30814Y44149D01*
X30650Y44023D01*
X30525Y43859D01*
X30445Y43668D01*
X30418Y43463D01*
X30445Y43258D01*
X30525Y43067D01*
X30650Y42903D01*
X30814Y42777D01*
X30943Y42724D01*
X30955Y42707D01*
X30987Y42588D01*
X30985Y42575D01*
X30967Y42548D01*
X30949Y42460D01*
Y41610D01*
X30967Y41523D01*
X31017Y41448D01*
X31091Y41398D01*
X31179Y41381D01*
X31629D01*
X31717Y41398D01*
X31791Y41448D01*
X31841Y41523D01*
X31858Y41610D01*
Y42460D01*
X31841Y42548D01*
X31791Y42623D01*
X31717Y42672D01*
X31710Y42674D01*
Y42857D01*
X31770Y42903D01*
X31896Y43067D01*
X31975Y43258D01*
X32002Y43463D01*
X31975Y43668D01*
X31896Y43859D01*
X31770Y44023D01*
X31606Y44149D01*
X31415Y44228D01*
X31210Y44255D01*
D02*
G37*
G36*
X21738Y42941D02*
X21533Y42914D01*
X21342Y42835D01*
X21178Y42709D01*
X21053Y42545D01*
X20974Y42354D01*
X20947Y42149D01*
X20974Y41944D01*
X21053Y41753D01*
X21178Y41589D01*
X21342Y41463D01*
X21533Y41384D01*
X21738Y41357D01*
X21943Y41384D01*
X22134Y41463D01*
X22298Y41589D01*
X22424Y41753D01*
X22461Y41843D01*
X22814D01*
Y41610D01*
X22831Y41523D01*
X22881Y41448D01*
X22956Y41398D01*
X23043Y41381D01*
X23493D01*
X23581Y41398D01*
X23656Y41448D01*
X23705Y41523D01*
X23723Y41610D01*
Y42460D01*
X23705Y42548D01*
X23656Y42623D01*
X23581Y42672D01*
X23493Y42690D01*
X23043D01*
X22956Y42672D01*
X22881Y42623D01*
X22831Y42548D01*
X22814Y42460D01*
Y42455D01*
X22461D01*
X22424Y42545D01*
X22298Y42709D01*
X22134Y42835D01*
X21943Y42914D01*
X21738Y42941D01*
D02*
G37*
G36*
X27496Y40574D02*
X26096D01*
Y39481D01*
X24978D01*
X24673Y39786D01*
Y40160D01*
X24655Y40248D01*
X24606Y40323D01*
X24531Y40372D01*
X24443Y40390D01*
X23993D01*
X23906Y40372D01*
X23831Y40323D01*
X23781Y40248D01*
X23764Y40160D01*
Y39310D01*
X23781Y39223D01*
X23831Y39148D01*
X23906Y39098D01*
X23993Y39081D01*
X24368D01*
X24578Y38871D01*
X24693Y38794D01*
X24830Y38767D01*
X26096D01*
Y37674D01*
X27496D01*
Y40574D01*
D02*
G37*
G36*
X2923Y47967D02*
X1798D01*
X1666Y47940D01*
X1555Y47866D01*
X1480Y47754D01*
X1454Y47622D01*
Y45797D01*
X1480Y45666D01*
X1555Y45554D01*
X1666Y45480D01*
X1798Y45453D01*
X2923D01*
X3055Y45480D01*
X3074Y45492D01*
X4011Y44554D01*
X4127Y44477D01*
X4134Y44476D01*
Y44257D01*
X5334D01*
Y45176D01*
X5976Y45818D01*
X12199D01*
X13950Y44066D01*
Y42871D01*
X15146D01*
X19324Y38693D01*
X19271Y38566D01*
X18730D01*
X17868Y39427D01*
X17753Y39505D01*
X17724Y39511D01*
X17699Y39571D01*
X17573Y39735D01*
X17409Y39861D01*
X17218Y39940D01*
X17013Y39967D01*
X16808Y39940D01*
X16617Y39861D01*
X16453Y39735D01*
X16328Y39571D01*
X16248Y39380D01*
X16221Y39175D01*
X16248Y38970D01*
X16328Y38779D01*
X16453Y38615D01*
X16617Y38489D01*
X16808Y38410D01*
X17013Y38383D01*
X17218Y38410D01*
X17409Y38489D01*
X17573Y38615D01*
X17665Y38621D01*
X18275Y38011D01*
Y37366D01*
X19375D01*
Y38462D01*
X19502Y38514D01*
X19675Y38341D01*
Y37366D01*
X20771D01*
X29349Y28788D01*
X29439Y28728D01*
Y27240D01*
X30239D01*
Y30840D01*
X29439D01*
Y29873D01*
X29322Y29824D01*
X20928Y38218D01*
X20812Y38296D01*
X20775Y38303D01*
Y38566D01*
X20460D01*
X15650Y43376D01*
Y44571D01*
X14455D01*
X12599Y46427D01*
X12483Y46504D01*
X12347Y46531D01*
X5828D01*
X5691Y46504D01*
X5575Y46427D01*
X4505Y45357D01*
X4218D01*
X3267Y46308D01*
Y47622D01*
X3241Y47754D01*
X3166Y47866D01*
X3055Y47940D01*
X2923Y47967D01*
D02*
G37*
G36*
X32579Y40390D02*
X32129D01*
X32041Y40372D01*
X31967Y40323D01*
X31917Y40248D01*
X31899Y40160D01*
Y39310D01*
X31917Y39223D01*
X31967Y39148D01*
X32041Y39098D01*
X32129Y39081D01*
X32504D01*
X32618Y38966D01*
X32734Y38889D01*
X32870Y38862D01*
X34377D01*
Y38219D01*
X35777D01*
Y40219D01*
X34377D01*
Y39576D01*
X33018D01*
X32808Y39786D01*
Y40160D01*
X32791Y40248D01*
X32741Y40323D01*
X32667Y40372D01*
X32579Y40390D01*
D02*
G37*
G36*
X17354Y37763D02*
X16566D01*
X16456Y37741D01*
X16363Y37679D01*
X16301Y37586D01*
X16279Y37476D01*
Y34788D01*
X16301Y34679D01*
X16363Y34586D01*
X16456Y34523D01*
X16566Y34502D01*
X17354D01*
X17463Y34523D01*
X17556Y34586D01*
X17619Y34679D01*
X17640Y34788D01*
Y36194D01*
X18275D01*
Y35951D01*
X19375D01*
Y37151D01*
X18275D01*
Y36907D01*
X17640D01*
Y37476D01*
X17619Y37586D01*
X17556Y37679D01*
X17463Y37741D01*
X17354Y37763D01*
D02*
G37*
G36*
X20775Y37151D02*
X19675D01*
Y35951D01*
X19868D01*
Y35735D01*
X19675D01*
Y34535D01*
X20775D01*
Y35735D01*
X20582D01*
Y35951D01*
X20775D01*
Y37151D01*
D02*
G37*
G36*
X19375Y35735D02*
X18275D01*
Y34535D01*
X18468D01*
Y33341D01*
X18496Y33204D01*
X18573Y33089D01*
X19824Y31838D01*
X19808Y31799D01*
X19781Y31594D01*
X19808Y31389D01*
X19887Y31198D01*
X20012Y31034D01*
X20176Y30908D01*
X20367Y30829D01*
X20572Y30802D01*
X20777Y30829D01*
X20968Y30908D01*
X21132Y31034D01*
X21258Y31198D01*
X21337Y31389D01*
X21364Y31594D01*
X21337Y31799D01*
X21258Y31990D01*
X21132Y32154D01*
X20968Y32280D01*
X20777Y32359D01*
X20572Y32386D01*
X20367Y32359D01*
X20328Y32343D01*
X19182Y33489D01*
Y34535D01*
X19375D01*
Y35735D01*
D02*
G37*
G36*
X30196Y40574D02*
X28796D01*
Y37674D01*
X29139D01*
Y36452D01*
X29166Y36315D01*
X29243Y36200D01*
X33508Y31935D01*
Y30414D01*
X33157Y30062D01*
X33039Y30111D01*
Y30840D01*
X32239D01*
Y27240D01*
X33039D01*
Y28936D01*
X34118Y30014D01*
X34195Y30129D01*
X34222Y30266D01*
Y31930D01*
X38029Y35737D01*
X38107Y35853D01*
X38134Y35989D01*
Y38219D01*
X38477D01*
Y40219D01*
X37077D01*
Y38219D01*
X37420D01*
Y36137D01*
X33868Y32585D01*
X29853Y36600D01*
Y37674D01*
X30196D01*
Y40574D01*
D02*
G37*
G36*
X31239Y30864D02*
X31070Y30842D01*
X31066Y30840D01*
X30439D01*
Y27240D01*
X32039D01*
Y30840D01*
X31413D01*
X31409Y30842D01*
X31239Y30864D01*
D02*
G37*
G36*
X4733Y25860D02*
X4003D01*
Y25130D01*
X4733D01*
Y25860D01*
D02*
G37*
G36*
X3749D02*
X3019D01*
Y25130D01*
X3749D01*
Y25860D01*
D02*
G37*
G36*
X3876Y24247D02*
X3679Y24221D01*
X3496Y24145D01*
X3339Y24024D01*
X3218Y23867D01*
X3142Y23684D01*
X3116Y23487D01*
X3142Y23290D01*
X3218Y23107D01*
X3339Y22950D01*
X3496Y22829D01*
X3679Y22753D01*
X3876Y22728D01*
X4072Y22753D01*
X4255Y22829D01*
X4413Y22950D01*
X4533Y23107D01*
X4609Y23290D01*
X4635Y23487D01*
X4609Y23684D01*
X4533Y23867D01*
X4413Y24024D01*
X4255Y24145D01*
X4072Y24221D01*
X3876Y24247D01*
D02*
G37*
G36*
X29563Y16410D02*
X29358Y16383D01*
X29167Y16304D01*
X29003Y16178D01*
X28877Y16014D01*
X28828Y15895D01*
X28706D01*
Y16139D01*
X27506D01*
Y15039D01*
X28706D01*
Y15283D01*
X28852D01*
X28877Y15222D01*
X29003Y15059D01*
X29167Y14933D01*
X29358Y14854D01*
X29563Y14827D01*
X29768Y14854D01*
X29959Y14933D01*
X30123Y15059D01*
X30249Y15222D01*
X30328Y15413D01*
X30355Y15618D01*
X30328Y15823D01*
X30249Y16014D01*
X30123Y16178D01*
X29959Y16304D01*
X29768Y16383D01*
X29563Y16410D01*
D02*
G37*
G36*
X26971Y16227D02*
X26394D01*
Y15700D01*
X26971D01*
Y16227D01*
D02*
G37*
G36*
X26140D02*
X25563D01*
Y15700D01*
X26140D01*
Y16227D01*
D02*
G37*
G36*
X26971Y15446D02*
X26394D01*
Y14919D01*
X26971D01*
Y15446D01*
D02*
G37*
G36*
X26140D02*
X25563D01*
Y14919D01*
X26140D01*
Y15446D01*
D02*
G37*
G36*
X14231Y18042D02*
X13997Y18011D01*
X13778Y17921D01*
X13590Y17776D01*
X13445Y17588D01*
X13355Y17369D01*
X13324Y17134D01*
Y16690D01*
X12564D01*
X12447Y16667D01*
X12348Y16601D01*
X12348Y16601D01*
X6404Y10656D01*
X6404Y10656D01*
X6396Y10649D01*
X6330Y10550D01*
X6329Y10543D01*
X6278Y10468D01*
X6257Y10359D01*
Y10227D01*
X6221Y10201D01*
X6130Y10170D01*
X6056Y10219D01*
X5972Y10236D01*
X5209Y11000D01*
X5110Y11066D01*
X4993Y11089D01*
X4993Y11089D01*
X3706D01*
X3669Y11179D01*
X3543Y11343D01*
X3379Y11469D01*
X3188Y11548D01*
X2983Y11575D01*
X2778Y11548D01*
X2588Y11469D01*
X2424Y11343D01*
X2298Y11179D01*
X2219Y10988D01*
X2192Y10783D01*
X2219Y10578D01*
X2298Y10387D01*
X2424Y10223D01*
X2588Y10098D01*
X2778Y10018D01*
X2983Y9991D01*
X3188Y10018D01*
X3379Y10098D01*
X3543Y10223D01*
X3669Y10387D01*
X3706Y10477D01*
X4866D01*
X5163Y10180D01*
X5115Y10063D01*
X4889D01*
Y9263D01*
X5583D01*
Y8267D01*
X5366D01*
Y7763D01*
Y7259D01*
X5693D01*
Y7363D01*
X6250D01*
Y7223D01*
X6250Y7223D01*
X6230Y7127D01*
X4505Y5401D01*
X4256Y5153D01*
X4102Y5217D01*
X3864Y5248D01*
X3626Y5217D01*
X3404Y5125D01*
X3214Y4978D01*
X3067Y4788D01*
X2975Y4566D01*
X2944Y4328D01*
X2975Y4090D01*
X3067Y3868D01*
X3214Y3678D01*
X3404Y3531D01*
X3626Y3440D01*
X3864Y3408D01*
X4102Y3440D01*
X4324Y3531D01*
X4514Y3678D01*
X4661Y3868D01*
X4753Y4090D01*
X4784Y4328D01*
X4753Y4566D01*
X4689Y4720D01*
X4937Y4969D01*
X6748Y6780D01*
X6815Y6879D01*
X6838Y6996D01*
X6838Y6996D01*
Y7106D01*
X6815Y7223D01*
X6815Y7223D01*
Y7363D01*
X6889D01*
Y8163D01*
X6195D01*
Y9263D01*
X6889D01*
Y10063D01*
X6822D01*
Y10185D01*
X6829Y10190D01*
X6882Y10270D01*
X12691Y16079D01*
X13324D01*
Y15634D01*
X13355Y15399D01*
X13445Y15181D01*
X13590Y14993D01*
X13778Y14848D01*
X13997Y14758D01*
X14231Y14727D01*
X14466Y14758D01*
X14685Y14848D01*
X14873Y14993D01*
X15018Y15181D01*
X15108Y15399D01*
X15139Y15634D01*
Y17134D01*
X15108Y17369D01*
X15018Y17588D01*
X14873Y17776D01*
X14685Y17921D01*
X14466Y18011D01*
X14231Y18042D01*
D02*
G37*
G36*
X8232D02*
X7997Y18011D01*
X7778Y17921D01*
X7590Y17776D01*
X7445Y17588D01*
X7355Y17369D01*
X7324Y17134D01*
Y15634D01*
X7355Y15399D01*
X7445Y15181D01*
X7590Y14993D01*
X7778Y14848D01*
X7997Y14758D01*
X8232Y14727D01*
X8466Y14758D01*
X8685Y14848D01*
X8873Y14993D01*
X9018Y15181D01*
X9108Y15399D01*
X9139Y15634D01*
Y17134D01*
X9108Y17369D01*
X9018Y17588D01*
X8873Y17776D01*
X8685Y17921D01*
X8466Y18011D01*
X8232Y18042D01*
D02*
G37*
G36*
X31873Y15057D02*
X31638Y15026D01*
X31419Y14935D01*
X31231Y14791D01*
X31087Y14603D01*
X31025Y14455D01*
X29706D01*
X29706Y14455D01*
X29589Y14431D01*
X29490Y14365D01*
X28833Y13708D01*
X28706Y13760D01*
Y14739D01*
X27506D01*
Y14479D01*
X26867D01*
Y14723D01*
X25667D01*
Y13623D01*
X25690D01*
X25739Y13506D01*
X25407Y13174D01*
X25021Y13174D01*
X25021Y12946D01*
X24383D01*
X24285Y12926D01*
X24201Y12870D01*
X24145Y12787D01*
X24126Y12688D01*
Y12483D01*
X24145Y12385D01*
X24156Y12369D01*
X24096Y12255D01*
X23971Y12245D01*
X23649Y12567D01*
Y13284D01*
X22449D01*
Y13040D01*
X22044D01*
Y13284D01*
X20844D01*
Y12184D01*
X22044D01*
Y12428D01*
X22449D01*
Y12184D01*
X23166D01*
X23349Y12002D01*
X23300Y11884D01*
X22449D01*
Y10784D01*
X22506D01*
X22555Y10667D01*
X22145Y10257D01*
X21428D01*
Y9058D01*
X22528D01*
Y9775D01*
X23265Y10512D01*
X23265Y10512D01*
X23332Y10612D01*
X23355Y10729D01*
X23459Y10784D01*
X23649D01*
Y11028D01*
X23930D01*
X24020Y10939D01*
X24020Y10169D01*
X24020D01*
X24082Y10042D01*
Y9636D01*
X24786D01*
X25490D01*
Y9655D01*
X25607Y9703D01*
X26460Y8851D01*
Y8133D01*
X27660D01*
Y9233D01*
X26942D01*
X26386Y9790D01*
X26434Y9907D01*
X28273Y9907D01*
X28362Y9818D01*
Y9460D01*
X28118D01*
Y8260D01*
X28362D01*
Y7757D01*
X28122D01*
Y7589D01*
X27660D01*
Y7833D01*
X26460D01*
Y6733D01*
X27660D01*
Y6978D01*
X28122D01*
Y6557D01*
X29222D01*
Y7757D01*
X28974D01*
Y8260D01*
X29218D01*
Y9460D01*
X28974D01*
Y9787D01*
X29095Y9907D01*
X29146D01*
X29146Y9958D01*
X29463Y10276D01*
X29798D01*
X29847Y10285D01*
X29974Y10206D01*
Y9460D01*
X29518D01*
Y8260D01*
X29762D01*
Y7757D01*
X29522D01*
Y6557D01*
X30622D01*
Y7757D01*
X30374D01*
Y8260D01*
X30618D01*
Y9460D01*
X30586D01*
Y10941D01*
X30586Y10941D01*
X30563Y11058D01*
X30496Y11158D01*
X30496Y11158D01*
X30152Y11502D01*
X30151Y11503D01*
X30189Y11630D01*
X30973D01*
Y10709D01*
X31567D01*
Y9233D01*
X31060D01*
Y8133D01*
X32260D01*
Y9233D01*
X32179D01*
Y10709D01*
X32773D01*
Y12509D01*
X30973D01*
Y12242D01*
X30236D01*
X30198Y12369D01*
X30199Y12369D01*
X30349Y12520D01*
X30499Y12490D01*
X30733Y12537D01*
X30931Y12669D01*
X31064Y12868D01*
X31111Y13102D01*
X31064Y13336D01*
X30931Y13534D01*
X30733Y13667D01*
X30499Y13714D01*
X30265Y13667D01*
X30066Y13534D01*
X29934Y13336D01*
X29887Y13102D01*
X29896Y13056D01*
X29801Y12949D01*
X29789Y12946D01*
X29140D01*
X29140Y13150D01*
X29833Y13843D01*
X31025D01*
X31087Y13695D01*
X31231Y13507D01*
X31419Y13363D01*
X31638Y13272D01*
X31873Y13241D01*
X32108Y13272D01*
X32327Y13363D01*
X32515Y13507D01*
X32659Y13695D01*
X32750Y13914D01*
X32781Y14149D01*
X32750Y14384D01*
X32659Y14603D01*
X32515Y14791D01*
X32327Y14935D01*
X32108Y15026D01*
X31873Y15057D01*
D02*
G37*
G36*
X17642Y13521D02*
X17437Y13494D01*
X17246Y13415D01*
X17082Y13289D01*
X16956Y13125D01*
X16877Y12934D01*
X16850Y12729D01*
X16877Y12524D01*
X16956Y12333D01*
X17082Y12169D01*
X17246Y12044D01*
X17437Y11964D01*
X17642Y11938D01*
X17847Y11964D01*
X18038Y12044D01*
X18202Y12169D01*
X18327Y12333D01*
X18365Y12423D01*
X19240D01*
Y12184D01*
X20440D01*
Y13284D01*
X19240D01*
Y13035D01*
X18365D01*
X18327Y13125D01*
X18202Y13289D01*
X18038Y13415D01*
X17847Y13494D01*
X17642Y13521D01*
D02*
G37*
G36*
X22044Y11884D02*
X20844D01*
Y11640D01*
X20440D01*
Y11884D01*
X19240D01*
Y10784D01*
X20440D01*
Y11028D01*
X20844D01*
Y10784D01*
X22044D01*
Y11884D01*
D02*
G37*
G36*
X11982Y12592D02*
X10482D01*
X10247Y12561D01*
X10028Y12471D01*
X9840Y12326D01*
X9695Y12138D01*
X9605Y11919D01*
X9574Y11684D01*
X9605Y11449D01*
X9695Y11231D01*
X9840Y11043D01*
X10028Y10898D01*
X10247Y10808D01*
X10482Y10777D01*
X11982D01*
X12216Y10808D01*
X12435Y10898D01*
X12623Y11043D01*
X12768Y11231D01*
X12858Y11449D01*
X12889Y11684D01*
X12858Y11919D01*
X12768Y12138D01*
X12623Y12326D01*
X12435Y12471D01*
X12216Y12561D01*
X11982Y12592D01*
D02*
G37*
G36*
X21128Y10257D02*
X20028D01*
Y9963D01*
X16350D01*
X16338Y10022D01*
X16289Y10097D01*
X16214Y10146D01*
X16126Y10164D01*
X15276D01*
X15189Y10146D01*
X15114Y10097D01*
X15064Y10022D01*
X15047Y9935D01*
Y9485D01*
X15064Y9397D01*
X15114Y9322D01*
X15138Y9306D01*
Y9163D01*
X15114Y9147D01*
X15064Y9072D01*
X15047Y8985D01*
Y8535D01*
X15064Y8447D01*
X15067Y8443D01*
X15067Y8400D01*
X14972Y8291D01*
X14951D01*
Y8084D01*
X14941Y8035D01*
Y7585D01*
X14951Y7535D01*
Y7241D01*
X16473Y7241D01*
X16473Y7414D01*
X16562Y7504D01*
X16715D01*
X16715Y7037D01*
X16715Y7037D01*
X16798Y6998D01*
Y6421D01*
X17452D01*
X18106D01*
Y6998D01*
X18106D01*
Y7021D01*
X18106D01*
Y8277D01*
X18227Y8331D01*
X18302Y8272D01*
Y7125D01*
X18466D01*
Y6894D01*
X18302D01*
Y5694D01*
X19402D01*
Y6538D01*
X19519Y6586D01*
X19624Y6482D01*
X19587Y6392D01*
X19560Y6187D01*
X19587Y5982D01*
X19666Y5791D01*
X19791Y5627D01*
X19955Y5501D01*
X20146Y5422D01*
X20351Y5395D01*
X20556Y5422D01*
X20747Y5501D01*
X20911Y5627D01*
X21037Y5791D01*
X21116Y5982D01*
X21132Y6103D01*
X22204Y7175D01*
X22271Y7274D01*
X22294Y7391D01*
X22392Y7456D01*
X22538D01*
Y8656D01*
X21438D01*
Y7456D01*
X21454D01*
X21503Y7339D01*
X20911Y6747D01*
X20747Y6873D01*
X20556Y6952D01*
X20351Y6979D01*
X20146Y6952D01*
X20056Y6915D01*
X19402Y7569D01*
Y8325D01*
X19134D01*
X19117Y8350D01*
X19117Y8350D01*
X18491Y8976D01*
X18491Y8976D01*
X18432Y9016D01*
X18392Y9042D01*
X18392Y9042D01*
X18392Y9042D01*
X18353Y9050D01*
X18275Y9065D01*
X18275Y9065D01*
X16340D01*
X16338Y9072D01*
X16289Y9147D01*
X16297Y9276D01*
X16373Y9352D01*
X20028D01*
Y9058D01*
X20282D01*
Y8656D01*
X20038D01*
Y7456D01*
X21138D01*
Y8656D01*
X20894D01*
Y9058D01*
X21128D01*
Y10257D01*
D02*
G37*
G36*
X25490Y9382D02*
X24913D01*
Y8855D01*
X25490D01*
Y9382D01*
D02*
G37*
G36*
X24659D02*
X24082D01*
Y8855D01*
X24659D01*
Y9382D01*
D02*
G37*
G36*
X5112Y8267D02*
X4785D01*
Y7890D01*
X5112D01*
Y8267D01*
D02*
G37*
G36*
X32864Y8037D02*
X32659Y8010D01*
X32468Y7931D01*
X32376Y7861D01*
X32260Y7833D01*
X32260Y7833D01*
X32260Y7833D01*
X31060D01*
Y6733D01*
X32166D01*
X32283Y6712D01*
X32283Y6712D01*
X32304Y6685D01*
X32352Y6648D01*
X32352Y6648D01*
X32377Y6629D01*
X32468Y6560D01*
X32659Y6480D01*
X32864Y6453D01*
X33068Y6480D01*
X33259Y6560D01*
X33423Y6685D01*
X33549Y6849D01*
X33628Y7040D01*
X33655Y7245D01*
X33628Y7450D01*
X33549Y7641D01*
X33423Y7805D01*
X33259Y7931D01*
X33068Y8010D01*
X32864Y8037D01*
D02*
G37*
G36*
X5112Y7636D02*
X4785D01*
Y7259D01*
X5112D01*
Y7636D01*
D02*
G37*
G36*
X25386Y8659D02*
X24186D01*
Y7559D01*
X24439D01*
Y7192D01*
X24349Y7155D01*
X24185Y7029D01*
X24059Y6865D01*
X23980Y6674D01*
X23953Y6469D01*
X23980Y6264D01*
X24059Y6073D01*
X24185Y5909D01*
X24349Y5783D01*
X24540Y5704D01*
X24745Y5677D01*
X24950Y5704D01*
X25140Y5783D01*
X25304Y5909D01*
X25430Y6073D01*
X25509Y6264D01*
X25536Y6469D01*
X25509Y6674D01*
X25430Y6865D01*
X25304Y7029D01*
X25140Y7155D01*
X25050Y7192D01*
Y7559D01*
X25386D01*
Y8659D01*
D02*
G37*
G36*
X18106Y6167D02*
X17579D01*
Y5590D01*
X18106D01*
Y6167D01*
D02*
G37*
G36*
X17325D02*
X16798D01*
Y5590D01*
X17325D01*
Y6167D01*
D02*
G37*
G36*
X13526Y10164D02*
X12676D01*
X12589Y10146D01*
X12514Y10097D01*
X12464Y10022D01*
X12463Y10015D01*
X11786D01*
X11669Y9992D01*
X11570Y9926D01*
X6797Y5153D01*
X6642Y5217D01*
X6404Y5248D01*
X6166Y5217D01*
X5944Y5125D01*
X5754Y4978D01*
X5607Y4788D01*
X5515Y4566D01*
X5484Y4328D01*
X5515Y4090D01*
X5607Y3868D01*
X5754Y3678D01*
X5944Y3531D01*
X6166Y3440D01*
X6404Y3408D01*
X6642Y3440D01*
X6864Y3531D01*
X7054Y3678D01*
X7201Y3868D01*
X7293Y4090D01*
X7324Y4328D01*
X7293Y4566D01*
X7229Y4720D01*
X11913Y9404D01*
X12463D01*
X12464Y9397D01*
X12514Y9322D01*
X12538Y9306D01*
Y9163D01*
X12514Y9147D01*
X12464Y9072D01*
X12460Y9050D01*
X12419Y9042D01*
X12320Y8976D01*
X12320Y8976D01*
X8728Y5384D01*
X8728Y5384D01*
X8662Y5285D01*
X8643Y5191D01*
X8484Y5125D01*
X8294Y4978D01*
X8147Y4788D01*
X8055Y4566D01*
X8024Y4328D01*
X8055Y4090D01*
X8147Y3868D01*
X8294Y3678D01*
X8484Y3531D01*
X8706Y3440D01*
X8944Y3408D01*
X9182Y3440D01*
X9404Y3531D01*
X9594Y3678D01*
X9741Y3868D01*
X9833Y4090D01*
X9864Y4328D01*
X9833Y4566D01*
X9741Y4788D01*
X9594Y4978D01*
X9466Y5077D01*
X9444Y5235D01*
X12336Y8127D01*
X12453Y8064D01*
X12447Y8035D01*
Y7588D01*
X12440Y7581D01*
X12374Y7482D01*
X12351Y7365D01*
X12351Y7365D01*
Y4905D01*
X12224Y4862D01*
X12134Y4978D01*
X11944Y5125D01*
X11722Y5217D01*
X11484Y5248D01*
X11246Y5217D01*
X11024Y5125D01*
X10834Y4978D01*
X10687Y4788D01*
X10595Y4566D01*
X10564Y4328D01*
X10595Y4090D01*
X10687Y3868D01*
X10834Y3678D01*
X11024Y3531D01*
X11246Y3440D01*
X11484Y3408D01*
X11722Y3440D01*
X11944Y3531D01*
X12134Y3678D01*
X12224Y3794D01*
X12351Y3751D01*
Y3087D01*
X11877Y2613D01*
X11722Y2677D01*
X11484Y2708D01*
X11246Y2677D01*
X11024Y2585D01*
X10834Y2438D01*
X10687Y2248D01*
X10595Y2026D01*
X10564Y1788D01*
X10595Y1550D01*
X10687Y1328D01*
X10834Y1138D01*
X11024Y991D01*
X11246Y900D01*
X11484Y868D01*
X11722Y900D01*
X11944Y991D01*
X12134Y1138D01*
X12281Y1328D01*
X12373Y1550D01*
X12404Y1788D01*
X12373Y2026D01*
X12309Y2180D01*
X12873Y2744D01*
X12939Y2843D01*
X12962Y2960D01*
X12962Y2960D01*
Y7238D01*
X13080Y7355D01*
X13526D01*
X13614Y7373D01*
X13689Y7422D01*
X13738Y7497D01*
X13756Y7585D01*
Y8035D01*
X13738Y8122D01*
X13689Y8197D01*
X13664Y8213D01*
Y8356D01*
X13689Y8372D01*
X13738Y8447D01*
X13756Y8535D01*
Y8985D01*
X13738Y9072D01*
X13689Y9147D01*
X13664Y9163D01*
Y9306D01*
X13689Y9322D01*
X13738Y9397D01*
X13756Y9485D01*
Y9935D01*
X13738Y10022D01*
X13689Y10097D01*
X13614Y10146D01*
X13526Y10164D01*
D02*
G37*
G36*
X29264Y5248D02*
X29026Y5217D01*
X28804Y5125D01*
X28614Y4978D01*
X28467Y4788D01*
X28375Y4566D01*
X28344Y4328D01*
X28375Y4090D01*
X28467Y3868D01*
X28614Y3678D01*
X28804Y3531D01*
X29026Y3440D01*
X29264Y3408D01*
X29502Y3440D01*
X29724Y3531D01*
X29914Y3678D01*
X30061Y3868D01*
X30153Y4090D01*
X30184Y4328D01*
X30153Y4566D01*
X30061Y4788D01*
X29914Y4978D01*
X29724Y5125D01*
X29502Y5217D01*
X29264Y5248D01*
D02*
G37*
G36*
X26724D02*
X26486Y5217D01*
X26264Y5125D01*
X26074Y4978D01*
X25927Y4788D01*
X25835Y4566D01*
X25804Y4328D01*
X25835Y4090D01*
X25927Y3868D01*
X26074Y3678D01*
X26264Y3531D01*
X26486Y3440D01*
X26724Y3408D01*
X26962Y3440D01*
X27184Y3531D01*
X27374Y3678D01*
X27521Y3868D01*
X27613Y4090D01*
X27644Y4328D01*
X27613Y4566D01*
X27521Y4788D01*
X27374Y4978D01*
X27184Y5125D01*
X26962Y5217D01*
X26724Y5248D01*
D02*
G37*
G36*
X24184D02*
X23946Y5217D01*
X23724Y5125D01*
X23534Y4978D01*
X23387Y4788D01*
X23295Y4566D01*
X23264Y4328D01*
X23295Y4090D01*
X23387Y3868D01*
X23534Y3678D01*
X23724Y3531D01*
X23946Y3440D01*
X24184Y3408D01*
X24422Y3440D01*
X24644Y3531D01*
X24834Y3678D01*
X24981Y3868D01*
X25073Y4090D01*
X25104Y4328D01*
X25073Y4566D01*
X24981Y4788D01*
X24834Y4978D01*
X24644Y5125D01*
X24422Y5217D01*
X24184Y5248D01*
D02*
G37*
G36*
X21644D02*
X21406Y5217D01*
X21184Y5125D01*
X20994Y4978D01*
X20847Y4788D01*
X20755Y4566D01*
X20724Y4328D01*
X20755Y4090D01*
X20847Y3868D01*
X20994Y3678D01*
X21184Y3531D01*
X21406Y3440D01*
X21644Y3408D01*
X21882Y3440D01*
X22104Y3531D01*
X22294Y3678D01*
X22441Y3868D01*
X22533Y4090D01*
X22564Y4328D01*
X22533Y4566D01*
X22441Y4788D01*
X22294Y4978D01*
X22104Y5125D01*
X21882Y5217D01*
X21644Y5248D01*
D02*
G37*
G36*
X19104D02*
X18866Y5217D01*
X18644Y5125D01*
X18454Y4978D01*
X18307Y4788D01*
X18215Y4566D01*
X18184Y4328D01*
X18215Y4090D01*
X18307Y3868D01*
X18454Y3678D01*
X18644Y3531D01*
X18866Y3440D01*
X19104Y3408D01*
X19342Y3440D01*
X19564Y3531D01*
X19754Y3678D01*
X19901Y3868D01*
X19993Y4090D01*
X20024Y4328D01*
X19993Y4566D01*
X19901Y4788D01*
X19754Y4978D01*
X19564Y5125D01*
X19342Y5217D01*
X19104Y5248D01*
D02*
G37*
G36*
X16564D02*
X16326Y5217D01*
X16104Y5125D01*
X15914Y4978D01*
X15767Y4788D01*
X15675Y4566D01*
X15644Y4328D01*
X15675Y4090D01*
X15767Y3868D01*
X15914Y3678D01*
X16104Y3531D01*
X16326Y3440D01*
X16564Y3408D01*
X16802Y3440D01*
X17024Y3531D01*
X17214Y3678D01*
X17361Y3868D01*
X17453Y4090D01*
X17484Y4328D01*
X17453Y4566D01*
X17361Y4788D01*
X17214Y4978D01*
X17024Y5125D01*
X16802Y5217D01*
X16564Y5248D01*
D02*
G37*
G36*
X14024D02*
X13786Y5217D01*
X13564Y5125D01*
X13374Y4978D01*
X13227Y4788D01*
X13135Y4566D01*
X13104Y4328D01*
X13135Y4090D01*
X13227Y3868D01*
X13374Y3678D01*
X13564Y3531D01*
X13786Y3440D01*
X14024Y3408D01*
X14262Y3440D01*
X14484Y3531D01*
X14674Y3678D01*
X14821Y3868D01*
X14913Y4090D01*
X14944Y4328D01*
X14913Y4566D01*
X14821Y4788D01*
X14674Y4978D01*
X14484Y5125D01*
X14262Y5217D01*
X14024Y5248D01*
D02*
G37*
G36*
X29264Y2708D02*
X29026Y2677D01*
X28804Y2585D01*
X28614Y2438D01*
X28467Y2248D01*
X28375Y2026D01*
X28344Y1788D01*
X28375Y1550D01*
X28467Y1328D01*
X28614Y1138D01*
X28804Y991D01*
X29026Y900D01*
X29264Y868D01*
X29502Y900D01*
X29724Y991D01*
X29914Y1138D01*
X30061Y1328D01*
X30153Y1550D01*
X30184Y1788D01*
X30153Y2026D01*
X30061Y2248D01*
X29914Y2438D01*
X29724Y2585D01*
X29502Y2677D01*
X29264Y2708D01*
D02*
G37*
G36*
X26724D02*
X26486Y2677D01*
X26264Y2585D01*
X26074Y2438D01*
X25927Y2248D01*
X25835Y2026D01*
X25804Y1788D01*
X25835Y1550D01*
X25927Y1328D01*
X26074Y1138D01*
X26264Y991D01*
X26486Y900D01*
X26724Y868D01*
X26962Y900D01*
X27184Y991D01*
X27374Y1138D01*
X27521Y1328D01*
X27613Y1550D01*
X27644Y1788D01*
X27613Y2026D01*
X27521Y2248D01*
X27374Y2438D01*
X27184Y2585D01*
X26962Y2677D01*
X26724Y2708D01*
D02*
G37*
G36*
X24184D02*
X23946Y2677D01*
X23724Y2585D01*
X23534Y2438D01*
X23387Y2248D01*
X23295Y2026D01*
X23264Y1788D01*
X23295Y1550D01*
X23387Y1328D01*
X23534Y1138D01*
X23724Y991D01*
X23946Y900D01*
X24184Y868D01*
X24422Y900D01*
X24644Y991D01*
X24834Y1138D01*
X24981Y1328D01*
X25073Y1550D01*
X25104Y1788D01*
X25073Y2026D01*
X24981Y2248D01*
X24834Y2438D01*
X24644Y2585D01*
X24422Y2677D01*
X24184Y2708D01*
D02*
G37*
G36*
X21644D02*
X21406Y2677D01*
X21184Y2585D01*
X20994Y2438D01*
X20847Y2248D01*
X20755Y2026D01*
X20724Y1788D01*
X20755Y1550D01*
X20847Y1328D01*
X20994Y1138D01*
X21184Y991D01*
X21406Y900D01*
X21644Y868D01*
X21882Y900D01*
X22104Y991D01*
X22294Y1138D01*
X22441Y1328D01*
X22533Y1550D01*
X22564Y1788D01*
X22533Y2026D01*
X22441Y2248D01*
X22294Y2438D01*
X22104Y2585D01*
X21882Y2677D01*
X21644Y2708D01*
D02*
G37*
G36*
X19104D02*
X18866Y2677D01*
X18644Y2585D01*
X18454Y2438D01*
X18307Y2248D01*
X18215Y2026D01*
X18184Y1788D01*
X18215Y1550D01*
X18307Y1328D01*
X18454Y1138D01*
X18644Y991D01*
X18866Y900D01*
X19104Y868D01*
X19342Y900D01*
X19564Y991D01*
X19754Y1138D01*
X19901Y1328D01*
X19993Y1550D01*
X20024Y1788D01*
X19993Y2026D01*
X19901Y2248D01*
X19754Y2438D01*
X19564Y2585D01*
X19342Y2677D01*
X19104Y2708D01*
D02*
G37*
G36*
X16564D02*
X16326Y2677D01*
X16104Y2585D01*
X15914Y2438D01*
X15767Y2248D01*
X15675Y2026D01*
X15644Y1788D01*
X15675Y1550D01*
X15767Y1328D01*
X15914Y1138D01*
X16104Y991D01*
X16326Y900D01*
X16564Y868D01*
X16802Y900D01*
X17024Y991D01*
X17214Y1138D01*
X17361Y1328D01*
X17453Y1550D01*
X17484Y1788D01*
X17453Y2026D01*
X17361Y2248D01*
X17214Y2438D01*
X17024Y2585D01*
X16802Y2677D01*
X16564Y2708D01*
D02*
G37*
G36*
X14024D02*
X13786Y2677D01*
X13564Y2585D01*
X13374Y2438D01*
X13227Y2248D01*
X13135Y2026D01*
X13104Y1788D01*
X13135Y1550D01*
X13227Y1328D01*
X13374Y1138D01*
X13564Y991D01*
X13786Y900D01*
X14024Y868D01*
X14262Y900D01*
X14484Y991D01*
X14674Y1138D01*
X14821Y1328D01*
X14913Y1550D01*
X14944Y1788D01*
X14913Y2026D01*
X14821Y2248D01*
X14674Y2438D01*
X14484Y2585D01*
X14262Y2677D01*
X14024Y2708D01*
D02*
G37*
G36*
X8944D02*
X8706Y2677D01*
X8484Y2585D01*
X8294Y2438D01*
X8147Y2248D01*
X8055Y2026D01*
X8024Y1788D01*
X8055Y1550D01*
X8147Y1328D01*
X8294Y1138D01*
X8484Y991D01*
X8706Y900D01*
X8944Y868D01*
X9182Y900D01*
X9404Y991D01*
X9594Y1138D01*
X9741Y1328D01*
X9833Y1550D01*
X9864Y1788D01*
X9833Y2026D01*
X9741Y2248D01*
X9594Y2438D01*
X9404Y2585D01*
X9182Y2677D01*
X8944Y2708D01*
D02*
G37*
G36*
X6404D02*
X6166Y2677D01*
X5944Y2585D01*
X5754Y2438D01*
X5607Y2248D01*
X5515Y2026D01*
X5484Y1788D01*
X5515Y1550D01*
X5607Y1328D01*
X5754Y1138D01*
X5944Y991D01*
X6166Y900D01*
X6404Y868D01*
X6642Y900D01*
X6864Y991D01*
X7054Y1138D01*
X7201Y1328D01*
X7293Y1550D01*
X7324Y1788D01*
X7293Y2026D01*
X7201Y2248D01*
X7054Y2438D01*
X6864Y2585D01*
X6642Y2677D01*
X6404Y2708D01*
D02*
G37*
G36*
X3864D02*
X3626Y2677D01*
X3404Y2585D01*
X3214Y2438D01*
X3067Y2248D01*
X2975Y2026D01*
X2944Y1788D01*
X2975Y1550D01*
X3067Y1328D01*
X3214Y1138D01*
X3404Y991D01*
X3626Y900D01*
X3864Y868D01*
X4102Y900D01*
X4324Y991D01*
X4514Y1138D01*
X4661Y1328D01*
X4753Y1550D01*
X4784Y1788D01*
X4753Y2026D01*
X4661Y2248D01*
X4514Y2438D01*
X4324Y2585D01*
X4102Y2677D01*
X3864Y2708D01*
D02*
G37*
%LPD*%
G36*
X27939Y12505D02*
X27939Y10757D01*
X26191Y10757D01*
X26191Y12505D01*
X27939Y12505D01*
D02*
G37*
D11*
X6539Y9663D02*
Y10359D01*
X6532Y6996D02*
Y7755D01*
D23*
X5239Y7763D02*
D03*
X5889D02*
D03*
X6539D02*
D03*
Y9663D02*
D03*
X5889D02*
D03*
X5239D02*
D03*
D24*
X35077Y39219D02*
D03*
X37777D02*
D03*
D25*
X29496Y39124D02*
D03*
X26796D02*
D03*
D26*
X32354Y39735D02*
D03*
X31404Y42035D02*
D03*
X33304D02*
D03*
X24218Y39735D02*
D03*
X23268Y42035D02*
D03*
X25168D02*
D03*
D27*
X24772Y45687D02*
D03*
Y47087D02*
D03*
X30680Y45687D02*
D03*
Y47087D02*
D03*
X23049Y11334D02*
D03*
Y12734D02*
D03*
X31660Y7283D02*
D03*
Y8683D02*
D03*
X6415Y44807D02*
D03*
Y43407D02*
D03*
X4734D02*
D03*
Y44807D02*
D03*
X19840Y12734D02*
D03*
Y11334D02*
D03*
X27060Y8683D02*
D03*
Y7283D02*
D03*
X24786Y9509D02*
D03*
Y8109D02*
D03*
X21444Y11334D02*
D03*
Y12734D02*
D03*
X26267Y15573D02*
D03*
Y14173D02*
D03*
X28106Y14189D02*
D03*
Y15589D02*
D03*
D28*
X28617Y43802D02*
D03*
X27217D02*
D03*
X34777D02*
D03*
X33377D02*
D03*
X21988Y8056D02*
D03*
X20588D02*
D03*
X28672Y7157D02*
D03*
X30072D02*
D03*
X28668Y8860D02*
D03*
X30068D02*
D03*
X20225Y35135D02*
D03*
X18825D02*
D03*
X20225Y37966D02*
D03*
X18825D02*
D03*
X20225Y36551D02*
D03*
X18825D02*
D03*
X3748Y29724D02*
D03*
X2348D02*
D03*
X21978Y9658D02*
D03*
X20578D02*
D03*
X18852Y7725D02*
D03*
X17452D02*
D03*
X18852Y6294D02*
D03*
X17452D02*
D03*
D29*
X32575Y45507D02*
D03*
X33525D02*
D03*
X34475D02*
D03*
Y47907D02*
D03*
X33525D02*
D03*
X32575D02*
D03*
X26760Y45507D02*
D03*
X27710D02*
D03*
X28660D02*
D03*
Y47907D02*
D03*
X27710D02*
D03*
X26760D02*
D03*
D30*
X29839Y29040D02*
D03*
X32639D02*
D03*
D31*
X31239D02*
D03*
D32*
X13101Y8760D02*
D03*
Y9710D02*
D03*
X15701Y7810D02*
D03*
Y8760D02*
D03*
Y9710D02*
D03*
X13101Y7810D02*
D03*
D33*
X2360Y46710D02*
D03*
Y42510D02*
D03*
D34*
X13550Y26732D02*
D03*
D35*
X10140Y36132D02*
D03*
X16960D02*
D03*
X15255D02*
D03*
X13550D02*
D03*
X11845D02*
D03*
D36*
X24791Y10636D02*
D03*
Y11286D02*
D03*
Y11936D02*
D03*
Y12586D02*
D03*
X29391D02*
D03*
Y11936D02*
D03*
Y11286D02*
D03*
Y10636D02*
D03*
D63*
X6613Y10407D02*
Y10433D01*
X6620Y10440D01*
X12564Y16384D01*
X13032D01*
X14231D01*
X18861Y7716D02*
X18901Y7756D01*
X18852Y7707D02*
X18861Y7716D01*
X18772Y6094D02*
Y7627D01*
X5889Y9713D02*
X5939D01*
X4993Y10783D02*
X5839Y9937D01*
X2983Y10783D02*
X4993D01*
X5839Y9763D02*
Y9937D01*
Y9763D02*
X5889Y9713D01*
X8944Y4328D02*
Y5168D01*
X12657Y2960D02*
Y7365D01*
X11484Y1788D02*
X12657Y2960D01*
Y7365D02*
X13101Y7810D01*
X5889Y7763D02*
Y9663D01*
X6532Y6996D02*
Y7106D01*
X4721Y5185D02*
X6532Y6996D01*
X3864Y4328D02*
X4721Y5185D01*
X5939Y9713D02*
Y9937D01*
X5889Y9663D02*
X5939Y9713D01*
X24791Y12586D02*
X25285D01*
X24791D02*
X25251D01*
X17189Y7810D02*
X17372Y7627D01*
Y6094D02*
Y7627D01*
X35929Y47907D02*
X35995Y47973D01*
X34475Y47907D02*
X35929D01*
X33525D02*
X34475D01*
X30680Y48423D02*
X30838Y48581D01*
X30163Y47907D02*
X30680Y48423D01*
X28660Y47907D02*
X30163D01*
X27710D02*
X28660D01*
X30680Y47087D02*
Y48423D01*
X31404Y42035D02*
Y43269D01*
X31210Y43463D02*
X31404Y43269D01*
X23155Y42149D02*
X23268Y42035D01*
X21738Y42149D02*
X23155D01*
X22758Y47130D02*
X24729D01*
X28552Y50048D02*
X29264D01*
X26760Y47907D02*
Y48256D01*
X28552Y50048D01*
X32395Y45687D02*
X32575Y45507D01*
X30680Y45687D02*
X32395D01*
X26580D02*
X26760Y45507D01*
X24772Y45687D02*
X26580D01*
X30068Y7161D02*
Y8860D01*
Y7161D02*
X30072Y7157D01*
X30068Y8860D02*
X30280Y9072D01*
X21444Y11334D02*
X21499D01*
X21508Y11325D01*
X21444Y12734D02*
X23049D01*
X21508Y11325D02*
X21518Y11334D01*
X15255Y36132D02*
Y37453D01*
X17013Y39175D02*
X17616D01*
X910Y29735D02*
X1106D01*
X898Y29724D02*
X910Y29735D01*
X16960Y36132D02*
X17378Y36551D01*
X11845Y36132D02*
Y37497D01*
X3748Y29724D02*
X3876Y29596D01*
X4734Y44807D02*
Y45081D01*
X21988Y7391D02*
Y8056D01*
X20784Y6187D02*
X21988Y7391D01*
X20351Y6187D02*
X20784D01*
X20578Y9658D02*
X20588Y9647D01*
Y8056D02*
Y9647D01*
X23049Y10729D02*
Y11334D01*
X21978Y9658D02*
X23049Y10729D01*
X15701Y9710D02*
X15753Y9658D01*
X20578D01*
X18772Y7627D02*
X18852Y7707D01*
Y7725D01*
Y7686D02*
Y7707D01*
Y7686D02*
X20351Y6187D01*
X19836Y12729D02*
X19840Y12725D01*
X24745Y8067D02*
X24786Y8109D01*
X24745Y6469D02*
Y8067D01*
X18901Y7756D02*
Y8133D01*
X18275Y8760D02*
X18901Y8133D01*
X29983Y12586D02*
X30499Y13102D01*
X29533Y15589D02*
X29563Y15618D01*
X28106Y15589D02*
X29533D01*
X32825Y7283D02*
X32864Y7245D01*
X31660Y7283D02*
X32825D01*
X29391Y12586D02*
X29983D01*
X15701Y8760D02*
X18275D01*
X15701Y7810D02*
X17189D01*
X12536Y8760D02*
X13101D01*
X8944Y5168D02*
X12536Y8760D01*
X6404Y4328D02*
X11786Y9710D01*
X13101D01*
X23848Y11936D02*
X24791D01*
X23049Y12734D02*
X23848Y11936D01*
X24742Y11334D02*
X24791Y11286D01*
X23049Y11334D02*
X24742D01*
X24786Y9509D02*
X24791Y9513D01*
Y10636D01*
X31660Y8683D02*
X31873Y8896D01*
Y11609D01*
X28668Y7161D02*
X28672Y7157D01*
X28546Y7283D02*
X28668Y7161D01*
X27060Y7283D02*
X28546D01*
X28668Y7161D02*
Y8860D01*
Y9913D02*
X29391Y10636D01*
X28668Y8860D02*
Y9913D01*
X30280Y9072D02*
Y10941D01*
X29936Y11286D02*
X30280Y10941D01*
X29391Y11286D02*
X29936D01*
X31546Y11936D02*
X31873Y11609D01*
X29391Y11936D02*
X31546D01*
X26267Y13602D02*
Y14173D01*
X25251Y12586D02*
X26267Y13602D01*
X28090Y14173D02*
X28106Y14189D01*
X26267Y14173D02*
X28090D01*
X29706Y14149D02*
X31873D01*
X28681Y11286D02*
X29391D01*
X28428Y11538D02*
X28681Y11286D01*
X28428Y11538D02*
Y12870D01*
X29706Y14149D01*
X25689Y10054D02*
X27060Y8683D01*
X25689Y10054D02*
Y12181D01*
X25285Y12586D02*
X25689Y12181D01*
X17642Y12729D02*
X19836D01*
X19840Y11334D02*
X21444D01*
X20225Y37966D02*
Y38296D01*
X10140Y35270D02*
Y36132D01*
D64*
X898Y29724D02*
X2348D01*
X33865Y32078D02*
X37777Y35989D01*
X33865Y30266D02*
Y32078D01*
X32639Y29040D02*
X33865Y30266D01*
X37777Y35989D02*
Y39219D01*
X29496Y36452D02*
X33868Y32080D01*
X32870Y39219D02*
X35077D01*
X32354Y39735D02*
X32870Y39219D01*
X29496Y36452D02*
Y39124D01*
X24830D02*
X26796D01*
X24218Y39735D02*
X24830Y39124D01*
X32575Y47907D02*
Y49277D01*
X29264Y52588D02*
X32575Y49277D01*
X34777Y43509D02*
Y43802D01*
X33304Y42035D02*
X34777Y43509D01*
X34475Y44105D02*
X34777Y43802D01*
X34475Y44105D02*
Y45507D01*
X33377Y43802D02*
X33525Y43950D01*
Y45507D01*
X27217Y43802D02*
X27710Y44296D01*
Y45507D01*
X28617Y45464D02*
X28660Y45507D01*
X28617Y43802D02*
Y45464D01*
X26849Y42035D02*
X28617Y43802D01*
X25168Y42035D02*
X26849D01*
X12704Y40004D02*
X15255Y37453D01*
X9818Y40004D02*
X12704D01*
X17616Y39175D02*
X18825Y37966D01*
Y33341D02*
X20572Y31594D01*
X18825Y33341D02*
Y35135D01*
X17378Y36551D02*
X18825D01*
X13550Y26732D02*
Y36132D01*
X20225Y35135D02*
Y36551D01*
X3876Y25987D02*
Y29596D01*
X8715Y44807D02*
X9800Y43721D01*
X6415Y44807D02*
X8715D01*
X5828Y46175D02*
X12347D01*
X4734Y45081D02*
X5828Y46175D01*
X12347D02*
X14800Y43721D01*
X6415Y43407D02*
X9818Y40004D01*
X4734Y43407D02*
X6415D01*
X4264Y44807D02*
X4734D01*
X2360Y46710D02*
X4264Y44807D01*
X29601Y29040D02*
X29839D01*
X20225Y37966D02*
X20676D01*
X14800Y43721D02*
X20225Y38296D01*
X20676Y37966D02*
X29601Y29040D01*
X3748Y29724D02*
X4594D01*
X10140Y35270D01*
X4481Y38023D02*
X4932Y38474D01*
X10868D01*
X11845Y37497D01*
X2360Y39886D02*
Y42510D01*
Y39886D02*
X4224Y38023D01*
X4481D01*
X3748Y32209D02*
X4481Y32943D01*
X3748Y29724D02*
Y32209D01*
D65*
X3864Y4328D02*
D03*
X29264D02*
D03*
X26724D02*
D03*
X24184D02*
D03*
X21644D02*
D03*
X19104D02*
D03*
X16564D02*
D03*
X14024D02*
D03*
X11484D02*
D03*
X8944D02*
D03*
X6404D02*
D03*
X1324D02*
D03*
X29264Y1788D02*
D03*
X26724D02*
D03*
X24184D02*
D03*
X21644D02*
D03*
X19104D02*
D03*
X16564D02*
D03*
X14024D02*
D03*
X11484D02*
D03*
X8944D02*
D03*
X6404D02*
D03*
X3864D02*
D03*
X1324D02*
D03*
X29264Y52588D02*
D03*
X26724D02*
D03*
X24184D02*
D03*
X21644D02*
D03*
X19104D02*
D03*
X16564D02*
D03*
X14024D02*
D03*
X11484D02*
D03*
X8944D02*
D03*
X6404D02*
D03*
X3864D02*
D03*
X1324D02*
D03*
X29264Y50048D02*
D03*
X26724D02*
D03*
X24184D02*
D03*
X21644D02*
D03*
X19104D02*
D03*
X16564D02*
D03*
X14024D02*
D03*
X11484D02*
D03*
X8944D02*
D03*
X6404D02*
D03*
X3864D02*
D03*
X1324D02*
D03*
D66*
X3876Y25987D02*
D03*
X4481Y32943D02*
D03*
D67*
X3876Y23487D02*
D03*
X4481Y38023D02*
D03*
D68*
X9800Y43721D02*
D03*
D69*
X14800D02*
D03*
D70*
X8232Y16384D02*
D03*
X14231D02*
D03*
D71*
X11232Y11684D02*
D03*
D72*
X31873Y14149D02*
D03*
D73*
Y11609D02*
D03*
D74*
X2983Y10783D02*
D03*
X22758Y47130D02*
D03*
X30838Y48581D02*
D03*
X35995Y47973D02*
D03*
X31210Y43463D02*
D03*
X21738Y42149D02*
D03*
X17013Y39175D02*
D03*
X1106Y29735D02*
D03*
X20572Y31594D02*
D03*
X13550Y26732D02*
D03*
X17642Y12729D02*
D03*
X20351Y6187D02*
D03*
X24745Y6469D02*
D03*
X27059Y11627D02*
D03*
X29563Y15618D02*
D03*
X32864Y7245D02*
D03*
D75*
X30499Y13102D02*
D03*
D76*
X31244Y27910D02*
D03*
X31239Y29064D02*
D03*
Y30209D02*
D03*
M02*
