M48
;Layer_Color=9474304
;FILE_FORMAT=4:3
METRIC,LZ
;TYPE=PLATED
T1F00S00C0.500
T2F00S00C0.711
T3F00S00C0.800
T4F00S00C0.900
T5F00S00C1.000
T6F00S00C1.016
%
T01
X0030499Y0013102
X0031244Y002791
X0031239Y0029064
Y0030209
T02
X0002983Y0010783
X0017642Y0012729
X0020351Y0006187
X0024745Y0006469
X0027059Y0011627
X0032864Y0007245
X0001106Y0029735
X001355Y0026732
X0020572Y0031594
X0017013Y0039175
X0021738Y0042149
X0022758Y004713
X0030838Y0048581
X003121Y0043463
X0035995Y0047973
X0029563Y0015618
T03
X0003876Y0023487
Y0025987
X0004481Y0032943
Y0038023
T04
X0031873Y0011609
Y0014149
X00148Y0043721
X00098
T05
X0011232Y0011684
X0008232Y0016384
X0014231
T06
X0003864Y0001788
Y0004328
X0006404
X0008944
X0011484
X0014024
X0016564
X0019104
X0021644
X0024184
X0026724
X0029264
Y0001788
X0026724
X0024184
X0021644
X0019104
X0016564
X0014024
X0011484
X0008944
X0006404
X0001324
Y0004328
Y0050048
Y0052588
X0003864
X0006404
X0008944
X0011484
X0014024
X0016564
X0019104
X0021644
X0024184
X0026724
X0029264
Y0050048
X0026724
X0024184
X0021644
X0019104
X0016564
X0014024
X0011484
X0008944
X0006404
X0003864
M30
