G04*
G04 #@! TF.GenerationSoftware,Altium Limited,Altium Designer,19.1.9 (167)*
G04*
G04 Layer_Color=32768*
%FSLAX43Y43*%
%MOMM*%
G71*
G01*
G75*
%ADD17C,0.100*%
%ADD19C,0.050*%
%ADD78C,0.076*%
%ADD79C,0.102*%
%ADD80C,0.500*%
%ADD81C,0.508*%
D17*
X5889Y8213D02*
Y9213D01*
X5389Y8713D02*
X6389D01*
X36427Y38719D02*
Y39719D01*
X35927Y39219D02*
X36927D01*
X34427Y40169D02*
X38427D01*
X34427Y38269D02*
X38427D01*
X34427D02*
Y40169D01*
X38427Y38269D02*
Y40169D01*
X30146Y37724D02*
Y40524D01*
X26146Y37724D02*
Y40524D01*
Y37724D02*
X30146D01*
X26146Y40524D02*
X30146D01*
X27646Y39124D02*
X28646D01*
X28146Y38624D02*
Y39624D01*
X24222Y45187D02*
X25322D01*
X24222Y47587D02*
X25322D01*
X24222Y45187D02*
Y47587D01*
X25322Y45187D02*
Y47587D01*
X24772Y45912D02*
Y46862D01*
X24297Y46387D02*
X25247D01*
X29117Y43252D02*
Y44352D01*
X26717Y43252D02*
Y44352D01*
Y43252D02*
X29117D01*
X26717Y44352D02*
X29117D01*
X27442Y43802D02*
X28392D01*
X27917Y43327D02*
Y44277D01*
X31725Y44707D02*
X35325D01*
X31725Y48707D02*
X35325D01*
X31725Y44707D02*
Y48707D01*
X35325Y44707D02*
Y48707D01*
X33525Y46207D02*
Y47207D01*
X33025Y46707D02*
X34025D01*
X25910Y44707D02*
X29510D01*
X25910Y48707D02*
X29510D01*
X25910Y44707D02*
Y48707D01*
X29510Y44707D02*
Y48707D01*
X27710Y46207D02*
Y47207D01*
X27210Y46707D02*
X28210D01*
X30130Y45187D02*
X31230D01*
X30130Y47587D02*
X31230D01*
X30130Y45187D02*
Y47587D01*
X31230Y45187D02*
Y47587D01*
X30680Y45912D02*
Y46862D01*
X30205Y46387D02*
X31155D01*
X35277Y43252D02*
Y44352D01*
X32877Y43252D02*
Y44352D01*
Y43252D02*
X35277D01*
X32877Y44352D02*
X35277D01*
X33602Y43802D02*
X34552D01*
X34077Y43327D02*
Y44277D01*
X21288Y7581D02*
Y8531D01*
X20813Y8056D02*
X21763D01*
X20088Y7506D02*
X22488D01*
X20088Y8606D02*
X22488D01*
Y7506D02*
Y8606D01*
X20088Y7506D02*
Y8606D01*
X22499Y10834D02*
X23599D01*
X22499Y13234D02*
X23599D01*
X22499Y10834D02*
Y13234D01*
X23599Y10834D02*
Y13234D01*
X23049Y11559D02*
Y12509D01*
X22574Y12034D02*
X23524D01*
X31110Y6783D02*
X32210D01*
X31110Y9183D02*
X32210D01*
X31110Y6783D02*
Y9183D01*
X32210Y6783D02*
Y9183D01*
X31660Y7508D02*
Y8458D01*
X31185Y7983D02*
X32135D01*
X29372Y6682D02*
Y7632D01*
X28897Y7157D02*
X29847D01*
X28172Y7707D02*
X30572D01*
X28172Y6607D02*
X30572D01*
X28172D02*
Y7707D01*
X30572Y6607D02*
Y7707D01*
X29368Y8385D02*
Y9335D01*
X28893Y8860D02*
X29843D01*
X28168Y9410D02*
X30568D01*
X28168Y8310D02*
X30568D01*
X28168D02*
Y9410D01*
X30568Y8310D02*
Y9410D01*
X20725Y34585D02*
Y35685D01*
X18325Y34585D02*
Y35685D01*
Y34585D02*
X20725D01*
X18325Y35685D02*
X20725D01*
X19050Y35135D02*
X20000D01*
X19525Y34660D02*
Y35610D01*
X20725Y37416D02*
Y38516D01*
X18325Y37416D02*
Y38516D01*
Y37416D02*
X20725D01*
X18325Y38516D02*
X20725D01*
X19050Y37966D02*
X20000D01*
X19525Y37491D02*
Y38441D01*
X5865Y45307D02*
X6965D01*
X5865Y42907D02*
X6965D01*
Y45307D01*
X5865Y42907D02*
Y45307D01*
X6415Y43632D02*
Y44582D01*
X5940Y44107D02*
X6890D01*
X4184Y42907D02*
X5284D01*
X4184Y45307D02*
X5284D01*
X4184Y42907D02*
Y45307D01*
X5284Y42907D02*
Y45307D01*
X4734Y43632D02*
Y44582D01*
X4259Y44107D02*
X5209D01*
X20725Y36001D02*
Y37101D01*
X18325Y36001D02*
Y37101D01*
Y36001D02*
X20725D01*
X18325Y37101D02*
X20725D01*
X19050Y36551D02*
X20000D01*
X19525Y36076D02*
Y37026D01*
X4248Y29174D02*
Y30274D01*
X1848Y29174D02*
Y30274D01*
Y29174D02*
X4248D01*
X1848Y30274D02*
X4248D01*
X2573Y29724D02*
X3523D01*
X3048Y29249D02*
Y30199D01*
X19290Y13234D02*
X20390D01*
X19290Y10834D02*
X20390D01*
Y13234D01*
X19290Y10834D02*
Y13234D01*
X19840Y11559D02*
Y12509D01*
X19365Y12034D02*
X20315D01*
X26585Y7983D02*
X27535D01*
X27060Y7508D02*
Y8458D01*
X27610Y6783D02*
Y9183D01*
X26510Y6783D02*
Y9183D01*
X27610D01*
X26510Y6783D02*
X27610D01*
X24311Y8809D02*
X25261D01*
X24786Y8334D02*
Y9284D01*
X25336Y7609D02*
Y10009D01*
X24236Y7609D02*
Y10009D01*
X25336D01*
X24236Y7609D02*
X25336D01*
X21278Y9183D02*
Y10133D01*
X20803Y9658D02*
X21753D01*
X20078Y9107D02*
X22478D01*
X20078Y10208D02*
X22478D01*
Y9107D02*
Y10208D01*
X20078Y9107D02*
Y10208D01*
X18152Y7250D02*
Y8200D01*
X17677Y7725D02*
X18627D01*
X16952Y7175D02*
X19352D01*
X16952Y8275D02*
X19352D01*
Y7175D02*
Y8275D01*
X16952Y7175D02*
Y8275D01*
X18152Y5819D02*
Y6769D01*
X17677Y6294D02*
X18627D01*
X16952Y5744D02*
X19352D01*
X16952Y6844D02*
X19352D01*
Y5744D02*
Y6844D01*
X16952Y5744D02*
Y6844D01*
X20969Y12034D02*
X21919D01*
X21444Y11559D02*
Y12509D01*
X20894Y10834D02*
Y13234D01*
X21994Y10834D02*
Y13234D01*
X20894Y10834D02*
X21994D01*
X20894Y13234D02*
X21994D01*
X25792Y14873D02*
X26742D01*
X26267Y14398D02*
Y15348D01*
X26817Y13673D02*
Y16073D01*
X25717Y13673D02*
Y16073D01*
X26817D01*
X25717Y13673D02*
X26817D01*
X27631Y14889D02*
X28581D01*
X28106Y14414D02*
Y15364D01*
X27556Y13689D02*
Y16089D01*
X28656Y13689D02*
Y16089D01*
X27556Y13689D02*
X28656D01*
X27556Y16089D02*
X28656D01*
D19*
X4689Y7413D02*
X7089D01*
X4689Y10013D02*
X7089D01*
X4689Y7413D02*
Y10013D01*
X7089Y7413D02*
Y10013D01*
D78*
X30604Y38985D02*
X34104D01*
X30604D02*
Y42785D01*
X34104D01*
Y38985D02*
Y42785D01*
X22468Y38985D02*
X25968D01*
X22468D02*
Y42785D01*
X25968D01*
Y38985D02*
Y42785D01*
X12369Y7109D02*
Y10411D01*
X16433D01*
Y7109D02*
Y10411D01*
X12369Y7109D02*
X16433D01*
X7250Y19482D02*
X20050D01*
X7250D02*
Y37982D01*
X20050D01*
Y19482D02*
Y37982D01*
D79*
X26791Y11611D02*
X27391D01*
X27091Y11311D02*
Y11911D01*
X24091Y9911D02*
X30091D01*
X24091D02*
Y13311D01*
X30091D01*
Y9911D02*
Y13311D01*
D80*
X32354Y40885D02*
D03*
X24218D02*
D03*
X14401Y8760D02*
D03*
X13550Y29982D02*
D03*
D81*
X2360Y44610D02*
D03*
M02*
