G04*
G04 #@! TF.GenerationSoftware,Altium Limited,Altium Designer,19.1.9 (167)*
G04*
G04 Layer_Color=255*
%FSLAX43Y43*%
%MOMM*%
G71*
G01*
G75*
%ADD23R,0.400X0.500*%
%ADD24R,1.100X1.700*%
%ADD25R,1.100X2.600*%
G04:AMPARAMS|DCode=26|XSize=0.6mm|YSize=1mm|CornerRadius=0.075mm|HoleSize=0mm|Usage=FLASHONLY|Rotation=180.000|XOffset=0mm|YOffset=0mm|HoleType=Round|Shape=RoundedRectangle|*
%AMROUNDEDRECTD26*
21,1,0.600,0.850,0,0,180.0*
21,1,0.450,1.000,0,0,180.0*
1,1,0.150,-0.225,0.425*
1,1,0.150,0.225,0.425*
1,1,0.150,0.225,-0.425*
1,1,0.150,-0.225,-0.425*
%
%ADD26ROUNDEDRECTD26*%
%ADD27R,0.900X0.800*%
%ADD28R,0.800X0.900*%
%ADD29R,0.650X1.100*%
%ADD30R,0.500X3.300*%
%ADD31R,1.300X3.300*%
G04:AMPARAMS|DCode=32|XSize=0.6mm|YSize=1mm|CornerRadius=0.075mm|HoleSize=0mm|Usage=FLASHONLY|Rotation=270.000|XOffset=0mm|YOffset=0mm|HoleType=Round|Shape=RoundedRectangle|*
%AMROUNDEDRECTD32*
21,1,0.600,0.850,0,0,270.0*
21,1,0.450,1.000,0,0,270.0*
1,1,0.150,-0.425,-0.225*
1,1,0.150,-0.425,0.225*
1,1,0.150,0.425,0.225*
1,1,0.150,0.425,-0.225*
%
%ADD32ROUNDEDRECTD32*%
G04:AMPARAMS|DCode=33|XSize=2.2mm|YSize=1.5mm|CornerRadius=0.188mm|HoleSize=0mm|Usage=FLASHONLY|Rotation=90.000|XOffset=0mm|YOffset=0mm|HoleType=Round|Shape=RoundedRectangle|*
%AMROUNDEDRECTD33*
21,1,2.200,1.125,0,0,90.0*
21,1,1.825,1.500,0,0,90.0*
1,1,0.375,0.563,0.913*
1,1,0.375,0.563,-0.913*
1,1,0.375,-0.563,-0.913*
1,1,0.375,-0.563,0.913*
%
%ADD33ROUNDEDRECTD33*%
G04:AMPARAMS|DCode=34|XSize=10.5mm|YSize=10.5mm|CornerRadius=1.313mm|HoleSize=0mm|Usage=FLASHONLY|Rotation=90.000|XOffset=0mm|YOffset=0mm|HoleType=Round|Shape=RoundedRectangle|*
%AMROUNDEDRECTD34*
21,1,10.500,7.875,0,0,90.0*
21,1,7.875,10.500,0,0,90.0*
1,1,2.625,3.938,3.938*
1,1,2.625,3.938,-3.938*
1,1,2.625,-3.938,-3.938*
1,1,2.625,-3.938,3.938*
%
%ADD34ROUNDEDRECTD34*%
G04:AMPARAMS|DCode=35|XSize=2.95mm|YSize=1.05mm|CornerRadius=0.131mm|HoleSize=0mm|Usage=FLASHONLY|Rotation=90.000|XOffset=0mm|YOffset=0mm|HoleType=Round|Shape=RoundedRectangle|*
%AMROUNDEDRECTD35*
21,1,2.950,0.788,0,0,90.0*
21,1,2.688,1.050,0,0,90.0*
1,1,0.263,0.394,1.344*
1,1,0.263,0.394,-1.344*
1,1,0.263,-0.394,-1.344*
1,1,0.263,-0.394,1.344*
%
%ADD35ROUNDEDRECTD35*%
G04:AMPARAMS|DCode=36|XSize=0.41mm|YSize=1.02mm|CornerRadius=0.103mm|HoleSize=0mm|Usage=FLASHONLY|Rotation=90.000|XOffset=0mm|YOffset=0mm|HoleType=Round|Shape=RoundedRectangle|*
%AMROUNDEDRECTD36*
21,1,0.410,0.815,0,0,90.0*
21,1,0.205,1.020,0,0,90.0*
1,1,0.205,0.407,0.103*
1,1,0.205,0.407,-0.103*
1,1,0.205,-0.407,-0.103*
1,1,0.205,-0.407,0.103*
%
%ADD36ROUNDEDRECTD36*%
%ADD65C,1.524*%
%ADD66R,1.206X1.206*%
%ADD67C,1.206*%
%ADD68C,1.400*%
%ADD69R,1.400X1.400*%
%ADD70O,1.500X3.000*%
%ADD71O,3.000X1.500*%
%ADD72C,1.500*%
%ADD73R,1.500X1.500*%
D23*
X5239Y7763D02*
D03*
X5889D02*
D03*
X6539D02*
D03*
Y9663D02*
D03*
X5889D02*
D03*
X5239D02*
D03*
D24*
X35077Y39219D02*
D03*
X37777D02*
D03*
D25*
X29496Y39124D02*
D03*
X26796D02*
D03*
D26*
X32354Y39735D02*
D03*
X31404Y42035D02*
D03*
X33304D02*
D03*
X24218Y39735D02*
D03*
X23268Y42035D02*
D03*
X25168D02*
D03*
D27*
X24772Y45687D02*
D03*
Y47087D02*
D03*
X30680Y45687D02*
D03*
Y47087D02*
D03*
X23049Y11334D02*
D03*
Y12734D02*
D03*
X31660Y7283D02*
D03*
Y8683D02*
D03*
X6415Y44807D02*
D03*
Y43407D02*
D03*
X4734D02*
D03*
Y44807D02*
D03*
X19840Y12734D02*
D03*
Y11334D02*
D03*
X27060Y8683D02*
D03*
Y7283D02*
D03*
X24786Y9509D02*
D03*
Y8109D02*
D03*
X21444Y11334D02*
D03*
Y12734D02*
D03*
X26267Y15573D02*
D03*
Y14173D02*
D03*
X28106Y14189D02*
D03*
Y15589D02*
D03*
D28*
X28617Y43802D02*
D03*
X27217D02*
D03*
X34777D02*
D03*
X33377D02*
D03*
X21988Y8056D02*
D03*
X20588D02*
D03*
X28672Y7157D02*
D03*
X30072D02*
D03*
X28668Y8860D02*
D03*
X30068D02*
D03*
X20225Y35135D02*
D03*
X18825D02*
D03*
X20225Y37966D02*
D03*
X18825D02*
D03*
X20225Y36551D02*
D03*
X18825D02*
D03*
X3748Y29724D02*
D03*
X2348D02*
D03*
X21978Y9658D02*
D03*
X20578D02*
D03*
X18852Y7725D02*
D03*
X17452D02*
D03*
X18852Y6294D02*
D03*
X17452D02*
D03*
D29*
X32575Y45507D02*
D03*
X33525D02*
D03*
X34475D02*
D03*
Y47907D02*
D03*
X33525D02*
D03*
X32575D02*
D03*
X26760Y45507D02*
D03*
X27710D02*
D03*
X28660D02*
D03*
Y47907D02*
D03*
X27710D02*
D03*
X26760D02*
D03*
D30*
X29839Y29040D02*
D03*
X32639D02*
D03*
D31*
X31239D02*
D03*
D32*
X13101Y8760D02*
D03*
Y9710D02*
D03*
X15701Y7810D02*
D03*
Y8760D02*
D03*
Y9710D02*
D03*
X13101Y7810D02*
D03*
D33*
X2360Y46710D02*
D03*
Y42510D02*
D03*
D34*
X13550Y26732D02*
D03*
D35*
X10140Y36132D02*
D03*
X16960D02*
D03*
X15255D02*
D03*
X13550D02*
D03*
X11845D02*
D03*
D36*
X24791Y10636D02*
D03*
Y11286D02*
D03*
Y11936D02*
D03*
Y12586D02*
D03*
X29391D02*
D03*
Y11936D02*
D03*
Y11286D02*
D03*
Y10636D02*
D03*
D65*
X3864Y4328D02*
D03*
X29264D02*
D03*
X26724D02*
D03*
X24184D02*
D03*
X21644D02*
D03*
X19104D02*
D03*
X16564D02*
D03*
X14024D02*
D03*
X11484D02*
D03*
X8944D02*
D03*
X6404D02*
D03*
X1324D02*
D03*
X29264Y1788D02*
D03*
X26724D02*
D03*
X24184D02*
D03*
X21644D02*
D03*
X19104D02*
D03*
X16564D02*
D03*
X14024D02*
D03*
X11484D02*
D03*
X8944D02*
D03*
X6404D02*
D03*
X3864D02*
D03*
X1324D02*
D03*
X29264Y52588D02*
D03*
X26724D02*
D03*
X24184D02*
D03*
X21644D02*
D03*
X19104D02*
D03*
X16564D02*
D03*
X14024D02*
D03*
X11484D02*
D03*
X8944D02*
D03*
X6404D02*
D03*
X3864D02*
D03*
X1324D02*
D03*
X29264Y50048D02*
D03*
X26724D02*
D03*
X24184D02*
D03*
X21644D02*
D03*
X19104D02*
D03*
X16564D02*
D03*
X14024D02*
D03*
X11484D02*
D03*
X8944D02*
D03*
X6404D02*
D03*
X3864D02*
D03*
X1324D02*
D03*
D66*
X3876Y25987D02*
D03*
X4481Y32943D02*
D03*
D67*
X3876Y23487D02*
D03*
X4481Y38023D02*
D03*
D68*
X9800Y43721D02*
D03*
D69*
X14800D02*
D03*
D70*
X8232Y16384D02*
D03*
X14231D02*
D03*
D71*
X11232Y11684D02*
D03*
D72*
X31873Y14149D02*
D03*
D73*
Y11609D02*
D03*
M02*
