G04*
G04 #@! TF.GenerationSoftware,Altium Limited,Altium Designer,19.1.9 (167)*
G04*
G04 Layer_Color=8388736*
%FSLAX43Y43*%
%MOMM*%
G71*
G01*
G75*
%ADD37R,0.603X0.703*%
%ADD38R,1.303X1.903*%
%ADD39R,1.303X2.803*%
G04:AMPARAMS|DCode=40|XSize=0.803mm|YSize=1.203mm|CornerRadius=0.177mm|HoleSize=0mm|Usage=FLASHONLY|Rotation=180.000|XOffset=0mm|YOffset=0mm|HoleType=Round|Shape=RoundedRectangle|*
%AMROUNDEDRECTD40*
21,1,0.803,0.850,0,0,180.0*
21,1,0.450,1.203,0,0,180.0*
1,1,0.353,-0.225,0.425*
1,1,0.353,0.225,0.425*
1,1,0.353,0.225,-0.425*
1,1,0.353,-0.225,-0.425*
%
%ADD40ROUNDEDRECTD40*%
%ADD41R,1.103X1.003*%
%ADD42R,1.003X1.103*%
%ADD43R,0.853X1.303*%
%ADD44R,0.703X3.503*%
%ADD45R,1.503X3.503*%
G04:AMPARAMS|DCode=46|XSize=0.803mm|YSize=1.203mm|CornerRadius=0.177mm|HoleSize=0mm|Usage=FLASHONLY|Rotation=270.000|XOffset=0mm|YOffset=0mm|HoleType=Round|Shape=RoundedRectangle|*
%AMROUNDEDRECTD46*
21,1,0.803,0.850,0,0,270.0*
21,1,0.450,1.203,0,0,270.0*
1,1,0.353,-0.425,-0.225*
1,1,0.353,-0.425,0.225*
1,1,0.353,0.425,0.225*
1,1,0.353,0.425,-0.225*
%
%ADD46ROUNDEDRECTD46*%
G04:AMPARAMS|DCode=47|XSize=2.403mm|YSize=1.703mm|CornerRadius=0.289mm|HoleSize=0mm|Usage=FLASHONLY|Rotation=90.000|XOffset=0mm|YOffset=0mm|HoleType=Round|Shape=RoundedRectangle|*
%AMROUNDEDRECTD47*
21,1,2.403,1.125,0,0,90.0*
21,1,1.825,1.703,0,0,90.0*
1,1,0.578,0.563,0.913*
1,1,0.578,0.563,-0.913*
1,1,0.578,-0.563,-0.913*
1,1,0.578,-0.563,0.913*
%
%ADD47ROUNDEDRECTD47*%
G04:AMPARAMS|DCode=48|XSize=10.703mm|YSize=10.703mm|CornerRadius=1.414mm|HoleSize=0mm|Usage=FLASHONLY|Rotation=90.000|XOffset=0mm|YOffset=0mm|HoleType=Round|Shape=RoundedRectangle|*
%AMROUNDEDRECTD48*
21,1,10.703,7.875,0,0,90.0*
21,1,7.875,10.703,0,0,90.0*
1,1,2.828,3.938,3.938*
1,1,2.828,3.938,-3.938*
1,1,2.828,-3.938,-3.938*
1,1,2.828,-3.938,3.938*
%
%ADD48ROUNDEDRECTD48*%
G04:AMPARAMS|DCode=49|XSize=3.153mm|YSize=1.253mm|CornerRadius=0.233mm|HoleSize=0mm|Usage=FLASHONLY|Rotation=90.000|XOffset=0mm|YOffset=0mm|HoleType=Round|Shape=RoundedRectangle|*
%AMROUNDEDRECTD49*
21,1,3.153,0.788,0,0,90.0*
21,1,2.688,1.253,0,0,90.0*
1,1,0.466,0.394,1.344*
1,1,0.466,0.394,-1.344*
1,1,0.466,-0.394,-1.344*
1,1,0.466,-0.394,1.344*
%
%ADD49ROUNDEDRECTD49*%
G04:AMPARAMS|DCode=50|XSize=0.613mm|YSize=1.223mm|CornerRadius=0.204mm|HoleSize=0mm|Usage=FLASHONLY|Rotation=90.000|XOffset=0mm|YOffset=0mm|HoleType=Round|Shape=RoundedRectangle|*
%AMROUNDEDRECTD50*
21,1,0.613,0.815,0,0,90.0*
21,1,0.205,1.223,0,0,90.0*
1,1,0.408,0.407,0.103*
1,1,0.408,0.407,-0.103*
1,1,0.408,-0.407,-0.103*
1,1,0.408,-0.407,0.103*
%
%ADD50ROUNDEDRECTD50*%
%ADD51C,1.727*%
%ADD52R,1.409X1.409*%
%ADD53C,1.409*%
%ADD54C,1.603*%
%ADD55R,1.603X1.603*%
%ADD56O,1.703X3.203*%
%ADD57O,3.203X1.703*%
%ADD58C,1.703*%
%ADD59R,1.703X1.703*%
%ADD60C,1.473*%
%ADD61C,1.103*%
%ADD62C,1.203*%
G36*
X27939Y12607D02*
X27952Y12606D01*
X27965Y12603D01*
X27978Y12599D01*
X27990Y12593D01*
X28001Y12586D01*
X28011Y12577D01*
X28019Y12567D01*
X28027Y12556D01*
X28033Y12544D01*
X28037Y12531D01*
X28040Y12518D01*
X28040Y12505D01*
X28040Y10757D01*
X28040Y10744D01*
X28037Y10731D01*
X28033Y10718D01*
X28027Y10706D01*
X28019Y10695D01*
X28011Y10685D01*
X28001Y10676D01*
X27990Y10669D01*
X27978Y10663D01*
X27965Y10659D01*
X27952Y10656D01*
X27939Y10655D01*
X26191Y10655D01*
X26178Y10656D01*
X26165Y10659D01*
X26152Y10663D01*
X26140Y10669D01*
X26129Y10676D01*
X26119Y10685D01*
X26110Y10695D01*
X26103Y10706D01*
X26097Y10718D01*
X26093Y10731D01*
X26090Y10744D01*
X26089Y10757D01*
X26089Y12505D01*
X26090Y12518D01*
X26093Y12531D01*
X26097Y12544D01*
X26103Y12556D01*
X26110Y12567D01*
X26119Y12577D01*
X26129Y12586D01*
X26140Y12593D01*
X26152Y12599D01*
X26165Y12603D01*
X26178Y12606D01*
X26191Y12607D01*
X27939Y12607D01*
D02*
G37*
D37*
X5239Y7763D02*
D03*
X5889D02*
D03*
X6539D02*
D03*
Y9663D02*
D03*
X5889D02*
D03*
X5239D02*
D03*
D38*
X35077Y39219D02*
D03*
X37777D02*
D03*
D39*
X29496Y39124D02*
D03*
X26796D02*
D03*
D40*
X32354Y39735D02*
D03*
X31404Y42035D02*
D03*
X33304D02*
D03*
X24218Y39735D02*
D03*
X23268Y42035D02*
D03*
X25168D02*
D03*
D41*
X24772Y45687D02*
D03*
Y47087D02*
D03*
X30680Y45687D02*
D03*
Y47087D02*
D03*
X23049Y11334D02*
D03*
Y12734D02*
D03*
X31660Y7283D02*
D03*
Y8683D02*
D03*
X6415Y44807D02*
D03*
Y43407D02*
D03*
X4734D02*
D03*
Y44807D02*
D03*
X19840Y12734D02*
D03*
Y11334D02*
D03*
X27060Y8683D02*
D03*
Y7283D02*
D03*
X24786Y9509D02*
D03*
Y8109D02*
D03*
X21444Y11334D02*
D03*
Y12734D02*
D03*
X26267Y15573D02*
D03*
Y14173D02*
D03*
X28106Y14189D02*
D03*
Y15589D02*
D03*
D42*
X28617Y43802D02*
D03*
X27217D02*
D03*
X34777D02*
D03*
X33377D02*
D03*
X21988Y8056D02*
D03*
X20588D02*
D03*
X28672Y7157D02*
D03*
X30072D02*
D03*
X28668Y8860D02*
D03*
X30068D02*
D03*
X20225Y35135D02*
D03*
X18825D02*
D03*
X20225Y37966D02*
D03*
X18825D02*
D03*
X20225Y36551D02*
D03*
X18825D02*
D03*
X3748Y29724D02*
D03*
X2348D02*
D03*
X21978Y9658D02*
D03*
X20578D02*
D03*
X18852Y7725D02*
D03*
X17452D02*
D03*
X18852Y6294D02*
D03*
X17452D02*
D03*
D43*
X32575Y45507D02*
D03*
X33525D02*
D03*
X34475D02*
D03*
Y47907D02*
D03*
X33525D02*
D03*
X32575D02*
D03*
X26760Y45507D02*
D03*
X27710D02*
D03*
X28660D02*
D03*
Y47907D02*
D03*
X27710D02*
D03*
X26760D02*
D03*
D44*
X29839Y29040D02*
D03*
X32639D02*
D03*
D45*
X31239D02*
D03*
D46*
X13101Y8760D02*
D03*
Y9710D02*
D03*
X15701Y7810D02*
D03*
Y8760D02*
D03*
Y9710D02*
D03*
X13101Y7810D02*
D03*
D47*
X2360Y46710D02*
D03*
Y42510D02*
D03*
D48*
X13550Y26732D02*
D03*
D49*
X10140Y36132D02*
D03*
X16960D02*
D03*
X15255D02*
D03*
X13550D02*
D03*
X11845D02*
D03*
D50*
X24791Y10636D02*
D03*
Y11286D02*
D03*
Y11936D02*
D03*
Y12586D02*
D03*
X29391D02*
D03*
Y11936D02*
D03*
Y11286D02*
D03*
Y10636D02*
D03*
D51*
X3864Y4328D02*
D03*
X29264D02*
D03*
X26724D02*
D03*
X24184D02*
D03*
X21644D02*
D03*
X19104D02*
D03*
X16564D02*
D03*
X14024D02*
D03*
X11484D02*
D03*
X8944D02*
D03*
X6404D02*
D03*
X1324D02*
D03*
X29264Y1788D02*
D03*
X26724D02*
D03*
X24184D02*
D03*
X21644D02*
D03*
X19104D02*
D03*
X16564D02*
D03*
X14024D02*
D03*
X11484D02*
D03*
X8944D02*
D03*
X6404D02*
D03*
X3864D02*
D03*
X1324D02*
D03*
X29264Y52588D02*
D03*
X26724D02*
D03*
X24184D02*
D03*
X21644D02*
D03*
X19104D02*
D03*
X16564D02*
D03*
X14024D02*
D03*
X11484D02*
D03*
X8944D02*
D03*
X6404D02*
D03*
X3864D02*
D03*
X1324D02*
D03*
X29264Y50048D02*
D03*
X26724D02*
D03*
X24184D02*
D03*
X21644D02*
D03*
X19104D02*
D03*
X16564D02*
D03*
X14024D02*
D03*
X11484D02*
D03*
X8944D02*
D03*
X6404D02*
D03*
X3864D02*
D03*
X1324D02*
D03*
D52*
X3876Y25987D02*
D03*
X4481Y32943D02*
D03*
D53*
X3876Y23487D02*
D03*
X4481Y38023D02*
D03*
D54*
X9800Y43721D02*
D03*
D55*
X14800D02*
D03*
D56*
X8232Y16384D02*
D03*
X14231D02*
D03*
D57*
X11232Y11684D02*
D03*
D58*
X31873Y14149D02*
D03*
D59*
Y11609D02*
D03*
D60*
X2983Y10783D02*
D03*
X22758Y47130D02*
D03*
X30838Y48581D02*
D03*
X35995Y47973D02*
D03*
X31210Y43463D02*
D03*
X21738Y42149D02*
D03*
X17013Y39175D02*
D03*
X1106Y29735D02*
D03*
X20572Y31594D02*
D03*
X13550Y26732D02*
D03*
X17642Y12729D02*
D03*
X20351Y6187D02*
D03*
X24745Y6469D02*
D03*
X27059Y11627D02*
D03*
X29563Y15618D02*
D03*
X32864Y7245D02*
D03*
D61*
X30499Y13102D02*
D03*
D62*
X31244Y27910D02*
D03*
X31239Y29064D02*
D03*
Y30209D02*
D03*
M02*
