G04*
G04 #@! TF.GenerationSoftware,Altium Limited,Altium Designer,19.1.9 (167)*
G04*
G04 Layer_Physical_Order=2*
G04 Layer_Color=16711680*
%FSLAX44Y44*%
%MOMM*%
G71*
G01*
G75*
%ADD65C,1.5240*%
%ADD66R,1.2060X1.2060*%
%ADD67C,1.2060*%
%ADD68C,1.4000*%
%ADD69R,1.4000X1.4000*%
%ADD70O,1.5000X3.0000*%
%ADD71O,3.0000X1.5000*%
%ADD72C,1.5000*%
%ADD73R,1.5000X1.5000*%
%ADD74C,1.2700*%
%ADD75C,0.9000*%
%ADD76C,1.0000*%
G36*
X349192Y545498D02*
X355311Y544281D01*
X361282Y542470D01*
X367046Y540082D01*
X372548Y537141D01*
X377736Y533675D01*
X382559Y529717D01*
X386970Y525305D01*
X390929Y520482D01*
X394395Y515294D01*
X397336Y509792D01*
X399724Y504028D01*
X401535Y498057D01*
X402752Y491938D01*
X403363Y485729D01*
Y482609D01*
Y196637D01*
X402547Y195706D01*
X401299D01*
X400029Y195706D01*
X182977Y195706D01*
X182977Y186816D01*
X182976Y185600D01*
X182976D01*
X182976Y185546D01*
X184224Y185546D01*
X184247Y185546D01*
X185494Y185546D01*
X402093Y185546D01*
X403363Y184615D01*
Y65041D01*
Y60378D01*
X402752Y54169D01*
X401535Y48050D01*
X399724Y42080D01*
X397336Y36316D01*
X394395Y30813D01*
X390929Y25626D01*
X386970Y20803D01*
X382559Y16391D01*
X377736Y12433D01*
X372548Y8967D01*
X367046Y6026D01*
X361282Y3638D01*
X355311Y1827D01*
X349192Y610D01*
X342983Y-2D01*
X2089D01*
Y546072D01*
X339202Y546110D01*
X342983D01*
X349192Y545498D01*
D02*
G37*
%LPC*%
G36*
X292640Y535079D02*
X290259Y534766D01*
X288041Y533847D01*
X286135Y532385D01*
X284674Y530480D01*
X283755Y528261D01*
X283441Y525880D01*
X283755Y523499D01*
X284674Y521281D01*
X286135Y519376D01*
X288041Y517914D01*
X290259Y516995D01*
X292640Y516682D01*
X295021Y516995D01*
X297239Y517914D01*
X299144Y519376D01*
X300606Y521281D01*
X301525Y523499D01*
X301838Y525880D01*
X301525Y528261D01*
X300606Y530480D01*
X299144Y532385D01*
X297239Y533847D01*
X295021Y534766D01*
X292640Y535079D01*
D02*
G37*
G36*
X267240D02*
X264859Y534766D01*
X262640Y533847D01*
X260735Y532385D01*
X259273Y530480D01*
X258355Y528261D01*
X258041Y525880D01*
X258355Y523499D01*
X259273Y521281D01*
X260735Y519376D01*
X262640Y517914D01*
X264859Y516995D01*
X267240Y516682D01*
X269621Y516995D01*
X271839Y517914D01*
X273744Y519376D01*
X275206Y521281D01*
X276125Y523499D01*
X276439Y525880D01*
X276125Y528261D01*
X275206Y530480D01*
X273744Y532385D01*
X271839Y533847D01*
X269621Y534766D01*
X267240Y535079D01*
D02*
G37*
G36*
X241840D02*
X239459Y534766D01*
X237241Y533847D01*
X235335Y532385D01*
X233874Y530480D01*
X232955Y528261D01*
X232641Y525880D01*
X232955Y523499D01*
X233874Y521281D01*
X235335Y519376D01*
X237241Y517914D01*
X239459Y516995D01*
X241840Y516682D01*
X244221Y516995D01*
X246439Y517914D01*
X248344Y519376D01*
X249806Y521281D01*
X250725Y523499D01*
X251038Y525880D01*
X250725Y528261D01*
X249806Y530480D01*
X248344Y532385D01*
X246439Y533847D01*
X244221Y534766D01*
X241840Y535079D01*
D02*
G37*
G36*
X216440D02*
X214059Y534766D01*
X211840Y533847D01*
X209935Y532385D01*
X208473Y530480D01*
X207555Y528261D01*
X207241Y525880D01*
X207555Y523499D01*
X208473Y521281D01*
X209935Y519376D01*
X211840Y517914D01*
X214059Y516995D01*
X216440Y516682D01*
X218821Y516995D01*
X221039Y517914D01*
X222944Y519376D01*
X224406Y521281D01*
X225325Y523499D01*
X225639Y525880D01*
X225325Y528261D01*
X224406Y530480D01*
X222944Y532385D01*
X221039Y533847D01*
X218821Y534766D01*
X216440Y535079D01*
D02*
G37*
G36*
X191040D02*
X188659Y534766D01*
X186441Y533847D01*
X184535Y532385D01*
X183074Y530480D01*
X182155Y528261D01*
X181841Y525880D01*
X182155Y523499D01*
X183074Y521281D01*
X184535Y519376D01*
X186441Y517914D01*
X188659Y516995D01*
X191040Y516682D01*
X193421Y516995D01*
X195639Y517914D01*
X197544Y519376D01*
X199006Y521281D01*
X199925Y523499D01*
X200238Y525880D01*
X199925Y528261D01*
X199006Y530480D01*
X197544Y532385D01*
X195639Y533847D01*
X193421Y534766D01*
X191040Y535079D01*
D02*
G37*
G36*
X165640D02*
X163259Y534766D01*
X161040Y533847D01*
X159135Y532385D01*
X157674Y530480D01*
X156755Y528261D01*
X156441Y525880D01*
X156755Y523499D01*
X157674Y521281D01*
X159135Y519376D01*
X161040Y517914D01*
X163259Y516995D01*
X165640Y516682D01*
X168021Y516995D01*
X170239Y517914D01*
X172144Y519376D01*
X173606Y521281D01*
X174525Y523499D01*
X174839Y525880D01*
X174525Y528261D01*
X173606Y530480D01*
X172144Y532385D01*
X170239Y533847D01*
X168021Y534766D01*
X165640Y535079D01*
D02*
G37*
G36*
X140240D02*
X137859Y534766D01*
X135640Y533847D01*
X133735Y532385D01*
X132274Y530480D01*
X131355Y528261D01*
X131041Y525880D01*
X131355Y523499D01*
X132274Y521281D01*
X133735Y519376D01*
X135640Y517914D01*
X137859Y516995D01*
X140240Y516682D01*
X142621Y516995D01*
X144839Y517914D01*
X146744Y519376D01*
X148206Y521281D01*
X149125Y523499D01*
X149438Y525880D01*
X149125Y528261D01*
X148206Y530480D01*
X146744Y532385D01*
X144839Y533847D01*
X142621Y534766D01*
X140240Y535079D01*
D02*
G37*
G36*
X114840D02*
X112459Y534766D01*
X110240Y533847D01*
X108335Y532385D01*
X106874Y530480D01*
X105955Y528261D01*
X105641Y525880D01*
X105955Y523499D01*
X106874Y521281D01*
X108335Y519376D01*
X110240Y517914D01*
X112459Y516995D01*
X114840Y516682D01*
X117221Y516995D01*
X119439Y517914D01*
X121344Y519376D01*
X122806Y521281D01*
X123725Y523499D01*
X124038Y525880D01*
X123725Y528261D01*
X122806Y530480D01*
X121344Y532385D01*
X119439Y533847D01*
X117221Y534766D01*
X114840Y535079D01*
D02*
G37*
G36*
X89440D02*
X87059Y534766D01*
X84840Y533847D01*
X82935Y532385D01*
X81474Y530480D01*
X80555Y528261D01*
X80241Y525880D01*
X80555Y523499D01*
X81474Y521281D01*
X82935Y519376D01*
X84840Y517914D01*
X87059Y516995D01*
X89440Y516682D01*
X91821Y516995D01*
X94039Y517914D01*
X95944Y519376D01*
X97406Y521281D01*
X98325Y523499D01*
X98638Y525880D01*
X98325Y528261D01*
X97406Y530480D01*
X95944Y532385D01*
X94039Y533847D01*
X91821Y534766D01*
X89440Y535079D01*
D02*
G37*
G36*
X64040D02*
X61659Y534766D01*
X59440Y533847D01*
X57535Y532385D01*
X56073Y530480D01*
X55155Y528261D01*
X54841Y525880D01*
X55155Y523499D01*
X56073Y521281D01*
X57535Y519376D01*
X59440Y517914D01*
X61659Y516995D01*
X64040Y516682D01*
X66421Y516995D01*
X68639Y517914D01*
X70544Y519376D01*
X72006Y521281D01*
X72925Y523499D01*
X73239Y525880D01*
X72925Y528261D01*
X72006Y530480D01*
X70544Y532385D01*
X68639Y533847D01*
X66421Y534766D01*
X64040Y535079D01*
D02*
G37*
G36*
X38640D02*
X36259Y534766D01*
X34041Y533847D01*
X32135Y532385D01*
X30673Y530480D01*
X29755Y528261D01*
X29441Y525880D01*
X29755Y523499D01*
X30673Y521281D01*
X32135Y519376D01*
X34041Y517914D01*
X36259Y516995D01*
X38640Y516682D01*
X41021Y516995D01*
X43239Y517914D01*
X45144Y519376D01*
X46606Y521281D01*
X47525Y523499D01*
X47839Y525880D01*
X47525Y528261D01*
X46606Y530480D01*
X45144Y532385D01*
X43239Y533847D01*
X41021Y534766D01*
X38640Y535079D01*
D02*
G37*
G36*
X13240D02*
X10859Y534766D01*
X8640Y533847D01*
X6735Y532385D01*
X5274Y530480D01*
X4355Y528261D01*
X4041Y525880D01*
X4355Y523499D01*
X5274Y521281D01*
X6735Y519376D01*
X8640Y517914D01*
X10859Y516995D01*
X13240Y516682D01*
X15621Y516995D01*
X17839Y517914D01*
X19744Y519376D01*
X21206Y521281D01*
X22125Y523499D01*
X22438Y525880D01*
X22125Y528261D01*
X21206Y530480D01*
X19744Y532385D01*
X17839Y533847D01*
X15621Y534766D01*
X13240Y535079D01*
D02*
G37*
G36*
X292640Y509679D02*
X290259Y509366D01*
X288041Y508447D01*
X286135Y506985D01*
X284674Y505080D01*
X283755Y502861D01*
X283441Y500480D01*
X283755Y498100D01*
X284674Y495881D01*
X286135Y493976D01*
X288041Y492514D01*
X290259Y491595D01*
X292640Y491282D01*
X295021Y491595D01*
X297239Y492514D01*
X299144Y493976D01*
X300606Y495881D01*
X301525Y498100D01*
X301838Y500480D01*
X301525Y502861D01*
X300606Y505080D01*
X299144Y506985D01*
X297239Y508447D01*
X295021Y509366D01*
X292640Y509679D01*
D02*
G37*
G36*
X267240D02*
X264859Y509366D01*
X262640Y508447D01*
X260735Y506985D01*
X259273Y505080D01*
X258355Y502861D01*
X258041Y500480D01*
X258355Y498100D01*
X259273Y495881D01*
X260735Y493976D01*
X262640Y492514D01*
X264859Y491595D01*
X267240Y491282D01*
X269621Y491595D01*
X271839Y492514D01*
X273744Y493976D01*
X275206Y495881D01*
X276125Y498100D01*
X276439Y500480D01*
X276125Y502861D01*
X275206Y505080D01*
X273744Y506985D01*
X271839Y508447D01*
X269621Y509366D01*
X267240Y509679D01*
D02*
G37*
G36*
X241840D02*
X239459Y509366D01*
X237241Y508447D01*
X235335Y506985D01*
X233874Y505080D01*
X232955Y502861D01*
X232641Y500480D01*
X232955Y498100D01*
X233874Y495881D01*
X235335Y493976D01*
X237241Y492514D01*
X239459Y491595D01*
X241840Y491282D01*
X244221Y491595D01*
X246439Y492514D01*
X248344Y493976D01*
X249806Y495881D01*
X250725Y498100D01*
X251038Y500480D01*
X250725Y502861D01*
X249806Y505080D01*
X248344Y506985D01*
X246439Y508447D01*
X244221Y509366D01*
X241840Y509679D01*
D02*
G37*
G36*
X216440D02*
X214059Y509366D01*
X211840Y508447D01*
X209935Y506985D01*
X208473Y505080D01*
X207555Y502861D01*
X207241Y500480D01*
X207555Y498100D01*
X208473Y495881D01*
X209935Y493976D01*
X211840Y492514D01*
X214059Y491595D01*
X216440Y491282D01*
X218821Y491595D01*
X221039Y492514D01*
X222944Y493976D01*
X224406Y495881D01*
X225325Y498100D01*
X225639Y500480D01*
X225325Y502861D01*
X224406Y505080D01*
X222944Y506985D01*
X221039Y508447D01*
X218821Y509366D01*
X216440Y509679D01*
D02*
G37*
G36*
X191040D02*
X188659Y509366D01*
X186441Y508447D01*
X184535Y506985D01*
X183074Y505080D01*
X182155Y502861D01*
X181841Y500480D01*
X182155Y498100D01*
X183074Y495881D01*
X184535Y493976D01*
X186441Y492514D01*
X188659Y491595D01*
X191040Y491282D01*
X193421Y491595D01*
X195639Y492514D01*
X197544Y493976D01*
X199006Y495881D01*
X199925Y498100D01*
X200238Y500480D01*
X199925Y502861D01*
X199006Y505080D01*
X197544Y506985D01*
X195639Y508447D01*
X193421Y509366D01*
X191040Y509679D01*
D02*
G37*
G36*
X165640D02*
X163259Y509366D01*
X161040Y508447D01*
X159135Y506985D01*
X157674Y505080D01*
X156755Y502861D01*
X156441Y500480D01*
X156755Y498100D01*
X157674Y495881D01*
X159135Y493976D01*
X161040Y492514D01*
X163259Y491595D01*
X165640Y491282D01*
X168021Y491595D01*
X170239Y492514D01*
X172144Y493976D01*
X173606Y495881D01*
X174525Y498100D01*
X174839Y500480D01*
X174525Y502861D01*
X173606Y505080D01*
X172144Y506985D01*
X170239Y508447D01*
X168021Y509366D01*
X165640Y509679D01*
D02*
G37*
G36*
X140240D02*
X137859Y509366D01*
X135640Y508447D01*
X133735Y506985D01*
X132274Y505080D01*
X131355Y502861D01*
X131041Y500480D01*
X131355Y498100D01*
X132274Y495881D01*
X133735Y493976D01*
X135640Y492514D01*
X137859Y491595D01*
X140240Y491282D01*
X142621Y491595D01*
X144839Y492514D01*
X146744Y493976D01*
X148206Y495881D01*
X149125Y498100D01*
X149438Y500480D01*
X149125Y502861D01*
X148206Y505080D01*
X146744Y506985D01*
X144839Y508447D01*
X142621Y509366D01*
X140240Y509679D01*
D02*
G37*
G36*
X114840D02*
X112459Y509366D01*
X110240Y508447D01*
X108335Y506985D01*
X106874Y505080D01*
X105955Y502861D01*
X105641Y500480D01*
X105955Y498100D01*
X106874Y495881D01*
X108335Y493976D01*
X110240Y492514D01*
X112459Y491595D01*
X114840Y491282D01*
X117221Y491595D01*
X119439Y492514D01*
X121344Y493976D01*
X122806Y495881D01*
X123725Y498100D01*
X124038Y500480D01*
X123725Y502861D01*
X122806Y505080D01*
X121344Y506985D01*
X119439Y508447D01*
X117221Y509366D01*
X114840Y509679D01*
D02*
G37*
G36*
X89440D02*
X87059Y509366D01*
X84840Y508447D01*
X82935Y506985D01*
X81474Y505080D01*
X80555Y502861D01*
X80241Y500480D01*
X80555Y498100D01*
X81474Y495881D01*
X82935Y493976D01*
X84840Y492514D01*
X87059Y491595D01*
X89440Y491282D01*
X91821Y491595D01*
X94039Y492514D01*
X95944Y493976D01*
X97406Y495881D01*
X98325Y498100D01*
X98638Y500480D01*
X98325Y502861D01*
X97406Y505080D01*
X95944Y506985D01*
X94039Y508447D01*
X91821Y509366D01*
X89440Y509679D01*
D02*
G37*
G36*
X64040D02*
X61659Y509366D01*
X59440Y508447D01*
X57535Y506985D01*
X56073Y505080D01*
X55155Y502861D01*
X54841Y500480D01*
X55155Y498100D01*
X56073Y495881D01*
X57535Y493976D01*
X59440Y492514D01*
X61659Y491595D01*
X64040Y491282D01*
X66421Y491595D01*
X68639Y492514D01*
X70544Y493976D01*
X72006Y495881D01*
X72925Y498100D01*
X73239Y500480D01*
X72925Y502861D01*
X72006Y505080D01*
X70544Y506985D01*
X68639Y508447D01*
X66421Y509366D01*
X64040Y509679D01*
D02*
G37*
G36*
X38640D02*
X36259Y509366D01*
X34041Y508447D01*
X32135Y506985D01*
X30673Y505080D01*
X29755Y502861D01*
X29441Y500480D01*
X29755Y498100D01*
X30673Y495881D01*
X32135Y493976D01*
X34041Y492514D01*
X36259Y491595D01*
X38640Y491282D01*
X41021Y491595D01*
X43239Y492514D01*
X45144Y493976D01*
X46606Y495881D01*
X47525Y498100D01*
X47839Y500480D01*
X47525Y502861D01*
X46606Y505080D01*
X45144Y506985D01*
X43239Y508447D01*
X41021Y509366D01*
X38640Y509679D01*
D02*
G37*
G36*
X13240D02*
X10859Y509366D01*
X8640Y508447D01*
X6735Y506985D01*
X5274Y505080D01*
X4355Y502861D01*
X4041Y500480D01*
X4355Y498100D01*
X5274Y495881D01*
X6735Y493976D01*
X8640Y492514D01*
X10859Y491595D01*
X13240Y491282D01*
X15621Y491595D01*
X17839Y492514D01*
X19744Y493976D01*
X21206Y495881D01*
X22125Y498100D01*
X22438Y500480D01*
X22125Y502861D01*
X21206Y505080D01*
X19744Y506985D01*
X17839Y508447D01*
X15621Y509366D01*
X13240Y509679D01*
D02*
G37*
G36*
X99272Y446666D02*
Y438482D01*
X107458D01*
X107297Y439702D01*
X106336Y442023D01*
X104807Y444015D01*
X102814Y445545D01*
X100493Y446506D01*
X99272Y446666D01*
D02*
G37*
G36*
X96733Y446666D02*
X95512Y446506D01*
X93191Y445545D01*
X91199Y444015D01*
X89670Y442023D01*
X88708Y439702D01*
X88548Y438482D01*
X96733D01*
Y446666D01*
D02*
G37*
G36*
X156503Y445711D02*
X139503D01*
Y428711D01*
X156503D01*
Y445711D01*
D02*
G37*
G36*
X96733Y435942D02*
X88547D01*
X88708Y434721D01*
X89670Y432400D01*
X91199Y430407D01*
X93191Y428878D01*
X95512Y427917D01*
X96733Y427756D01*
Y435942D01*
D02*
G37*
G36*
X107458D02*
X99272D01*
Y427756D01*
X100493Y427917D01*
X102814Y428878D01*
X104807Y430407D01*
X106336Y432400D01*
X107297Y434721D01*
X107458Y435942D01*
D02*
G37*
G36*
X44809Y387821D02*
X42843Y387563D01*
X41011Y386804D01*
X39438Y385597D01*
X38231Y384024D01*
X37472Y382192D01*
X37213Y380227D01*
X37472Y378261D01*
X38231Y376429D01*
X39438Y374856D01*
X41011Y373649D01*
X42843Y372890D01*
X44809Y372631D01*
X46774Y372890D01*
X48606Y373649D01*
X50179Y374856D01*
X51386Y376429D01*
X52145Y378261D01*
X52403Y380227D01*
X52145Y382192D01*
X51386Y384024D01*
X50179Y385597D01*
X48606Y386804D01*
X46774Y387563D01*
X44809Y387821D01*
D02*
G37*
G36*
X52339Y336956D02*
X37278D01*
Y321897D01*
X52339D01*
Y336956D01*
D02*
G37*
G36*
X46287Y267401D02*
X31227D01*
Y252341D01*
X46287D01*
Y267401D01*
D02*
G37*
G36*
X40027Y243347D02*
Y236140D01*
X47234D01*
X47107Y237108D01*
X46243Y239192D01*
X44869Y240983D01*
X43079Y242356D01*
X40994Y243220D01*
X40027Y243347D01*
D02*
G37*
G36*
X37487D02*
X36520Y243220D01*
X34435Y242356D01*
X32645Y240983D01*
X31271Y239192D01*
X30408Y237108D01*
X30280Y236140D01*
X37487D01*
Y243347D01*
D02*
G37*
G36*
X47234Y233600D02*
X40027D01*
Y226394D01*
X40994Y226521D01*
X43079Y227385D01*
X44869Y228758D01*
X46243Y230548D01*
X47107Y232633D01*
X47234Y233600D01*
D02*
G37*
G36*
X37487D02*
X30280D01*
X30408Y232633D01*
X31271Y230548D01*
X32645Y228758D01*
X34435Y227385D01*
X36520Y226521D01*
X37487Y226394D01*
Y233600D01*
D02*
G37*
G36*
X375327Y358166D02*
X245327D01*
X244179Y357691D01*
X244179Y357691D01*
X243704Y356543D01*
X243702Y226543D01*
X244167Y225420D01*
X244178Y225395D01*
X245326Y224919D01*
X245326Y224919D01*
X375327D01*
X376475Y225395D01*
X376951Y226543D01*
Y356543D01*
X376475Y357691D01*
X375327Y358166D01*
D02*
G37*
G36*
X83585Y181304D02*
Y165114D01*
X92442D01*
Y171344D01*
X92097Y173965D01*
X91085Y176408D01*
X89476Y178505D01*
X87379Y180114D01*
X84936Y181126D01*
X83585Y181304D01*
D02*
G37*
G36*
X81045Y181304D02*
X79694Y181126D01*
X77252Y180114D01*
X75155Y178505D01*
X73545Y176408D01*
X72534Y173965D01*
X72189Y171344D01*
Y165114D01*
X81045D01*
Y181304D01*
D02*
G37*
G36*
X142315Y180422D02*
X139966Y180113D01*
X137776Y179206D01*
X135896Y177763D01*
X134454Y175883D01*
X133547Y173694D01*
X133237Y171344D01*
Y156344D01*
X133547Y153995D01*
X134454Y151806D01*
X135896Y149926D01*
X137776Y148483D01*
X139966Y147576D01*
X142315Y147267D01*
X144664Y147576D01*
X146854Y148483D01*
X148734Y149926D01*
X150176Y151806D01*
X151083Y153995D01*
X151393Y156344D01*
Y171344D01*
X151083Y173694D01*
X150176Y175883D01*
X148734Y177763D01*
X146854Y179206D01*
X144664Y180113D01*
X142315Y180422D01*
D02*
G37*
G36*
X92442Y162575D02*
X83585D01*
Y146385D01*
X84936Y146563D01*
X87379Y147575D01*
X89476Y149184D01*
X91085Y151281D01*
X92097Y153723D01*
X92442Y156344D01*
Y162575D01*
D02*
G37*
G36*
X81045D02*
X72189D01*
Y156344D01*
X72534Y153723D01*
X73545Y151281D01*
X75155Y149184D01*
X77252Y147575D01*
X79694Y146563D01*
X81045Y146385D01*
Y162575D01*
D02*
G37*
G36*
X318729Y150566D02*
X316379Y150257D01*
X314190Y149350D01*
X312310Y147907D01*
X310867Y146027D01*
X309960Y143838D01*
X309651Y141488D01*
X309960Y139139D01*
X310867Y136950D01*
X312310Y135070D01*
X314190Y133627D01*
X316379Y132720D01*
X318729Y132411D01*
X321078Y132720D01*
X323268Y133627D01*
X325148Y135070D01*
X326590Y136950D01*
X327497Y139139D01*
X327806Y141488D01*
X327497Y143838D01*
X326590Y146027D01*
X325148Y147907D01*
X323268Y149350D01*
X321078Y150257D01*
X318729Y150566D01*
D02*
G37*
G36*
X119815Y126971D02*
X113585D01*
Y118114D01*
X129775D01*
X129597Y119465D01*
X128585Y121908D01*
X126976Y124005D01*
X124878Y125614D01*
X122436Y126626D01*
X119815Y126971D01*
D02*
G37*
G36*
X111045D02*
X104815D01*
X102194Y126626D01*
X99752Y125614D01*
X97654Y124005D01*
X96045Y121908D01*
X95034Y119465D01*
X94856Y118114D01*
X111045D01*
Y126971D01*
D02*
G37*
G36*
X327729Y125088D02*
X309729D01*
Y107088D01*
X327729D01*
Y125088D01*
D02*
G37*
G36*
X129775Y115574D02*
X113585D01*
Y106718D01*
X119815D01*
X122436Y107063D01*
X124878Y108074D01*
X126976Y109684D01*
X128585Y111781D01*
X129597Y114223D01*
X129775Y115574D01*
D02*
G37*
G36*
X111045D02*
X94856D01*
X95034Y114223D01*
X96045Y111781D01*
X97654Y109684D01*
X99752Y108074D01*
X102194Y107063D01*
X104815Y106718D01*
X111045D01*
Y115574D01*
D02*
G37*
G36*
X293910Y53361D02*
Y44550D01*
X302720D01*
X302538Y45932D01*
X301515Y48404D01*
X299886Y50526D01*
X297764Y52155D01*
X295292Y53179D01*
X293910Y53361D01*
D02*
G37*
G36*
X291370D02*
X289988Y53179D01*
X287516Y52155D01*
X285394Y50526D01*
X283765Y48404D01*
X282741Y45932D01*
X282559Y44550D01*
X291370D01*
Y53361D01*
D02*
G37*
G36*
X268510D02*
Y44550D01*
X277320D01*
X277138Y45932D01*
X276115Y48404D01*
X274486Y50526D01*
X272364Y52155D01*
X269892Y53179D01*
X268510Y53361D01*
D02*
G37*
G36*
X265970D02*
X264588Y53179D01*
X262116Y52155D01*
X259994Y50526D01*
X258365Y48404D01*
X257341Y45932D01*
X257159Y44550D01*
X265970D01*
Y53361D01*
D02*
G37*
G36*
X241840Y52479D02*
X239459Y52165D01*
X237241Y51247D01*
X235335Y49785D01*
X233874Y47880D01*
X232955Y45661D01*
X232641Y43280D01*
X232955Y40900D01*
X233874Y38681D01*
X235335Y36776D01*
X237241Y35314D01*
X239459Y34395D01*
X241840Y34082D01*
X244221Y34395D01*
X246439Y35314D01*
X248344Y36776D01*
X249806Y38681D01*
X250725Y40900D01*
X251038Y43280D01*
X250725Y45661D01*
X249806Y47880D01*
X248344Y49785D01*
X246439Y51247D01*
X244221Y52165D01*
X241840Y52479D01*
D02*
G37*
G36*
X216440D02*
X214059Y52165D01*
X211840Y51247D01*
X209935Y49785D01*
X208473Y47880D01*
X207555Y45661D01*
X207241Y43280D01*
X207555Y40900D01*
X208473Y38681D01*
X209935Y36776D01*
X211840Y35314D01*
X214059Y34395D01*
X216440Y34082D01*
X218821Y34395D01*
X221039Y35314D01*
X222944Y36776D01*
X224406Y38681D01*
X225325Y40900D01*
X225639Y43280D01*
X225325Y45661D01*
X224406Y47880D01*
X222944Y49785D01*
X221039Y51247D01*
X218821Y52165D01*
X216440Y52479D01*
D02*
G37*
G36*
X191040D02*
X188659Y52165D01*
X186441Y51247D01*
X184535Y49785D01*
X183074Y47880D01*
X182155Y45661D01*
X181841Y43280D01*
X182155Y40900D01*
X183074Y38681D01*
X184535Y36776D01*
X186441Y35314D01*
X188659Y34395D01*
X191040Y34082D01*
X193421Y34395D01*
X195639Y35314D01*
X197544Y36776D01*
X199006Y38681D01*
X199925Y40900D01*
X200238Y43280D01*
X199925Y45661D01*
X199006Y47880D01*
X197544Y49785D01*
X195639Y51247D01*
X193421Y52165D01*
X191040Y52479D01*
D02*
G37*
G36*
X165640D02*
X163259Y52165D01*
X161040Y51247D01*
X159135Y49785D01*
X157674Y47880D01*
X156755Y45661D01*
X156441Y43280D01*
X156755Y40900D01*
X157674Y38681D01*
X159135Y36776D01*
X161040Y35314D01*
X163259Y34395D01*
X165640Y34082D01*
X168021Y34395D01*
X170239Y35314D01*
X172144Y36776D01*
X173606Y38681D01*
X174525Y40900D01*
X174839Y43280D01*
X174525Y45661D01*
X173606Y47880D01*
X172144Y49785D01*
X170239Y51247D01*
X168021Y52165D01*
X165640Y52479D01*
D02*
G37*
G36*
X140240D02*
X137859Y52165D01*
X135640Y51247D01*
X133735Y49785D01*
X132274Y47880D01*
X131355Y45661D01*
X131041Y43280D01*
X131355Y40900D01*
X132274Y38681D01*
X133735Y36776D01*
X135640Y35314D01*
X137859Y34395D01*
X140240Y34082D01*
X142621Y34395D01*
X144839Y35314D01*
X146744Y36776D01*
X148206Y38681D01*
X149125Y40900D01*
X149438Y43280D01*
X149125Y45661D01*
X148206Y47880D01*
X146744Y49785D01*
X144839Y51247D01*
X142621Y52165D01*
X140240Y52479D01*
D02*
G37*
G36*
X114840D02*
X112459Y52165D01*
X110240Y51247D01*
X108335Y49785D01*
X106874Y47880D01*
X105955Y45661D01*
X105641Y43280D01*
X105955Y40900D01*
X106874Y38681D01*
X108335Y36776D01*
X110240Y35314D01*
X112459Y34395D01*
X114840Y34082D01*
X117221Y34395D01*
X119439Y35314D01*
X121344Y36776D01*
X122806Y38681D01*
X123725Y40900D01*
X124038Y43280D01*
X123725Y45661D01*
X122806Y47880D01*
X121344Y49785D01*
X119439Y51247D01*
X117221Y52165D01*
X114840Y52479D01*
D02*
G37*
G36*
X89440D02*
X87059Y52165D01*
X84840Y51247D01*
X82935Y49785D01*
X81474Y47880D01*
X80555Y45661D01*
X80241Y43280D01*
X80555Y40900D01*
X81474Y38681D01*
X82935Y36776D01*
X84840Y35314D01*
X87059Y34395D01*
X89440Y34082D01*
X91821Y34395D01*
X94039Y35314D01*
X95944Y36776D01*
X97406Y38681D01*
X98325Y40900D01*
X98638Y43280D01*
X98325Y45661D01*
X97406Y47880D01*
X95944Y49785D01*
X94039Y51247D01*
X91821Y52165D01*
X89440Y52479D01*
D02*
G37*
G36*
X64040D02*
X61659Y52165D01*
X59440Y51247D01*
X57535Y49785D01*
X56073Y47880D01*
X55155Y45661D01*
X54841Y43280D01*
X55155Y40900D01*
X56073Y38681D01*
X57535Y36776D01*
X59440Y35314D01*
X61659Y34395D01*
X64040Y34082D01*
X66421Y34395D01*
X68639Y35314D01*
X70544Y36776D01*
X72006Y38681D01*
X72925Y40900D01*
X73239Y43280D01*
X72925Y45661D01*
X72006Y47880D01*
X70544Y49785D01*
X68639Y51247D01*
X66421Y52165D01*
X64040Y52479D01*
D02*
G37*
G36*
X38640D02*
X36259Y52165D01*
X34041Y51247D01*
X32135Y49785D01*
X30673Y47880D01*
X29755Y45661D01*
X29441Y43280D01*
X29755Y40900D01*
X30673Y38681D01*
X32135Y36776D01*
X34041Y35314D01*
X36259Y34395D01*
X38640Y34082D01*
X41021Y34395D01*
X43239Y35314D01*
X45144Y36776D01*
X46606Y38681D01*
X47525Y40900D01*
X47839Y43280D01*
X47525Y45661D01*
X46606Y47880D01*
X45144Y49785D01*
X43239Y51247D01*
X41021Y52165D01*
X38640Y52479D01*
D02*
G37*
G36*
X13240D02*
X10859Y52165D01*
X8640Y51247D01*
X6735Y49785D01*
X5274Y47880D01*
X4355Y45661D01*
X4041Y43280D01*
X4355Y40900D01*
X5274Y38681D01*
X6735Y36776D01*
X8640Y35314D01*
X10859Y34395D01*
X13240Y34082D01*
X15621Y34395D01*
X17839Y35314D01*
X19744Y36776D01*
X21206Y38681D01*
X22125Y40900D01*
X22438Y43280D01*
X22125Y45661D01*
X21206Y47880D01*
X19744Y49785D01*
X17839Y51247D01*
X15621Y52165D01*
X13240Y52479D01*
D02*
G37*
G36*
X302720Y42010D02*
X293910D01*
Y33200D01*
X295292Y33382D01*
X297764Y34406D01*
X299886Y36034D01*
X301515Y38156D01*
X302538Y40628D01*
X302720Y42010D01*
D02*
G37*
G36*
X291370D02*
X282559D01*
X282741Y40628D01*
X283765Y38156D01*
X285394Y36034D01*
X287516Y34406D01*
X289988Y33382D01*
X291370Y33200D01*
Y42010D01*
D02*
G37*
G36*
X277320D02*
X268510D01*
Y33200D01*
X269892Y33382D01*
X272364Y34406D01*
X274486Y36034D01*
X276115Y38156D01*
X277138Y40628D01*
X277320Y42010D01*
D02*
G37*
G36*
X265970D02*
X257159D01*
X257341Y40628D01*
X258365Y38156D01*
X259994Y36034D01*
X262116Y34406D01*
X264588Y33382D01*
X265970Y33200D01*
Y42010D01*
D02*
G37*
G36*
X293910Y27961D02*
Y19150D01*
X302720D01*
X302538Y20533D01*
X301515Y23004D01*
X299886Y25127D01*
X297764Y26755D01*
X295292Y27779D01*
X293910Y27961D01*
D02*
G37*
G36*
X291370D02*
X289988Y27779D01*
X287516Y26755D01*
X285394Y25127D01*
X283765Y23004D01*
X282741Y20533D01*
X282559Y19150D01*
X291370D01*
Y27961D01*
D02*
G37*
G36*
X268510D02*
Y19150D01*
X277320D01*
X277138Y20533D01*
X276115Y23004D01*
X274486Y25127D01*
X272364Y26755D01*
X269892Y27779D01*
X268510Y27961D01*
D02*
G37*
G36*
X265970D02*
X264588Y27779D01*
X262116Y26755D01*
X259994Y25127D01*
X258365Y23004D01*
X257341Y20533D01*
X257159Y19150D01*
X265970D01*
Y27961D01*
D02*
G37*
G36*
X241840Y27079D02*
X239459Y26765D01*
X237241Y25847D01*
X235335Y24385D01*
X233874Y22480D01*
X232955Y20261D01*
X232641Y17880D01*
X232955Y15500D01*
X233874Y13281D01*
X235335Y11376D01*
X237241Y9914D01*
X239459Y8995D01*
X241840Y8682D01*
X244221Y8995D01*
X246439Y9914D01*
X248344Y11376D01*
X249806Y13281D01*
X250725Y15500D01*
X251038Y17880D01*
X250725Y20261D01*
X249806Y22480D01*
X248344Y24385D01*
X246439Y25847D01*
X244221Y26765D01*
X241840Y27079D01*
D02*
G37*
G36*
X216440D02*
X214059Y26765D01*
X211840Y25847D01*
X209935Y24385D01*
X208473Y22480D01*
X207555Y20261D01*
X207241Y17880D01*
X207555Y15500D01*
X208473Y13281D01*
X209935Y11376D01*
X211840Y9914D01*
X214059Y8995D01*
X216440Y8682D01*
X218821Y8995D01*
X221039Y9914D01*
X222944Y11376D01*
X224406Y13281D01*
X225325Y15500D01*
X225639Y17880D01*
X225325Y20261D01*
X224406Y22480D01*
X222944Y24385D01*
X221039Y25847D01*
X218821Y26765D01*
X216440Y27079D01*
D02*
G37*
G36*
X191040D02*
X188659Y26765D01*
X186441Y25847D01*
X184535Y24385D01*
X183074Y22480D01*
X182155Y20261D01*
X181841Y17880D01*
X182155Y15500D01*
X183074Y13281D01*
X184535Y11376D01*
X186441Y9914D01*
X188659Y8995D01*
X191040Y8682D01*
X193421Y8995D01*
X195639Y9914D01*
X197544Y11376D01*
X199006Y13281D01*
X199925Y15500D01*
X200238Y17880D01*
X199925Y20261D01*
X199006Y22480D01*
X197544Y24385D01*
X195639Y25847D01*
X193421Y26765D01*
X191040Y27079D01*
D02*
G37*
G36*
X165640D02*
X163259Y26765D01*
X161040Y25847D01*
X159135Y24385D01*
X157674Y22480D01*
X156755Y20261D01*
X156441Y17880D01*
X156755Y15500D01*
X157674Y13281D01*
X159135Y11376D01*
X161040Y9914D01*
X163259Y8995D01*
X165640Y8682D01*
X168021Y8995D01*
X170239Y9914D01*
X172144Y11376D01*
X173606Y13281D01*
X174525Y15500D01*
X174839Y17880D01*
X174525Y20261D01*
X173606Y22480D01*
X172144Y24385D01*
X170239Y25847D01*
X168021Y26765D01*
X165640Y27079D01*
D02*
G37*
G36*
X140240D02*
X137859Y26765D01*
X135640Y25847D01*
X133735Y24385D01*
X132274Y22480D01*
X131355Y20261D01*
X131041Y17880D01*
X131355Y15500D01*
X132274Y13281D01*
X133735Y11376D01*
X135640Y9914D01*
X137859Y8995D01*
X140240Y8682D01*
X142621Y8995D01*
X144839Y9914D01*
X146744Y11376D01*
X148206Y13281D01*
X149125Y15500D01*
X149438Y17880D01*
X149125Y20261D01*
X148206Y22480D01*
X146744Y24385D01*
X144839Y25847D01*
X142621Y26765D01*
X140240Y27079D01*
D02*
G37*
G36*
X114840D02*
X112459Y26765D01*
X110240Y25847D01*
X108335Y24385D01*
X106874Y22480D01*
X105955Y20261D01*
X105641Y17880D01*
X105955Y15500D01*
X106874Y13281D01*
X108335Y11376D01*
X110240Y9914D01*
X112459Y8995D01*
X114840Y8682D01*
X117221Y8995D01*
X119439Y9914D01*
X121344Y11376D01*
X122806Y13281D01*
X123725Y15500D01*
X124038Y17880D01*
X123725Y20261D01*
X122806Y22480D01*
X121344Y24385D01*
X119439Y25847D01*
X117221Y26765D01*
X114840Y27079D01*
D02*
G37*
G36*
X89440D02*
X87059Y26765D01*
X84840Y25847D01*
X82935Y24385D01*
X81474Y22480D01*
X80555Y20261D01*
X80241Y17880D01*
X80555Y15500D01*
X81474Y13281D01*
X82935Y11376D01*
X84840Y9914D01*
X87059Y8995D01*
X89440Y8682D01*
X91821Y8995D01*
X94039Y9914D01*
X95944Y11376D01*
X97406Y13281D01*
X98325Y15500D01*
X98638Y17880D01*
X98325Y20261D01*
X97406Y22480D01*
X95944Y24385D01*
X94039Y25847D01*
X91821Y26765D01*
X89440Y27079D01*
D02*
G37*
G36*
X64040D02*
X61659Y26765D01*
X59440Y25847D01*
X57535Y24385D01*
X56073Y22480D01*
X55155Y20261D01*
X54841Y17880D01*
X55155Y15500D01*
X56073Y13281D01*
X57535Y11376D01*
X59440Y9914D01*
X61659Y8995D01*
X64040Y8682D01*
X66421Y8995D01*
X68639Y9914D01*
X70544Y11376D01*
X72006Y13281D01*
X72925Y15500D01*
X73239Y17880D01*
X72925Y20261D01*
X72006Y22480D01*
X70544Y24385D01*
X68639Y25847D01*
X66421Y26765D01*
X64040Y27079D01*
D02*
G37*
G36*
X38640D02*
X36259Y26765D01*
X34041Y25847D01*
X32135Y24385D01*
X30673Y22480D01*
X29755Y20261D01*
X29441Y17880D01*
X29755Y15500D01*
X30673Y13281D01*
X32135Y11376D01*
X34041Y9914D01*
X36259Y8995D01*
X38640Y8682D01*
X41021Y8995D01*
X43239Y9914D01*
X45144Y11376D01*
X46606Y13281D01*
X47525Y15500D01*
X47839Y17880D01*
X47525Y20261D01*
X46606Y22480D01*
X45144Y24385D01*
X43239Y25847D01*
X41021Y26765D01*
X38640Y27079D01*
D02*
G37*
G36*
X13240D02*
X10859Y26765D01*
X8640Y25847D01*
X6735Y24385D01*
X5274Y22480D01*
X4355Y20261D01*
X4041Y17880D01*
X4355Y15500D01*
X5274Y13281D01*
X6735Y11376D01*
X8640Y9914D01*
X10859Y8995D01*
X13240Y8682D01*
X15621Y8995D01*
X17839Y9914D01*
X19744Y11376D01*
X21206Y13281D01*
X22125Y15500D01*
X22438Y17880D01*
X22125Y20261D01*
X21206Y22480D01*
X19744Y24385D01*
X17839Y25847D01*
X15621Y26765D01*
X13240Y27079D01*
D02*
G37*
G36*
X302720Y16610D02*
X293910D01*
Y7800D01*
X295292Y7982D01*
X297764Y9006D01*
X299886Y10634D01*
X301515Y12756D01*
X302538Y15228D01*
X302720Y16610D01*
D02*
G37*
G36*
X291370D02*
X282559D01*
X282741Y15228D01*
X283765Y12756D01*
X285394Y10634D01*
X287516Y9006D01*
X289988Y7982D01*
X291370Y7800D01*
Y16610D01*
D02*
G37*
G36*
X277320D02*
X268510D01*
Y7800D01*
X269892Y7982D01*
X272364Y9006D01*
X274486Y10634D01*
X276115Y12756D01*
X277138Y15228D01*
X277320Y16610D01*
D02*
G37*
G36*
X265970D02*
X257159D01*
X257341Y15228D01*
X258365Y12756D01*
X259994Y10634D01*
X262116Y9006D01*
X264588Y7982D01*
X265970Y7800D01*
Y16610D01*
D02*
G37*
%LPD*%
G36*
X375327Y226543D02*
X245326D01*
X245327Y356543D01*
X375327D01*
Y226543D01*
D02*
G37*
D65*
X38640Y43280D02*
D03*
X292640D02*
D03*
X267240D02*
D03*
X241840D02*
D03*
X216440D02*
D03*
X191040D02*
D03*
X165640D02*
D03*
X140240D02*
D03*
X114840D02*
D03*
X89440D02*
D03*
X64040D02*
D03*
X13240D02*
D03*
X292640Y17880D02*
D03*
X267240D02*
D03*
X241840D02*
D03*
X216440D02*
D03*
X191040D02*
D03*
X165640D02*
D03*
X140240D02*
D03*
X114840D02*
D03*
X89440D02*
D03*
X64040D02*
D03*
X38640D02*
D03*
X13240D02*
D03*
X292640Y525880D02*
D03*
X267240D02*
D03*
X241840D02*
D03*
X216440D02*
D03*
X191040D02*
D03*
X165640D02*
D03*
X140240D02*
D03*
X114840D02*
D03*
X89440D02*
D03*
X64040D02*
D03*
X38640D02*
D03*
X13240D02*
D03*
X292640Y500480D02*
D03*
X267240D02*
D03*
X241840D02*
D03*
X216440D02*
D03*
X191040D02*
D03*
X165640D02*
D03*
X140240D02*
D03*
X114840D02*
D03*
X89440D02*
D03*
X64040D02*
D03*
X38640D02*
D03*
X13240D02*
D03*
D66*
X38757Y259871D02*
D03*
X44809Y329426D02*
D03*
D67*
X38757Y234870D02*
D03*
X44809Y380227D02*
D03*
D68*
X98003Y437211D02*
D03*
D69*
X148003D02*
D03*
D70*
X82315Y163844D02*
D03*
X142315D02*
D03*
D71*
X112315Y116844D02*
D03*
D72*
X318729Y141488D02*
D03*
D73*
Y116088D02*
D03*
D74*
X29834Y107833D02*
D03*
X227581Y471302D02*
D03*
X308376Y485814D02*
D03*
X359952Y479734D02*
D03*
X312102Y434630D02*
D03*
X217384Y421491D02*
D03*
X170132Y391752D02*
D03*
X11061Y297355D02*
D03*
X205724Y315939D02*
D03*
X135500Y267321D02*
D03*
X176418Y127293D02*
D03*
X203513Y61870D02*
D03*
X247446Y64688D02*
D03*
X270592Y116265D02*
D03*
X295629Y156184D02*
D03*
X328635Y72452D02*
D03*
D75*
X304989Y131018D02*
D03*
D76*
X312440Y279097D02*
D03*
X312394Y290636D02*
D03*
Y302086D02*
D03*
M02*
