G04*
G04 #@! TF.GenerationSoftware,Altium Limited,Altium Designer,19.1.9 (167)*
G04*
G04 Layer_Color=128*
%FSLAX44Y44*%
%MOMM*%
G71*
G01*
G75*
%ADD83C,0.0508*%
D83*
X33560Y43280D02*
X43720D01*
X38640Y38200D02*
Y48360D01*
X34757Y259871D02*
X42757D01*
X38757Y255871D02*
Y263871D01*
X34757Y234870D02*
X42757D01*
X38757Y230870D02*
Y238870D01*
X287560Y43280D02*
X297720D01*
X292640Y38200D02*
Y48360D01*
X262160Y43280D02*
X272320D01*
X267240Y38200D02*
Y48360D01*
X236760Y43280D02*
X246920D01*
X241840Y38200D02*
Y48360D01*
X211360Y43280D02*
X221520D01*
X216440Y38200D02*
Y48360D01*
X185960Y43280D02*
X196120D01*
X191040Y38200D02*
Y48360D01*
X160560Y43280D02*
X170720D01*
X165640Y38200D02*
Y48360D01*
X135160Y43280D02*
X145320D01*
X140240Y38200D02*
Y48360D01*
X109760Y43280D02*
X119920D01*
X114840Y38200D02*
Y48360D01*
X84360Y43280D02*
X94520D01*
X89440Y38200D02*
Y48360D01*
X58960Y43280D02*
X69120D01*
X64040Y38200D02*
Y48360D01*
X8160Y43280D02*
X18320D01*
X13240Y38200D02*
Y48360D01*
X287560Y17880D02*
X297720D01*
X292640Y12800D02*
Y22960D01*
X262160Y17880D02*
X272320D01*
X267240Y12800D02*
Y22960D01*
X236760Y17880D02*
X246920D01*
X241840Y12800D02*
Y22960D01*
X211360Y17880D02*
X221520D01*
X216440Y12800D02*
Y22960D01*
X185960Y17880D02*
X196120D01*
X191040Y12800D02*
Y22960D01*
X160560Y17880D02*
X170720D01*
X165640Y12800D02*
Y22960D01*
X135160Y17880D02*
X145320D01*
X140240Y12800D02*
Y22960D01*
X109760Y17880D02*
X119920D01*
X114840Y12800D02*
Y22960D01*
X84360Y17880D02*
X94520D01*
X89440Y12800D02*
Y22960D01*
X58960Y17880D02*
X69120D01*
X64040Y12800D02*
Y22960D01*
X33560Y17880D02*
X43720D01*
X38640Y12800D02*
Y22960D01*
X8160Y17880D02*
X18320D01*
X13240Y12800D02*
Y22960D01*
X287560Y525880D02*
X297720D01*
X292640Y520800D02*
Y530960D01*
X262160Y525880D02*
X272320D01*
X267240Y520800D02*
Y530960D01*
X236760Y525880D02*
X246920D01*
X241840Y520800D02*
Y530960D01*
X211360Y525880D02*
X221520D01*
X216440Y520800D02*
Y530960D01*
X185960Y525880D02*
X196120D01*
X191040Y520800D02*
Y530960D01*
X160560Y525880D02*
X170720D01*
X165640Y520800D02*
Y530960D01*
X135160Y525880D02*
X145320D01*
X140240Y520800D02*
Y530960D01*
X109760Y525880D02*
X119920D01*
X114840Y520800D02*
Y530960D01*
X84360Y525880D02*
X94520D01*
X89440Y520800D02*
Y530960D01*
X58960Y525880D02*
X69120D01*
X64040Y520800D02*
Y530960D01*
X33560Y525880D02*
X43720D01*
X38640Y520800D02*
Y530960D01*
X8160Y525880D02*
X18320D01*
X13240Y520800D02*
Y530960D01*
X287560Y500480D02*
X297720D01*
X292640Y495400D02*
Y505560D01*
X262160Y500480D02*
X272320D01*
X267240Y495400D02*
Y505560D01*
X236760Y500480D02*
X246920D01*
X241840Y495400D02*
Y505560D01*
X211360Y500480D02*
X221520D01*
X216440Y495400D02*
Y505560D01*
X185960Y500480D02*
X196120D01*
X191040Y495400D02*
Y505560D01*
X160560Y500480D02*
X170720D01*
X165640Y495400D02*
Y505560D01*
X135160Y500480D02*
X145320D01*
X140240Y495400D02*
Y505560D01*
X109760Y500480D02*
X119920D01*
X114840Y495400D02*
Y505560D01*
X84360Y500480D02*
X94520D01*
X89440Y495400D02*
Y505560D01*
X58960Y500480D02*
X69120D01*
X64040Y495400D02*
Y505560D01*
X33560Y500480D02*
X43720D01*
X38640Y495400D02*
Y505560D01*
X8160Y500480D02*
X18320D01*
X13240Y495400D02*
Y505560D01*
X93503Y437211D02*
X102503D01*
X98003Y432711D02*
Y441711D01*
X143503Y437211D02*
X152503D01*
X148003Y432711D02*
Y441711D01*
X77315Y163844D02*
X87315D01*
X82315Y158844D02*
Y168844D01*
X137315Y163844D02*
X147315D01*
X142315Y158844D02*
Y168844D01*
X107315Y116844D02*
X117315D01*
X112315Y111844D02*
Y121844D01*
X314229Y141488D02*
X323229D01*
X318729Y136988D02*
Y145988D01*
X314229Y116088D02*
X323229D01*
X318729Y111588D02*
Y120588D01*
X40809Y329426D02*
X48808D01*
X44809Y325426D02*
Y333427D01*
X40809Y380227D02*
X48808D01*
X44809Y376227D02*
Y384226D01*
X26278Y107833D02*
X33390D01*
X29834Y104277D02*
Y111389D01*
X224025Y471302D02*
X231137D01*
X227581Y467746D02*
Y474858D01*
X304820Y485814D02*
X311932D01*
X308376Y482258D02*
Y489370D01*
X356396Y479734D02*
X363508D01*
X359952Y476179D02*
Y483290D01*
X308546Y434630D02*
X315658D01*
X312102Y431074D02*
Y438186D01*
X213828Y421491D02*
X220940D01*
X217384Y417935D02*
Y425047D01*
X166576Y391752D02*
X173688D01*
X170132Y388195D02*
Y395308D01*
X7505Y297355D02*
X14617D01*
X11061Y293799D02*
Y300911D01*
X202168Y315939D02*
X209280D01*
X205724Y312383D02*
Y319495D01*
X131944Y267321D02*
X139056D01*
X135500Y263766D02*
Y270877D01*
X172862Y127293D02*
X179974D01*
X176418Y123737D02*
Y130849D01*
X199957Y61870D02*
X207069D01*
X203513Y58314D02*
Y65426D01*
X243890Y64688D02*
X251002D01*
X247446Y61132D02*
Y68244D01*
X302489Y131018D02*
X307489D01*
X304989Y128518D02*
Y133518D01*
X267036Y116265D02*
X274148D01*
X270592Y112709D02*
Y119821D01*
X292073Y156184D02*
X299185D01*
X295629Y152628D02*
Y159740D01*
X325079Y72452D02*
X332191D01*
X328635Y68896D02*
Y76008D01*
X309940Y279097D02*
X314940D01*
X312440Y276597D02*
Y281597D01*
X309895Y290636D02*
X314894D01*
X312394Y288136D02*
Y293136D01*
X309895Y302086D02*
X314894D01*
X312394Y299586D02*
Y304586D01*
M02*
