G04*
G04 #@! TF.GenerationSoftware,Altium Limited,Altium Designer,19.1.9 (167)*
G04*
G04 Layer_Color=2752767*
%FSLAX43Y43*%
%MOMM*%
G71*
G01*
G75*
%ADD83C,0.051*%
%ADD84C,0.068*%
D83*
X3661Y4125D02*
Y4531D01*
X4067D01*
Y4125D01*
X3661D01*
X29061D02*
Y4531D01*
X29467D01*
Y4125D01*
X29061D01*
X26521D02*
Y4531D01*
X26927D01*
Y4125D01*
X26521D01*
X23981D02*
Y4531D01*
X24387D01*
Y4125D01*
X23981D01*
X21441D02*
Y4531D01*
X21847D01*
Y4125D01*
X21441D01*
X18901D02*
Y4531D01*
X19307D01*
Y4125D01*
X18901D01*
X16361D02*
Y4531D01*
X16767D01*
Y4125D01*
X16361D01*
X13821D02*
Y4531D01*
X14227D01*
Y4125D01*
X13821D01*
X11281D02*
Y4531D01*
X11687D01*
Y4125D01*
X11281D01*
X8741D02*
Y4531D01*
X9147D01*
Y4125D01*
X8741D01*
X6201D02*
Y4531D01*
X6607D01*
Y4125D01*
X6201D01*
X1121D02*
Y4531D01*
X1527D01*
Y4125D01*
X1121D01*
X29061Y1585D02*
Y1991D01*
X29467D01*
Y1585D01*
X29061D01*
X26521D02*
Y1991D01*
X26927D01*
Y1585D01*
X26521D01*
X23981D02*
Y1991D01*
X24387D01*
Y1585D01*
X23981D01*
X21441D02*
Y1991D01*
X21847D01*
Y1585D01*
X21441D01*
X18901D02*
Y1991D01*
X19307D01*
Y1585D01*
X18901D01*
X16361D02*
Y1991D01*
X16767D01*
Y1585D01*
X16361D01*
X13821D02*
Y1991D01*
X14227D01*
Y1585D01*
X13821D01*
X11281D02*
Y1991D01*
X11687D01*
Y1585D01*
X11281D01*
X8741D02*
Y1991D01*
X9147D01*
Y1585D01*
X8741D01*
X6201D02*
Y1991D01*
X6607D01*
Y1585D01*
X6201D01*
X3661D02*
Y1991D01*
X4067D01*
Y1585D01*
X3661D01*
X1121D02*
Y1991D01*
X1527D01*
Y1585D01*
X1121D01*
X29061Y52385D02*
Y52791D01*
X29467D01*
Y52385D01*
X29061D01*
X26521D02*
Y52791D01*
X26927D01*
Y52385D01*
X26521D01*
X23981D02*
Y52791D01*
X24387D01*
Y52385D01*
X23981D01*
X21441D02*
Y52791D01*
X21847D01*
Y52385D01*
X21441D01*
X18901D02*
Y52791D01*
X19307D01*
Y52385D01*
X18901D01*
X16361D02*
Y52791D01*
X16767D01*
Y52385D01*
X16361D01*
X13821D02*
Y52791D01*
X14227D01*
Y52385D01*
X13821D01*
X11281D02*
Y52791D01*
X11687D01*
Y52385D01*
X11281D01*
X8741D02*
Y52791D01*
X9147D01*
Y52385D01*
X8741D01*
X6201D02*
Y52791D01*
X6607D01*
Y52385D01*
X6201D01*
X3661D02*
Y52791D01*
X4067D01*
Y52385D01*
X3661D01*
X1121D02*
Y52791D01*
X1527D01*
Y52385D01*
X1121D01*
X29061Y49845D02*
Y50251D01*
X29467D01*
Y49845D01*
X29061D01*
X26521D02*
Y50251D01*
X26927D01*
Y49845D01*
X26521D01*
X23981D02*
Y50251D01*
X24387D01*
Y49845D01*
X23981D01*
X21441D02*
Y50251D01*
X21847D01*
Y49845D01*
X21441D01*
X18901D02*
Y50251D01*
X19307D01*
Y49845D01*
X18901D01*
X16361D02*
Y50251D01*
X16767D01*
Y49845D01*
X16361D01*
X13821D02*
Y50251D01*
X14227D01*
Y49845D01*
X13821D01*
X11281D02*
Y50251D01*
X11687D01*
Y49845D01*
X11281D01*
X8741D02*
Y50251D01*
X9147D01*
Y49845D01*
X8741D01*
X6201D02*
Y50251D01*
X6607D01*
Y49845D01*
X6201D01*
X3661D02*
Y50251D01*
X4067D01*
Y49845D01*
X3661D01*
X1121D02*
Y50251D01*
X1527D01*
Y49845D01*
X1121D01*
X9800Y43518D02*
X9597Y43924D01*
X10003D01*
X9800Y43518D01*
X14800D02*
X14597Y43924D01*
X15003D01*
X14800Y43518D01*
X8232Y16181D02*
X8333Y16283D01*
X8435D01*
X8333Y16384D01*
X8435Y16486D01*
X8333D01*
X8232Y16588D01*
X8130Y16486D01*
X8028D01*
X8130Y16384D01*
X8028Y16283D01*
X8130D01*
X8232Y16181D01*
X14231D02*
X14333Y16283D01*
X14435D01*
X14333Y16384D01*
X14435Y16486D01*
X14333D01*
X14231Y16588D01*
X14130Y16486D01*
X14028D01*
X14130Y16384D01*
X14028Y16283D01*
X14130D01*
X14231Y16181D01*
X11232Y11481D02*
X11333Y11583D01*
X11435D01*
X11333Y11684D01*
X11435Y11786D01*
X11333D01*
X11232Y11888D01*
X11130Y11786D01*
X11028D01*
X11130Y11684D01*
X11028Y11583D01*
X11130D01*
X11232Y11481D01*
X31873Y13946D02*
X31670Y14352D01*
X32076D01*
X31873Y13946D01*
Y11406D02*
X31670Y11812D01*
X32076D01*
X31873Y11406D01*
X2780Y10580D02*
X2882Y10783D01*
X2780Y10986D01*
X2983Y10885D01*
X3187Y10986D01*
X3085Y10783D01*
X3187Y10580D01*
X2983Y10682D01*
X2780Y10580D01*
X22555Y46927D02*
X22656Y47130D01*
X22555Y47333D01*
X22758Y47232D01*
X22961Y47333D01*
X22860Y47130D01*
X22961Y46927D01*
X22758Y47029D01*
X22555Y46927D01*
X30634Y48378D02*
X30736Y48581D01*
X30634Y48785D01*
X30838Y48683D01*
X31041Y48785D01*
X30939Y48581D01*
X31041Y48378D01*
X30838Y48480D01*
X30634Y48378D01*
X35792Y47770D02*
X35894Y47973D01*
X35792Y48177D01*
X35995Y48075D01*
X36198Y48177D01*
X36097Y47973D01*
X36198Y47770D01*
X35995Y47872D01*
X35792Y47770D01*
X31007Y43260D02*
X31109Y43463D01*
X31007Y43666D01*
X31210Y43565D01*
X31413Y43666D01*
X31312Y43463D01*
X31413Y43260D01*
X31210Y43361D01*
X31007Y43260D01*
X21535Y41946D02*
X21637Y42149D01*
X21535Y42352D01*
X21738Y42251D01*
X21942Y42352D01*
X21840Y42149D01*
X21942Y41946D01*
X21738Y42048D01*
X21535Y41946D01*
X16810Y38972D02*
X16912Y39175D01*
X16810Y39378D01*
X17013Y39277D01*
X17216Y39378D01*
X17115Y39175D01*
X17216Y38972D01*
X17013Y39074D01*
X16810Y38972D01*
X903Y29532D02*
X1004Y29735D01*
X903Y29939D01*
X1106Y29837D01*
X1309Y29939D01*
X1208Y29735D01*
X1309Y29532D01*
X1106Y29634D01*
X903Y29532D01*
X20369Y31391D02*
X20471Y31594D01*
X20369Y31797D01*
X20572Y31696D01*
X20776Y31797D01*
X20674Y31594D01*
X20776Y31391D01*
X20572Y31492D01*
X20369Y31391D01*
X13347Y26529D02*
X13448Y26732D01*
X13347Y26935D01*
X13550Y26834D01*
X13753Y26935D01*
X13652Y26732D01*
X13753Y26529D01*
X13550Y26631D01*
X13347Y26529D01*
X17439Y12526D02*
X17540Y12729D01*
X17439Y12932D01*
X17642Y12831D01*
X17845Y12932D01*
X17743Y12729D01*
X17845Y12526D01*
X17642Y12628D01*
X17439Y12526D01*
X20148Y5984D02*
X20250Y6187D01*
X20148Y6390D01*
X20351Y6289D01*
X20555Y6390D01*
X20453Y6187D01*
X20555Y5984D01*
X20351Y6085D01*
X20148Y5984D01*
X24541Y6266D02*
X24643Y6469D01*
X24541Y6672D01*
X24745Y6570D01*
X24948Y6672D01*
X24846Y6469D01*
X24948Y6266D01*
X24745Y6367D01*
X24541Y6266D01*
X30397Y13000D02*
Y12899D01*
X30600D01*
Y13000D01*
X30702D01*
Y13203D01*
X30600D01*
Y13305D01*
X30397D01*
Y13203D01*
X30296D01*
Y13000D01*
X30397D01*
X26856Y11423D02*
X26958Y11627D01*
X26856Y11830D01*
X27059Y11728D01*
X27262Y11830D01*
X27161Y11627D01*
X27262Y11423D01*
X27059Y11525D01*
X26856Y11423D01*
X29360Y15415D02*
X29461Y15618D01*
X29360Y15822D01*
X29563Y15720D01*
X29766Y15822D01*
X29665Y15618D01*
X29766Y15415D01*
X29563Y15517D01*
X29360Y15415D01*
X32660Y7042D02*
X32762Y7245D01*
X32660Y7448D01*
X32864Y7347D01*
X33067Y7448D01*
X32965Y7245D01*
X33067Y7042D01*
X32864Y7144D01*
X32660Y7042D01*
X31142Y27808D02*
Y27706D01*
X31346D01*
Y27808D01*
X31447D01*
Y28011D01*
X31346D01*
Y28113D01*
X31142D01*
Y28011D01*
X31041D01*
Y27808D01*
X31142D01*
X31138Y28962D02*
Y28860D01*
X31341D01*
Y28962D01*
X31443D01*
Y29165D01*
X31341D01*
Y29267D01*
X31138D01*
Y29165D01*
X31036D01*
Y28962D01*
X31138D01*
Y30107D02*
Y30005D01*
X31341D01*
Y30107D01*
X31443D01*
Y30310D01*
X31341D01*
Y30412D01*
X31138D01*
Y30310D01*
X31036D01*
Y30107D01*
X31138D01*
D84*
X4079Y25987D02*
G03*
X4079Y25987I-203J0D01*
G01*
Y23487D02*
G03*
X4079Y23487I-203J0D01*
G01*
X4684Y32943D02*
G03*
X4684Y32943I-203J0D01*
G01*
Y38023D02*
G03*
X4684Y38023I-203J0D01*
G01*
M02*
