G04*
G04 #@! TF.GenerationSoftware,Altium Limited,Altium Designer,19.1.9 (167)*
G04*
G04 Layer_Color=16711935*
%FSLAX43Y43*%
%MOMM*%
G71*
G01*
G75*
%ADD51C,1.727*%
%ADD52R,1.409X1.409*%
%ADD53C,1.409*%
%ADD54C,1.603*%
%ADD55R,1.603X1.603*%
%ADD56O,1.703X3.203*%
%ADD57O,3.203X1.703*%
%ADD58C,1.703*%
%ADD59R,1.703X1.703*%
%ADD60C,1.473*%
%ADD61C,1.103*%
%ADD62C,1.203*%
G36*
X37533Y22654D02*
X24533D01*
X24533Y35654D01*
X37533D01*
Y22654D01*
D02*
G37*
D51*
X3864Y4328D02*
D03*
X29264D02*
D03*
X26724D02*
D03*
X24184D02*
D03*
X21644D02*
D03*
X19104D02*
D03*
X16564D02*
D03*
X14024D02*
D03*
X11484D02*
D03*
X8944D02*
D03*
X6404D02*
D03*
X1324D02*
D03*
X29264Y1788D02*
D03*
X26724D02*
D03*
X24184D02*
D03*
X21644D02*
D03*
X19104D02*
D03*
X16564D02*
D03*
X14024D02*
D03*
X11484D02*
D03*
X8944D02*
D03*
X6404D02*
D03*
X3864D02*
D03*
X1324D02*
D03*
X29264Y52588D02*
D03*
X26724D02*
D03*
X24184D02*
D03*
X21644D02*
D03*
X19104D02*
D03*
X16564D02*
D03*
X14024D02*
D03*
X11484D02*
D03*
X8944D02*
D03*
X6404D02*
D03*
X3864D02*
D03*
X1324D02*
D03*
X29264Y50048D02*
D03*
X26724D02*
D03*
X24184D02*
D03*
X21644D02*
D03*
X19104D02*
D03*
X16564D02*
D03*
X14024D02*
D03*
X11484D02*
D03*
X8944D02*
D03*
X6404D02*
D03*
X3864D02*
D03*
X1324D02*
D03*
D52*
X3876Y25987D02*
D03*
X4481Y32943D02*
D03*
D53*
X3876Y23487D02*
D03*
X4481Y38023D02*
D03*
D54*
X9800Y43721D02*
D03*
D55*
X14800D02*
D03*
D56*
X8232Y16384D02*
D03*
X14231D02*
D03*
D57*
X11232Y11684D02*
D03*
D58*
X31873Y14149D02*
D03*
D59*
Y11609D02*
D03*
D60*
X2983Y10783D02*
D03*
X22758Y47130D02*
D03*
X30838Y48581D02*
D03*
X35995Y47973D02*
D03*
X31210Y43463D02*
D03*
X21738Y42149D02*
D03*
X17013Y39175D02*
D03*
X1106Y29735D02*
D03*
X20572Y31594D02*
D03*
X13550Y26732D02*
D03*
X17642Y12729D02*
D03*
X20351Y6187D02*
D03*
X24745Y6469D02*
D03*
X27059Y11627D02*
D03*
X29563Y15618D02*
D03*
X32864Y7245D02*
D03*
D61*
X30499Y13102D02*
D03*
D62*
X31244Y27910D02*
D03*
X31239Y29064D02*
D03*
Y30209D02*
D03*
M02*
