G04*
G04 #@! TF.GenerationSoftware,Altium Limited,Altium Designer,23.2.1 (34)*
G04*
G04 Layer_Color=16711935*
%FSLAX44Y44*%
%MOMM*%
G71*
G04*
G04 #@! TF.SameCoordinates,98CE878A-1806-4984-BA15-9BEB6A1E334D*
G04*
G04*
G04 #@! TF.FilePolarity,Positive*
G04*
G01*
G75*
%ADD13C,0.2540*%
%ADD14C,0.1524*%
%ADD16C,0.1270*%
D13*
X480658Y482566D02*
G03*
X417158Y546066I-63500J0D01*
G01*
Y-34D02*
G03*
X480658Y63466I0J63500D01*
G01*
X480655Y63818D02*
Y482918D01*
X24Y546066D02*
X417158D01*
X24Y-34D02*
Y546066D01*
Y-34D02*
X417158D01*
D14*
X58215Y413453D02*
X48059D01*
Y418532D01*
X49751Y420225D01*
X53137D01*
X54830Y418532D01*
Y413453D01*
Y416839D02*
X58215Y420225D01*
Y428689D02*
Y425303D01*
X56522Y423610D01*
X53137D01*
X51444Y425303D01*
Y428689D01*
X53137Y430381D01*
X54830D01*
Y423610D01*
X61601Y437152D02*
Y438845D01*
X59908Y440538D01*
X51444D01*
Y435460D01*
X53137Y433767D01*
X56522D01*
X58215Y435460D01*
Y440538D01*
D16*
X374051Y269405D02*
Y285404D01*
X376801Y260154D02*
Y294654D01*
Y260154D02*
X411301D01*
Y294654D01*
X376801D02*
X411301D01*
M02*
