G04*
G04 #@! TF.GenerationSoftware,Altium Limited,Altium Designer,23.2.1 (34)*
G04*
G04 Layer_Color=32768*
%FSLAX44Y44*%
%MOMM*%
G71*
G04*
G04 #@! TF.SameCoordinates,98CE878A-1806-4984-BA15-9BEB6A1E334D*
G04*
G04*
G04 #@! TF.FilePolarity,Positive*
G04*
G01*
G75*
%ADD14C,0.1524*%
%ADD20C,0.1000*%
%ADD21C,0.0500*%
%ADD81C,0.1016*%
%ADD82C,0.5000*%
%ADD83C,0.0762*%
G36*
X179559Y484201D02*
Y383109D01*
X124441D01*
Y484201D01*
X179559D01*
D02*
G37*
G36*
X251946D02*
Y383109D01*
X196828D01*
Y484201D01*
X251946D01*
D02*
G37*
D14*
X124441Y383109D02*
Y484201D01*
Y383109D02*
X179559D01*
X124441Y484201D02*
X179559D01*
Y383109D02*
Y484201D01*
X196828Y383109D02*
X251946D01*
X196828D02*
Y484201D01*
X251946D01*
Y383109D02*
Y484201D01*
D20*
X48135Y428694D02*
X58135D01*
X53135Y423694D02*
Y433694D01*
X277768Y301181D02*
X287268D01*
X288018Y289181D02*
Y313181D01*
X282518Y296430D02*
Y305930D01*
X277018Y289181D02*
X288018D01*
X277018D02*
Y313181D01*
X288018D01*
X87520Y440134D02*
Y449633D01*
X93020Y432884D02*
Y456884D01*
X82019D02*
X93020D01*
X82770Y444884D02*
X92270D01*
X82019Y432884D02*
X93020D01*
X82019D02*
Y456884D01*
X88055Y401531D02*
Y411031D01*
X93556Y394281D02*
Y418281D01*
X82555D02*
X93556D01*
X83306Y406281D02*
X92806D01*
X82555Y394281D02*
X93556D01*
X82555D02*
Y418281D01*
X197985Y135993D02*
X207985D01*
X202985Y130992D02*
Y140992D01*
X442448Y391557D02*
X470448D01*
X442448Y351557D02*
Y391557D01*
X470448Y351557D02*
Y391557D01*
X442448Y351557D02*
X470448D01*
X451447Y371557D02*
X461447D01*
X456448Y366556D02*
Y376556D01*
X281211Y458516D02*
Y468015D01*
X286712Y451265D02*
Y475265D01*
X275711D02*
X286712D01*
X276462Y463265D02*
X285961D01*
X275711Y451265D02*
X286712D01*
X275711D02*
Y475265D01*
X304694Y468047D02*
X314694D01*
X309694Y463047D02*
Y473047D01*
X327694Y448047D02*
Y488047D01*
X291694D02*
X327694D01*
X291694Y448047D02*
X327694D01*
X291694D02*
Y488047D01*
X307279Y439955D02*
X316779D01*
X312029Y435205D02*
Y444705D01*
X324029Y434455D02*
Y445455D01*
X300029D02*
X324029D01*
X300029Y434455D02*
X324029D01*
X300029D02*
Y445455D01*
X425549Y447871D02*
X461549D01*
X425549Y487871D02*
X461549D01*
X425549Y447871D02*
Y487871D01*
X461549Y447871D02*
Y487871D01*
X443549Y462871D02*
Y472871D01*
X438549Y467871D02*
X448549D01*
X367403Y447871D02*
X403403D01*
X367403Y487871D02*
X403403D01*
X367403Y447871D02*
Y487871D01*
X403403Y447871D02*
Y487871D01*
X385403Y462871D02*
Y472871D01*
X380402Y467871D02*
X390402D01*
X409599Y452670D02*
X420600D01*
X409599Y476670D02*
X420600D01*
X409599Y452670D02*
Y476670D01*
X420600Y452670D02*
Y476670D01*
X415099Y459920D02*
Y469420D01*
X410350Y464670D02*
X419850D01*
X350526Y452670D02*
X361526D01*
X350526Y476670D02*
X361526D01*
X350526Y452670D02*
Y476670D01*
X361526Y452670D02*
Y476670D01*
X356026Y459920D02*
Y469420D01*
X351276Y464670D02*
X360776D01*
X399467Y433323D02*
Y444324D01*
X375467Y433323D02*
Y444324D01*
Y433323D02*
X399467D01*
X375467Y444324D02*
X399467D01*
X382717Y438824D02*
X392217D01*
X387467Y434074D02*
Y443573D01*
X461076Y433323D02*
Y444324D01*
X437076Y433323D02*
Y444324D01*
Y433323D02*
X461076D01*
X437076Y444324D02*
X461076D01*
X444326Y438824D02*
X453826D01*
X449076Y434074D02*
Y443573D01*
X247643Y71712D02*
Y82712D01*
X271643Y71712D02*
Y82712D01*
X247643D02*
X271643D01*
X247643Y71712D02*
X271643D01*
X254893Y77212D02*
X264393D01*
X259643Y72462D02*
Y81962D01*
X247643Y57400D02*
Y68401D01*
X271643Y57400D02*
Y68401D01*
X247643D02*
X271643D01*
X247643Y57400D02*
X271643D01*
X254893Y62901D02*
X264393D01*
X259643Y58151D02*
Y67651D01*
X278899Y91036D02*
Y102036D01*
X302899Y91036D02*
Y102036D01*
X278899D02*
X302899D01*
X278899Y91036D02*
X302899D01*
X286149Y96536D02*
X295649D01*
X290899Y91786D02*
Y101286D01*
X287067Y132305D02*
X298066D01*
X287067Y108305D02*
X298066D01*
Y132305D01*
X287067Y108305D02*
Y132305D01*
X292566Y115555D02*
Y125055D01*
X287816Y120305D02*
X297317D01*
X353678Y160849D02*
X364678D01*
X353678Y136848D02*
X364678D01*
Y160849D01*
X353678Y136848D02*
Y160849D01*
X359178Y144099D02*
Y153599D01*
X354427Y148848D02*
X363927D01*
X335288Y136696D02*
X346288D01*
X335288Y160695D02*
X346288D01*
X335288Y136696D02*
Y160695D01*
X346288Y136696D02*
Y160695D01*
X340788Y143946D02*
Y153445D01*
X336038Y148696D02*
X345538D01*
X389973Y79795D02*
X399473D01*
X394723Y75046D02*
Y84545D01*
X400223Y67796D02*
Y91796D01*
X389223Y67796D02*
Y91796D01*
X400223D01*
X389223Y67796D02*
X400223D01*
X383805Y83059D02*
Y94060D01*
X359805Y83059D02*
Y94060D01*
Y83059D02*
X383805D01*
X359805Y94060D02*
X383805D01*
X367054Y88560D02*
X376554D01*
X371805Y83810D02*
Y93310D01*
X343218Y67796D02*
X354219D01*
X343218Y91796D02*
X354219D01*
X343218Y67796D02*
Y91796D01*
X354219Y67796D02*
Y91796D01*
X348718Y75046D02*
Y84545D01*
X343969Y79795D02*
X353468D01*
X383839Y66035D02*
Y77035D01*
X359839Y66035D02*
Y77035D01*
Y66035D02*
X383839D01*
X359839Y77035D02*
X383839D01*
X367089Y71535D02*
X376589D01*
X371839Y66785D02*
Y76285D01*
X320480Y76047D02*
X331480D01*
X320480Y100046D02*
X331480D01*
X320480Y76047D02*
Y100046D01*
X331480Y76047D02*
Y100046D01*
X325979Y83297D02*
Y92796D01*
X321230Y88047D02*
X330730D01*
X271772Y120305D02*
X281271D01*
X276522Y115555D02*
Y125055D01*
X271021Y108305D02*
Y132305D01*
X282022Y108305D02*
Y132305D01*
X271021Y108305D02*
X282022D01*
X271021Y132305D02*
X282022D01*
X303862Y120305D02*
X313361D01*
X308611Y115555D02*
Y125055D01*
X314111Y108305D02*
Y132305D01*
X303111Y108305D02*
Y132305D01*
X314111D01*
X303111Y108305D02*
X314111D01*
X279004Y75021D02*
Y86021D01*
X303004Y75021D02*
Y86021D01*
X279004D02*
X303004D01*
X279004Y75021D02*
X303004D01*
X286254Y80521D02*
X295753D01*
X291004Y75771D02*
Y85271D01*
D21*
X23635Y374193D02*
Y483194D01*
X72635Y374193D02*
Y483194D01*
X23635Y374193D02*
X72635D01*
X23635Y483194D02*
X72635D01*
X214985Y122992D02*
Y148992D01*
X190985Y122992D02*
Y148992D01*
X214985D01*
X190985Y122992D02*
X214985D01*
X123788Y237630D02*
Y322829D01*
Y237630D02*
X208988D01*
X123788Y322829D02*
X208988D01*
Y237630D02*
Y322829D01*
D81*
X346029Y116068D02*
X352029D01*
X349028Y113068D02*
Y119067D01*
X319028Y99067D02*
X379028D01*
X319028D02*
Y133068D01*
X379028D01*
Y99067D02*
Y133068D01*
D82*
X292172Y409556D02*
D03*
X431840Y409653D02*
D03*
X350486D02*
D03*
X222135Y87557D02*
D03*
D83*
X309672Y390555D02*
Y428555D01*
X274672D02*
X309672D01*
X274672Y390555D02*
Y428555D01*
Y390555D02*
X309672D01*
X414340Y390653D02*
X449340D01*
X414340D02*
Y428653D01*
X449340D01*
Y390653D02*
Y428653D01*
X332986Y390653D02*
X367985D01*
X332986D02*
Y428653D01*
X367985D01*
Y390653D02*
Y428653D01*
X201815Y71047D02*
X242455D01*
Y104067D01*
X201815D02*
X242455D01*
X201815Y71047D02*
Y104067D01*
M02*
