G04*
G04 #@! TF.GenerationSoftware,Altium Limited,Altium Designer,23.2.1 (34)*
G04*
G04 Layer_Color=255*
%FSLAX44Y44*%
%MOMM*%
G71*
G04*
G04 #@! TF.SameCoordinates,98CE878A-1806-4984-BA15-9BEB6A1E334D*
G04*
G04*
G04 #@! TF.FilePolarity,Positive*
G04*
G01*
G75*
%ADD25R,1.3000X3.3000*%
%ADD26R,1.1500X3.2000*%
%ADD27R,0.9000X0.8000*%
G04:AMPARAMS|DCode=28|XSize=0.41mm|YSize=1.02mm|CornerRadius=0.1025mm|HoleSize=0mm|Usage=FLASHONLY|Rotation=90.000|XOffset=0mm|YOffset=0mm|HoleType=Round|Shape=RoundedRectangle|*
%AMROUNDEDRECTD28*
21,1,0.4100,0.8150,0,0,90.0*
21,1,0.2050,1.0200,0,0,90.0*
1,1,0.2050,0.4075,0.1025*
1,1,0.2050,0.4075,-0.1025*
1,1,0.2050,-0.4075,-0.1025*
1,1,0.2050,-0.4075,0.1025*
%
%ADD28ROUNDEDRECTD28*%
%ADD29R,0.4000X0.5000*%
%ADD30C,4.6400*%
%ADD31R,0.5000X3.3000*%
%ADD32R,2.6000X1.1000*%
G04:AMPARAMS|DCode=33|XSize=0.6mm|YSize=1mm|CornerRadius=0.075mm|HoleSize=0mm|Usage=FLASHONLY|Rotation=180.000|XOffset=0mm|YOffset=0mm|HoleType=Round|Shape=RoundedRectangle|*
%AMROUNDEDRECTD33*
21,1,0.6000,0.8500,0,0,180.0*
21,1,0.4500,1.0000,0,0,180.0*
1,1,0.1500,-0.2250,0.4250*
1,1,0.1500,0.2250,0.4250*
1,1,0.1500,0.2250,-0.4250*
1,1,0.1500,-0.2250,-0.4250*
%
%ADD33ROUNDEDRECTD33*%
%ADD34R,0.6500X1.1000*%
%ADD35R,0.8000X0.9000*%
G04:AMPARAMS|DCode=36|XSize=0.6mm|YSize=1mm|CornerRadius=0.075mm|HoleSize=0mm|Usage=FLASHONLY|Rotation=90.000|XOffset=0mm|YOffset=0mm|HoleType=Round|Shape=RoundedRectangle|*
%AMROUNDEDRECTD36*
21,1,0.6000,0.8500,0,0,90.0*
21,1,0.4500,1.0000,0,0,90.0*
1,1,0.1500,0.4250,0.2250*
1,1,0.1500,0.4250,-0.2250*
1,1,0.1500,-0.4250,-0.2250*
1,1,0.1500,-0.4250,0.2250*
%
%ADD36ROUNDEDRECTD36*%
%ADD50C,1.3716*%
%ADD51R,1.3716X1.3716*%
%ADD62R,1.7400X1.4000*%
%ADD63R,1.2100X1.1600*%
%ADD64R,1.4400X1.7000*%
%ADD65R,1.1600X1.2100*%
%ADD68C,1.6000*%
%ADD69R,1.6000X1.6000*%
%ADD70R,1.5000X1.5000*%
%ADD71C,1.5000*%
%ADD72C,1.5240*%
%ADD73O,1.5000X3.0000*%
%ADD74O,3.0000X1.5000*%
D25*
X394051Y277404D02*
D03*
D26*
X263948Y358973D02*
D03*
X246448D02*
D03*
D27*
X87520Y451884D02*
D03*
Y437883D02*
D03*
X88055Y413281D02*
D03*
Y399281D02*
D03*
X281211Y470266D02*
D03*
Y456265D02*
D03*
X415099Y457670D02*
D03*
Y471670D02*
D03*
X356026Y457670D02*
D03*
Y471670D02*
D03*
X292566Y127305D02*
D03*
Y113305D02*
D03*
X359178Y155849D02*
D03*
Y141849D02*
D03*
X340788Y141695D02*
D03*
Y155695D02*
D03*
X394723Y86795D02*
D03*
Y72795D02*
D03*
X348718D02*
D03*
Y86795D02*
D03*
X325979Y81046D02*
D03*
Y95046D02*
D03*
X276522Y113305D02*
D03*
Y127305D02*
D03*
X308611D02*
D03*
Y113305D02*
D03*
D28*
X326029Y106318D02*
D03*
Y112818D02*
D03*
Y119318D02*
D03*
Y125818D02*
D03*
X372029D02*
D03*
Y119318D02*
D03*
Y112818D02*
D03*
Y106318D02*
D03*
D29*
X196485Y145493D02*
D03*
X202985D02*
D03*
X209485D02*
D03*
Y126493D02*
D03*
X202985D02*
D03*
X196485D02*
D03*
D30*
X166388Y280229D02*
D03*
D31*
X408051Y277404D02*
D03*
X380051D02*
D03*
D32*
X456448Y385057D02*
D03*
Y358057D02*
D03*
D33*
X301672Y421055D02*
D03*
X282672D02*
D03*
X292172Y398055D02*
D03*
X431840Y398153D02*
D03*
X422340Y421153D02*
D03*
X441340D02*
D03*
X350486Y398153D02*
D03*
X340986Y421153D02*
D03*
X359986D02*
D03*
D34*
X319194Y480047D02*
D03*
X309694D02*
D03*
X300194D02*
D03*
X319194Y456047D02*
D03*
X300194D02*
D03*
X309694D02*
D03*
X434049Y455871D02*
D03*
X443549D02*
D03*
X453049D02*
D03*
Y479871D02*
D03*
X443549D02*
D03*
X434049D02*
D03*
X375903Y455871D02*
D03*
X385403D02*
D03*
X394902D02*
D03*
Y479871D02*
D03*
X385403D02*
D03*
X375903D02*
D03*
D35*
X319029Y439955D02*
D03*
X305029D02*
D03*
X394468Y438824D02*
D03*
X380467D02*
D03*
X456076D02*
D03*
X442076D02*
D03*
X252643Y77212D02*
D03*
X266643D02*
D03*
X252643Y62901D02*
D03*
X266643D02*
D03*
X283899Y96536D02*
D03*
X297899D02*
D03*
X378804Y88560D02*
D03*
X364804D02*
D03*
X378839Y71535D02*
D03*
X364839D02*
D03*
X284003Y80521D02*
D03*
X298003D02*
D03*
D36*
X209135Y78057D02*
D03*
X235135Y97056D02*
D03*
Y87557D02*
D03*
Y78057D02*
D03*
X209135Y97056D02*
D03*
Y87557D02*
D03*
D50*
X152127Y433763D02*
D03*
Y458763D02*
D03*
X224514Y433763D02*
D03*
Y458763D02*
D03*
D51*
X152127Y408763D02*
D03*
X224514D02*
D03*
D62*
X197790Y313330D02*
D03*
X134988Y247130D02*
D03*
D63*
X132338Y265730D02*
D03*
X200438D02*
D03*
D64*
X133488Y311830D02*
D03*
X199288Y248629D02*
D03*
D65*
X151888Y246179D02*
D03*
Y314280D02*
D03*
D68*
X53135Y454094D02*
D03*
Y428694D02*
D03*
D69*
Y403293D02*
D03*
D70*
X41785Y195845D02*
D03*
Y292846D02*
D03*
X396851Y116049D02*
D03*
D71*
X41785Y221245D02*
D03*
Y246645D02*
D03*
Y318246D02*
D03*
Y343646D02*
D03*
X396851Y157120D02*
D03*
D72*
X370762Y525841D02*
D03*
X345362D02*
D03*
X319962D02*
D03*
X294562D02*
D03*
X269162D02*
D03*
X243762D02*
D03*
X218362D02*
D03*
X192962D02*
D03*
X167562D02*
D03*
X142162D02*
D03*
X116762D02*
D03*
X91362D02*
D03*
X370762Y500441D02*
D03*
X345362D02*
D03*
X319962D02*
D03*
X294562D02*
D03*
X269162D02*
D03*
X243762D02*
D03*
X218362D02*
D03*
X192962D02*
D03*
X167562D02*
D03*
X142162D02*
D03*
X116762D02*
D03*
X91362D02*
D03*
Y17841D02*
D03*
X116762D02*
D03*
X142162D02*
D03*
X167562D02*
D03*
X192962D02*
D03*
X218362D02*
D03*
X243762D02*
D03*
X269162D02*
D03*
X294562D02*
D03*
X319962D02*
D03*
X345362D02*
D03*
X370762D02*
D03*
X91362Y43241D02*
D03*
X142162D02*
D03*
X167562D02*
D03*
X192962D02*
D03*
X218362D02*
D03*
X243762D02*
D03*
X269162D02*
D03*
X294562D02*
D03*
X319962D02*
D03*
X345362D02*
D03*
X370762D02*
D03*
X116762D02*
D03*
D73*
X143124Y129044D02*
D03*
X83124D02*
D03*
D74*
X113124Y82043D02*
D03*
M02*
