G04*
G04 #@! TF.GenerationSoftware,Altium Limited,Altium Designer,23.2.1 (34)*
G04*
G04 Layer_Color=2752767*
%FSLAX44Y44*%
%MOMM*%
G71*
G04*
G04 #@! TF.SameCoordinates,98CE878A-1806-4984-BA15-9BEB6A1E334D*
G04*
G04*
G04 #@! TF.FilePolarity,Positive*
G04*
G01*
G75*
%ADD16C,0.1270*%
%ADD85C,0.1693*%
D16*
X53135Y449013D02*
X48055Y459174D01*
X58215D01*
X53135Y449013D01*
Y423614D02*
X48055Y433773D01*
X58215D01*
X53135Y423614D01*
Y398214D02*
X48055Y408373D01*
X58215D01*
X53135Y398214D01*
X147047Y428683D02*
X149587Y433763D01*
X147047Y438843D01*
X152127Y436303D01*
X157207Y438843D01*
X154667Y433763D01*
X157207Y428683D01*
X152127Y431223D01*
X147047Y428683D01*
Y453683D02*
X149587Y458763D01*
X147047Y463843D01*
X152127Y461303D01*
X157207Y463843D01*
X154667Y458763D01*
X157207Y453683D01*
X152127Y456223D01*
X147047Y453683D01*
Y403683D02*
X149587Y408763D01*
X147047Y413843D01*
X152127Y411303D01*
X157207Y413843D01*
X154667Y408763D01*
X157207Y403683D01*
X152127Y406223D01*
X147047Y403683D01*
X36705Y190765D02*
Y200925D01*
X46865D01*
Y190765D01*
X36705D01*
Y216165D02*
Y226325D01*
X46865D01*
Y216165D01*
X36705D01*
Y241565D02*
Y251725D01*
X46865D01*
Y241565D01*
X36705D01*
Y287766D02*
Y297926D01*
X46865D01*
Y287766D01*
X36705D01*
Y313166D02*
Y323326D01*
X46865D01*
Y313166D01*
X36705D01*
Y338566D02*
Y348726D01*
X46865D01*
Y338566D01*
X36705D01*
X370762Y520761D02*
X365682Y530921D01*
X375842D01*
X370762Y520761D01*
Y522793D02*
X367714Y528889D01*
X373810D01*
X370762Y522793D01*
X345362Y520761D02*
X340282Y530921D01*
X350442D01*
X345362Y520761D01*
Y522793D02*
X342314Y528889D01*
X348410D01*
X345362Y522793D01*
X319962Y520761D02*
X314882Y530921D01*
X325042D01*
X319962Y520761D01*
Y522793D02*
X316914Y528889D01*
X323010D01*
X319962Y522793D01*
X294562Y520761D02*
X289482Y530921D01*
X299642D01*
X294562Y520761D01*
Y522793D02*
X291514Y528889D01*
X297610D01*
X294562Y522793D01*
X269162Y520761D02*
X264082Y530921D01*
X274242D01*
X269162Y520761D01*
Y522793D02*
X266114Y528889D01*
X272210D01*
X269162Y522793D01*
X243762Y520761D02*
X238682Y530921D01*
X248842D01*
X243762Y520761D01*
Y522793D02*
X240714Y528889D01*
X246810D01*
X243762Y522793D01*
X218362Y520761D02*
X213282Y530921D01*
X223442D01*
X218362Y520761D01*
Y522793D02*
X215314Y528889D01*
X221410D01*
X218362Y522793D01*
X192962Y520761D02*
X187882Y530921D01*
X198042D01*
X192962Y520761D01*
Y522793D02*
X189914Y528889D01*
X196010D01*
X192962Y522793D01*
X167562Y520761D02*
X162482Y530921D01*
X172642D01*
X167562Y520761D01*
Y522793D02*
X164514Y528889D01*
X170610D01*
X167562Y522793D01*
X142162Y520761D02*
X137082Y530921D01*
X147242D01*
X142162Y520761D01*
Y522793D02*
X139114Y528889D01*
X145210D01*
X142162Y522793D01*
X116762Y520761D02*
X111682Y530921D01*
X121842D01*
X116762Y520761D01*
Y522793D02*
X113714Y528889D01*
X119810D01*
X116762Y522793D01*
X91362Y520761D02*
X86282Y530921D01*
X96442D01*
X91362Y520761D01*
Y522793D02*
X88314Y528889D01*
X94410D01*
X91362Y522793D01*
X370762Y495361D02*
X365682Y505521D01*
X375842D01*
X370762Y495361D01*
Y497393D02*
X367714Y503489D01*
X373810D01*
X370762Y497393D01*
X345362Y495361D02*
X340282Y505521D01*
X350442D01*
X345362Y495361D01*
Y497393D02*
X342314Y503489D01*
X348410D01*
X345362Y497393D01*
X319962Y495361D02*
X314882Y505521D01*
X325042D01*
X319962Y495361D01*
Y497393D02*
X316914Y503489D01*
X323010D01*
X319962Y497393D01*
X294562Y495361D02*
X289482Y505521D01*
X299642D01*
X294562Y495361D01*
Y497393D02*
X291514Y503489D01*
X297610D01*
X294562Y497393D01*
X269162Y495361D02*
X264082Y505521D01*
X274242D01*
X269162Y495361D01*
Y497393D02*
X266114Y503489D01*
X272210D01*
X269162Y497393D01*
X243762Y495361D02*
X238682Y505521D01*
X248842D01*
X243762Y495361D01*
Y497393D02*
X240714Y503489D01*
X246810D01*
X243762Y497393D01*
X218362Y495361D02*
X213282Y505521D01*
X223442D01*
X218362Y495361D01*
Y497393D02*
X215314Y503489D01*
X221410D01*
X218362Y497393D01*
X192962Y495361D02*
X187882Y505521D01*
X198042D01*
X192962Y495361D01*
Y497393D02*
X189914Y503489D01*
X196010D01*
X192962Y497393D01*
X167562Y495361D02*
X162482Y505521D01*
X172642D01*
X167562Y495361D01*
Y497393D02*
X164514Y503489D01*
X170610D01*
X167562Y497393D01*
X142162Y495361D02*
X137082Y505521D01*
X147242D01*
X142162Y495361D01*
Y497393D02*
X139114Y503489D01*
X145210D01*
X142162Y497393D01*
X116762Y495361D02*
X111682Y505521D01*
X121842D01*
X116762Y495361D01*
Y497393D02*
X113714Y503489D01*
X119810D01*
X116762Y497393D01*
X91362Y495361D02*
X86282Y505521D01*
X96442D01*
X91362Y495361D01*
Y497393D02*
X88314Y503489D01*
X94410D01*
X91362Y497393D01*
X143124Y123964D02*
X138044Y134124D01*
X148204D01*
X143124Y123964D01*
X83124D02*
X78044Y134124D01*
X88204D01*
X83124Y123964D01*
X113124Y76963D02*
X108044Y87123D01*
X118204D01*
X113124Y76963D01*
X391771Y110969D02*
Y121130D01*
X401931D01*
Y110969D01*
X391771D01*
Y152040D02*
Y162200D01*
X401931D01*
Y152040D01*
X391771D01*
X219434Y403683D02*
X221974Y408763D01*
X219434Y413843D01*
X224514Y411303D01*
X229594Y413843D01*
X227054Y408763D01*
X229594Y403683D01*
X224514Y406223D01*
X219434Y403683D01*
Y428683D02*
X221974Y433763D01*
X219434Y438843D01*
X224514Y436303D01*
X229594Y438843D01*
X227054Y433763D01*
X229594Y428683D01*
X224514Y431223D01*
X219434Y428683D01*
Y453683D02*
X221974Y458763D01*
X219434Y463843D01*
X224514Y461303D01*
X229594Y463843D01*
X227054Y458763D01*
X229594Y453683D01*
X224514Y456223D01*
X219434Y453683D01*
X91362Y12761D02*
X86282Y22921D01*
X96442D01*
X91362Y12761D01*
Y14793D02*
X88314Y20889D01*
X94410D01*
X91362Y14793D01*
X116762Y12761D02*
X111682Y22921D01*
X121842D01*
X116762Y12761D01*
Y14793D02*
X113714Y20889D01*
X119810D01*
X116762Y14793D01*
X142162Y12761D02*
X137082Y22921D01*
X147242D01*
X142162Y12761D01*
Y14793D02*
X139114Y20889D01*
X145210D01*
X142162Y14793D01*
X167562Y12761D02*
X162482Y22921D01*
X172642D01*
X167562Y12761D01*
Y14793D02*
X164514Y20889D01*
X170610D01*
X167562Y14793D01*
X192962Y12761D02*
X187882Y22921D01*
X198042D01*
X192962Y12761D01*
Y14793D02*
X189914Y20889D01*
X196010D01*
X192962Y14793D01*
X218362Y12761D02*
X213282Y22921D01*
X223442D01*
X218362Y12761D01*
Y14793D02*
X215314Y20889D01*
X221410D01*
X218362Y14793D01*
X243762Y12761D02*
X238682Y22921D01*
X248842D01*
X243762Y12761D01*
Y14793D02*
X240714Y20889D01*
X246810D01*
X243762Y14793D01*
X269162Y12761D02*
X264082Y22921D01*
X274242D01*
X269162Y12761D01*
Y14793D02*
X266114Y20889D01*
X272210D01*
X269162Y14793D01*
X294562Y12761D02*
X289482Y22921D01*
X299642D01*
X294562Y12761D01*
Y14793D02*
X291514Y20889D01*
X297610D01*
X294562Y14793D01*
X319962Y12761D02*
X314882Y22921D01*
X325042D01*
X319962Y12761D01*
Y14793D02*
X316914Y20889D01*
X323010D01*
X319962Y14793D01*
X345362Y12761D02*
X340282Y22921D01*
X350442D01*
X345362Y12761D01*
Y14793D02*
X342314Y20889D01*
X348410D01*
X345362Y14793D01*
X370762Y12761D02*
X365682Y22921D01*
X375842D01*
X370762Y12761D01*
Y14793D02*
X367714Y20889D01*
X373810D01*
X370762Y14793D01*
X91362Y38161D02*
X86282Y48321D01*
X96442D01*
X91362Y38161D01*
Y40193D02*
X88314Y46289D01*
X94410D01*
X91362Y40193D01*
X142162Y38161D02*
X137082Y48321D01*
X147242D01*
X142162Y38161D01*
Y40193D02*
X139114Y46289D01*
X145210D01*
X142162Y40193D01*
X167562Y38161D02*
X162482Y48321D01*
X172642D01*
X167562Y38161D01*
Y40193D02*
X164514Y46289D01*
X170610D01*
X167562Y40193D01*
X192962Y38161D02*
X187882Y48321D01*
X198042D01*
X192962Y38161D01*
Y40193D02*
X189914Y46289D01*
X196010D01*
X192962Y40193D01*
X218362Y38161D02*
X213282Y48321D01*
X223442D01*
X218362Y38161D01*
Y40193D02*
X215314Y46289D01*
X221410D01*
X218362Y40193D01*
X243762Y38161D02*
X238682Y48321D01*
X248842D01*
X243762Y38161D01*
Y40193D02*
X240714Y46289D01*
X246810D01*
X243762Y40193D01*
X269162Y38161D02*
X264082Y48321D01*
X274242D01*
X269162Y38161D01*
Y40193D02*
X266114Y46289D01*
X272210D01*
X269162Y40193D01*
X294562Y38161D02*
X289482Y48321D01*
X299642D01*
X294562Y38161D01*
Y40193D02*
X291514Y46289D01*
X297610D01*
X294562Y40193D01*
X319962Y38161D02*
X314882Y48321D01*
X325042D01*
X319962Y38161D01*
Y40193D02*
X316914Y46289D01*
X323010D01*
X319962Y40193D01*
X345362Y38161D02*
X340282Y48321D01*
X350442D01*
X345362Y38161D01*
Y40193D02*
X342314Y46289D01*
X348410D01*
X345362Y40193D01*
X370762Y38161D02*
X365682Y48321D01*
X375842D01*
X370762Y38161D01*
Y40193D02*
X367714Y46289D01*
X373810D01*
X370762Y40193D01*
X116762Y38161D02*
X111682Y48321D01*
X121842D01*
X116762Y38161D01*
Y40193D02*
X113714Y46289D01*
X119810D01*
X116762Y40193D01*
X325686Y417211D02*
X328226Y419751D01*
X330766D01*
X328226Y422291D01*
X330766Y424831D01*
X328226D01*
X325686Y427371D01*
X323146Y424831D01*
X320606D01*
X323146Y422291D01*
X320606Y419751D01*
X323146D01*
X325686Y417211D01*
X335883Y467022D02*
X338423Y469562D01*
X340963D01*
X338423Y472102D01*
X340963Y474642D01*
X338423D01*
X335883Y477182D01*
X333343Y474642D01*
X330803D01*
X333343Y472102D01*
X330803Y469562D01*
X333343D01*
X335883Y467022D01*
X420537Y431218D02*
X423078Y433758D01*
X425617D01*
X423078Y436298D01*
X425617Y438838D01*
X423078D01*
X420537Y441378D01*
X417998Y438838D01*
X415457D01*
X417998Y436298D01*
X415457Y433758D01*
X417998D01*
X420537Y431218D01*
X277386Y432975D02*
X279926Y435515D01*
X282466D01*
X279926Y438055D01*
X282466Y440595D01*
X279926D01*
X277386Y443135D01*
X274846Y440595D01*
X272306D01*
X274846Y438055D01*
X272306Y435515D01*
X274846D01*
X277386Y432975D01*
X468254Y475454D02*
X470794Y477994D01*
X473334D01*
X470794Y480534D01*
X473334Y483074D01*
X470794D01*
X468254Y485614D01*
X465714Y483074D01*
X463174D01*
X465714Y480534D01*
X463174Y477994D01*
X465714D01*
X468254Y475454D01*
X416678Y481533D02*
X419218Y484073D01*
X421758D01*
X419218Y486613D01*
X421758Y489153D01*
X419218D01*
X416678Y491693D01*
X414138Y489153D01*
X411598D01*
X414138Y486613D01*
X411598Y484073D01*
X414138D01*
X416678Y481533D01*
X254540Y122174D02*
X257080Y124714D01*
X259620D01*
X257080Y127254D01*
X259620Y129794D01*
X257080D01*
X254540Y132334D01*
X252000Y129794D01*
X249460D01*
X252000Y127254D01*
X249460Y124714D01*
X252000D01*
X254540Y122174D01*
X281635Y56751D02*
X284175Y59291D01*
X286715D01*
X284175Y61831D01*
X286715Y64371D01*
X284175D01*
X281635Y66911D01*
X279095Y64371D01*
X276555D01*
X279095Y61831D01*
X276555Y59291D01*
X279095D01*
X281635Y56751D01*
X325568Y59570D02*
X328108Y62109D01*
X330648D01*
X328108Y64650D01*
X330648Y67189D01*
X328108D01*
X325568Y69729D01*
X323028Y67189D01*
X320488D01*
X323028Y64650D01*
X320488Y62109D01*
X323028D01*
X325568Y59570D01*
X348713Y111146D02*
X351254Y113686D01*
X353793D01*
X351254Y116226D01*
X353793Y118766D01*
X351254D01*
X348713Y121306D01*
X346174Y118766D01*
X343633D01*
X346174Y116226D01*
X343633Y113686D01*
X346174D01*
X348713Y111146D01*
X373751Y151065D02*
X376291Y153605D01*
X378831D01*
X376291Y156145D01*
X378831Y158685D01*
X376291D01*
X373751Y161225D01*
X371211Y158685D01*
X368671D01*
X371211Y156145D01*
X368671Y153605D01*
X371211D01*
X373751Y151065D01*
X406757Y67333D02*
X409297Y69873D01*
X411837D01*
X409297Y72413D01*
X411837Y74953D01*
X409297D01*
X406757Y77493D01*
X404217Y74953D01*
X401677D01*
X404217Y72413D01*
X401677Y69873D01*
X404217D01*
X406757Y67333D01*
D85*
X399131Y289088D02*
G03*
X399131Y289088I-5080J0D01*
G01*
Y277638D02*
G03*
X399131Y277638I-5080J0D01*
G01*
X399177Y266099D02*
G03*
X399177Y266099I-5080J0D01*
G01*
X160180Y274828D02*
G03*
X160180Y274828I-5080J0D01*
G01*
X388191Y130979D02*
G03*
X388191Y130979I-5080J0D01*
G01*
X171460Y291068D02*
G03*
X171460Y291068I-5080J0D01*
G01*
X181197Y274838D02*
G03*
X181197Y274838I-5080J0D01*
G01*
M02*
