G04*
G04 #@! TF.GenerationSoftware,Altium Limited,Altium Designer,23.2.1 (34)*
G04*
G04 Layer_Color=255*
%FSLAX44Y44*%
%MOMM*%
G71*
G04*
G04 #@! TF.SameCoordinates,98CE878A-1806-4984-BA15-9BEB6A1E334D*
G04*
G04*
G04 #@! TF.FilePolarity,Positive*
G04*
G01*
G75*
%ADD50C,1.3716*%
%ADD51R,1.3716X1.3716*%
%ADD68C,1.6000*%
%ADD69R,1.6000X1.6000*%
%ADD70R,1.5000X1.5000*%
%ADD71C,1.5000*%
%ADD72C,1.5240*%
%ADD73O,1.5000X3.0000*%
%ADD74O,3.0000X1.5000*%
D50*
X152127Y433763D02*
D03*
Y458763D02*
D03*
X224514Y433763D02*
D03*
Y458763D02*
D03*
D51*
X152127Y408763D02*
D03*
X224514D02*
D03*
D68*
X53135Y454094D02*
D03*
Y428694D02*
D03*
D69*
Y403293D02*
D03*
D70*
X41785Y195845D02*
D03*
Y292846D02*
D03*
X396851Y116049D02*
D03*
D71*
X41785Y221245D02*
D03*
Y246645D02*
D03*
Y318246D02*
D03*
Y343646D02*
D03*
X396851Y157120D02*
D03*
D72*
X370762Y525841D02*
D03*
X345362D02*
D03*
X319962D02*
D03*
X294562D02*
D03*
X269162D02*
D03*
X243762D02*
D03*
X218362D02*
D03*
X192962D02*
D03*
X167562D02*
D03*
X142162D02*
D03*
X116762D02*
D03*
X91362D02*
D03*
X370762Y500441D02*
D03*
X345362D02*
D03*
X319962D02*
D03*
X294562D02*
D03*
X269162D02*
D03*
X243762D02*
D03*
X218362D02*
D03*
X192962D02*
D03*
X167562D02*
D03*
X142162D02*
D03*
X116762D02*
D03*
X91362D02*
D03*
Y17841D02*
D03*
X116762D02*
D03*
X142162D02*
D03*
X167562D02*
D03*
X192962D02*
D03*
X218362D02*
D03*
X243762D02*
D03*
X269162D02*
D03*
X294562D02*
D03*
X319962D02*
D03*
X345362D02*
D03*
X370762D02*
D03*
X91362Y43241D02*
D03*
X142162D02*
D03*
X167562D02*
D03*
X192962D02*
D03*
X218362D02*
D03*
X243762D02*
D03*
X269162D02*
D03*
X294562D02*
D03*
X319962D02*
D03*
X345362D02*
D03*
X370762D02*
D03*
X116762D02*
D03*
D73*
X143124Y129044D02*
D03*
X83124D02*
D03*
D74*
X113124Y82043D02*
D03*
M02*
