G04*
G04 #@! TF.GenerationSoftware,Altium Limited,Altium Designer,23.2.1 (34)*
G04*
G04 Layer_Physical_Order=1*
G04 Layer_Color=255*
%FSLAX44Y44*%
%MOMM*%
G71*
G04*
G04 #@! TF.SameCoordinates,98CE878A-1806-4984-BA15-9BEB6A1E334D*
G04*
G04*
G04 #@! TF.FilePolarity,Positive*
G04*
G01*
G75*
%ADD10C,0.2500*%
%ADD22C,0.5000*%
%ADD25R,1.3000X3.3000*%
%ADD26R,1.1500X3.2000*%
%ADD27R,0.9000X0.8000*%
G04:AMPARAMS|DCode=28|XSize=0.41mm|YSize=1.02mm|CornerRadius=0.1025mm|HoleSize=0mm|Usage=FLASHONLY|Rotation=90.000|XOffset=0mm|YOffset=0mm|HoleType=Round|Shape=RoundedRectangle|*
%AMROUNDEDRECTD28*
21,1,0.4100,0.8150,0,0,90.0*
21,1,0.2050,1.0200,0,0,90.0*
1,1,0.2050,0.4075,0.1025*
1,1,0.2050,0.4075,-0.1025*
1,1,0.2050,-0.4075,-0.1025*
1,1,0.2050,-0.4075,0.1025*
%
%ADD28ROUNDEDRECTD28*%
%ADD29R,0.4000X0.5000*%
%ADD30C,4.6400*%
%ADD31R,0.5000X3.3000*%
%ADD32R,2.6000X1.1000*%
G04:AMPARAMS|DCode=33|XSize=0.6mm|YSize=1mm|CornerRadius=0.075mm|HoleSize=0mm|Usage=FLASHONLY|Rotation=180.000|XOffset=0mm|YOffset=0mm|HoleType=Round|Shape=RoundedRectangle|*
%AMROUNDEDRECTD33*
21,1,0.6000,0.8500,0,0,180.0*
21,1,0.4500,1.0000,0,0,180.0*
1,1,0.1500,-0.2250,0.4250*
1,1,0.1500,0.2250,0.4250*
1,1,0.1500,0.2250,-0.4250*
1,1,0.1500,-0.2250,-0.4250*
%
%ADD33ROUNDEDRECTD33*%
%ADD34R,0.6500X1.1000*%
%ADD35R,0.8000X0.9000*%
G04:AMPARAMS|DCode=36|XSize=0.6mm|YSize=1mm|CornerRadius=0.075mm|HoleSize=0mm|Usage=FLASHONLY|Rotation=90.000|XOffset=0mm|YOffset=0mm|HoleType=Round|Shape=RoundedRectangle|*
%AMROUNDEDRECTD36*
21,1,0.6000,0.8500,0,0,90.0*
21,1,0.4500,1.0000,0,0,90.0*
1,1,0.1500,0.4250,0.2250*
1,1,0.1500,0.4250,-0.2250*
1,1,0.1500,-0.4250,-0.2250*
1,1,0.1500,-0.4250,0.2250*
%
%ADD36ROUNDEDRECTD36*%
%ADD50C,1.3716*%
%ADD51R,1.3716X1.3716*%
%ADD62R,1.7400X1.4000*%
%ADD63R,1.2100X1.1600*%
%ADD64R,1.4400X1.7000*%
%ADD65R,1.1600X1.2100*%
%ADD66C,0.4000*%
%ADD67C,0.3000*%
%ADD68C,1.6000*%
%ADD69R,1.6000X1.6000*%
%ADD70R,1.5000X1.5000*%
%ADD71C,1.5000*%
%ADD72C,1.5240*%
%ADD73O,1.5000X3.0000*%
%ADD74O,3.0000X1.5000*%
%ADD75C,0.7000*%
%ADD76C,0.6000*%
%ADD77C,1.0000*%
%ADD78C,1.2700*%
%ADD79C,0.9000*%
G36*
X429816Y539887D02*
X429816Y539887D01*
X433166Y539033D01*
X439638Y536598D01*
X445804Y533466D01*
X451588Y529676D01*
X456921Y525274D01*
X461738Y520312D01*
X465981Y514851D01*
X469598Y508957D01*
X472546Y502701D01*
X474788Y496160D01*
X476298Y489411D01*
X476971Y483321D01*
X475728Y483002D01*
X475111Y484493D01*
X473853Y486133D01*
X472213Y487391D01*
X470303Y488182D01*
X468254Y488452D01*
X466205Y488182D01*
X464295Y487391D01*
X462655Y486133D01*
X461397Y484493D01*
X460750Y482930D01*
X457799D01*
Y486871D01*
X449569D01*
X448299Y486871D01*
Y486871D01*
X448299D01*
Y486871D01*
X437618D01*
Y501089D01*
X437346Y502455D01*
X436573Y503612D01*
X411820Y528365D01*
X410662Y529138D01*
X409296Y529410D01*
X379155D01*
X378728Y530441D01*
X377266Y532346D01*
X375361Y533808D01*
X373143Y534727D01*
X370762Y535040D01*
X368381Y534727D01*
X366162Y533808D01*
X364257Y532346D01*
X362795Y530441D01*
X361876Y528222D01*
X361563Y525841D01*
X361876Y523461D01*
X362795Y521242D01*
X364257Y519337D01*
X366162Y517875D01*
X368381Y516956D01*
X370762Y516643D01*
X373143Y516956D01*
X375361Y517875D01*
X377266Y519337D01*
X378728Y521242D01*
X379155Y522273D01*
X407818D01*
X430481Y499611D01*
Y486871D01*
X429299D01*
Y472871D01*
X447029D01*
X448299Y472871D01*
Y472871D01*
X448299D01*
Y472871D01*
X457799D01*
Y476812D01*
X461299D01*
X461397Y476575D01*
X462655Y474935D01*
X464295Y473677D01*
X466205Y472886D01*
X468254Y472616D01*
X470303Y472886D01*
X472213Y473677D01*
X473853Y474935D01*
X475111Y476575D01*
X475787Y478208D01*
X477057Y477955D01*
X477057Y195667D01*
X262004Y195667D01*
X262004Y185507D01*
X477057Y185507D01*
Y60220D01*
X477057Y60220D01*
X476852Y56500D01*
X475473Y49176D01*
X473151Y42094D01*
X469924Y35377D01*
X465847Y29137D01*
X460991Y23484D01*
X455439Y18513D01*
X449286Y14309D01*
X442636Y10943D01*
X435604Y8475D01*
X428310Y6946D01*
X420878Y6382D01*
X417158Y6587D01*
X78109Y6587D01*
X5601D01*
Y539887D01*
X429815D01*
X429816Y539887D01*
D02*
G37*
%LPC*%
G36*
X345362Y535040D02*
X342981Y534727D01*
X340762Y533808D01*
X338857Y532346D01*
X337395Y530441D01*
X336476Y528222D01*
X336163Y525841D01*
X336476Y523461D01*
X337395Y521242D01*
X338857Y519337D01*
X340762Y517875D01*
X342981Y516956D01*
X345362Y516643D01*
X347743Y516956D01*
X349961Y517875D01*
X351866Y519337D01*
X353328Y521242D01*
X354247Y523461D01*
X354560Y525841D01*
X354247Y528222D01*
X353328Y530441D01*
X351866Y532346D01*
X349961Y533808D01*
X347743Y534727D01*
X345362Y535040D01*
D02*
G37*
G36*
X319962D02*
X317581Y534727D01*
X315362Y533808D01*
X313457Y532346D01*
X311995Y530441D01*
X311076Y528222D01*
X310763Y525841D01*
X311076Y523461D01*
X311995Y521242D01*
X313457Y519337D01*
X315362Y517875D01*
X317581Y516956D01*
X319962Y516643D01*
X322342Y516956D01*
X324561Y517875D01*
X326466Y519337D01*
X327928Y521242D01*
X328847Y523461D01*
X329160Y525841D01*
X328847Y528222D01*
X327928Y530441D01*
X326466Y532346D01*
X324561Y533808D01*
X322342Y534727D01*
X319962Y535040D01*
D02*
G37*
G36*
X294562D02*
X292181Y534727D01*
X289962Y533808D01*
X288057Y532346D01*
X286595Y530441D01*
X285676Y528222D01*
X285363Y525841D01*
X285676Y523461D01*
X286595Y521242D01*
X288057Y519337D01*
X289962Y517875D01*
X292181Y516956D01*
X294562Y516643D01*
X296943Y516956D01*
X299161Y517875D01*
X301066Y519337D01*
X302528Y521242D01*
X303447Y523461D01*
X303760Y525841D01*
X303447Y528222D01*
X302528Y530441D01*
X301066Y532346D01*
X299161Y533808D01*
X296943Y534727D01*
X294562Y535040D01*
D02*
G37*
G36*
X269162D02*
X266781Y534727D01*
X264562Y533808D01*
X262657Y532346D01*
X261195Y530441D01*
X260276Y528222D01*
X259963Y525841D01*
X260276Y523461D01*
X261195Y521242D01*
X262657Y519337D01*
X264562Y517875D01*
X266781Y516956D01*
X269162Y516643D01*
X271542Y516956D01*
X273761Y517875D01*
X275666Y519337D01*
X277128Y521242D01*
X278047Y523461D01*
X278360Y525841D01*
X278047Y528222D01*
X277128Y530441D01*
X275666Y532346D01*
X273761Y533808D01*
X271542Y534727D01*
X269162Y535040D01*
D02*
G37*
G36*
X243762D02*
X241381Y534727D01*
X239162Y533808D01*
X237257Y532346D01*
X235795Y530441D01*
X234876Y528222D01*
X234563Y525841D01*
X234876Y523461D01*
X235795Y521242D01*
X237257Y519337D01*
X239162Y517875D01*
X241381Y516956D01*
X243762Y516643D01*
X246143Y516956D01*
X248361Y517875D01*
X250266Y519337D01*
X251728Y521242D01*
X252647Y523461D01*
X252960Y525841D01*
X252647Y528222D01*
X251728Y530441D01*
X250266Y532346D01*
X248361Y533808D01*
X246143Y534727D01*
X243762Y535040D01*
D02*
G37*
G36*
X218362D02*
X215981Y534727D01*
X213762Y533808D01*
X211857Y532346D01*
X210395Y530441D01*
X209476Y528222D01*
X209163Y525841D01*
X209476Y523461D01*
X210395Y521242D01*
X211857Y519337D01*
X213762Y517875D01*
X215981Y516956D01*
X218362Y516643D01*
X220742Y516956D01*
X222961Y517875D01*
X224866Y519337D01*
X226328Y521242D01*
X227247Y523461D01*
X227560Y525841D01*
X227247Y528222D01*
X226328Y530441D01*
X224866Y532346D01*
X222961Y533808D01*
X220742Y534727D01*
X218362Y535040D01*
D02*
G37*
G36*
X192962D02*
X190581Y534727D01*
X188362Y533808D01*
X186457Y532346D01*
X184995Y530441D01*
X184076Y528222D01*
X183763Y525841D01*
X184076Y523461D01*
X184995Y521242D01*
X186457Y519337D01*
X188362Y517875D01*
X190581Y516956D01*
X192962Y516643D01*
X195343Y516956D01*
X197561Y517875D01*
X199466Y519337D01*
X200928Y521242D01*
X201847Y523461D01*
X202160Y525841D01*
X201847Y528222D01*
X200928Y530441D01*
X199466Y532346D01*
X197561Y533808D01*
X195343Y534727D01*
X192962Y535040D01*
D02*
G37*
G36*
X167562D02*
X165181Y534727D01*
X162962Y533808D01*
X161057Y532346D01*
X159595Y530441D01*
X158676Y528222D01*
X158363Y525841D01*
X158676Y523461D01*
X159595Y521242D01*
X161057Y519337D01*
X162962Y517875D01*
X165181Y516956D01*
X167562Y516643D01*
X169942Y516956D01*
X172161Y517875D01*
X174066Y519337D01*
X175528Y521242D01*
X176447Y523461D01*
X176760Y525841D01*
X176447Y528222D01*
X175528Y530441D01*
X174066Y532346D01*
X172161Y533808D01*
X169942Y534727D01*
X167562Y535040D01*
D02*
G37*
G36*
X142162D02*
X139781Y534727D01*
X137562Y533808D01*
X135657Y532346D01*
X134195Y530441D01*
X133276Y528222D01*
X132963Y525841D01*
X133276Y523461D01*
X134195Y521242D01*
X135657Y519337D01*
X137562Y517875D01*
X139781Y516956D01*
X142162Y516643D01*
X144543Y516956D01*
X146761Y517875D01*
X148666Y519337D01*
X150128Y521242D01*
X151047Y523461D01*
X151360Y525841D01*
X151047Y528222D01*
X150128Y530441D01*
X148666Y532346D01*
X146761Y533808D01*
X144543Y534727D01*
X142162Y535040D01*
D02*
G37*
G36*
X116762D02*
X114381Y534727D01*
X112162Y533808D01*
X110257Y532346D01*
X108795Y530441D01*
X107876Y528222D01*
X107563Y525841D01*
X107876Y523461D01*
X108795Y521242D01*
X110257Y519337D01*
X112162Y517875D01*
X114381Y516956D01*
X116762Y516643D01*
X119143Y516956D01*
X121361Y517875D01*
X123266Y519337D01*
X124728Y521242D01*
X125647Y523461D01*
X125960Y525841D01*
X125647Y528222D01*
X124728Y530441D01*
X123266Y532346D01*
X121361Y533808D01*
X119143Y534727D01*
X116762Y535040D01*
D02*
G37*
G36*
X91362D02*
X88981Y534727D01*
X86762Y533808D01*
X84857Y532346D01*
X83395Y530441D01*
X82476Y528222D01*
X82163Y525841D01*
X82476Y523461D01*
X83395Y521242D01*
X84857Y519337D01*
X86762Y517875D01*
X88981Y516956D01*
X91362Y516643D01*
X93743Y516956D01*
X95961Y517875D01*
X97866Y519337D01*
X99328Y521242D01*
X100247Y523461D01*
X100560Y525841D01*
X100247Y528222D01*
X99328Y530441D01*
X97866Y532346D01*
X95961Y533808D01*
X93743Y534727D01*
X91362Y535040D01*
D02*
G37*
G36*
X345362Y509640D02*
X342981Y509327D01*
X340762Y508408D01*
X338857Y506946D01*
X337395Y505041D01*
X336476Y502822D01*
X336163Y500441D01*
X336476Y498061D01*
X337114Y496520D01*
X332200Y491606D01*
X325514D01*
X325083Y492876D01*
X326466Y493937D01*
X327928Y495842D01*
X328847Y498061D01*
X329160Y500441D01*
X328847Y502822D01*
X327928Y505041D01*
X326466Y506946D01*
X324561Y508408D01*
X322342Y509327D01*
X319962Y509640D01*
X317581Y509327D01*
X315362Y508408D01*
X313457Y506946D01*
X311995Y505041D01*
X311076Y502822D01*
X310763Y500441D01*
X311076Y498061D01*
X311995Y495842D01*
X313457Y493937D01*
X314840Y492876D01*
X314409Y491606D01*
X305201D01*
X304563Y491479D01*
X304031Y491373D01*
X304031Y491373D01*
X304031Y491373D01*
X303494Y491015D01*
X303039Y490710D01*
X301281Y488953D01*
X301281Y488953D01*
X301281Y488953D01*
X300900Y488383D01*
X300618Y487961D01*
X300618Y487961D01*
X300618Y487960D01*
X300509Y487416D01*
X300436Y487047D01*
X295444D01*
Y473047D01*
X303674D01*
X304944Y473047D01*
Y473047D01*
X304944D01*
Y473047D01*
X320648D01*
X320944Y472988D01*
X321927D01*
X323120Y471795D01*
X323120Y471795D01*
X324112Y471132D01*
X325283Y470899D01*
X328124D01*
X328235Y470052D01*
X329026Y468143D01*
X330284Y466503D01*
X331924Y465245D01*
X333834Y464454D01*
X335883Y464184D01*
X337932Y464454D01*
X339842Y465245D01*
X341482Y466503D01*
X342740Y468143D01*
X343113Y469043D01*
X350026D01*
Y466170D01*
X362026D01*
Y477170D01*
X350026D01*
Y475160D01*
X343113D01*
X342740Y476060D01*
X341482Y477700D01*
X339842Y478959D01*
X337932Y479749D01*
X335883Y480019D01*
X333834Y479749D01*
X331924Y478959D01*
X330284Y477700D01*
X329760Y477017D01*
X326550D01*
X325356Y478210D01*
X324364Y478873D01*
X323944Y478957D01*
Y485488D01*
X333467D01*
X333467Y485488D01*
X334638Y485721D01*
X335630Y486384D01*
X341440Y492194D01*
X342981Y491556D01*
X345362Y491243D01*
X347743Y491556D01*
X349961Y492475D01*
X351866Y493937D01*
X353328Y495842D01*
X354247Y498061D01*
X354560Y500441D01*
X354247Y502822D01*
X353328Y505041D01*
X351866Y506946D01*
X349961Y508408D01*
X347743Y509327D01*
X345362Y509640D01*
D02*
G37*
G36*
X294562D02*
X292181Y509327D01*
X289962Y508408D01*
X288057Y506946D01*
X286595Y505041D01*
X285676Y502822D01*
X285363Y500441D01*
X285676Y498061D01*
X286595Y495842D01*
X288057Y493937D01*
X289962Y492475D01*
X292181Y491556D01*
X294562Y491243D01*
X296943Y491556D01*
X299161Y492475D01*
X301066Y493937D01*
X302528Y495842D01*
X303447Y498061D01*
X303760Y500441D01*
X303447Y502822D01*
X302528Y505041D01*
X301066Y506946D01*
X299161Y508408D01*
X296943Y509327D01*
X294562Y509640D01*
D02*
G37*
G36*
X269162D02*
X266781Y509327D01*
X264562Y508408D01*
X262657Y506946D01*
X261195Y505041D01*
X260276Y502822D01*
X259963Y500441D01*
X260276Y498061D01*
X261195Y495842D01*
X262657Y493937D01*
X264562Y492475D01*
X266781Y491556D01*
X269162Y491243D01*
X271542Y491556D01*
X273761Y492475D01*
X275666Y493937D01*
X277128Y495842D01*
X278047Y498061D01*
X278360Y500441D01*
X278047Y502822D01*
X277128Y505041D01*
X275666Y506946D01*
X273761Y508408D01*
X271542Y509327D01*
X269162Y509640D01*
D02*
G37*
G36*
X243762D02*
X241381Y509327D01*
X239162Y508408D01*
X237257Y506946D01*
X235795Y505041D01*
X234876Y502822D01*
X234563Y500441D01*
X234876Y498061D01*
X235795Y495842D01*
X237257Y493937D01*
X239162Y492475D01*
X241381Y491556D01*
X243762Y491243D01*
X246143Y491556D01*
X248361Y492475D01*
X250266Y493937D01*
X251728Y495842D01*
X252647Y498061D01*
X252960Y500441D01*
X252647Y502822D01*
X251728Y505041D01*
X250266Y506946D01*
X248361Y508408D01*
X246143Y509327D01*
X243762Y509640D01*
D02*
G37*
G36*
X218362D02*
X215981Y509327D01*
X213762Y508408D01*
X211857Y506946D01*
X210395Y505041D01*
X209476Y502822D01*
X209163Y500441D01*
X209476Y498061D01*
X210395Y495842D01*
X211857Y493937D01*
X213762Y492475D01*
X215981Y491556D01*
X218362Y491243D01*
X220742Y491556D01*
X222961Y492475D01*
X224866Y493937D01*
X226328Y495842D01*
X227247Y498061D01*
X227560Y500441D01*
X227247Y502822D01*
X226328Y505041D01*
X224866Y506946D01*
X222961Y508408D01*
X220742Y509327D01*
X218362Y509640D01*
D02*
G37*
G36*
X192962D02*
X190581Y509327D01*
X188362Y508408D01*
X186457Y506946D01*
X184995Y505041D01*
X184076Y502822D01*
X183763Y500441D01*
X184076Y498061D01*
X184995Y495842D01*
X186457Y493937D01*
X188362Y492475D01*
X190581Y491556D01*
X192962Y491243D01*
X195343Y491556D01*
X197561Y492475D01*
X199466Y493937D01*
X200928Y495842D01*
X201847Y498061D01*
X202160Y500441D01*
X201847Y502822D01*
X200928Y505041D01*
X199466Y506946D01*
X197561Y508408D01*
X195343Y509327D01*
X192962Y509640D01*
D02*
G37*
G36*
X167562D02*
X165181Y509327D01*
X162962Y508408D01*
X161057Y506946D01*
X159595Y505041D01*
X158676Y502822D01*
X158363Y500441D01*
X158676Y498061D01*
X159595Y495842D01*
X161057Y493937D01*
X162962Y492475D01*
X165181Y491556D01*
X167562Y491243D01*
X169942Y491556D01*
X172161Y492475D01*
X174066Y493937D01*
X175528Y495842D01*
X176447Y498061D01*
X176760Y500441D01*
X176447Y502822D01*
X175528Y505041D01*
X174066Y506946D01*
X172161Y508408D01*
X169942Y509327D01*
X167562Y509640D01*
D02*
G37*
G36*
X142162D02*
X139781Y509327D01*
X137562Y508408D01*
X135657Y506946D01*
X134195Y505041D01*
X133276Y502822D01*
X132963Y500441D01*
X133276Y498061D01*
X134195Y495842D01*
X135657Y493937D01*
X137562Y492475D01*
X139781Y491556D01*
X142162Y491243D01*
X144543Y491556D01*
X146761Y492475D01*
X148666Y493937D01*
X150128Y495842D01*
X151047Y498061D01*
X151360Y500441D01*
X151047Y502822D01*
X150128Y505041D01*
X148666Y506946D01*
X146761Y508408D01*
X144543Y509327D01*
X142162Y509640D01*
D02*
G37*
G36*
X116762D02*
X114381Y509327D01*
X112162Y508408D01*
X110257Y506946D01*
X108795Y505041D01*
X107876Y502822D01*
X107563Y500441D01*
X107876Y498061D01*
X108795Y495842D01*
X110257Y493937D01*
X112162Y492475D01*
X114381Y491556D01*
X116762Y491243D01*
X119143Y491556D01*
X121361Y492475D01*
X123266Y493937D01*
X124728Y495842D01*
X125647Y498061D01*
X125960Y500441D01*
X125647Y502822D01*
X124728Y505041D01*
X123266Y506946D01*
X121361Y508408D01*
X119143Y509327D01*
X116762Y509640D01*
D02*
G37*
G36*
X91362D02*
X88981Y509327D01*
X86762Y508408D01*
X84857Y506946D01*
X83395Y505041D01*
X82476Y502822D01*
X82163Y500441D01*
X82476Y498061D01*
X83395Y495842D01*
X84857Y493937D01*
X86762Y492475D01*
X88981Y491556D01*
X91362Y491243D01*
X93743Y491556D01*
X95961Y492475D01*
X97866Y493937D01*
X99328Y495842D01*
X100247Y498061D01*
X100560Y500441D01*
X100247Y502822D01*
X99328Y505041D01*
X97866Y506946D01*
X95961Y508408D01*
X93743Y509327D01*
X91362Y509640D01*
D02*
G37*
G36*
X370762D02*
X368381Y509327D01*
X366162Y508408D01*
X364257Y506946D01*
X362795Y505041D01*
X361876Y502822D01*
X361563Y500441D01*
X361876Y498061D01*
X362795Y495842D01*
X364257Y493937D01*
X366162Y492475D01*
X367193Y492048D01*
Y487262D01*
X367465Y485896D01*
X368238Y484739D01*
X371153Y481824D01*
Y472871D01*
X379383D01*
X380653Y472871D01*
X381923Y472871D01*
X399652D01*
Y476812D01*
X409099D01*
Y466170D01*
X421099D01*
Y477170D01*
X418158D01*
Y478890D01*
X418727Y478965D01*
X420637Y479756D01*
X422277Y481014D01*
X423535Y482654D01*
X424326Y484564D01*
X424596Y486613D01*
X424326Y488662D01*
X423535Y490572D01*
X422277Y492212D01*
X420637Y493470D01*
X418727Y494261D01*
X416678Y494531D01*
X414629Y494261D01*
X412719Y493470D01*
X411080Y492212D01*
X409821Y490572D01*
X409030Y488662D01*
X408760Y486613D01*
X409030Y484564D01*
X409287Y483944D01*
X408478Y482930D01*
X399652D01*
Y486871D01*
X381923D01*
X380653Y486871D01*
X379383Y486871D01*
X376199D01*
X374330Y488740D01*
Y492048D01*
X375361Y492475D01*
X377266Y493937D01*
X378728Y495842D01*
X379647Y498061D01*
X379960Y500441D01*
X379647Y502822D01*
X378728Y505041D01*
X377266Y506946D01*
X375361Y508408D01*
X373143Y509327D01*
X370762Y509640D01*
D02*
G37*
G36*
X287211Y475766D02*
X275211D01*
Y473324D01*
X267681D01*
X266510Y473092D01*
X265518Y472429D01*
X265518Y472429D01*
X263241Y470151D01*
X262578Y469159D01*
X262345Y467988D01*
X262345Y467988D01*
Y450038D01*
X262345Y450038D01*
X262578Y448867D01*
X263241Y447875D01*
X270111Y441005D01*
X269738Y440105D01*
X269468Y438055D01*
X269738Y436006D01*
X270529Y434096D01*
X271787Y432457D01*
X273427Y431199D01*
X275336Y430407D01*
X277386Y430138D01*
X278240Y430250D01*
X279203Y429288D01*
Y427197D01*
X278800Y426927D01*
X278302Y426183D01*
X278128Y425305D01*
Y416805D01*
X278302Y415927D01*
X278800Y415183D01*
X279544Y414686D01*
X280422Y414511D01*
X284922D01*
X285800Y414686D01*
X286544Y415183D01*
X287041Y415927D01*
X287216Y416805D01*
Y425305D01*
X287041Y426183D01*
X286544Y426927D01*
X285800Y427425D01*
X285320Y427520D01*
Y430555D01*
X285087Y431725D01*
X284424Y432718D01*
X284102Y433914D01*
X284243Y434096D01*
X285034Y436006D01*
X285303Y438055D01*
X285034Y440105D01*
X284243Y442014D01*
X282984Y443654D01*
X281345Y444912D01*
X279435Y445703D01*
X277386Y445973D01*
X275336Y445703D01*
X274436Y445331D01*
X268462Y451305D01*
Y466721D01*
X268948Y467207D01*
X275211D01*
Y464766D01*
X287211D01*
Y475766D01*
D02*
G37*
G36*
X427986Y464598D02*
Y460729D01*
X422139D01*
Y464210D01*
X416369D01*
Y457670D01*
Y451130D01*
X422139D01*
Y454611D01*
X427088D01*
X427986Y453713D01*
X427986Y447869D01*
X428259Y447831D01*
X429240Y447831D01*
X439839D01*
X439980Y446619D01*
Y444823D01*
X436576D01*
Y432823D01*
X446168D01*
X446694Y431553D01*
X442837Y427697D01*
X439090D01*
X438212Y427522D01*
X437468Y427025D01*
X436971Y426281D01*
X436796Y425403D01*
Y416903D01*
X436971Y416025D01*
X437468Y415281D01*
X438212Y414783D01*
X439090Y414609D01*
X443590D01*
X444468Y414783D01*
X445212Y415281D01*
X445710Y416025D01*
X445884Y416903D01*
Y420650D01*
X458057Y432823D01*
X461576D01*
Y444823D01*
X456618D01*
Y448871D01*
X457799D01*
Y462871D01*
X449569D01*
X448299Y462871D01*
X447029Y462871D01*
X440320D01*
Y464598D01*
X427986Y464598D01*
D02*
G37*
G36*
X298924Y464087D02*
X294404D01*
Y459324D01*
X288251D01*
Y462805D01*
X282481D01*
Y456265D01*
Y449725D01*
X288251D01*
Y453206D01*
X294404D01*
Y448007D01*
X298924D01*
Y456047D01*
Y464087D01*
D02*
G37*
G36*
X354756Y464210D02*
X348986D01*
Y458940D01*
X354756D01*
Y464210D01*
D02*
G37*
G36*
X413829D02*
X408059D01*
Y458940D01*
X413829D01*
Y464210D01*
D02*
G37*
G36*
X279941Y462805D02*
X274171D01*
Y457535D01*
X279941D01*
Y462805D01*
D02*
G37*
G36*
X413829Y456400D02*
X408059D01*
Y451130D01*
X413829D01*
Y456400D01*
D02*
G37*
G36*
X354756D02*
X348986D01*
Y451130D01*
X354756D01*
Y456400D01*
D02*
G37*
G36*
X224514Y467193D02*
X222332Y466906D01*
X220299Y466064D01*
X218553Y464724D01*
X217213Y462978D01*
X216371Y460945D01*
X216084Y458763D01*
X216371Y456581D01*
X217213Y454548D01*
X218553Y452802D01*
X220299Y451462D01*
X222332Y450620D01*
X224514Y450333D01*
X226696Y450620D01*
X228729Y451462D01*
X230475Y452802D01*
X231815Y454548D01*
X232657Y456581D01*
X232944Y458763D01*
X232657Y460945D01*
X231815Y462978D01*
X230475Y464724D01*
X228729Y466064D01*
X226696Y466906D01*
X224514Y467193D01*
D02*
G37*
G36*
X152127D02*
X149945Y466906D01*
X147912Y466064D01*
X146166Y464724D01*
X144826Y462978D01*
X143984Y460945D01*
X143697Y458763D01*
X143984Y456581D01*
X144826Y454548D01*
X146166Y452802D01*
X147912Y451462D01*
X149945Y450620D01*
X152127Y450333D01*
X154309Y450620D01*
X156342Y451462D01*
X158088Y452802D01*
X159428Y454548D01*
X160270Y456581D01*
X160557Y458763D01*
X160270Y460945D01*
X159428Y462978D01*
X158088Y464724D01*
X156342Y466064D01*
X154309Y466906D01*
X152127Y467193D01*
D02*
G37*
G36*
X279941Y454995D02*
X274171D01*
Y449725D01*
X279941D01*
Y454995D01*
D02*
G37*
G36*
X53135Y463675D02*
X50655Y463349D01*
X48344Y462392D01*
X46360Y460869D01*
X44837Y458885D01*
X44180Y457299D01*
X17710D01*
X16344Y457027D01*
X15187Y456254D01*
X12843Y453911D01*
X12070Y452753D01*
X11798Y451387D01*
Y105860D01*
X12070Y104494D01*
X12843Y103336D01*
X15187Y100993D01*
X16344Y100220D01*
X17710Y99948D01*
X163752D01*
X165118Y100220D01*
X166276Y100993D01*
X168619Y103336D01*
X169392Y104494D01*
X169664Y105860D01*
Y141949D01*
X182376Y154661D01*
X206427D01*
Y149493D01*
X192985D01*
Y141493D01*
X199927D01*
Y131532D01*
X197755D01*
Y126492D01*
Y121453D01*
X199927D01*
Y120059D01*
X190171D01*
X189000Y119826D01*
X188008Y119163D01*
X188008Y119163D01*
X153947Y85102D01*
X129098D01*
X128485Y86582D01*
X127043Y88462D01*
X125163Y89905D01*
X122973Y90812D01*
X120624Y91121D01*
X105624D01*
X103274Y90812D01*
X101085Y89905D01*
X99205Y88462D01*
X97762Y86582D01*
X96856Y84393D01*
X96546Y82043D01*
X96856Y79694D01*
X97762Y77505D01*
X99205Y75625D01*
X101085Y74182D01*
X103274Y73275D01*
X105624Y72966D01*
X120624D01*
X122973Y73275D01*
X125163Y74182D01*
X127043Y75625D01*
X128485Y77505D01*
X129098Y78985D01*
X155214D01*
X155214Y78985D01*
X156385Y79218D01*
X157377Y79880D01*
X191438Y113941D01*
X201228D01*
X201228Y113941D01*
X202399Y114174D01*
X203391Y114837D01*
X205148Y116594D01*
X205148Y116594D01*
X205156Y116607D01*
X206427Y116221D01*
Y113078D01*
X205947Y112598D01*
X195602D01*
X194432Y112365D01*
X193439Y111702D01*
X193439Y111702D01*
X145774Y64037D01*
X134499D01*
X133328Y63804D01*
X132336Y63141D01*
X132336Y63141D01*
X120683Y51488D01*
X119143Y52127D01*
X116762Y52440D01*
X114381Y52127D01*
X112162Y51208D01*
X110257Y49746D01*
X108795Y47841D01*
X107876Y45622D01*
X107563Y43241D01*
X107876Y40861D01*
X108795Y38642D01*
X110257Y36737D01*
X112162Y35275D01*
X114381Y34356D01*
X116762Y34043D01*
X119143Y34356D01*
X121361Y35275D01*
X123266Y36737D01*
X124728Y38642D01*
X125647Y40861D01*
X125960Y43241D01*
X125647Y45622D01*
X125009Y47163D01*
X135766Y57920D01*
X147041D01*
X147041Y57920D01*
X148212Y58153D01*
X149204Y58816D01*
X196869Y106481D01*
X207214D01*
X207214Y106481D01*
X208384Y106713D01*
X209377Y107376D01*
X211648Y109648D01*
X211648Y109648D01*
X212311Y110640D01*
X212544Y111811D01*
X212544Y111811D01*
Y122493D01*
X212985D01*
Y130492D01*
X206044D01*
Y141493D01*
X212985D01*
Y149493D01*
X212544D01*
Y156687D01*
X212662Y156864D01*
X212934Y158229D01*
X212662Y159595D01*
X211888Y160753D01*
X210730Y161526D01*
X209365Y161798D01*
X180898D01*
X179532Y161526D01*
X178374Y160753D01*
X163572Y145950D01*
X162798Y144792D01*
X162527Y143427D01*
Y107338D01*
X162274Y107085D01*
X19188D01*
X18935Y107338D01*
Y449909D01*
X19188Y450162D01*
X44481D01*
X44837Y449302D01*
X46360Y447318D01*
X48344Y445795D01*
X50655Y444838D01*
X53135Y444511D01*
X55615Y444838D01*
X57926Y445795D01*
X59911Y447318D01*
X61433Y449302D01*
X61693Y449930D01*
X81519D01*
Y446384D01*
X93519D01*
Y457384D01*
X81519D01*
Y456047D01*
X62460D01*
X62391Y456573D01*
X61433Y458885D01*
X59911Y460869D01*
X57926Y462392D01*
X55615Y463349D01*
X53135Y463675D01*
D02*
G37*
G36*
X93519Y443383D02*
X81519D01*
Y440942D01*
X62325D01*
X62325Y440942D01*
X61155Y440709D01*
X60162Y440046D01*
X60162Y440046D01*
X57347Y437231D01*
X55615Y437949D01*
X53135Y438275D01*
X50655Y437949D01*
X48344Y436992D01*
X46360Y435469D01*
X44837Y433484D01*
X43880Y431174D01*
X43553Y428694D01*
X43880Y426213D01*
X44837Y423903D01*
X46360Y421918D01*
X48344Y420395D01*
X50655Y419438D01*
X53135Y419112D01*
X55615Y419438D01*
X57926Y420395D01*
X59911Y421918D01*
X61433Y423903D01*
X62391Y426213D01*
X62717Y428694D01*
X62391Y431174D01*
X61673Y432906D01*
X63592Y434825D01*
X81519D01*
Y432383D01*
X84997D01*
Y418781D01*
X82056D01*
Y407781D01*
X94056D01*
Y418781D01*
X91114D01*
Y432383D01*
X93519D01*
Y443383D01*
D02*
G37*
G36*
X305984Y464087D02*
X301464D01*
Y456047D01*
Y448007D01*
X305895D01*
X306562Y446977D01*
X306094Y445955D01*
X299529D01*
Y433955D01*
X310529D01*
Y441630D01*
X311857Y442958D01*
X311857Y442958D01*
X312259Y443560D01*
X313529Y443174D01*
Y433955D01*
X314188D01*
X314714Y432685D01*
X308226Y426198D01*
X306031D01*
X305544Y426927D01*
X304799Y427425D01*
X303922Y427599D01*
X299422D01*
X298544Y427425D01*
X297799Y426927D01*
X297302Y426183D01*
X297128Y425305D01*
Y416805D01*
X297302Y415927D01*
X297799Y415183D01*
X298544Y414686D01*
X299422Y414511D01*
X303922D01*
X304799Y414686D01*
X305544Y415183D01*
X306041Y415927D01*
X306216Y416805D01*
Y420080D01*
X309493D01*
X309493Y420080D01*
X310664Y420313D01*
X311656Y420976D01*
X318212Y427532D01*
X319169Y426693D01*
X318829Y426250D01*
X318038Y424340D01*
X317768Y422291D01*
X318038Y420241D01*
X318829Y418332D01*
X320087Y416692D01*
X321727Y415434D01*
X323637Y414643D01*
X325686Y414373D01*
X327735Y414643D01*
X329645Y415434D01*
X331284Y416692D01*
X332543Y418332D01*
X332916Y419232D01*
X336442D01*
Y416903D01*
X336616Y416025D01*
X337114Y415281D01*
X337858Y414783D01*
X338736Y414609D01*
X343236D01*
X344114Y414783D01*
X344858Y415281D01*
X345355Y416025D01*
X345530Y416903D01*
Y425403D01*
X345355Y426281D01*
X344858Y427025D01*
X344114Y427522D01*
X343236Y427697D01*
X338736D01*
X337858Y427522D01*
X337114Y427025D01*
X336616Y426281D01*
X336442Y425403D01*
Y425349D01*
X332916D01*
X332543Y426250D01*
X331284Y427889D01*
X329645Y429148D01*
X327735Y429939D01*
X325686Y430208D01*
X323637Y429939D01*
X321727Y429148D01*
X321283Y428807D01*
X320444Y429764D01*
X321192Y430512D01*
X321855Y431504D01*
X322088Y432675D01*
Y433955D01*
X324529D01*
Y445955D01*
X322545D01*
Y449047D01*
X323944D01*
Y463047D01*
X305984D01*
Y464087D01*
D02*
G37*
G36*
X363066Y464210D02*
X357296D01*
Y457670D01*
Y451130D01*
X363066D01*
Y454611D01*
X369214D01*
X370112Y453713D01*
X370112Y447831D01*
X370113Y447831D01*
X371382Y447831D01*
X381693D01*
X381834Y446620D01*
Y445237D01*
X381421Y444823D01*
X374967D01*
Y432823D01*
X381761D01*
X382247Y431650D01*
X375319Y424721D01*
X364529D01*
Y425403D01*
X364355Y426281D01*
X363858Y427025D01*
X363113Y427522D01*
X362235Y427697D01*
X357735D01*
X356858Y427522D01*
X356113Y427025D01*
X355616Y426281D01*
X355441Y425403D01*
Y416903D01*
X355616Y416025D01*
X356113Y415281D01*
X356858Y414783D01*
X357735Y414609D01*
X362235D01*
X363113Y414783D01*
X363858Y415281D01*
X364355Y416025D01*
X364529Y416903D01*
Y417584D01*
X376797D01*
X378162Y417856D01*
X379320Y418629D01*
X393514Y432823D01*
X399967D01*
Y444823D01*
X398036D01*
Y448871D01*
X399652D01*
Y462871D01*
X382375D01*
X381693Y463911D01*
X381665Y463911D01*
X381665Y463911D01*
X380423Y463911D01*
X370112Y463911D01*
Y460729D01*
X363066D01*
Y464210D01*
D02*
G37*
G36*
X420537Y444216D02*
X418488Y443946D01*
X416579Y443155D01*
X414939Y441896D01*
X413681Y440257D01*
X412890Y438347D01*
X412620Y436298D01*
X412890Y434249D01*
X413681Y432339D01*
X414939Y430699D01*
X416579Y429441D01*
X418380Y428695D01*
Y426893D01*
X417971Y426281D01*
X417796Y425403D01*
Y416903D01*
X417971Y416025D01*
X418468Y415281D01*
X419212Y414783D01*
X420090Y414609D01*
X424590D01*
X425468Y414783D01*
X426212Y415281D01*
X426709Y416025D01*
X426884Y416903D01*
Y425403D01*
X426709Y426281D01*
X426212Y427025D01*
X425468Y427522D01*
X424590Y427697D01*
X424497D01*
Y429442D01*
X426136Y430699D01*
X427394Y432339D01*
X428186Y434249D01*
X428455Y436298D01*
X428186Y438347D01*
X427394Y440257D01*
X426136Y441896D01*
X424496Y443155D01*
X422587Y443946D01*
X420537Y444216D01*
D02*
G37*
G36*
X62635Y412794D02*
X43635D01*
Y406862D01*
X26606D01*
X25240Y406590D01*
X24082Y405817D01*
X22325Y404059D01*
X21551Y402902D01*
X21279Y401536D01*
Y223002D01*
X21551Y221637D01*
X22325Y220479D01*
X24082Y218722D01*
X25240Y217948D01*
X26606Y217676D01*
X33522D01*
X33924Y216706D01*
X35366Y214826D01*
X37246Y213384D01*
X39436Y212477D01*
X41785Y212167D01*
X44135Y212477D01*
X46324Y213384D01*
X46631Y213619D01*
X62630Y197620D01*
X62630Y197620D01*
X63953Y196736D01*
X65514Y196426D01*
X139045D01*
Y144596D01*
X138585Y144405D01*
X136705Y142962D01*
X135262Y141082D01*
X134355Y138893D01*
X134046Y136544D01*
Y121544D01*
X134355Y119194D01*
X135262Y117005D01*
X136705Y115125D01*
X138585Y113682D01*
X140774Y112775D01*
X143124Y112466D01*
X145473Y112775D01*
X147663Y113682D01*
X149543Y115125D01*
X150985Y117005D01*
X151892Y119194D01*
X152201Y121544D01*
Y136544D01*
X151892Y138893D01*
X150985Y141082D01*
X149543Y142962D01*
X147663Y144405D01*
X147202Y144596D01*
Y200504D01*
X146892Y202065D01*
X146008Y203388D01*
X144684Y204272D01*
X143124Y204583D01*
X67203D01*
X51769Y220016D01*
X50921Y220583D01*
X50793Y220711D01*
X50863Y221245D01*
X50553Y223594D01*
X49647Y225784D01*
X48204Y227664D01*
X46324Y229106D01*
X44135Y230013D01*
X41785Y230323D01*
X39436Y230013D01*
X37246Y229106D01*
X35366Y227664D01*
X33924Y225784D01*
X33522Y224813D01*
X28417D01*
Y399725D01*
X43635D01*
Y393793D01*
X62635D01*
Y396222D01*
X82056D01*
Y393781D01*
X94056D01*
Y404781D01*
X82056D01*
Y402339D01*
X62635D01*
Y412794D01*
D02*
G37*
G36*
X244958Y485101D02*
X173696D01*
X172331Y484829D01*
X171173Y484055D01*
X170469Y483002D01*
X169415Y482298D01*
X168642Y481140D01*
X168370Y479775D01*
Y439254D01*
X166448Y437332D01*
X159696D01*
X159428Y437978D01*
X158088Y439724D01*
X156342Y441064D01*
X154309Y441906D01*
X152127Y442193D01*
X149945Y441906D01*
X147912Y441064D01*
X146166Y439724D01*
X144826Y437978D01*
X143984Y435945D01*
X143697Y433763D01*
X143984Y431581D01*
X144826Y429548D01*
X146166Y427802D01*
X147912Y426463D01*
X149945Y425620D01*
X150540Y425542D01*
X150457Y424272D01*
X134962D01*
X133889Y424059D01*
X132980Y423451D01*
X77081Y367552D01*
X64064D01*
X62991Y367338D01*
X62081Y366731D01*
X46626Y351275D01*
X46324Y351507D01*
X44135Y352414D01*
X41785Y352724D01*
X39436Y352414D01*
X37246Y351507D01*
X35366Y350065D01*
X33924Y348185D01*
X33017Y345995D01*
X32708Y343646D01*
X33017Y341297D01*
X33924Y339107D01*
X35366Y337227D01*
X37246Y335784D01*
X39436Y334878D01*
X41785Y334568D01*
X44135Y334878D01*
X46324Y335784D01*
X48204Y337227D01*
X49647Y339107D01*
X50553Y341297D01*
X50863Y343646D01*
X50553Y345995D01*
X50180Y346898D01*
X65226Y361944D01*
X78242D01*
X79315Y362158D01*
X80225Y362765D01*
X136124Y418664D01*
X210648D01*
X216156Y413156D01*
Y400405D01*
X220945D01*
Y391157D01*
X221217Y389791D01*
X221991Y388633D01*
X239198Y371426D01*
Y341473D01*
X253698D01*
Y376473D01*
X244245D01*
X228083Y392635D01*
Y400405D01*
X232872D01*
Y417121D01*
X220121D01*
X213792Y423451D01*
X212882Y424059D01*
X211809Y424272D01*
X153797D01*
X153714Y425542D01*
X154309Y425620D01*
X156342Y426463D01*
X158088Y427802D01*
X159428Y429548D01*
X159696Y430195D01*
X167926D01*
X169292Y430466D01*
X170450Y431240D01*
X174462Y435253D01*
X175236Y436410D01*
X175508Y437776D01*
Y477963D01*
X243147D01*
Y430443D01*
X243419Y429077D01*
X244192Y427920D01*
X275042Y397070D01*
X276200Y396296D01*
X277565Y396025D01*
X287628D01*
Y393806D01*
X287803Y392928D01*
X288300Y392183D01*
X289044Y391686D01*
X289922Y391511D01*
X294422D01*
X295300Y391686D01*
X296044Y392183D01*
X296542Y392928D01*
X296716Y393806D01*
Y402305D01*
X296542Y403183D01*
X296044Y403928D01*
X295300Y404425D01*
X294422Y404599D01*
X289922D01*
X289044Y404425D01*
X288300Y403928D01*
X287803Y403183D01*
X287798Y403162D01*
X279044D01*
X250284Y431921D01*
Y479775D01*
X250012Y481140D01*
X249239Y482298D01*
X248186Y483002D01*
X247482Y484055D01*
X246324Y484829D01*
X244958Y485101D01*
D02*
G37*
G36*
X434090Y404697D02*
X429590D01*
X428712Y404523D01*
X427968Y404025D01*
X427471Y403281D01*
X427296Y402403D01*
Y393903D01*
X427471Y393025D01*
X427968Y392281D01*
X428712Y391784D01*
X429590Y391609D01*
X433337D01*
X441948Y382999D01*
Y378057D01*
X470947D01*
Y392057D01*
X442983D01*
X436384Y398656D01*
Y402403D01*
X436209Y403281D01*
X435712Y404025D01*
X434968Y404523D01*
X434090Y404697D01*
D02*
G37*
G36*
X224514Y442193D02*
X222332Y441906D01*
X220299Y441064D01*
X218553Y439724D01*
X217213Y437978D01*
X216371Y435945D01*
X216084Y433763D01*
X216371Y431581D01*
X217213Y429548D01*
X218553Y427802D01*
X220299Y426463D01*
X222332Y425620D01*
X224514Y425333D01*
X226696Y425620D01*
X227342Y425888D01*
X302155Y351076D01*
X303312Y350302D01*
X304678Y350030D01*
X349212D01*
X350578Y350302D01*
X351736Y351076D01*
X352440Y352129D01*
X353493Y352833D01*
X354267Y353991D01*
X354539Y355357D01*
Y392551D01*
X354855Y393025D01*
X355030Y393903D01*
Y402403D01*
X354855Y403281D01*
X354358Y404025D01*
X353614Y404523D01*
X352736Y404697D01*
X348236D01*
X347358Y404523D01*
X346614Y404025D01*
X346116Y403281D01*
X345942Y402403D01*
Y393903D01*
X346116Y393025D01*
X346614Y392281D01*
X347358Y391784D01*
X347401Y391775D01*
Y357168D01*
X306156D01*
X232389Y430935D01*
X232657Y431581D01*
X232944Y433763D01*
X232657Y435945D01*
X231815Y437978D01*
X230475Y439724D01*
X228729Y441064D01*
X226696Y441906D01*
X224514Y442193D01*
D02*
G37*
G36*
X160485Y417121D02*
X143769D01*
Y400405D01*
X148319D01*
Y364227D01*
Y342881D01*
X113341D01*
X113341Y342881D01*
X112170Y342648D01*
X111178Y341985D01*
X90498Y321305D01*
X50260D01*
X49647Y322785D01*
X48204Y324665D01*
X46324Y326107D01*
X44135Y327014D01*
X41785Y327324D01*
X39436Y327014D01*
X37246Y326107D01*
X35366Y324665D01*
X33924Y322785D01*
X33017Y320595D01*
X32708Y318246D01*
X33017Y315896D01*
X33924Y313707D01*
X35366Y311827D01*
X37246Y310385D01*
X39436Y309478D01*
X41785Y309168D01*
X44135Y309478D01*
X46324Y310385D01*
X48204Y311827D01*
X49647Y313707D01*
X50260Y315187D01*
X91764D01*
X91764Y315187D01*
X92935Y315420D01*
X93927Y316083D01*
X114607Y336763D01*
X148319D01*
Y321830D01*
X144588D01*
Y321830D01*
X144357Y321676D01*
X143688Y321953D01*
X140688D01*
X140390Y321830D01*
X124788D01*
Y301830D01*
X130429D01*
Y273030D01*
X124788D01*
Y258430D01*
X124788Y258430D01*
X124788D01*
X124693Y257199D01*
X124664Y257129D01*
Y254130D01*
X124788Y253832D01*
Y238630D01*
X144588D01*
Y238629D01*
X159188D01*
Y251931D01*
X159312Y252229D01*
X159312Y252829D01*
X159188Y253729D01*
X159072D01*
X159069Y253737D01*
X159050Y253754D01*
X159049Y253780D01*
X159011Y253858D01*
X158991Y253876D01*
X158989Y253901D01*
X158949Y253979D01*
X158930Y253995D01*
X158927Y254020D01*
X158884Y254096D01*
X158864Y254112D01*
X158860Y254138D01*
X158815Y254213D01*
X158795Y254228D01*
X158791Y254253D01*
X158743Y254327D01*
X158723Y254341D01*
X158717Y254366D01*
X158668Y254439D01*
X158647Y254453D01*
X158641Y254477D01*
X158590Y254548D01*
X158568Y254562D01*
X158561Y254586D01*
X158508Y254656D01*
X158486Y254669D01*
X158479Y254693D01*
X158424Y254761D01*
X158401Y254773D01*
X158393Y254797D01*
X158336Y254863D01*
X158313Y254875D01*
X158305Y254898D01*
X158246Y254963D01*
X158223Y254974D01*
X158213Y254997D01*
X158152Y255060D01*
X158129Y255070D01*
X158119Y255094D01*
X158056Y255155D01*
X158032Y255164D01*
X158021Y255187D01*
X157957Y255246D01*
X157933Y255255D01*
X157921Y255278D01*
X157855Y255335D01*
X157831Y255343D01*
X157819Y255365D01*
X157751Y255420D01*
X157610Y255570D01*
X157497Y255788D01*
X158006Y256625D01*
X158074Y256681D01*
X158196Y256751D01*
X158212Y256756D01*
X158501Y256807D01*
X158515Y256806D01*
X161546Y255887D01*
X166388Y255410D01*
X171230Y255887D01*
X175886Y257299D01*
X180177Y259593D01*
X183938Y262679D01*
X185955Y265138D01*
X187155Y264598D01*
X187130Y264445D01*
X187110Y264418D01*
X186928Y264182D01*
X186744Y263949D01*
X186558Y263720D01*
X186368Y263490D01*
X186176Y263264D01*
X185982Y263041D01*
X185775Y262809D01*
X185579Y262244D01*
X185365Y261687D01*
X185367Y261593D01*
X185386Y261551D01*
X185372Y261508D01*
X185379Y261414D01*
X185400Y261374D01*
X185388Y261329D01*
X185400Y261236D01*
X185423Y261197D01*
X185414Y261152D01*
X185431Y261059D01*
X185456Y261021D01*
X185448Y260976D01*
X185470Y260885D01*
X185497Y260848D01*
X185492Y260802D01*
X185519Y260712D01*
X185548Y260677D01*
X185546Y260631D01*
X185577Y260542D01*
X185607Y260509D01*
Y260463D01*
X185643Y260376D01*
X185676Y260344D01*
X185678Y260298D01*
X185719Y260213D01*
X185752Y260183D01*
X185757Y260138D01*
X185802Y260055D01*
X185837Y260026D01*
X185845Y259981D01*
X185894Y259901D01*
X185931Y259874D01*
X185940Y259829D01*
X185994Y259752D01*
X186032Y259727D01*
X186043Y259683D01*
X186101Y259608D01*
X186140Y259585D01*
X186155Y259542D01*
X186216Y259470D01*
X186256Y259450D01*
X186273Y259407D01*
X186337Y259339D01*
X186379Y259321D01*
X186397Y259279D01*
X186466Y259214D01*
X186508Y259198D01*
X186529Y259157D01*
X186600Y259096D01*
X186644Y259082D01*
X186667Y259042D01*
X186742Y258985D01*
X186785Y258973D01*
X186810Y258935D01*
X186888Y258882D01*
X186933Y258873D01*
X186959Y258835D01*
X187040Y258786D01*
X187085Y258779D01*
X187113Y258744D01*
X187196Y258699D01*
X187241Y258694D01*
X187272Y258660D01*
X187357Y258620D01*
X187402Y258617D01*
X187434Y258585D01*
X187521Y258549D01*
X187567D01*
X187601Y258519D01*
X187690Y258487D01*
X187735Y258489D01*
X187770Y258461D01*
X187861Y258434D01*
X187906Y258439D01*
X187943Y258412D01*
X188035Y258390D01*
X188080Y258397D01*
X188118Y258372D01*
X188211Y258355D01*
X188255Y258365D01*
X188295Y258342D01*
X188388Y258330D01*
X188432Y258341D01*
X188472Y258321D01*
X188566Y258313D01*
X188609Y258327D01*
X188651Y258309D01*
X188745Y258306D01*
X188767Y258315D01*
X188788Y258306D01*
X189172D01*
X189698Y257036D01*
X187940Y255278D01*
X187464Y254130D01*
Y240130D01*
X187940Y238981D01*
X189088Y238506D01*
X192088D01*
X192386Y238629D01*
X207988D01*
Y258430D01*
X207988D01*
Y273030D01*
X194686D01*
X194388Y273153D01*
X193788Y273153D01*
X192888Y273030D01*
Y272914D01*
X192880Y272910D01*
X192863Y272892D01*
X192838Y272890D01*
X192759Y272852D01*
X192742Y272833D01*
X192716Y272831D01*
X192639Y272790D01*
X192623Y272771D01*
X192598Y272768D01*
X192521Y272726D01*
X192505Y272705D01*
X192480Y272702D01*
X192404Y272657D01*
X192389Y272636D01*
X192365Y272632D01*
X192291Y272585D01*
X192276Y272564D01*
X192251Y272559D01*
X192179Y272510D01*
X192165Y272489D01*
X192140Y272483D01*
X192069Y272431D01*
X192056Y272410D01*
X192031Y272403D01*
X191961Y272350D01*
X191949Y272328D01*
X191925Y272321D01*
X191857Y272265D01*
X191845Y272243D01*
X191820Y272235D01*
X191754Y272178D01*
X191743Y272155D01*
X191719Y272146D01*
X191654Y272087D01*
X191644Y272064D01*
X191620Y272055D01*
X191557Y271994D01*
X191547Y271970D01*
X191524Y271960D01*
X191463Y271897D01*
X191453Y271874D01*
X191430Y271863D01*
X191371Y271798D01*
X191362Y271775D01*
X191340Y271763D01*
X191282Y271697D01*
X191274Y271673D01*
X191252Y271661D01*
X191197Y271593D01*
X191048Y271452D01*
X190829Y271338D01*
X189993Y271846D01*
X189936Y271914D01*
X189866Y272037D01*
X189860Y272053D01*
X189810Y272340D01*
X189810Y272355D01*
X190730Y275387D01*
X191207Y280229D01*
X190730Y285072D01*
X189318Y289727D01*
X187024Y294018D01*
X183938Y297780D01*
X180177Y300866D01*
X175886Y303160D01*
X171230Y304572D01*
X166388Y305049D01*
X161546Y304572D01*
X158515Y303653D01*
X158501Y303652D01*
X158211Y303703D01*
X158197Y303708D01*
X158074Y303778D01*
X158005Y303835D01*
X157497Y304671D01*
X157610Y304889D01*
X157751Y305039D01*
X157819Y305094D01*
X157831Y305116D01*
X157855Y305124D01*
X157921Y305181D01*
X157933Y305204D01*
X157957Y305213D01*
X158021Y305272D01*
X158032Y305295D01*
X158056Y305304D01*
X158119Y305365D01*
X158129Y305389D01*
X158152Y305399D01*
X158213Y305462D01*
X158223Y305485D01*
X158246Y305496D01*
X158305Y305561D01*
X158313Y305584D01*
X158336Y305596D01*
X158393Y305662D01*
X158401Y305686D01*
X158424Y305698D01*
X158479Y305766D01*
X158486Y305790D01*
X158508Y305803D01*
X158561Y305872D01*
X158568Y305897D01*
X158590Y305911D01*
X158641Y305982D01*
X158647Y306006D01*
X158668Y306020D01*
X158717Y306093D01*
X158723Y306118D01*
X158743Y306132D01*
X158791Y306206D01*
X158795Y306231D01*
X158815Y306246D01*
X158860Y306321D01*
X158864Y306347D01*
X158884Y306363D01*
X158927Y306439D01*
X158930Y306464D01*
X158949Y306480D01*
X158989Y306558D01*
X158991Y306583D01*
X159011Y306600D01*
X159049Y306679D01*
X159050Y306705D01*
X159069Y306722D01*
X159072Y306730D01*
X159188D01*
X159312Y307630D01*
X159312Y307948D01*
Y309440D01*
X159188Y309738D01*
Y321830D01*
X155456D01*
Y339254D01*
Y364227D01*
Y400405D01*
X160485D01*
Y417121D01*
D02*
G37*
G36*
X271197Y376473D02*
X256698D01*
Y341473D01*
X267353D01*
X267698Y341404D01*
X268042Y341473D01*
X271197D01*
Y344628D01*
X271266Y344973D01*
X271197Y345318D01*
Y355404D01*
X272826D01*
X287614Y340616D01*
X288772Y339843D01*
X290138Y339571D01*
X452879D01*
Y317404D01*
X416448Y280973D01*
X412051D01*
Y295404D01*
X404051D01*
Y259405D01*
X412051D01*
Y273836D01*
X417926D01*
X419291Y274108D01*
X420449Y274881D01*
X458971Y313403D01*
X459744Y314561D01*
X460016Y315926D01*
Y343140D01*
Y351057D01*
X470947D01*
Y365057D01*
X441948D01*
Y351057D01*
X452879D01*
Y346708D01*
X291616D01*
X276828Y361496D01*
X275670Y362270D01*
X274304Y362542D01*
X271197D01*
Y376473D01*
D02*
G37*
G36*
X402051Y295404D02*
X386051D01*
Y259405D01*
X402051D01*
Y295404D01*
D02*
G37*
G36*
X207990Y321830D02*
X187590D01*
Y306633D01*
X187464Y306329D01*
X187590Y306026D01*
Y304830D01*
X188291D01*
X190940Y302181D01*
X192088Y301706D01*
X206488D01*
X207636Y302181D01*
X208111Y303330D01*
Y306329D01*
X207990Y306623D01*
Y309787D01*
X216040D01*
Y230061D01*
X63416D01*
X50152Y243325D01*
X50553Y244296D01*
X50863Y246645D01*
X50553Y248994D01*
X49647Y251184D01*
X48204Y253064D01*
X46324Y254506D01*
X44844Y255119D01*
Y283846D01*
X50785D01*
Y301846D01*
X32785D01*
Y283846D01*
X38726D01*
Y255119D01*
X37246Y254506D01*
X35366Y253064D01*
X33924Y251184D01*
X33017Y248994D01*
X32708Y246645D01*
X33017Y244296D01*
X33924Y242106D01*
X35366Y240226D01*
X37246Y238783D01*
X39436Y237877D01*
X41785Y237567D01*
X44135Y237877D01*
X45105Y238279D01*
X59414Y223969D01*
X60572Y223196D01*
X61937Y222924D01*
X311523D01*
X312888Y223196D01*
X314046Y223969D01*
X363994Y273917D01*
X376051D01*
Y259405D01*
X384051D01*
Y295404D01*
X376051D01*
Y281054D01*
X362516D01*
X361150Y280783D01*
X359992Y280009D01*
X310045Y230061D01*
X223177D01*
Y311981D01*
X222905Y313347D01*
X222132Y314505D01*
X220757Y315879D01*
X219599Y316653D01*
X218234Y316924D01*
X207990D01*
Y321830D01*
D02*
G37*
G36*
X50785Y204845D02*
X32785D01*
Y186845D01*
X50785D01*
Y204845D01*
D02*
G37*
G36*
X373751Y164063D02*
X371702Y163793D01*
X369792Y163002D01*
X368153Y161744D01*
X366894Y160104D01*
X366399Y158907D01*
X365178D01*
Y161349D01*
X353178D01*
Y150349D01*
X365178D01*
Y152790D01*
X366644D01*
X366894Y152186D01*
X368153Y150546D01*
X369792Y149288D01*
X371702Y148497D01*
X373751Y148227D01*
X375801Y148497D01*
X377710Y149288D01*
X379350Y150546D01*
X380608Y152186D01*
X381399Y154096D01*
X381669Y156145D01*
X381399Y158194D01*
X380608Y160104D01*
X379350Y161744D01*
X377710Y163002D01*
X375801Y163793D01*
X373751Y164063D01*
D02*
G37*
G36*
X347828Y162235D02*
X342057D01*
Y156965D01*
X347828D01*
Y162235D01*
D02*
G37*
G36*
X339517D02*
X333748D01*
Y156965D01*
X339517D01*
Y162235D01*
D02*
G37*
G36*
X347828Y154425D02*
X342057D01*
Y149155D01*
X347828D01*
Y154425D01*
D02*
G37*
G36*
X339517D02*
X333748D01*
Y149155D01*
X339517D01*
Y154425D01*
D02*
G37*
G36*
X396851Y166198D02*
X394501Y165889D01*
X392312Y164982D01*
X390432Y163539D01*
X388989Y161659D01*
X388082Y159470D01*
X387773Y157120D01*
X388082Y154771D01*
X388989Y152581D01*
X390432Y150701D01*
X392312Y149259D01*
X393473Y148778D01*
Y144508D01*
X375185D01*
X375185Y144508D01*
X374014Y144275D01*
X373022Y143612D01*
X366448Y137038D01*
X365178Y137564D01*
Y147349D01*
X353178D01*
Y144754D01*
X346788D01*
Y147195D01*
X334788D01*
Y136195D01*
X335022D01*
X335508Y135022D01*
X332191Y131705D01*
X328336Y131705D01*
X328336Y129417D01*
X321954D01*
X320969Y129221D01*
X320133Y128663D01*
X319575Y127828D01*
X319379Y126843D01*
Y124793D01*
X319575Y123808D01*
X319683Y123647D01*
X319078Y122516D01*
X317829Y122414D01*
X314611Y125631D01*
Y132805D01*
X302611D01*
Y130364D01*
X298566D01*
Y132805D01*
X286566D01*
Y121805D01*
X298566D01*
Y124246D01*
X302611D01*
Y121805D01*
X309786D01*
X311613Y119978D01*
X311127Y118805D01*
X302611D01*
Y107805D01*
X303182D01*
X303668Y106631D01*
X299573Y102536D01*
X292399D01*
Y90536D01*
X303399D01*
Y97710D01*
X310774Y105086D01*
X310774Y105086D01*
X311437Y106078D01*
X311670Y107249D01*
X312710Y107805D01*
X314611D01*
Y110246D01*
X317421D01*
X318319Y109348D01*
X318319Y101655D01*
X318319D01*
X318939Y100385D01*
Y96316D01*
X325980D01*
X333019D01*
Y96509D01*
X334193Y96995D01*
X342719Y88469D01*
Y81295D01*
X354719D01*
Y92295D01*
X347544D01*
X341977Y97862D01*
X342463Y99036D01*
X360848Y99036D01*
X361746Y98138D01*
Y94559D01*
X359304D01*
Y82560D01*
X361746D01*
Y77535D01*
X359339D01*
Y75854D01*
X354719D01*
Y78295D01*
X342719D01*
Y67295D01*
X354719D01*
Y69736D01*
X359339D01*
Y65535D01*
X370339D01*
Y77535D01*
X367863D01*
Y82560D01*
X370304D01*
Y94559D01*
X367863D01*
Y97826D01*
X369073Y99036D01*
X369579D01*
X369578Y99541D01*
X372755Y102718D01*
X376104D01*
X376592Y102815D01*
X377862Y102020D01*
Y94559D01*
X373304D01*
Y82560D01*
X375746D01*
Y77535D01*
X373339D01*
Y65535D01*
X384339D01*
Y77535D01*
X381863D01*
Y82560D01*
X384304D01*
Y94559D01*
X383980D01*
Y109374D01*
X383980Y109374D01*
X383747Y110545D01*
X383084Y111537D01*
X383084Y111537D01*
X379641Y114980D01*
X379628Y114989D01*
X380013Y116259D01*
X387850D01*
Y107050D01*
X393792D01*
Y92295D01*
X388723D01*
Y81295D01*
X400723D01*
Y92295D01*
X399909D01*
Y107050D01*
X405850D01*
Y125049D01*
X387850D01*
Y122377D01*
X380485D01*
X380100Y123647D01*
X380112Y123655D01*
X381616Y125159D01*
X383111Y124861D01*
X385452Y125327D01*
X387436Y126653D01*
X388763Y128638D01*
X389228Y130979D01*
X388763Y133320D01*
X387436Y135305D01*
X385452Y136631D01*
X383111Y137097D01*
X380770Y136631D01*
X378785Y135305D01*
X377459Y133320D01*
X376993Y130979D01*
X377085Y130517D01*
X376133Y129450D01*
X376009Y129417D01*
X369526D01*
X369522Y131461D01*
X376452Y138391D01*
X394773D01*
X394773Y138391D01*
X394773Y138391D01*
X394774D01*
X395223Y138480D01*
X395944Y138623D01*
X395944Y138624D01*
X395944Y138624D01*
X396467Y138973D01*
X396936Y139286D01*
X396937Y139286D01*
X396937Y139287D01*
X396937Y139287D01*
X398694Y141043D01*
X398694Y141044D01*
X398694Y141044D01*
X399048Y141573D01*
X399357Y142036D01*
X399357Y142036D01*
X399357Y142036D01*
X399474Y142624D01*
X399590Y143206D01*
X399590Y143206D01*
X399590Y143207D01*
Y148514D01*
X401389Y149259D01*
X403269Y150701D01*
X404712Y152581D01*
X405619Y154771D01*
X405928Y157120D01*
X405619Y159470D01*
X404712Y161659D01*
X403269Y163539D01*
X401389Y164982D01*
X399200Y165889D01*
X396851Y166198D01*
D02*
G37*
G36*
X195215Y131532D02*
X191945D01*
Y127762D01*
X195215D01*
Y131532D01*
D02*
G37*
G36*
X254540Y135172D02*
X252491Y134902D01*
X250581Y134111D01*
X248941Y132853D01*
X247683Y131213D01*
X246892Y129303D01*
X246622Y127254D01*
X246892Y125205D01*
X247683Y123295D01*
X248941Y121655D01*
X250581Y120397D01*
X252491Y119606D01*
X254540Y119336D01*
X256589Y119606D01*
X258499Y120397D01*
X260139Y121655D01*
X261397Y123295D01*
X261770Y124195D01*
X270522D01*
Y121805D01*
X282522D01*
Y132805D01*
X270522D01*
Y130313D01*
X261770D01*
X261397Y131213D01*
X260139Y132853D01*
X258499Y134111D01*
X256589Y134902D01*
X254540Y135172D01*
D02*
G37*
G36*
X195215Y125222D02*
X191945D01*
Y121453D01*
X195215D01*
Y125222D01*
D02*
G37*
G36*
X298566Y118805D02*
X286566D01*
Y116363D01*
X282522D01*
Y118805D01*
X270522D01*
Y107805D01*
X282522D01*
Y110246D01*
X286566D01*
Y107805D01*
X298566D01*
Y118805D01*
D02*
G37*
G36*
X83124Y145621D02*
X80774Y145312D01*
X78585Y144405D01*
X76705Y142962D01*
X75262Y141082D01*
X74356Y138893D01*
X74046Y136544D01*
Y121544D01*
X74356Y119194D01*
X75262Y117005D01*
X76705Y115125D01*
X78585Y113682D01*
X80774Y112775D01*
X83124Y112466D01*
X85473Y112775D01*
X87663Y113682D01*
X89543Y115125D01*
X90985Y117005D01*
X91892Y119194D01*
X92202Y121544D01*
Y136544D01*
X91892Y138893D01*
X90985Y141082D01*
X89543Y142962D01*
X87663Y144405D01*
X85473Y145312D01*
X83124Y145621D01*
D02*
G37*
G36*
X289399Y102536D02*
X278399D01*
Y99595D01*
X241622D01*
X241505Y100184D01*
X241007Y100928D01*
X240263Y101426D01*
X239385Y101600D01*
X230885D01*
X230007Y101426D01*
X229263Y100928D01*
X228766Y100184D01*
X228591Y99306D01*
Y94806D01*
X228766Y93928D01*
X229263Y93184D01*
X229505Y93023D01*
Y91590D01*
X229263Y91429D01*
X228766Y90685D01*
X228591Y89807D01*
Y85307D01*
X228766Y84429D01*
X228791Y84391D01*
X228792Y83964D01*
X227839Y82867D01*
X227630D01*
Y80804D01*
X227531Y80307D01*
Y75807D01*
X227630Y75310D01*
Y72370D01*
X242852Y72370D01*
X242849Y74099D01*
X243746Y74998D01*
X245276D01*
X245276Y70335D01*
X245276Y70335D01*
X246103Y69940D01*
Y64171D01*
X252643D01*
X259183D01*
Y69940D01*
X259183D01*
Y70172D01*
X259183D01*
Y82732D01*
X260392Y83268D01*
X261143Y82677D01*
Y71212D01*
X262780D01*
Y68900D01*
X261143D01*
Y56901D01*
X272143D01*
Y65338D01*
X273316Y65824D01*
X274360Y64781D01*
X273987Y63880D01*
X273717Y61831D01*
X273987Y59782D01*
X274778Y57872D01*
X276036Y56232D01*
X277676Y54974D01*
X279586Y54183D01*
X281635Y53913D01*
X283684Y54183D01*
X285594Y54974D01*
X287234Y56232D01*
X288492Y57872D01*
X289283Y59782D01*
X289442Y60986D01*
X300166Y71711D01*
X300829Y72703D01*
X301062Y73874D01*
X302041Y74521D01*
X303503D01*
Y86521D01*
X292503D01*
Y74521D01*
X292665D01*
X293151Y73348D01*
X287234Y67430D01*
X285594Y68688D01*
X283684Y69479D01*
X281635Y69749D01*
X279586Y69479D01*
X278686Y69106D01*
X272143Y75649D01*
Y83212D01*
X269458D01*
X269295Y83456D01*
X269294Y83457D01*
X263032Y89719D01*
X263032Y89720D01*
X262439Y90116D01*
X262040Y90383D01*
X262040Y90383D01*
X262040Y90383D01*
X261647Y90461D01*
X260869Y90616D01*
X260869Y90616D01*
X241518D01*
X241505Y90685D01*
X241007Y91429D01*
X241096Y92721D01*
X241847Y93477D01*
X278399D01*
Y90536D01*
X280945D01*
Y86521D01*
X278503D01*
Y74521D01*
X289503D01*
Y86521D01*
X287062D01*
Y90536D01*
X289399D01*
Y102536D01*
D02*
G37*
G36*
X333019Y93776D02*
X327250D01*
Y88506D01*
X333019D01*
Y93776D01*
D02*
G37*
G36*
X324710D02*
X318939D01*
Y88506D01*
X324710D01*
Y93776D01*
D02*
G37*
G36*
X406757Y80331D02*
X404708Y80061D01*
X402798Y79270D01*
X401881Y78566D01*
X400723Y78295D01*
X400723Y78295D01*
X400723Y78295D01*
X388723D01*
Y67295D01*
X400723D01*
X400723Y67295D01*
Y67295D01*
X401006Y66983D01*
X401158Y66814D01*
X401598Y66478D01*
X402798Y65556D01*
X404708Y64765D01*
X406757Y64496D01*
X408806Y64765D01*
X410716Y65556D01*
X412356Y66815D01*
X413614Y68454D01*
X414405Y70364D01*
X414675Y72413D01*
X414405Y74462D01*
X413614Y76372D01*
X412356Y78012D01*
X410716Y79270D01*
X408806Y80061D01*
X406757Y80331D01*
D02*
G37*
G36*
X331979Y86546D02*
X319979D01*
Y75546D01*
X322509D01*
Y71879D01*
X321609Y71507D01*
X319969Y70248D01*
X318711Y68608D01*
X317920Y66699D01*
X317650Y64650D01*
X317920Y62600D01*
X318711Y60691D01*
X319969Y59051D01*
X321609Y57793D01*
X323519Y57002D01*
X325568Y56732D01*
X327617Y57002D01*
X329527Y57793D01*
X331167Y59051D01*
X332425Y60691D01*
X333216Y62600D01*
X333486Y64650D01*
X333216Y66699D01*
X332425Y68608D01*
X331167Y70248D01*
X329527Y71507D01*
X328627Y71879D01*
Y75546D01*
X331979D01*
Y86546D01*
D02*
G37*
G36*
X259183Y61631D02*
X253913D01*
Y55861D01*
X259183D01*
Y61631D01*
D02*
G37*
G36*
X251373D02*
X246103D01*
Y55861D01*
X251373D01*
Y61631D01*
D02*
G37*
G36*
X213385Y101600D02*
X204885D01*
X204007Y101426D01*
X203263Y100928D01*
X202766Y100184D01*
X202752Y100115D01*
X195983D01*
X194813Y99882D01*
X193820Y99219D01*
X146088Y51487D01*
X144543Y52127D01*
X142162Y52440D01*
X139781Y52127D01*
X137562Y51208D01*
X135657Y49746D01*
X134195Y47841D01*
X133276Y45622D01*
X132963Y43241D01*
X133276Y40861D01*
X134195Y38642D01*
X135657Y36737D01*
X137562Y35275D01*
X139781Y34356D01*
X142162Y34043D01*
X144543Y34356D01*
X146761Y35275D01*
X148666Y36737D01*
X150128Y38642D01*
X151047Y40861D01*
X151360Y43241D01*
X151047Y45622D01*
X150411Y47158D01*
X197250Y93998D01*
X202752D01*
X202766Y93928D01*
X203263Y93184D01*
X203505Y93023D01*
Y91590D01*
X203263Y91429D01*
X202766Y90685D01*
X202722Y90465D01*
X202310Y90383D01*
X201317Y89720D01*
X201317Y89720D01*
X165404Y53806D01*
X165404Y53806D01*
X164741Y52813D01*
X164552Y51866D01*
X162962Y51208D01*
X161057Y49746D01*
X159595Y47841D01*
X158676Y45622D01*
X158363Y43241D01*
X158676Y40861D01*
X159595Y38642D01*
X161057Y36737D01*
X162962Y35275D01*
X165181Y34356D01*
X167562Y34043D01*
X169942Y34356D01*
X172161Y35275D01*
X174066Y36737D01*
X175528Y38642D01*
X176447Y40861D01*
X176760Y43241D01*
X176447Y45622D01*
X175528Y47841D01*
X174066Y49746D01*
X172779Y50733D01*
X172564Y52314D01*
X201480Y81231D01*
X202651Y80605D01*
X202591Y80307D01*
Y75838D01*
X202525Y75772D01*
X201862Y74780D01*
X201629Y73609D01*
X201629Y73609D01*
Y49013D01*
X200359Y48582D01*
X199466Y49746D01*
X197561Y51208D01*
X195343Y52127D01*
X192962Y52440D01*
X190581Y52127D01*
X188362Y51208D01*
X186457Y49746D01*
X184995Y47841D01*
X184076Y45622D01*
X183763Y43241D01*
X184076Y40861D01*
X184995Y38642D01*
X186457Y36737D01*
X188362Y35275D01*
X190581Y34356D01*
X192962Y34043D01*
X195343Y34356D01*
X197561Y35275D01*
X199466Y36737D01*
X200359Y37901D01*
X201629Y37469D01*
Y30828D01*
X196888Y26087D01*
X195343Y26727D01*
X192962Y27040D01*
X190581Y26727D01*
X188362Y25808D01*
X186457Y24346D01*
X184995Y22441D01*
X184076Y20222D01*
X183763Y17841D01*
X184076Y15461D01*
X184995Y13242D01*
X186457Y11337D01*
X188362Y9875D01*
X190581Y8956D01*
X192962Y8643D01*
X195343Y8956D01*
X197561Y9875D01*
X199466Y11337D01*
X200928Y13242D01*
X201847Y15461D01*
X202160Y17841D01*
X201847Y20222D01*
X201211Y21758D01*
X206851Y27398D01*
X207514Y28390D01*
X207747Y29561D01*
X207747Y29561D01*
Y72342D01*
X208917Y73513D01*
X213385D01*
X214263Y73687D01*
X215007Y74184D01*
X215505Y74929D01*
X215679Y75807D01*
Y80307D01*
X215505Y81185D01*
X215007Y81929D01*
X214765Y82091D01*
Y83523D01*
X215007Y83685D01*
X215505Y84429D01*
X215679Y85307D01*
Y89807D01*
X215505Y90685D01*
X215007Y91429D01*
X214766Y91590D01*
Y93023D01*
X215007Y93184D01*
X215505Y93928D01*
X215679Y94806D01*
Y99306D01*
X215505Y100184D01*
X215007Y100928D01*
X214263Y101426D01*
X213385Y101600D01*
D02*
G37*
G36*
X370762Y52440D02*
X368381Y52127D01*
X366162Y51208D01*
X364257Y49746D01*
X362795Y47841D01*
X361876Y45622D01*
X361563Y43241D01*
X361876Y40861D01*
X362795Y38642D01*
X364257Y36737D01*
X366162Y35275D01*
X368381Y34356D01*
X370762Y34043D01*
X373143Y34356D01*
X375361Y35275D01*
X377266Y36737D01*
X378728Y38642D01*
X379647Y40861D01*
X379960Y43241D01*
X379647Y45622D01*
X378728Y47841D01*
X377266Y49746D01*
X375361Y51208D01*
X373143Y52127D01*
X370762Y52440D01*
D02*
G37*
G36*
X345362D02*
X342981Y52127D01*
X340762Y51208D01*
X338857Y49746D01*
X337395Y47841D01*
X336476Y45622D01*
X336163Y43241D01*
X336476Y40861D01*
X337395Y38642D01*
X338857Y36737D01*
X340762Y35275D01*
X342981Y34356D01*
X345362Y34043D01*
X347743Y34356D01*
X349961Y35275D01*
X351866Y36737D01*
X353328Y38642D01*
X354247Y40861D01*
X354560Y43241D01*
X354247Y45622D01*
X353328Y47841D01*
X351866Y49746D01*
X349961Y51208D01*
X347743Y52127D01*
X345362Y52440D01*
D02*
G37*
G36*
X319962D02*
X317581Y52127D01*
X315362Y51208D01*
X313457Y49746D01*
X311995Y47841D01*
X311076Y45622D01*
X310763Y43241D01*
X311076Y40861D01*
X311995Y38642D01*
X313457Y36737D01*
X315362Y35275D01*
X317581Y34356D01*
X319962Y34043D01*
X322342Y34356D01*
X324561Y35275D01*
X326466Y36737D01*
X327928Y38642D01*
X328847Y40861D01*
X329160Y43241D01*
X328847Y45622D01*
X327928Y47841D01*
X326466Y49746D01*
X324561Y51208D01*
X322342Y52127D01*
X319962Y52440D01*
D02*
G37*
G36*
X294562D02*
X292181Y52127D01*
X289962Y51208D01*
X288057Y49746D01*
X286595Y47841D01*
X285676Y45622D01*
X285363Y43241D01*
X285676Y40861D01*
X286595Y38642D01*
X288057Y36737D01*
X289962Y35275D01*
X292181Y34356D01*
X294562Y34043D01*
X296943Y34356D01*
X299161Y35275D01*
X301066Y36737D01*
X302528Y38642D01*
X303447Y40861D01*
X303760Y43241D01*
X303447Y45622D01*
X302528Y47841D01*
X301066Y49746D01*
X299161Y51208D01*
X296943Y52127D01*
X294562Y52440D01*
D02*
G37*
G36*
X269162D02*
X266781Y52127D01*
X264562Y51208D01*
X262657Y49746D01*
X261195Y47841D01*
X260276Y45622D01*
X259963Y43241D01*
X260276Y40861D01*
X261195Y38642D01*
X262657Y36737D01*
X264562Y35275D01*
X266781Y34356D01*
X269162Y34043D01*
X271542Y34356D01*
X273761Y35275D01*
X275666Y36737D01*
X277128Y38642D01*
X278047Y40861D01*
X278360Y43241D01*
X278047Y45622D01*
X277128Y47841D01*
X275666Y49746D01*
X273761Y51208D01*
X271542Y52127D01*
X269162Y52440D01*
D02*
G37*
G36*
X243762D02*
X241381Y52127D01*
X239162Y51208D01*
X237257Y49746D01*
X235795Y47841D01*
X234876Y45622D01*
X234563Y43241D01*
X234876Y40861D01*
X235795Y38642D01*
X237257Y36737D01*
X239162Y35275D01*
X241381Y34356D01*
X243762Y34043D01*
X246143Y34356D01*
X248361Y35275D01*
X250266Y36737D01*
X251728Y38642D01*
X252647Y40861D01*
X252960Y43241D01*
X252647Y45622D01*
X251728Y47841D01*
X250266Y49746D01*
X248361Y51208D01*
X246143Y52127D01*
X243762Y52440D01*
D02*
G37*
G36*
X218362D02*
X215981Y52127D01*
X213762Y51208D01*
X211857Y49746D01*
X210395Y47841D01*
X209476Y45622D01*
X209163Y43241D01*
X209476Y40861D01*
X210395Y38642D01*
X211857Y36737D01*
X213762Y35275D01*
X215981Y34356D01*
X218362Y34043D01*
X220742Y34356D01*
X222961Y35275D01*
X224866Y36737D01*
X226328Y38642D01*
X227247Y40861D01*
X227560Y43241D01*
X227247Y45622D01*
X226328Y47841D01*
X224866Y49746D01*
X222961Y51208D01*
X220742Y52127D01*
X218362Y52440D01*
D02*
G37*
G36*
X91362D02*
X88981Y52127D01*
X86762Y51208D01*
X84857Y49746D01*
X83395Y47841D01*
X82476Y45622D01*
X82163Y43241D01*
X82476Y40861D01*
X83395Y38642D01*
X84857Y36737D01*
X86762Y35275D01*
X88981Y34356D01*
X91362Y34043D01*
X93743Y34356D01*
X95961Y35275D01*
X97866Y36737D01*
X99328Y38642D01*
X100247Y40861D01*
X100560Y43241D01*
X100247Y45622D01*
X99328Y47841D01*
X97866Y49746D01*
X95961Y51208D01*
X93743Y52127D01*
X91362Y52440D01*
D02*
G37*
G36*
X370762Y27040D02*
X368381Y26727D01*
X366162Y25808D01*
X364257Y24346D01*
X362795Y22441D01*
X361876Y20222D01*
X361563Y17841D01*
X361876Y15461D01*
X362795Y13242D01*
X364257Y11337D01*
X366162Y9875D01*
X368381Y8956D01*
X370762Y8643D01*
X373143Y8956D01*
X375361Y9875D01*
X377266Y11337D01*
X378728Y13242D01*
X379647Y15461D01*
X379960Y17841D01*
X379647Y20222D01*
X378728Y22441D01*
X377266Y24346D01*
X375361Y25808D01*
X373143Y26727D01*
X370762Y27040D01*
D02*
G37*
G36*
X345362D02*
X342981Y26727D01*
X340762Y25808D01*
X338857Y24346D01*
X337395Y22441D01*
X336476Y20222D01*
X336163Y17841D01*
X336476Y15461D01*
X337395Y13242D01*
X338857Y11337D01*
X340762Y9875D01*
X342981Y8956D01*
X345362Y8643D01*
X347743Y8956D01*
X349961Y9875D01*
X351866Y11337D01*
X353328Y13242D01*
X354247Y15461D01*
X354560Y17841D01*
X354247Y20222D01*
X353328Y22441D01*
X351866Y24346D01*
X349961Y25808D01*
X347743Y26727D01*
X345362Y27040D01*
D02*
G37*
G36*
X319962D02*
X317581Y26727D01*
X315362Y25808D01*
X313457Y24346D01*
X311995Y22441D01*
X311076Y20222D01*
X310763Y17841D01*
X311076Y15461D01*
X311995Y13242D01*
X313457Y11337D01*
X315362Y9875D01*
X317581Y8956D01*
X319962Y8643D01*
X322342Y8956D01*
X324561Y9875D01*
X326466Y11337D01*
X327928Y13242D01*
X328847Y15461D01*
X329160Y17841D01*
X328847Y20222D01*
X327928Y22441D01*
X326466Y24346D01*
X324561Y25808D01*
X322342Y26727D01*
X319962Y27040D01*
D02*
G37*
G36*
X294562D02*
X292181Y26727D01*
X289962Y25808D01*
X288057Y24346D01*
X286595Y22441D01*
X285676Y20222D01*
X285363Y17841D01*
X285676Y15461D01*
X286595Y13242D01*
X288057Y11337D01*
X289962Y9875D01*
X292181Y8956D01*
X294562Y8643D01*
X296943Y8956D01*
X299161Y9875D01*
X301066Y11337D01*
X302528Y13242D01*
X303447Y15461D01*
X303760Y17841D01*
X303447Y20222D01*
X302528Y22441D01*
X301066Y24346D01*
X299161Y25808D01*
X296943Y26727D01*
X294562Y27040D01*
D02*
G37*
G36*
X269162D02*
X266781Y26727D01*
X264562Y25808D01*
X262657Y24346D01*
X261195Y22441D01*
X260276Y20222D01*
X259963Y17841D01*
X260276Y15461D01*
X261195Y13242D01*
X262657Y11337D01*
X264562Y9875D01*
X266781Y8956D01*
X269162Y8643D01*
X271542Y8956D01*
X273761Y9875D01*
X275666Y11337D01*
X277128Y13242D01*
X278047Y15461D01*
X278360Y17841D01*
X278047Y20222D01*
X277128Y22441D01*
X275666Y24346D01*
X273761Y25808D01*
X271542Y26727D01*
X269162Y27040D01*
D02*
G37*
G36*
X243762D02*
X241381Y26727D01*
X239162Y25808D01*
X237257Y24346D01*
X235795Y22441D01*
X234876Y20222D01*
X234563Y17841D01*
X234876Y15461D01*
X235795Y13242D01*
X237257Y11337D01*
X239162Y9875D01*
X241381Y8956D01*
X243762Y8643D01*
X246143Y8956D01*
X248361Y9875D01*
X250266Y11337D01*
X251728Y13242D01*
X252647Y15461D01*
X252960Y17841D01*
X252647Y20222D01*
X251728Y22441D01*
X250266Y24346D01*
X248361Y25808D01*
X246143Y26727D01*
X243762Y27040D01*
D02*
G37*
G36*
X218362D02*
X215981Y26727D01*
X213762Y25808D01*
X211857Y24346D01*
X210395Y22441D01*
X209476Y20222D01*
X209163Y17841D01*
X209476Y15461D01*
X210395Y13242D01*
X211857Y11337D01*
X213762Y9875D01*
X215981Y8956D01*
X218362Y8643D01*
X220742Y8956D01*
X222961Y9875D01*
X224866Y11337D01*
X226328Y13242D01*
X227247Y15461D01*
X227560Y17841D01*
X227247Y20222D01*
X226328Y22441D01*
X224866Y24346D01*
X222961Y25808D01*
X220742Y26727D01*
X218362Y27040D01*
D02*
G37*
G36*
X167562D02*
X165181Y26727D01*
X162962Y25808D01*
X161057Y24346D01*
X159595Y22441D01*
X158676Y20222D01*
X158363Y17841D01*
X158676Y15461D01*
X159595Y13242D01*
X161057Y11337D01*
X162962Y9875D01*
X165181Y8956D01*
X167562Y8643D01*
X169942Y8956D01*
X172161Y9875D01*
X174066Y11337D01*
X175528Y13242D01*
X176447Y15461D01*
X176760Y17841D01*
X176447Y20222D01*
X175528Y22441D01*
X174066Y24346D01*
X172161Y25808D01*
X169942Y26727D01*
X167562Y27040D01*
D02*
G37*
G36*
X142162D02*
X139781Y26727D01*
X137562Y25808D01*
X135657Y24346D01*
X134195Y22441D01*
X133276Y20222D01*
X132963Y17841D01*
X133276Y15461D01*
X134195Y13242D01*
X135657Y11337D01*
X137562Y9875D01*
X139781Y8956D01*
X142162Y8643D01*
X144543Y8956D01*
X146761Y9875D01*
X148666Y11337D01*
X150128Y13242D01*
X151047Y15461D01*
X151360Y17841D01*
X151047Y20222D01*
X150128Y22441D01*
X148666Y24346D01*
X146761Y25808D01*
X144543Y26727D01*
X142162Y27040D01*
D02*
G37*
G36*
X116762D02*
X114381Y26727D01*
X112162Y25808D01*
X110257Y24346D01*
X108795Y22441D01*
X107876Y20222D01*
X107563Y17841D01*
X107876Y15461D01*
X108795Y13242D01*
X110257Y11337D01*
X112162Y9875D01*
X114381Y8956D01*
X116762Y8643D01*
X119143Y8956D01*
X121361Y9875D01*
X123266Y11337D01*
X124728Y13242D01*
X125647Y15461D01*
X125960Y17841D01*
X125647Y20222D01*
X124728Y22441D01*
X123266Y24346D01*
X121361Y25808D01*
X119143Y26727D01*
X116762Y27040D01*
D02*
G37*
G36*
X91362D02*
X88981Y26727D01*
X86762Y25808D01*
X84857Y24346D01*
X83395Y22441D01*
X82476Y20222D01*
X82163Y17841D01*
X82476Y15461D01*
X83395Y13242D01*
X84857Y11337D01*
X86762Y9875D01*
X88981Y8956D01*
X91362Y8643D01*
X93743Y8956D01*
X95961Y9875D01*
X97866Y11337D01*
X99328Y13242D01*
X100247Y15461D01*
X100560Y17841D01*
X100247Y20222D01*
X99328Y22441D01*
X97866Y24346D01*
X95961Y25808D01*
X93743Y26727D01*
X91362Y27040D01*
D02*
G37*
%LPD*%
G36*
X143688Y306329D02*
X140688Y303330D01*
Y320330D01*
X143688D01*
Y306329D01*
D02*
G37*
G36*
X144464Y303150D02*
Y302630D01*
X144473Y302608D01*
X144465Y302587D01*
X144467Y302492D01*
X144486Y302451D01*
X144472Y302408D01*
X144479Y302314D01*
X144500Y302274D01*
X144488Y302229D01*
X144500Y302136D01*
X144523Y302097D01*
X144514Y302052D01*
X144531Y301959D01*
X144556Y301921D01*
X144549Y301876D01*
X144570Y301785D01*
X144597Y301748D01*
X144593Y301702D01*
X144619Y301612D01*
X144648Y301577D01*
X144646Y301531D01*
X144677Y301443D01*
X144707Y301409D01*
Y301363D01*
X144743Y301276D01*
X144776Y301244D01*
X144778Y301199D01*
X144819Y301113D01*
X144853Y301083D01*
X144857Y301037D01*
X144902Y300954D01*
X144937Y300926D01*
X144944Y300881D01*
X144994Y300801D01*
X145031Y300774D01*
X145040Y300729D01*
X145094Y300651D01*
X145132Y300627D01*
X145143Y300583D01*
X145201Y300509D01*
X145240Y300486D01*
X145255Y300442D01*
X145316Y300370D01*
X145356Y300350D01*
X145373Y300307D01*
X145437Y300239D01*
X145479Y300221D01*
X145497Y300179D01*
X145566Y300114D01*
X145608Y300098D01*
X145629Y300057D01*
X145701Y299996D01*
X145744Y299982D01*
X145767Y299942D01*
X145842Y299885D01*
X145885Y299873D01*
X145910Y299835D01*
X145988Y299782D01*
X146032Y299772D01*
X146059Y299735D01*
X146140Y299686D01*
X146185Y299679D01*
X146213Y299644D01*
X146296Y299599D01*
X146341Y299594D01*
X146371Y299560D01*
X146457Y299520D01*
X146502Y299517D01*
X146535Y299485D01*
X146622Y299449D01*
X146667D01*
X146701Y299419D01*
X146790Y299387D01*
X146835Y299389D01*
X146870Y299361D01*
X146961Y299334D01*
X147006Y299339D01*
X147043Y299312D01*
X147135Y299290D01*
X147180Y299297D01*
X147218Y299272D01*
X147310Y299255D01*
X147355Y299265D01*
X147395Y299242D01*
X147488Y299230D01*
X147532Y299241D01*
X147572Y299221D01*
X147666Y299213D01*
X147710Y299227D01*
X147751Y299209D01*
X147845Y299206D01*
X148403Y299421D01*
X148967Y299617D01*
X149199Y299823D01*
X149422Y300016D01*
X149649Y300209D01*
X149878Y300400D01*
X150108Y300585D01*
X150343Y300771D01*
X150578Y300953D01*
X150601Y300970D01*
X150752Y300993D01*
X151289Y299792D01*
X148838Y297780D01*
X145751Y294018D01*
X143457Y289727D01*
X142045Y285072D01*
X141568Y280229D01*
X142045Y275387D01*
X142964Y272357D01*
X142965Y272344D01*
X142914Y272053D01*
X142909Y272039D01*
X142839Y271916D01*
X142783Y271848D01*
X141946Y271338D01*
X141729Y271451D01*
X141579Y271593D01*
X141524Y271661D01*
X141501Y271673D01*
X141493Y271697D01*
X141436Y271763D01*
X141413Y271775D01*
X141405Y271798D01*
X141346Y271863D01*
X141322Y271874D01*
X141313Y271897D01*
X141252Y271960D01*
X141229Y271970D01*
X141219Y271994D01*
X141156Y272055D01*
X141132Y272064D01*
X141121Y272087D01*
X141057Y272146D01*
X141033Y272155D01*
X141022Y272178D01*
X140955Y272235D01*
X140931Y272243D01*
X140919Y272265D01*
X140851Y272321D01*
X140827Y272328D01*
X140814Y272350D01*
X140745Y272403D01*
X140720Y272410D01*
X140707Y272431D01*
X140636Y272483D01*
X140611Y272489D01*
X140597Y272510D01*
X140525Y272559D01*
X140500Y272564D01*
X140485Y272585D01*
X140411Y272632D01*
X140386Y272636D01*
X140371Y272657D01*
X140296Y272702D01*
X140271Y272705D01*
X140255Y272726D01*
X140178Y272768D01*
X140153Y272771D01*
X140137Y272790D01*
X140059Y272831D01*
X140034Y272833D01*
X140017Y272852D01*
X139938Y272890D01*
X139913Y272892D01*
X139895Y272910D01*
X139888Y272913D01*
Y273030D01*
X138988Y273153D01*
X138388Y273153D01*
X138090Y273030D01*
X136547D01*
Y301830D01*
X140389D01*
X140688Y301706D01*
X140987Y301830D01*
X142188D01*
Y302533D01*
X143291Y303636D01*
X144464Y303150D01*
D02*
G37*
G36*
X157688Y307630D02*
X157657Y307548D01*
X157623Y307467D01*
X157587Y307387D01*
X157549Y307308D01*
X157509Y307230D01*
X157466Y307154D01*
X157421Y307078D01*
X157374Y307005D01*
X157325Y306932D01*
X157274Y306861D01*
X157220Y306792D01*
X157165Y306724D01*
X157108Y306657D01*
X157049Y306593D01*
X156987Y306530D01*
X156925Y306469D01*
X156860Y306410D01*
X156794Y306352D01*
X156726Y306297D01*
X156656Y306244D01*
X156585Y306192D01*
X156513Y306143D01*
X156439Y306096D01*
X156364Y306051D01*
X156287Y306009D01*
X156209Y305968D01*
X156131Y305930D01*
X156051Y305894D01*
X155970Y305861D01*
X155888Y305830D01*
X155598Y305710D01*
X155307Y305587D01*
X155017Y305460D01*
X154729Y305330D01*
X154443Y305196D01*
X154158Y305059D01*
X153875Y304919D01*
X153593Y304776D01*
X153313Y304629D01*
X153035Y304479D01*
X152759Y304326D01*
X152484Y304169D01*
X152211Y304009D01*
X151940Y303847D01*
X151671Y303681D01*
X151404Y303512D01*
X151139Y303340D01*
X150876Y303164D01*
X150615Y302986D01*
X150356Y302805D01*
X150099Y302621D01*
X149845Y302433D01*
X149592Y302243D01*
X149342Y302050D01*
X149094Y301854D01*
X148849Y301655D01*
X148605Y301453D01*
X148364Y301249D01*
X148126Y301041D01*
X147888Y300830D01*
X147794Y300832D01*
X147700Y300839D01*
X147606Y300852D01*
X147514Y300869D01*
X147422Y300891D01*
X147332Y300918D01*
X147243Y300949D01*
X147156Y300985D01*
X147071Y301026D01*
X146988Y301071D01*
X146908Y301120D01*
X146830Y301173D01*
X146755Y301231D01*
X146684Y301292D01*
X146615Y301357D01*
X146550Y301425D01*
X146489Y301497D01*
X146432Y301572D01*
X146378Y301649D01*
X146329Y301730D01*
X146284Y301812D01*
X146243Y301897D01*
X146207Y301984D01*
X146176Y302073D01*
X146149Y302164D01*
X146127Y302255D01*
X146110Y302348D01*
X146098Y302441D01*
X146090Y302535D01*
X146088Y302630D01*
Y309440D01*
X157688D01*
Y307630D01*
D02*
G37*
G36*
X194388Y259930D02*
X188788D01*
X188694Y259932D01*
X188600Y259939D01*
X188506Y259952D01*
X188414Y259969D01*
X188322Y259991D01*
X188232Y260018D01*
X188143Y260049D01*
X188056Y260085D01*
X187971Y260126D01*
X187888Y260171D01*
X187808Y260220D01*
X187730Y260273D01*
X187655Y260331D01*
X187583Y260392D01*
X187515Y260457D01*
X187450Y260525D01*
X187389Y260597D01*
X187332Y260671D01*
X187278Y260749D01*
X187229Y260830D01*
X187184Y260912D01*
X187143Y260997D01*
X187107Y261084D01*
X187076Y261173D01*
X187049Y261264D01*
X187027Y261355D01*
X187010Y261448D01*
X186998Y261541D01*
X186990Y261635D01*
X186988Y261730D01*
X187200Y261968D01*
X187407Y262206D01*
X187612Y262447D01*
X187813Y262690D01*
X188012Y262936D01*
X188208Y263184D01*
X188402Y263434D01*
X188592Y263686D01*
X188779Y263941D01*
X188963Y264198D01*
X189144Y264457D01*
X189323Y264718D01*
X189498Y264981D01*
X189670Y265246D01*
X189839Y265513D01*
X190005Y265782D01*
X190168Y266053D01*
X190327Y266326D01*
X190484Y266600D01*
X190637Y266877D01*
X190787Y267155D01*
X190934Y267435D01*
X191077Y267717D01*
X191218Y268000D01*
X191355Y268285D01*
X191488Y268571D01*
X191618Y268859D01*
X191745Y269149D01*
X191869Y269440D01*
X191988Y269729D01*
X192019Y269811D01*
X192052Y269892D01*
X192088Y269972D01*
X192127Y270051D01*
X192167Y270129D01*
X192210Y270205D01*
X192255Y270280D01*
X192302Y270354D01*
X192351Y270427D01*
X192402Y270498D01*
X192456Y270567D01*
X192511Y270635D01*
X192568Y270702D01*
X192627Y270766D01*
X192688Y270829D01*
X192751Y270890D01*
X192816Y270949D01*
X192882Y271007D01*
X192950Y271062D01*
X193020Y271115D01*
X193090Y271166D01*
X193163Y271216D01*
X193237Y271263D01*
X193312Y271308D01*
X193389Y271350D01*
X193466Y271391D01*
X193545Y271429D01*
X193625Y271465D01*
X193706Y271498D01*
X193788Y271530D01*
X194388D01*
Y259930D01*
D02*
G37*
G36*
X139070Y271498D02*
X139151Y271465D01*
X139231Y271429D01*
X139310Y271391D01*
X139387Y271350D01*
X139464Y271308D01*
X139539Y271263D01*
X139613Y271216D01*
X139685Y271166D01*
X139756Y271115D01*
X139826Y271062D01*
X139894Y271007D01*
X139960Y270949D01*
X140025Y270890D01*
X140087Y270829D01*
X140148Y270766D01*
X140208Y270702D01*
X140265Y270635D01*
X140320Y270567D01*
X140374Y270498D01*
X140425Y270427D01*
X140474Y270354D01*
X140521Y270280D01*
X140566Y270205D01*
X140609Y270129D01*
X140649Y270051D01*
X140687Y269972D01*
X140723Y269892D01*
X140757Y269811D01*
X140788Y269729D01*
X140907Y269440D01*
X141031Y269149D01*
X141157Y268859D01*
X141288Y268571D01*
X141421Y268285D01*
X141558Y268000D01*
X141698Y267717D01*
X141842Y267435D01*
X141989Y267155D01*
X142139Y266877D01*
X142292Y266600D01*
X142448Y266326D01*
X142608Y266053D01*
X142771Y265782D01*
X142937Y265513D01*
X143106Y265246D01*
X143278Y264981D01*
X143453Y264718D01*
X143631Y264457D01*
X143813Y264198D01*
X143997Y263941D01*
X144184Y263686D01*
X144374Y263434D01*
X144567Y263184D01*
X144763Y262936D01*
X144962Y262690D01*
X145164Y262447D01*
X145369Y262206D01*
X145576Y261968D01*
X145788Y261730D01*
X145785Y261635D01*
X145778Y261541D01*
X145766Y261448D01*
X145749Y261355D01*
X145727Y261264D01*
X145700Y261173D01*
X145668Y261084D01*
X145632Y260997D01*
X145592Y260912D01*
X145547Y260830D01*
X145498Y260749D01*
X145444Y260671D01*
X145387Y260597D01*
X145325Y260525D01*
X145261Y260457D01*
X145192Y260392D01*
X145121Y260331D01*
X145046Y260273D01*
X144968Y260220D01*
X144888Y260171D01*
X144805Y260126D01*
X144720Y260085D01*
X144633Y260049D01*
X144544Y260018D01*
X144454Y259991D01*
X144362Y259969D01*
X144270Y259952D01*
X144176Y259939D01*
X144082Y259932D01*
X143988Y259930D01*
X138388D01*
Y271530D01*
X138988D01*
X139070Y271498D01*
D02*
G37*
G36*
X143688Y254130D02*
X126288D01*
Y257129D01*
X140688D01*
X143688Y254130D01*
D02*
G37*
G36*
X148126Y259418D02*
X148364Y259210D01*
X148605Y259006D01*
X148849Y258804D01*
X149094Y258605D01*
X149342Y258409D01*
X149592Y258216D01*
X149845Y258026D01*
X150099Y257838D01*
X150356Y257654D01*
X150615Y257473D01*
X150876Y257295D01*
X151139Y257119D01*
X151404Y256947D01*
X151671Y256778D01*
X151940Y256612D01*
X152211Y256449D01*
X152484Y256290D01*
X152759Y256133D01*
X153035Y255980D01*
X153313Y255830D01*
X153593Y255683D01*
X153875Y255540D01*
X154158Y255400D01*
X154443Y255263D01*
X154729Y255129D01*
X155017Y254999D01*
X155307Y254872D01*
X155598Y254749D01*
X155888Y254629D01*
X155970Y254598D01*
X156051Y254565D01*
X156131Y254529D01*
X156209Y254491D01*
X156287Y254450D01*
X156364Y254408D01*
X156439Y254363D01*
X156513Y254316D01*
X156585Y254266D01*
X156656Y254215D01*
X156726Y254162D01*
X156794Y254107D01*
X156860Y254049D01*
X156925Y253990D01*
X156987Y253929D01*
X157049Y253866D01*
X157108Y253801D01*
X157165Y253735D01*
X157220Y253667D01*
X157274Y253598D01*
X157325Y253527D01*
X157374Y253454D01*
X157421Y253381D01*
X157466Y253305D01*
X157509Y253229D01*
X157549Y253151D01*
X157587Y253072D01*
X157623Y252992D01*
X157657Y252911D01*
X157688Y252829D01*
Y252229D01*
X146088D01*
Y257829D01*
X146090Y257924D01*
X146098Y258018D01*
X146110Y258111D01*
X146127Y258204D01*
X146149Y258295D01*
X146176Y258386D01*
X146207Y258475D01*
X146243Y258562D01*
X146284Y258647D01*
X146329Y258729D01*
X146378Y258810D01*
X146432Y258888D01*
X146489Y258962D01*
X146550Y259034D01*
X146615Y259102D01*
X146684Y259167D01*
X146755Y259228D01*
X146830Y259286D01*
X146908Y259339D01*
X146988Y259388D01*
X147071Y259433D01*
X147156Y259474D01*
X147243Y259510D01*
X147332Y259541D01*
X147422Y259568D01*
X147514Y259590D01*
X147606Y259607D01*
X147700Y259620D01*
X147794Y259627D01*
X147888Y259629D01*
X148126Y259418D01*
D02*
G37*
G36*
X192088Y240130D02*
X189088D01*
Y254130D01*
X192088Y257129D01*
Y240130D01*
D02*
G37*
G36*
X206488Y303330D02*
X192088D01*
X189088Y306329D01*
X206488D01*
Y303330D01*
D02*
G37*
G36*
X357508Y125010D02*
X357508Y107533D01*
X340031Y107533D01*
X340031Y125010D01*
X357508Y125010D01*
D02*
G37*
D10*
X134962Y421468D02*
X211809D01*
X78242Y364748D02*
X134962Y421468D01*
X211809D02*
X224514Y408763D01*
X64064Y364748D02*
X78242D01*
X42962Y343646D02*
X64064Y364748D01*
D22*
X41785Y221245D02*
X44491D01*
X48604Y217132D02*
X48886D01*
X65514Y200504D02*
X143124D01*
X44491Y221245D02*
X48604Y217132D01*
X48886D02*
X65514Y200504D01*
X143124Y129044D02*
Y200504D01*
D25*
X394051Y277404D02*
D03*
D26*
X263948Y358973D02*
D03*
X246448D02*
D03*
D27*
X87520Y451884D02*
D03*
Y437883D02*
D03*
X88055Y413281D02*
D03*
Y399281D02*
D03*
X281211Y470266D02*
D03*
Y456265D02*
D03*
X415099Y457670D02*
D03*
Y471670D02*
D03*
X356026Y457670D02*
D03*
Y471670D02*
D03*
X292566Y127305D02*
D03*
Y113305D02*
D03*
X359178Y155849D02*
D03*
Y141849D02*
D03*
X340788Y141695D02*
D03*
Y155695D02*
D03*
X394723Y86795D02*
D03*
Y72795D02*
D03*
X348718D02*
D03*
Y86795D02*
D03*
X325979Y81046D02*
D03*
Y95046D02*
D03*
X276522Y113305D02*
D03*
Y127305D02*
D03*
X308611D02*
D03*
Y113305D02*
D03*
D28*
X326029Y106318D02*
D03*
Y112818D02*
D03*
Y119318D02*
D03*
Y125818D02*
D03*
X372029D02*
D03*
Y119318D02*
D03*
Y112818D02*
D03*
Y106318D02*
D03*
D29*
X196485Y145493D02*
D03*
X202985D02*
D03*
X209485D02*
D03*
Y126493D02*
D03*
X202985D02*
D03*
X196485D02*
D03*
D30*
X166388Y280229D02*
D03*
D31*
X408051Y277404D02*
D03*
X380051D02*
D03*
D32*
X456448Y385057D02*
D03*
Y358057D02*
D03*
D33*
X301672Y421055D02*
D03*
X282672D02*
D03*
X292172Y398055D02*
D03*
X431840Y398153D02*
D03*
X422340Y421153D02*
D03*
X441340D02*
D03*
X350486Y398153D02*
D03*
X340986Y421153D02*
D03*
X359986D02*
D03*
D34*
X319194Y480047D02*
D03*
X309694D02*
D03*
X300194D02*
D03*
X319194Y456047D02*
D03*
X300194D02*
D03*
X309694D02*
D03*
X434049Y455871D02*
D03*
X443549D02*
D03*
X453049D02*
D03*
Y479871D02*
D03*
X443549D02*
D03*
X434049D02*
D03*
X375903Y455871D02*
D03*
X385403D02*
D03*
X394902D02*
D03*
Y479871D02*
D03*
X385403D02*
D03*
X375903D02*
D03*
D35*
X319029Y439955D02*
D03*
X305029D02*
D03*
X394468Y438824D02*
D03*
X380467D02*
D03*
X456076D02*
D03*
X442076D02*
D03*
X252643Y77212D02*
D03*
X266643D02*
D03*
X252643Y62901D02*
D03*
X266643D02*
D03*
X283899Y96536D02*
D03*
X297899D02*
D03*
X378804Y88560D02*
D03*
X364804D02*
D03*
X378839Y71535D02*
D03*
X364839D02*
D03*
X284003Y80521D02*
D03*
X298003D02*
D03*
D36*
X209135Y78057D02*
D03*
X235135Y97056D02*
D03*
Y87557D02*
D03*
Y78057D02*
D03*
X209135Y97056D02*
D03*
Y87557D02*
D03*
D50*
X152127Y433763D02*
D03*
Y458763D02*
D03*
X224514Y433763D02*
D03*
Y458763D02*
D03*
D51*
X152127Y408763D02*
D03*
X224514D02*
D03*
D62*
X197790Y313330D02*
D03*
X134988Y247130D02*
D03*
D63*
X132338Y265730D02*
D03*
X200438D02*
D03*
D64*
X133488Y311830D02*
D03*
X199288Y248629D02*
D03*
D65*
X151888Y246179D02*
D03*
Y314280D02*
D03*
D66*
X199514Y313356D02*
X218234D01*
X219608Y226493D02*
Y311981D01*
X218234Y313356D02*
X219608Y311981D01*
Y226493D02*
X311523D01*
X114554D02*
X219608D01*
X61937D02*
X114554D01*
X263948Y358973D02*
X274304D01*
X290138Y343140D01*
X224514Y391157D02*
X246448Y369223D01*
X224514Y391157D02*
Y408763D01*
X263948Y348723D02*
X267698Y344973D01*
X151888Y339254D02*
Y364227D01*
Y314280D02*
Y339254D01*
X41785Y246645D02*
X61937Y226493D01*
X26606Y221245D02*
X39194D01*
X24848Y223002D02*
Y401536D01*
Y223002D02*
X26606Y221245D01*
X24848Y401536D02*
X26606Y403293D01*
X53135D01*
X17710Y453730D02*
X52772D01*
X15367Y105860D02*
Y451387D01*
Y105860D02*
X17710Y103517D01*
X15367Y451387D02*
X17710Y453730D01*
Y103517D02*
X163752D01*
X52772Y453730D02*
X53135Y454094D01*
X151888Y364227D02*
Y408524D01*
X166095Y105860D02*
Y143427D01*
X163752Y103517D02*
X166095Y105860D01*
Y143427D02*
X180898Y158229D01*
X209365D01*
X246716Y430443D02*
Y479775D01*
Y430443D02*
X277565Y399593D01*
X370762Y525841D02*
X409296D01*
X173696Y481532D02*
X244958D01*
X171939Y437776D02*
Y479775D01*
X152127Y433763D02*
X167926D01*
X171939Y437776D01*
X277565Y399593D02*
X290672D01*
X290138Y343140D02*
X456448D01*
X304678Y353599D02*
X349212D01*
X224514Y433763D02*
X304678Y353599D01*
X318976Y438717D02*
Y455830D01*
X362516Y277486D02*
X379970D01*
X311523Y226493D02*
X362516Y277486D01*
X350970Y355357D02*
Y397669D01*
X456448Y343140D02*
Y358057D01*
Y315926D02*
Y343140D01*
X417926Y277404D02*
X456448Y315926D01*
X444936Y385057D02*
X456448D01*
X408051Y277404D02*
X417926D01*
X370762Y487262D02*
Y500441D01*
Y487262D02*
X375903Y482121D01*
X409296Y525841D02*
X434049Y501089D01*
Y479871D02*
Y501089D01*
X359986Y421153D02*
X376797D01*
X394468Y438824D01*
X380467D02*
X385403Y443759D01*
Y455871D01*
X394468Y438824D02*
Y455436D01*
X394902Y455871D01*
X431840Y398153D02*
X444936Y385057D01*
X442076Y438824D02*
X443549Y440297D01*
Y455871D01*
X441340Y421153D02*
X456076Y435889D01*
X453049Y441850D02*
Y455871D01*
Y441850D02*
X456076Y438824D01*
Y435889D02*
Y438824D01*
D67*
X197788Y313330D02*
X199488D01*
X133488Y265730D02*
Y311830D01*
X135938Y246179D02*
X151888D01*
X134988Y247130D02*
X135938Y246179D01*
X199288Y248629D02*
X200438Y249779D01*
Y265730D01*
X219608Y226411D02*
Y226493D01*
X114554Y226150D02*
Y226493D01*
X246448Y358973D02*
Y369223D01*
X209365Y158229D02*
X209485Y158109D01*
Y145493D02*
Y158109D01*
X113341Y339822D02*
X151320D01*
X151888Y339254D01*
X91764Y318246D02*
X113341Y339822D01*
X41785Y318246D02*
X91764D01*
X41785Y246645D02*
Y292846D01*
X39194Y221245D02*
X41785D01*
X53135Y403293D02*
X57148Y399281D01*
X88055D01*
X54240Y452989D02*
X86415D01*
X88055Y413281D02*
Y437347D01*
X86415Y452989D02*
X87520Y451884D01*
X62325Y437883D02*
X87520D01*
X88055Y437347D01*
X53135Y428694D02*
X62325Y437883D01*
X53135Y454094D02*
X54240Y452989D01*
X151888Y364227D02*
X152226Y364566D01*
X199488Y313330D02*
X199514Y313356D01*
X265403Y450038D02*
X277386Y438055D01*
X267681Y470266D02*
X281211D01*
X265403Y450038D02*
Y467988D01*
X267681Y470266D01*
X155214Y82043D02*
X190171Y117000D01*
X113124Y82043D02*
X155214D01*
X190171Y117000D02*
X201228D01*
X202985Y118757D02*
Y126493D01*
X201228Y117000D02*
X202985Y118757D01*
X147041Y60978D02*
X195602Y109539D01*
X207214D01*
X209485Y111811D01*
Y126493D01*
X116762Y43241D02*
X134499Y60978D01*
X147041D01*
X142167Y43240D02*
X195983Y97056D01*
X209135D01*
X151888Y408524D02*
X152127Y408763D01*
X171939Y479775D02*
X173696Y481532D01*
X244958D02*
X246716Y479775D01*
X326029Y125818D02*
X330968D01*
X250010Y78057D02*
X251839Y76228D01*
Y60901D02*
Y76228D01*
X265839Y60901D02*
Y76228D01*
X266643Y77032D02*
X266733Y77122D01*
X267132Y77521D01*
X167567Y43240D02*
Y51643D01*
X333467Y488547D02*
X345362Y500441D01*
X350486Y398153D02*
X350970Y397669D01*
X349212Y353599D02*
X350970Y355357D01*
X379970Y277486D02*
X380051Y277404D01*
X396531Y156801D02*
X396851Y157120D01*
X396531Y143207D02*
Y156801D01*
X375185Y141449D02*
X394774D01*
X396531Y143207D01*
X362401Y128666D02*
X375185Y141449D01*
X362401Y115344D02*
Y128666D01*
X292172Y398055D02*
Y398094D01*
X290672Y399593D02*
X292172Y398094D01*
X305029Y440456D02*
X309694Y445121D01*
Y456047D01*
X305029Y439955D02*
Y440456D01*
X301672Y421055D02*
Y421639D01*
X303172Y423139D01*
X309493D01*
X319029Y432675D02*
Y439955D01*
X309493Y423139D02*
X319029Y432675D01*
X325686Y422291D02*
X339848D01*
X340986Y421153D01*
X299976Y456265D02*
X300194Y456047D01*
X281211Y456265D02*
X299976D01*
X282262Y421466D02*
Y430555D01*
X277386Y435431D02*
X282262Y430555D01*
X277386Y435431D02*
Y438055D01*
X282262Y421466D02*
X282672Y421055D01*
X305201Y488547D02*
X333467D01*
X303444Y486790D02*
X305201Y488547D01*
X303444Y485547D02*
Y486790D01*
X300194Y482297D02*
X303444Y485547D01*
X300194Y480047D02*
Y482297D01*
X323194Y476047D02*
X325283Y473958D01*
X334027D01*
X319194Y477797D02*
Y480047D01*
Y477797D02*
X320944Y476047D01*
X323194D01*
X334027Y473958D02*
X335883Y472102D01*
X309694Y480047D02*
X319194D01*
X335883Y472102D02*
X355595D01*
X300194Y453797D02*
Y456047D01*
X375903Y479871D02*
Y482121D01*
X421439Y422054D02*
X422340Y421153D01*
X421439Y422054D02*
Y435396D01*
X420537Y436298D02*
X421439Y435396D01*
X318976Y455830D02*
X319194Y456047D01*
X209365Y145613D02*
X209485Y145493D01*
X202985Y126493D02*
Y145493D01*
X356026Y457670D02*
X374104D01*
X375903Y455871D01*
X385403Y479871D02*
X394902D01*
X409936D01*
X415099Y485034D01*
Y471670D02*
Y485034D01*
Y457670D02*
X432250D01*
X434049Y455871D01*
X443549Y479871D02*
X453049D01*
X467591D01*
X468254Y480534D01*
X204688Y29561D02*
Y73609D01*
X192967Y17840D02*
X204688Y29561D01*
Y73609D02*
X209135Y78057D01*
X326029Y125818D02*
X330630D01*
X378804Y71570D02*
Y88560D01*
Y71570D02*
X378839Y71535D01*
X378804Y88560D02*
X380921Y90677D01*
X292566Y113305D02*
X293113D01*
X293206Y113212D01*
X292566Y127305D02*
X308611D01*
X293206Y113212D02*
X293299Y113305D01*
X298003Y73874D02*
Y80521D01*
X285961Y61831D02*
X298003Y73874D01*
X281635Y61831D02*
X285961D01*
X283899Y96536D02*
X284003Y96432D01*
Y80521D02*
Y96432D01*
X308611Y107249D02*
Y113305D01*
X297899Y96536D02*
X308611Y107249D01*
X235135Y97056D02*
X235655Y96536D01*
X283899D01*
X265839Y76228D02*
X266643Y77032D01*
Y77212D01*
Y76823D02*
Y77032D01*
Y76823D02*
X281635Y61831D01*
X276480Y127254D02*
X276522Y127212D01*
X325568Y80635D02*
X325979Y81046D01*
X325568Y64650D02*
Y80635D01*
X267132Y77521D02*
Y81294D01*
X260869Y87557D02*
X267132Y81294D01*
X377949Y125818D02*
X383111Y130979D01*
X373456Y155849D02*
X373751Y156145D01*
X359178Y155849D02*
X373456D01*
X406375Y72795D02*
X406757Y72413D01*
X394723Y72795D02*
X406375D01*
X372029Y125818D02*
X377949D01*
X235135Y87557D02*
X260869D01*
X235135Y78057D02*
X250010D01*
X203480Y87557D02*
X209135D01*
X167567Y51643D02*
X203480Y87557D01*
X316599Y119318D02*
X326029D01*
X308611Y127305D02*
X316599Y119318D01*
X325541Y113305D02*
X326029Y112818D01*
X308611Y113305D02*
X325541D01*
X325979Y95046D02*
X326029Y95096D01*
Y106318D01*
X394723Y86795D02*
X396851Y88923D01*
Y116049D01*
X364804Y71570D02*
X364839Y71535D01*
X363578Y72795D02*
X364804Y71570D01*
X348718Y72795D02*
X363578D01*
X364804Y71570D02*
Y88560D01*
Y99093D02*
X372029Y106318D01*
X364804Y88560D02*
Y99093D01*
X380921Y90677D02*
Y109374D01*
X377478Y112818D02*
X380921Y109374D01*
X372029Y112818D02*
X377478D01*
X393583Y119318D02*
X396851Y116049D01*
X372029Y119318D02*
X393583D01*
X340788Y135976D02*
Y141695D01*
X330630Y125818D02*
X340788Y135976D01*
X359024Y141695D02*
X359178Y141849D01*
X340788Y141695D02*
X359024D01*
X364928Y112818D02*
X372029D01*
X362401Y115344D02*
X364928Y112818D01*
X335017Y100497D02*
X348718Y86795D01*
X335017Y100497D02*
Y121769D01*
X330968Y125818D02*
X335017Y121769D01*
X254540Y127254D02*
X276480D01*
X276522Y113305D02*
X292566D01*
D68*
X53135Y454094D02*
D03*
Y428694D02*
D03*
D69*
Y403293D02*
D03*
D70*
X41785Y195845D02*
D03*
Y292846D02*
D03*
X396851Y116049D02*
D03*
D71*
X41785Y221245D02*
D03*
Y246645D02*
D03*
Y318246D02*
D03*
Y343646D02*
D03*
X396851Y157120D02*
D03*
D72*
X370762Y525841D02*
D03*
X345362D02*
D03*
X319962D02*
D03*
X294562D02*
D03*
X269162D02*
D03*
X243762D02*
D03*
X218362D02*
D03*
X192962D02*
D03*
X167562D02*
D03*
X142162D02*
D03*
X116762D02*
D03*
X91362D02*
D03*
X370762Y500441D02*
D03*
X345362D02*
D03*
X319962D02*
D03*
X294562D02*
D03*
X269162D02*
D03*
X243762D02*
D03*
X218362D02*
D03*
X192962D02*
D03*
X167562D02*
D03*
X142162D02*
D03*
X116762D02*
D03*
X91362D02*
D03*
Y17841D02*
D03*
X116762D02*
D03*
X142162D02*
D03*
X167562D02*
D03*
X192962D02*
D03*
X218362D02*
D03*
X243762D02*
D03*
X269162D02*
D03*
X294562D02*
D03*
X319962D02*
D03*
X345362D02*
D03*
X370762D02*
D03*
X91362Y43241D02*
D03*
X142162D02*
D03*
X167562D02*
D03*
X192962D02*
D03*
X218362D02*
D03*
X243762D02*
D03*
X269162D02*
D03*
X294562D02*
D03*
X319962D02*
D03*
X345362D02*
D03*
X370762D02*
D03*
X116762D02*
D03*
D73*
X143124Y129044D02*
D03*
X83124D02*
D03*
D74*
X113124Y82043D02*
D03*
D75*
X394051Y289088D02*
D03*
D76*
Y277638D02*
D03*
X394097Y266099D02*
D03*
D77*
X155100Y274828D02*
D03*
X166380Y291068D02*
D03*
X176117Y274838D02*
D03*
D78*
X325686Y422291D02*
D03*
X335883Y472102D02*
D03*
X420537Y436298D02*
D03*
X277386Y438055D02*
D03*
X468254Y480534D02*
D03*
X416678Y486613D02*
D03*
X254540Y127254D02*
D03*
X281635Y61831D02*
D03*
X325568Y64650D02*
D03*
X348713Y116226D02*
D03*
X373751Y156145D02*
D03*
X406757Y72413D02*
D03*
D79*
X383111Y130979D02*
D03*
M02*
