G04*
G04 #@! TF.GenerationSoftware,Altium Limited,Altium Designer,19.1.9 (167)*
G04*
G04 Layer_Color=255*
%FSLAX44Y44*%
%MOMM*%
G71*
G01*
G75*
%ADD65C,1.5240*%
%ADD66R,1.2060X1.2060*%
%ADD67C,1.2060*%
%ADD68C,1.4000*%
%ADD69R,1.4000X1.4000*%
%ADD70O,1.5000X3.0000*%
%ADD71O,3.0000X1.5000*%
%ADD72C,1.5000*%
%ADD73R,1.5000X1.5000*%
D65*
X38640Y43280D02*
D03*
X292640D02*
D03*
X267240D02*
D03*
X241840D02*
D03*
X216440D02*
D03*
X191040D02*
D03*
X165640D02*
D03*
X140240D02*
D03*
X114840D02*
D03*
X89440D02*
D03*
X64040D02*
D03*
X13240D02*
D03*
X292640Y17880D02*
D03*
X267240D02*
D03*
X241840D02*
D03*
X216440D02*
D03*
X191040D02*
D03*
X165640D02*
D03*
X140240D02*
D03*
X114840D02*
D03*
X89440D02*
D03*
X64040D02*
D03*
X38640D02*
D03*
X13240D02*
D03*
X292640Y525880D02*
D03*
X267240D02*
D03*
X241840D02*
D03*
X216440D02*
D03*
X191040D02*
D03*
X165640D02*
D03*
X140240D02*
D03*
X114840D02*
D03*
X89440D02*
D03*
X64040D02*
D03*
X38640D02*
D03*
X13240D02*
D03*
X292640Y500480D02*
D03*
X267240D02*
D03*
X241840D02*
D03*
X216440D02*
D03*
X191040D02*
D03*
X165640D02*
D03*
X140240D02*
D03*
X114840D02*
D03*
X89440D02*
D03*
X64040D02*
D03*
X38640D02*
D03*
X13240D02*
D03*
D66*
X38757Y259871D02*
D03*
X44809Y329426D02*
D03*
D67*
X38757Y234870D02*
D03*
X44809Y380227D02*
D03*
D68*
X98003Y437211D02*
D03*
D69*
X148003D02*
D03*
D70*
X82315Y163844D02*
D03*
X142315D02*
D03*
D71*
X112315Y116844D02*
D03*
D72*
X318729Y141488D02*
D03*
D73*
Y116088D02*
D03*
M02*
