M48
;Layer_Color=9474304
;FILE_FORMAT=4:4
METRIC,LZ
;TYPE=PLATED
T1F00S00C0.5000
T2F00S00C0.7112
T3F00S00C0.8000
T4F00S00C0.9000
T5F00S00C1.0000
T6F00S00C1.0160
%
T01
X00304989Y00131018
X0031244Y00279097
X00312394Y00290636
Y00302086
T02
X00029834Y00107833
X00176418Y00127293
X00203513Y0006187
X00247446Y00064688
X00270592Y00116265
X00328635Y00072452
X00011061Y00297355
X001355Y00267321
X00205724Y00315939
X00170132Y00391752
X00217384Y00421491
X00227581Y00471302
X00308376Y00485814
X00312102Y0043463
X00359952Y00479734
X00295629Y00156184
T03
X00038757Y0023487
Y00259871
X00044809Y00329426
Y00380227
T04
X00318729Y00116088
Y00141488
X00148003Y00437211
X00098003
T05
X00112315Y00116844
X00082315Y00163844
X00142315
T06
X0003864Y0001788
Y0004328
X0006404
X0008944
X0011484
X0014024
X0016564
X0019104
X0021644
X0024184
X0026724
X0029264
Y0001788
X0026724
X0024184
X0021644
X0019104
X0016564
X0014024
X0011484
X0008944
X0006404
X0001324
Y0004328
Y0050048
Y0052588
X0003864
X0006404
X0008944
X0011484
X0014024
X0016564
X0019104
X0021644
X0024184
X0026724
X0029264
Y0050048
X0026724
X0024184
X0021644
X0019104
X0016564
X0014024
X0011484
X0008944
X0006404
X0003864
M30
