G04*
G04 #@! TF.GenerationSoftware,Altium Limited,Altium Designer,19.1.9 (167)*
G04*
G04 Layer_Color=2752767*
%FSLAX44Y44*%
%MOMM*%
G71*
G01*
G75*
%ADD83C,0.0508*%
%ADD84C,0.0677*%
D83*
X36608Y41248D02*
Y45312D01*
X40672D01*
Y41248D01*
X36608D01*
X290608D02*
Y45312D01*
X294672D01*
Y41248D01*
X290608D01*
X265208D02*
Y45312D01*
X269272D01*
Y41248D01*
X265208D01*
X239808D02*
Y45312D01*
X243872D01*
Y41248D01*
X239808D01*
X214408D02*
Y45312D01*
X218472D01*
Y41248D01*
X214408D01*
X189008D02*
Y45312D01*
X193072D01*
Y41248D01*
X189008D01*
X163608D02*
Y45312D01*
X167672D01*
Y41248D01*
X163608D01*
X138208D02*
Y45312D01*
X142272D01*
Y41248D01*
X138208D01*
X112808D02*
Y45312D01*
X116872D01*
Y41248D01*
X112808D01*
X87408D02*
Y45312D01*
X91472D01*
Y41248D01*
X87408D01*
X62008D02*
Y45312D01*
X66072D01*
Y41248D01*
X62008D01*
X11208D02*
Y45312D01*
X15272D01*
Y41248D01*
X11208D01*
X290608Y15848D02*
Y19912D01*
X294672D01*
Y15848D01*
X290608D01*
X265208D02*
Y19912D01*
X269272D01*
Y15848D01*
X265208D01*
X239808D02*
Y19912D01*
X243872D01*
Y15848D01*
X239808D01*
X214408D02*
Y19912D01*
X218472D01*
Y15848D01*
X214408D01*
X189008D02*
Y19912D01*
X193072D01*
Y15848D01*
X189008D01*
X163608D02*
Y19912D01*
X167672D01*
Y15848D01*
X163608D01*
X138208D02*
Y19912D01*
X142272D01*
Y15848D01*
X138208D01*
X112808D02*
Y19912D01*
X116872D01*
Y15848D01*
X112808D01*
X87408D02*
Y19912D01*
X91472D01*
Y15848D01*
X87408D01*
X62008D02*
Y19912D01*
X66072D01*
Y15848D01*
X62008D01*
X36608D02*
Y19912D01*
X40672D01*
Y15848D01*
X36608D01*
X11208D02*
Y19912D01*
X15272D01*
Y15848D01*
X11208D01*
X290608Y523848D02*
Y527912D01*
X294672D01*
Y523848D01*
X290608D01*
X265208D02*
Y527912D01*
X269272D01*
Y523848D01*
X265208D01*
X239808D02*
Y527912D01*
X243872D01*
Y523848D01*
X239808D01*
X214408D02*
Y527912D01*
X218472D01*
Y523848D01*
X214408D01*
X189008D02*
Y527912D01*
X193072D01*
Y523848D01*
X189008D01*
X163608D02*
Y527912D01*
X167672D01*
Y523848D01*
X163608D01*
X138208D02*
Y527912D01*
X142272D01*
Y523848D01*
X138208D01*
X112808D02*
Y527912D01*
X116872D01*
Y523848D01*
X112808D01*
X87408D02*
Y527912D01*
X91472D01*
Y523848D01*
X87408D01*
X62008D02*
Y527912D01*
X66072D01*
Y523848D01*
X62008D01*
X36608D02*
Y527912D01*
X40672D01*
Y523848D01*
X36608D01*
X11208D02*
Y527912D01*
X15272D01*
Y523848D01*
X11208D01*
X290608Y498448D02*
Y502512D01*
X294672D01*
Y498448D01*
X290608D01*
X265208D02*
Y502512D01*
X269272D01*
Y498448D01*
X265208D01*
X239808D02*
Y502512D01*
X243872D01*
Y498448D01*
X239808D01*
X214408D02*
Y502512D01*
X218472D01*
Y498448D01*
X214408D01*
X189008D02*
Y502512D01*
X193072D01*
Y498448D01*
X189008D01*
X163608D02*
Y502512D01*
X167672D01*
Y498448D01*
X163608D01*
X138208D02*
Y502512D01*
X142272D01*
Y498448D01*
X138208D01*
X112808D02*
Y502512D01*
X116872D01*
Y498448D01*
X112808D01*
X87408D02*
Y502512D01*
X91472D01*
Y498448D01*
X87408D01*
X62008D02*
Y502512D01*
X66072D01*
Y498448D01*
X62008D01*
X36608D02*
Y502512D01*
X40672D01*
Y498448D01*
X36608D01*
X11208D02*
Y502512D01*
X15272D01*
Y498448D01*
X11208D01*
X98003Y435179D02*
X95971Y439243D01*
X100035D01*
X98003Y435179D01*
X148003D02*
X145971Y439243D01*
X150035D01*
X148003Y435179D01*
X82315Y161812D02*
X83331Y162828D01*
X84347D01*
X83331Y163844D01*
X84347Y164860D01*
X83331D01*
X82315Y165876D01*
X81299Y164860D01*
X80283D01*
X81299Y163844D01*
X80283Y162828D01*
X81299D01*
X82315Y161812D01*
X142315D02*
X143331Y162828D01*
X144347D01*
X143331Y163844D01*
X144347Y164860D01*
X143331D01*
X142315Y165876D01*
X141299Y164860D01*
X140283D01*
X141299Y163844D01*
X140283Y162828D01*
X141299D01*
X142315Y161812D01*
X112315Y114812D02*
X113331Y115828D01*
X114347D01*
X113331Y116844D01*
X114347Y117860D01*
X113331D01*
X112315Y118876D01*
X111299Y117860D01*
X110283D01*
X111299Y116844D01*
X110283Y115828D01*
X111299D01*
X112315Y114812D01*
X318729Y139456D02*
X316697Y143520D01*
X320761D01*
X318729Y139456D01*
Y114056D02*
X316697Y118120D01*
X320761D01*
X318729Y114056D01*
X27802Y105801D02*
X28818Y107833D01*
X27802Y109865D01*
X29834Y108849D01*
X31866Y109865D01*
X30850Y107833D01*
X31866Y105801D01*
X29834Y106817D01*
X27802Y105801D01*
X225549Y469270D02*
X226565Y471302D01*
X225549Y473334D01*
X227581Y472318D01*
X229613Y473334D01*
X228597Y471302D01*
X229613Y469270D01*
X227581Y470286D01*
X225549Y469270D01*
X306344Y483782D02*
X307360Y485814D01*
X306344Y487846D01*
X308376Y486830D01*
X310408Y487846D01*
X309392Y485814D01*
X310408Y483782D01*
X308376Y484798D01*
X306344Y483782D01*
X357920Y477702D02*
X358936Y479734D01*
X357920Y481767D01*
X359952Y480751D01*
X361984Y481767D01*
X360968Y479734D01*
X361984Y477702D01*
X359952Y478718D01*
X357920Y477702D01*
X310070Y432598D02*
X311086Y434630D01*
X310070Y436662D01*
X312102Y435646D01*
X314134Y436662D01*
X313118Y434630D01*
X314134Y432598D01*
X312102Y433614D01*
X310070Y432598D01*
X215352Y419459D02*
X216368Y421491D01*
X215352Y423523D01*
X217384Y422507D01*
X219416Y423523D01*
X218400Y421491D01*
X219416Y419459D01*
X217384Y420475D01*
X215352Y419459D01*
X168100Y389720D02*
X169116Y391752D01*
X168100Y393783D01*
X170132Y392767D01*
X172164Y393783D01*
X171148Y391752D01*
X172164Y389720D01*
X170132Y390736D01*
X168100Y389720D01*
X9028Y295323D02*
X10044Y297355D01*
X9028Y299387D01*
X11061Y298371D01*
X13092Y299387D01*
X12076Y297355D01*
X13092Y295323D01*
X11061Y296339D01*
X9028Y295323D01*
X203692Y313907D02*
X204708Y315939D01*
X203692Y317971D01*
X205724Y316955D01*
X207756Y317971D01*
X206740Y315939D01*
X207756Y313907D01*
X205724Y314923D01*
X203692Y313907D01*
X133468Y265289D02*
X134484Y267321D01*
X133468Y269354D01*
X135500Y268337D01*
X137532Y269354D01*
X136516Y267321D01*
X137532Y265289D01*
X135500Y266306D01*
X133468Y265289D01*
X174386Y125261D02*
X175402Y127293D01*
X174386Y129325D01*
X176418Y128309D01*
X178450Y129325D01*
X177434Y127293D01*
X178450Y125261D01*
X176418Y126277D01*
X174386Y125261D01*
X201481Y59838D02*
X202497Y61870D01*
X201481Y63902D01*
X203513Y62886D01*
X205545Y63902D01*
X204529Y61870D01*
X205545Y59838D01*
X203513Y60854D01*
X201481Y59838D01*
X245414Y62656D02*
X246430Y64688D01*
X245414Y66720D01*
X247446Y65704D01*
X249478Y66720D01*
X248462Y64688D01*
X249478Y62656D01*
X247446Y63672D01*
X245414Y62656D01*
X303973Y130002D02*
Y128986D01*
X306005D01*
Y130002D01*
X307021D01*
Y132034D01*
X306005D01*
Y133050D01*
X303973D01*
Y132034D01*
X302957D01*
Y130002D01*
X303973D01*
X268560Y114233D02*
X269576Y116265D01*
X268560Y118297D01*
X270592Y117281D01*
X272624Y118297D01*
X271608Y116265D01*
X272624Y114233D01*
X270592Y115249D01*
X268560Y114233D01*
X293597Y154152D02*
X294613Y156184D01*
X293597Y158216D01*
X295629Y157200D01*
X297661Y158216D01*
X296645Y156184D01*
X297661Y154152D01*
X295629Y155168D01*
X293597Y154152D01*
X326603Y70420D02*
X327619Y72452D01*
X326603Y74484D01*
X328635Y73468D01*
X330667Y74484D01*
X329651Y72452D01*
X330667Y70420D01*
X328635Y71436D01*
X326603Y70420D01*
X311424Y278081D02*
Y277065D01*
X313456D01*
Y278081D01*
X314472D01*
Y280113D01*
X313456D01*
Y281129D01*
X311424D01*
Y280113D01*
X310408D01*
Y278081D01*
X311424D01*
X311378Y289620D02*
Y288604D01*
X313410D01*
Y289620D01*
X314426D01*
Y291652D01*
X313410D01*
Y292668D01*
X311378D01*
Y291652D01*
X310362D01*
Y289620D01*
X311378D01*
Y301070D02*
Y300054D01*
X313410D01*
Y301070D01*
X314426D01*
Y303102D01*
X313410D01*
Y304118D01*
X311378D01*
Y303102D01*
X310362D01*
Y301070D01*
X311378D01*
D84*
X40789Y259871D02*
G03*
X40789Y259871I-2032J0D01*
G01*
Y234870D02*
G03*
X40789Y234870I-2032J0D01*
G01*
X46841Y329426D02*
G03*
X46841Y329426I-2032J0D01*
G01*
Y380227D02*
G03*
X46841Y380227I-2032J0D01*
G01*
M02*
