G04*
G04 #@! TF.GenerationSoftware,Altium Limited,Altium Designer,19.1.9 (167)*
G04*
G04 Layer_Color=16711935*
%FSLAX44Y44*%
%MOMM*%
G71*
G01*
G75*
%ADD51C,1.7272*%
%ADD52R,1.4092X1.4092*%
%ADD53C,1.4092*%
%ADD54C,1.6032*%
%ADD55R,1.6032X1.6032*%
%ADD56O,1.7032X3.2032*%
%ADD57O,3.2032X1.7032*%
%ADD58C,1.7032*%
%ADD59R,1.7032X1.7032*%
%ADD60C,1.4732*%
%ADD61C,1.1032*%
%ADD62C,1.2032*%
G36*
X375327Y226543D02*
X245326D01*
X245327Y356543D01*
X375327D01*
Y226543D01*
D02*
G37*
D51*
X38640Y43280D02*
D03*
X292640D02*
D03*
X267240D02*
D03*
X241840D02*
D03*
X216440D02*
D03*
X191040D02*
D03*
X165640D02*
D03*
X140240D02*
D03*
X114840D02*
D03*
X89440D02*
D03*
X64040D02*
D03*
X13240D02*
D03*
X292640Y17880D02*
D03*
X267240D02*
D03*
X241840D02*
D03*
X216440D02*
D03*
X191040D02*
D03*
X165640D02*
D03*
X140240D02*
D03*
X114840D02*
D03*
X89440D02*
D03*
X64040D02*
D03*
X38640D02*
D03*
X13240D02*
D03*
X292640Y525880D02*
D03*
X267240D02*
D03*
X241840D02*
D03*
X216440D02*
D03*
X191040D02*
D03*
X165640D02*
D03*
X140240D02*
D03*
X114840D02*
D03*
X89440D02*
D03*
X64040D02*
D03*
X38640D02*
D03*
X13240D02*
D03*
X292640Y500480D02*
D03*
X267240D02*
D03*
X241840D02*
D03*
X216440D02*
D03*
X191040D02*
D03*
X165640D02*
D03*
X140240D02*
D03*
X114840D02*
D03*
X89440D02*
D03*
X64040D02*
D03*
X38640D02*
D03*
X13240D02*
D03*
D52*
X38757Y259871D02*
D03*
X44809Y329426D02*
D03*
D53*
X38757Y234870D02*
D03*
X44809Y380227D02*
D03*
D54*
X98003Y437211D02*
D03*
D55*
X148003D02*
D03*
D56*
X82315Y163844D02*
D03*
X142315D02*
D03*
D57*
X112315Y116844D02*
D03*
D58*
X318729Y141488D02*
D03*
D59*
Y116088D02*
D03*
D60*
X29834Y107833D02*
D03*
X227581Y471302D02*
D03*
X308376Y485814D02*
D03*
X359952Y479734D02*
D03*
X312102Y434630D02*
D03*
X217384Y421491D02*
D03*
X170132Y391752D02*
D03*
X11061Y297355D02*
D03*
X205724Y315939D02*
D03*
X135500Y267321D02*
D03*
X176418Y127293D02*
D03*
X203513Y61870D02*
D03*
X247446Y64688D02*
D03*
X270592Y116265D02*
D03*
X295629Y156184D02*
D03*
X328635Y72452D02*
D03*
D61*
X304989Y131018D02*
D03*
D62*
X312440Y279097D02*
D03*
X312394Y290636D02*
D03*
Y302086D02*
D03*
M02*
