G04*
G04 #@! TF.GenerationSoftware,Altium Limited,Altium Designer,19.1.9 (167)*
G04*
G04 Layer_Color=65535*
%FSLAX43Y43*%
%MOMM*%
G71*
G01*
G75*
%ADD10C,0.250*%
%ADD11C,0.254*%
%ADD12C,0.127*%
%ADD13C,0.154*%
%ADD14C,0.200*%
%ADD15C,0.025*%
%ADD16C,0.500*%
%ADD17C,0.100*%
%ADD18C,0.350*%
%ADD19C,0.050*%
%ADD20C,0.150*%
%ADD21C,0.040*%
%ADD22R,0.500X1.000*%
G36*
X14909Y7407D02*
X14348D01*
X14909Y7968D01*
Y7407D01*
D02*
G37*
D10*
X4614Y7763D02*
G03*
X4614Y7763I-125J0D01*
G01*
X31825Y45507D02*
G03*
X31825Y45507I-125J0D01*
G01*
X26010D02*
G03*
X26010Y45507I-125J0D01*
G01*
D11*
X39302Y29049D02*
G03*
X39302Y29049I-8073J0D01*
G01*
D12*
X7026Y24737D02*
G03*
X7026Y24737I-3150J0D01*
G01*
X17300Y43721D02*
G03*
X17300Y43721I-5000J0D01*
G01*
X8481Y35483D02*
G03*
X8481Y35483I-4000J0D01*
G01*
X33804Y40504D02*
Y41266D01*
X30904Y40504D02*
X33804D01*
X30904D02*
Y41266D01*
X33804D01*
X25668Y40504D02*
Y41266D01*
X22768Y40504D02*
X25668D01*
X22768D02*
Y41266D01*
X25668D01*
X29439Y30840D02*
X33039D01*
Y27240D02*
Y30840D01*
X29439Y27240D02*
X33039D01*
X29439D02*
Y30840D01*
X13893Y7407D02*
X14909D01*
X13893D02*
Y10107D01*
X14909D01*
Y7407D02*
Y10107D01*
X960Y42310D02*
Y46910D01*
X3760Y42310D02*
Y46910D01*
X960Y42310D02*
X1460D01*
X960Y46910D02*
X1460D01*
X3260Y42310D02*
X3760D01*
X3260Y46910D02*
X3760D01*
X1460Y45910D02*
Y46910D01*
X3260Y45910D02*
Y46910D01*
X960Y45910D02*
X1449D01*
X3260D02*
X3760D01*
X19450Y21982D02*
Y31482D01*
X7550Y21982D02*
Y31482D01*
X19050Y21582D02*
X19450Y21982D01*
X7550D02*
X8050Y21482D01*
X532Y11884D02*
Y20885D01*
Y11884D02*
X9531D01*
X532Y20885D02*
X14932D01*
Y18135D02*
Y20885D01*
X12982Y11884D02*
X14932D01*
Y14634D01*
D13*
X28274Y10653D02*
G03*
X28274Y10653I-283J0D01*
G01*
X8231Y8127D02*
X7579D01*
Y8453D01*
X7688Y8562D01*
X7905D01*
X8014Y8453D01*
Y8127D01*
X7688Y9213D02*
X7579Y9105D01*
Y8887D01*
X7688Y8779D01*
X7796D01*
X7905Y8887D01*
Y9105D01*
X8014Y9213D01*
X8122D01*
X8231Y9105D01*
Y8887D01*
X8122Y8779D01*
D14*
X4789Y8413D02*
Y9013D01*
X6989Y8413D02*
Y9013D01*
X4789Y8413D02*
X6989D01*
X4789Y9013D02*
X6989D01*
X36027Y39969D02*
X36827D01*
X36027Y38469D02*
X36827D01*
X27746Y37924D02*
X28546D01*
X27746Y40324D02*
X28546D01*
X31975Y46457D02*
Y46957D01*
X35075Y46457D02*
Y46957D01*
X31975Y46457D02*
X35075D01*
X31975Y46957D02*
X35075D01*
X26160Y46457D02*
Y46957D01*
X29260Y46457D02*
Y46957D01*
X26160Y46457D02*
X29260D01*
X26160Y46957D02*
X29260D01*
X25591Y10076D02*
Y13176D01*
X28591D01*
Y10076D02*
Y13176D01*
X25591Y10076D02*
X28591D01*
X30603Y10339D02*
Y15419D01*
Y10339D02*
X33143D01*
Y15419D01*
X30603D02*
X33143D01*
D15*
X196Y721D02*
Y5395D01*
Y721D02*
X30432D01*
Y5395D01*
X196D02*
X30432D01*
X196Y48981D02*
Y53655D01*
Y48981D02*
X30432D01*
Y53655D01*
X196D02*
X30432D01*
D16*
X33313Y43006D02*
X33309Y43010D01*
X33304Y43006D01*
X33309Y43001D01*
X33313Y43006D01*
X25178D02*
X25173Y43010D01*
X25168Y43006D01*
X25173Y43001D01*
X25178Y43006D01*
D17*
X28274Y28946D02*
X28940D01*
X28607Y29280D02*
Y28613D01*
X5072Y28751D02*
Y28085D01*
X5405Y28418D02*
X4739D01*
X18418Y43429D02*
X17752D01*
X18085Y43096D02*
Y43763D01*
X4657Y30514D02*
Y31181D01*
X4324Y30848D02*
X4991D01*
D18*
X34880Y2900D02*
Y2300D01*
X35180Y2000D01*
X36379D01*
X36679Y2300D01*
Y2900D01*
X36379Y3200D01*
X35180D01*
X34880Y2900D01*
X37279Y3799D02*
X35480D01*
Y4699D01*
X35780Y4999D01*
X36379D01*
X36679Y4699D01*
Y3799D01*
Y6499D02*
Y5899D01*
X36379Y5599D01*
X35780D01*
X35480Y5899D01*
Y6499D01*
X35780Y6798D01*
X36080D01*
Y5599D01*
X36679Y7398D02*
X35480D01*
Y8298D01*
X35780Y8598D01*
X36679D01*
X34880Y9198D02*
X36080D01*
X36679Y9797D01*
X36080Y10397D01*
X34880D01*
Y10997D02*
X36679D01*
Y12197D01*
X35180Y13996D02*
X34880Y13696D01*
Y13096D01*
X35180Y12797D01*
X36379D01*
X36679Y13096D01*
Y13696D01*
X36379Y13996D01*
X36679Y14596D02*
Y15196D01*
Y14896D01*
X34880D01*
X35180Y14596D01*
X36679Y16095D02*
X36379D01*
Y16395D01*
X36679D01*
Y16095D01*
X35180Y17595D02*
X34880Y17895D01*
Y18495D01*
X35180Y18795D01*
X35480D01*
X35780Y18495D01*
Y18195D01*
Y18495D01*
X36080Y18795D01*
X36379D01*
X36679Y18495D01*
Y17895D01*
X36379Y17595D01*
X36679Y19394D02*
X36379D01*
Y19694D01*
X36679D01*
Y19394D01*
Y20894D02*
Y21494D01*
Y21194D01*
X34880D01*
X35180Y20894D01*
D19*
X16648Y7752D02*
X16676Y7781D01*
X16648Y7810D01*
X16619Y7781D01*
X16648Y7752D01*
X31334Y774D02*
X30734D01*
Y1074D01*
X30834Y1174D01*
X31034D01*
X31134Y1074D01*
Y774D01*
X31334Y1774D02*
Y1374D01*
X30934Y1774D01*
X30834D01*
X30734Y1674D01*
Y1474D01*
X30834Y1374D01*
X31284Y52962D02*
X30684D01*
Y53262D01*
X30784Y53362D01*
X30984D01*
X31084Y53262D01*
Y52962D01*
X31284Y53562D02*
Y53762D01*
Y53662D01*
X30684D01*
X30784Y53562D01*
D20*
X37788Y4455D02*
Y4821D01*
Y4638D01*
X38888D01*
Y4455D01*
Y4821D01*
Y5371D02*
X37788D01*
X38155Y5738D01*
X37788Y6104D01*
X38888D01*
X37788Y6471D02*
X38888D01*
Y7020D01*
X38705Y7204D01*
X37972D01*
X37788Y7020D01*
Y6471D01*
Y8303D02*
Y7570D01*
X38888D01*
Y8303D01*
X38338Y7570D02*
Y7937D01*
X38888Y8670D02*
X38155D01*
X37788Y9036D01*
X38155Y9403D01*
X38888D01*
X38338D01*
Y8670D01*
X38888Y10869D02*
X37788D01*
X38888Y11602D01*
X37788D01*
X38888Y12519D02*
Y12152D01*
X38705Y11969D01*
X38338D01*
X38155Y12152D01*
Y12519D01*
X38338Y12702D01*
X38522D01*
Y11969D01*
X37972Y13252D02*
X38155D01*
Y13068D01*
Y13435D01*
Y13252D01*
X38705D01*
X38888Y13435D01*
X38155Y13985D02*
X38705D01*
X38888Y14168D01*
X38705Y14351D01*
X38888Y14535D01*
X38705Y14718D01*
X38155D01*
X38888Y15268D02*
Y15634D01*
X38705Y15818D01*
X38338D01*
X38155Y15634D01*
Y15268D01*
X38338Y15084D01*
X38705D01*
X38888Y15268D01*
X38155Y16184D02*
X38888D01*
X38522D01*
X38338Y16367D01*
X38155Y16551D01*
Y16734D01*
X38888Y17284D02*
X37788D01*
X38522D02*
X38155Y17834D01*
X38522Y17284D02*
X38888Y17834D01*
Y18383D02*
Y18933D01*
X38705Y19117D01*
X38522Y18933D01*
Y18567D01*
X38338Y18383D01*
X38155Y18567D01*
Y19117D01*
D21*
X35563Y43605D02*
Y44005D01*
X35763D01*
X35830Y43938D01*
Y43805D01*
X35763Y43738D01*
X35563D01*
X35696D02*
X35830Y43605D01*
X36163D02*
Y44005D01*
X35963Y43805D01*
X36229D01*
X36363Y43538D02*
X36629D01*
X37029Y43605D02*
X36763D01*
X37029Y43871D01*
Y43938D01*
X36962Y44005D01*
X36829D01*
X36763Y43938D01*
X37429Y43605D02*
X37162D01*
X37429Y43871D01*
Y43938D01*
X37362Y44005D01*
X37229D01*
X37162Y43938D01*
X24583Y43583D02*
Y43983D01*
X24783D01*
X24850Y43917D01*
Y43783D01*
X24783Y43717D01*
X24583D01*
X24716D02*
X24850Y43583D01*
X25183D02*
Y43983D01*
X24983Y43783D01*
X25250D01*
X25383Y43517D02*
X25649D01*
X26049Y43583D02*
X25783D01*
X26049Y43850D01*
Y43917D01*
X25983Y43983D01*
X25849D01*
X25783Y43917D01*
X26183Y43583D02*
X26316D01*
X26249D01*
Y43983D01*
X26183Y43917D01*
X35470Y40892D02*
Y41292D01*
X35670D01*
X35737Y41226D01*
Y41092D01*
X35670Y41026D01*
X35470D01*
X35603D02*
X35737Y40892D01*
X36070D02*
Y41292D01*
X35870Y41092D01*
X36137D01*
X36270Y40826D02*
X36536D01*
X36670Y40892D02*
X36803D01*
X36736D01*
Y41292D01*
X36670Y41226D01*
X37270Y40892D02*
X37003D01*
X37270Y41159D01*
Y41226D01*
X37203Y41292D01*
X37070D01*
X37003Y41226D01*
X27292Y40778D02*
Y41178D01*
X27492D01*
X27559Y41111D01*
Y40978D01*
X27492Y40911D01*
X27292D01*
X27425D02*
X27559Y40778D01*
X27892D02*
Y41178D01*
X27692Y40978D01*
X27959D01*
X28092Y40711D02*
X28358D01*
X28492Y40778D02*
X28625D01*
X28558D01*
Y41178D01*
X28492Y41111D01*
X28825Y40778D02*
X28958D01*
X28892D01*
Y41178D01*
X28825Y41111D01*
X30753Y38277D02*
Y38677D01*
X30886Y38543D01*
X31019Y38677D01*
Y38277D01*
X31352Y38677D02*
X31219D01*
X31152Y38610D01*
Y38343D01*
X31219Y38277D01*
X31352D01*
X31419Y38343D01*
Y38610D01*
X31352Y38677D01*
X31819Y38610D02*
X31752Y38677D01*
X31619D01*
X31552Y38610D01*
Y38543D01*
X31619Y38477D01*
X31752D01*
X31819Y38410D01*
Y38343D01*
X31752Y38277D01*
X31619D01*
X31552Y38343D01*
X32219Y38677D02*
X31952D01*
Y38477D01*
X32085D01*
X31952D01*
Y38277D01*
X32619Y38677D02*
X32352D01*
Y38277D01*
X32619D01*
X32352Y38477D02*
X32485D01*
X32752Y38677D02*
X33018D01*
X32885D01*
Y38277D01*
X33152Y38210D02*
X33418D01*
X33552Y38677D02*
X33685D01*
X33618D01*
Y38277D01*
X33552D01*
X33685D01*
X32721Y48803D02*
Y49203D01*
X32854Y49070D01*
X32987Y49203D01*
Y48803D01*
X33387Y49136D02*
X33321Y49203D01*
X33187D01*
X33121Y49136D01*
Y48870D01*
X33187Y48803D01*
X33321D01*
X33387Y48870D01*
Y49003D01*
X33254D01*
X33521Y49203D02*
Y48803D01*
X33720D01*
X33787Y48870D01*
Y49136D01*
X33720Y49203D01*
X33521D01*
X33920Y48736D02*
X34187D01*
X34320Y49203D02*
X34454D01*
X34387D01*
Y48803D01*
X34320D01*
X34454D01*
X23123Y48075D02*
Y48475D01*
X23257Y48342D01*
X23390Y48475D01*
Y48075D01*
X23790Y48408D02*
X23723Y48475D01*
X23590D01*
X23523Y48408D01*
Y48142D01*
X23590Y48075D01*
X23723D01*
X23790Y48142D01*
Y48275D01*
X23656D01*
X23923Y48475D02*
Y48075D01*
X24123D01*
X24190Y48142D01*
Y48408D01*
X24123Y48475D01*
X23923D01*
X24323Y48009D02*
X24589D01*
X24989Y48408D02*
X24923Y48475D01*
X24789D01*
X24723Y48408D01*
Y48142D01*
X24789Y48075D01*
X24923D01*
X24989Y48142D01*
X30178Y44779D02*
X30111Y44846D01*
X29978D01*
X29911Y44779D01*
Y44513D01*
X29978Y44446D01*
X30111D01*
X30178Y44513D01*
X30578Y44846D02*
X30444Y44779D01*
X30311Y44646D01*
Y44513D01*
X30378Y44446D01*
X30511D01*
X30578Y44513D01*
Y44579D01*
X30511Y44646D01*
X30311D01*
X30711Y44380D02*
X30978D01*
X31377Y44446D02*
X31111D01*
X31377Y44713D01*
Y44779D01*
X31311Y44846D01*
X31178D01*
X31111Y44779D01*
X24246Y44801D02*
X24179Y44868D01*
X24046D01*
X23979Y44801D01*
Y44534D01*
X24046Y44468D01*
X24179D01*
X24246Y44534D01*
X24646Y44868D02*
X24512Y44801D01*
X24379Y44668D01*
Y44534D01*
X24446Y44468D01*
X24579D01*
X24646Y44534D01*
Y44601D01*
X24579Y44668D01*
X24379D01*
X24779Y44401D02*
X25045D01*
X25179Y44468D02*
X25312D01*
X25245D01*
Y44868D01*
X25179Y44801D01*
X23020Y8243D02*
X22954Y8309D01*
X22820D01*
X22754Y8243D01*
Y7976D01*
X22820Y7909D01*
X22954D01*
X23020Y7976D01*
X23153Y7909D02*
X23287D01*
X23220D01*
Y8309D01*
X23153Y8243D01*
X23487D02*
X23553Y8309D01*
X23687D01*
X23753Y8243D01*
Y8176D01*
X23687Y8109D01*
X23620D01*
X23687D01*
X23753Y8043D01*
Y7976D01*
X23687Y7909D01*
X23553D01*
X23487Y7976D01*
X22498Y13496D02*
Y13896D01*
X22698D01*
X22765Y13829D01*
Y13696D01*
X22698Y13629D01*
X22498D01*
X22632D02*
X22765Y13496D01*
X22898D02*
X23032D01*
X22965D01*
Y13896D01*
X22898Y13829D01*
X23232D02*
X23298Y13896D01*
X23431D01*
X23498Y13829D01*
Y13563D01*
X23431Y13496D01*
X23298D01*
X23232Y13563D01*
Y13829D01*
X28781Y31925D02*
Y31525D01*
Y31725D01*
X29048D01*
Y31925D01*
Y31525D01*
X29181Y31925D02*
Y31525D01*
X29448D01*
X19666Y13854D02*
X19599Y13921D01*
X19466D01*
X19399Y13854D01*
Y13587D01*
X19466Y13521D01*
X19599D01*
X19666Y13587D01*
X19799Y13521D02*
X19932D01*
X19866D01*
Y13921D01*
X19799Y13854D01*
X20399Y13521D02*
X20132D01*
X20399Y13787D01*
Y13854D01*
X20332Y13921D01*
X20199D01*
X20132Y13854D01*
X8051Y48071D02*
X7985Y48138D01*
X7851D01*
X7785Y48071D01*
Y47805D01*
X7851Y47738D01*
X7985D01*
X8051Y47805D01*
X8385Y47738D02*
Y48138D01*
X8185Y47938D01*
X8451D01*
X6056Y42198D02*
Y42598D01*
X6256D01*
X6323Y42532D01*
Y42398D01*
X6256Y42332D01*
X6056D01*
X6190D02*
X6323Y42198D01*
X6456Y42532D02*
X6523Y42598D01*
X6656D01*
X6723Y42532D01*
Y42465D01*
X6656Y42398D01*
X6590D01*
X6656D01*
X6723Y42332D01*
Y42265D01*
X6656Y42198D01*
X6523D01*
X6456Y42265D01*
X4416Y42176D02*
Y42576D01*
X4616D01*
X4683Y42509D01*
Y42376D01*
X4616Y42309D01*
X4416D01*
X4550D02*
X4683Y42176D01*
X5083D02*
X4816D01*
X5083Y42442D01*
Y42509D01*
X5016Y42576D01*
X4883D01*
X4816Y42509D01*
X15817Y20730D02*
Y20330D01*
X16017D01*
X16084Y20396D01*
Y20663D01*
X16017Y20730D01*
X15817D01*
X16484Y20663D02*
X16417Y20730D01*
X16284D01*
X16217Y20663D01*
Y20396D01*
X16284Y20330D01*
X16417D01*
X16484Y20396D01*
X16617Y20530D02*
X16883D01*
X17017Y20730D02*
Y20330D01*
X17217D01*
X17283Y20396D01*
Y20663D01*
X17217Y20730D01*
X17017D01*
X17683Y20663D02*
X17617Y20730D01*
X17483D01*
X17417Y20663D01*
Y20396D01*
X17483Y20330D01*
X17617D01*
X17683Y20396D01*
X2901Y28935D02*
X2834Y29002D01*
X2701D01*
X2634Y28935D01*
Y28668D01*
X2701Y28602D01*
X2834D01*
X2901Y28668D01*
X3301Y28602D02*
X3034D01*
X3301Y28868D01*
Y28935D01*
X3234Y29002D01*
X3101D01*
X3034Y28935D01*
X2113Y48646D02*
Y48246D01*
X2313D01*
X2380Y48312D01*
Y48579D01*
X2313Y48646D01*
X2113D01*
X2513Y48246D02*
X2647D01*
X2580D01*
Y48646D01*
X2513Y48579D01*
X21035Y36351D02*
Y36750D01*
X21235D01*
X21302Y36684D01*
Y36550D01*
X21235Y36484D01*
X21035D01*
X21168D02*
X21302Y36351D01*
X21435D02*
X21568D01*
X21502D01*
Y36750D01*
X21435Y36684D01*
X21235Y38039D02*
X21168Y38106D01*
X21035D01*
X20968Y38039D01*
Y37772D01*
X21035Y37706D01*
X21168D01*
X21235Y37772D01*
X21635Y38106D02*
X21368D01*
Y37906D01*
X21502Y37972D01*
X21568D01*
X21635Y37906D01*
Y37772D01*
X21568Y37706D01*
X21435D01*
X21368Y37772D01*
X1190Y27698D02*
X1124Y27764D01*
X991D01*
X924Y27698D01*
Y27431D01*
X991Y27364D01*
X1124D01*
X1190Y27431D01*
X1324Y27364D02*
X1457D01*
X1390D01*
Y27764D01*
X1324Y27698D01*
X21235Y35335D02*
X21168Y35402D01*
X21035D01*
X20968Y35335D01*
Y35068D01*
X21035Y35002D01*
X21168D01*
X21235Y35068D01*
X21368Y35335D02*
X21435Y35402D01*
X21568D01*
X21635Y35335D01*
Y35268D01*
X21568Y35202D01*
X21502D01*
X21568D01*
X21635Y35135D01*
Y35068D01*
X21568Y35002D01*
X21435D01*
X21368Y35068D01*
X491Y38728D02*
Y38328D01*
X758D01*
X891D02*
X1024D01*
X958D01*
Y38728D01*
X891Y38661D01*
X13399Y10518D02*
Y10785D01*
X13532Y10918D01*
X13665Y10785D01*
Y10518D01*
Y10718D01*
X13399D01*
X13798Y10918D02*
Y10518D01*
X13998D01*
X14065Y10585D01*
Y10851D01*
X13998Y10918D01*
X13798D01*
X14465Y10851D02*
X14398Y10918D01*
X14265D01*
X14198Y10851D01*
Y10585D01*
X14265Y10518D01*
X14398D01*
X14465Y10585D01*
X14598Y10451D02*
X14865D01*
X14998Y10518D02*
Y10918D01*
X15198D01*
X15265Y10851D01*
Y10718D01*
X15198Y10651D01*
X14998D01*
X15398Y10918D02*
Y10518D01*
X15598D01*
X15665Y10585D01*
Y10851D01*
X15598Y10918D01*
X15398D01*
X22534Y38234D02*
Y38634D01*
X22667Y38500D01*
X22800Y38634D01*
Y38234D01*
X23134Y38634D02*
X23000D01*
X22934Y38567D01*
Y38300D01*
X23000Y38234D01*
X23134D01*
X23200Y38300D01*
Y38567D01*
X23134Y38634D01*
X23600Y38567D02*
X23534Y38634D01*
X23400D01*
X23334Y38567D01*
Y38500D01*
X23400Y38434D01*
X23534D01*
X23600Y38367D01*
Y38300D01*
X23534Y38234D01*
X23400D01*
X23334Y38300D01*
X24000Y38634D02*
X23733D01*
Y38434D01*
X23867D01*
X23733D01*
Y38234D01*
X24400Y38634D02*
X24133D01*
Y38234D01*
X24400D01*
X24133Y38434D02*
X24267D01*
X24533Y38634D02*
X24800D01*
X24667D01*
Y38234D01*
X24933Y38167D02*
X25200D01*
X25600Y38567D02*
X25533Y38634D01*
X25400D01*
X25333Y38567D01*
Y38300D01*
X25400Y38234D01*
X25533D01*
X25600Y38300D01*
X25652Y8992D02*
X25586Y9058D01*
X25452D01*
X25386Y8992D01*
Y8725D01*
X25452Y8659D01*
X25586D01*
X25652Y8725D01*
X25786D02*
X25852Y8659D01*
X25986D01*
X26052Y8725D01*
Y8992D01*
X25986Y9058D01*
X25852D01*
X25786Y8992D01*
Y8925D01*
X25852Y8858D01*
X26052D01*
X29162Y6301D02*
X29096Y6368D01*
X28962D01*
X28896Y6301D01*
Y6035D01*
X28962Y5968D01*
X29096D01*
X29162Y6035D01*
X29296Y5968D02*
X29429D01*
X29362D01*
Y6368D01*
X29296Y6301D01*
X29629D02*
X29696Y6368D01*
X29829D01*
X29895Y6301D01*
Y6035D01*
X29829Y5968D01*
X29696D01*
X29629Y6035D01*
Y6301D01*
X26902Y6499D02*
X26836Y6566D01*
X26702D01*
X26636Y6499D01*
Y6233D01*
X26702Y6166D01*
X26836D01*
X26902Y6233D01*
X27036Y6166D02*
X27169D01*
X27102D01*
Y6566D01*
X27036Y6499D01*
X27369Y6166D02*
X27502D01*
X27435D01*
Y6566D01*
X27369Y6499D01*
X32597Y15800D02*
Y16199D01*
X32797D01*
X32863Y16133D01*
Y16000D01*
X32797Y15933D01*
X32597D01*
X32997Y16199D02*
Y15800D01*
X33197D01*
X33263Y15866D01*
Y16133D01*
X33197Y16199D01*
X32997D01*
X29122Y9641D02*
Y10041D01*
X29322D01*
X29388Y9974D01*
Y9841D01*
X29322Y9774D01*
X29122D01*
X29255D02*
X29388Y9641D01*
X29788Y10041D02*
X29522D01*
Y9841D01*
X29655Y9907D01*
X29722D01*
X29788Y9841D01*
Y9707D01*
X29722Y9641D01*
X29588D01*
X29522Y9707D01*
X31269Y6138D02*
Y6537D01*
X31469D01*
X31535Y6471D01*
Y6338D01*
X31469Y6271D01*
X31269D01*
X31402D02*
X31535Y6138D01*
X31935Y6537D02*
X31802Y6471D01*
X31669Y6338D01*
Y6204D01*
X31735Y6138D01*
X31869D01*
X31935Y6204D01*
Y6271D01*
X31869Y6338D01*
X31669D01*
X26042Y16534D02*
Y16934D01*
X26242D01*
X26309Y16867D01*
Y16734D01*
X26242Y16667D01*
X26042D01*
X26176D02*
X26309Y16534D01*
X26442Y16934D02*
X26709D01*
Y16867D01*
X26442Y16601D01*
Y16534D01*
X27794Y16591D02*
Y16991D01*
X27994D01*
X28061Y16924D01*
Y16791D01*
X27994Y16724D01*
X27794D01*
X27927D02*
X28061Y16591D01*
X28194Y16924D02*
X28261Y16991D01*
X28394D01*
X28460Y16924D01*
Y16857D01*
X28394Y16791D01*
X28460Y16724D01*
Y16657D01*
X28394Y16591D01*
X28261D01*
X28194Y16657D01*
Y16724D01*
X28261Y16791D01*
X28194Y16857D01*
Y16924D01*
X28261Y16791D02*
X28394D01*
X21102Y13455D02*
Y13855D01*
X21302D01*
X21368Y13788D01*
Y13655D01*
X21302Y13588D01*
X21102D01*
X21235D02*
X21368Y13455D01*
X21501Y13521D02*
X21568Y13455D01*
X21701D01*
X21768Y13521D01*
Y13788D01*
X21701Y13855D01*
X21568D01*
X21501Y13788D01*
Y13721D01*
X21568Y13655D01*
X21768D01*
X22827Y9385D02*
Y9785D01*
X23027D01*
X23093Y9719D01*
Y9585D01*
X23027Y9519D01*
X22827D01*
X22960D02*
X23093Y9385D01*
X23227D02*
X23360D01*
X23293D01*
Y9785D01*
X23227Y9719D01*
X23560Y9385D02*
X23693D01*
X23627D01*
Y9785D01*
X23560Y9719D01*
X16188Y6467D02*
X16122Y6533D01*
X15988D01*
X15922Y6467D01*
Y6200D01*
X15988Y6134D01*
X16122D01*
X16188Y6200D01*
X16322Y6533D02*
X16588D01*
Y6467D01*
X16322Y6200D01*
Y6134D01*
X18091Y8824D02*
X18024Y8891D01*
X17891D01*
X17824Y8824D01*
Y8558D01*
X17891Y8491D01*
X18024D01*
X18091Y8558D01*
X18224Y8824D02*
X18291Y8891D01*
X18424D01*
X18491Y8824D01*
Y8758D01*
X18424Y8691D01*
X18491Y8625D01*
Y8558D01*
X18424Y8491D01*
X18291D01*
X18224Y8558D01*
Y8625D01*
X18291Y8691D01*
X18224Y8758D01*
Y8824D01*
X18291Y8691D02*
X18424D01*
D22*
X1210Y46410D02*
D03*
X3510D02*
D03*
M02*
