G04*
G04 #@! TF.GenerationSoftware,Altium Limited,Altium Designer,21.9.1 (22)*
G04*
G04 Layer_Color=16711935*
%FSLAX44Y44*%
%MOMM*%
G71*
G04*
G04 #@! TF.SameCoordinates,79196508-F500-4B14-A944-684D4DD7C553*
G04*
G04*
G04 #@! TF.FilePolarity,Positive*
G04*
G01*
G75*
%ADD12C,0.2000*%
G36*
X264295Y358973D02*
X263512D01*
Y363980D01*
X263495Y363971D01*
X263462Y363938D01*
X263395Y363880D01*
X263312Y363813D01*
X263204Y363730D01*
X263071Y363638D01*
X262929Y363538D01*
X262762Y363438D01*
X262754D01*
X262746Y363430D01*
X262721Y363413D01*
X262687Y363397D01*
X262596Y363347D01*
X262487Y363288D01*
X262362Y363222D01*
X262221Y363155D01*
X262079Y363088D01*
X261938Y363030D01*
Y363797D01*
X261946D01*
X261971Y363813D01*
X262004Y363830D01*
X262046Y363855D01*
X262104Y363880D01*
X262171Y363922D01*
X262329Y364005D01*
X262504Y364113D01*
X262704Y364246D01*
X262896Y364388D01*
X263087Y364546D01*
X263095Y364555D01*
X263112Y364563D01*
X263137Y364588D01*
X263171Y364621D01*
X263254Y364705D01*
X263362Y364821D01*
X263470Y364946D01*
X263587Y365096D01*
X263695Y365246D01*
X263787Y365405D01*
X264295D01*
Y358973D01*
D02*
G37*
G36*
X258255Y365371D02*
X258330D01*
X258422Y365363D01*
X258522Y365354D01*
X258730Y365338D01*
X258947Y365304D01*
X259155Y365263D01*
X259255Y365238D01*
X259338Y365205D01*
X259347D01*
X259355Y365196D01*
X259380Y365188D01*
X259413Y365171D01*
X259496Y365130D01*
X259596Y365063D01*
X259713Y364980D01*
X259830Y364871D01*
X259946Y364738D01*
X260055Y364588D01*
Y364580D01*
X260063Y364571D01*
X260080Y364546D01*
X260096Y364513D01*
X260138Y364421D01*
X260188Y364305D01*
X260238Y364163D01*
X260280Y363997D01*
X260313Y363813D01*
X260321Y363622D01*
Y363613D01*
Y363588D01*
Y363555D01*
X260313Y363505D01*
X260305Y363447D01*
X260296Y363380D01*
X260263Y363222D01*
X260213Y363038D01*
X260138Y362847D01*
X260088Y362755D01*
X260030Y362655D01*
X259955Y362564D01*
X259880Y362472D01*
X259871Y362464D01*
X259863Y362455D01*
X259830Y362430D01*
X259796Y362397D01*
X259746Y362364D01*
X259688Y362322D01*
X259621Y362272D01*
X259546Y362222D01*
X259455Y362172D01*
X259355Y362122D01*
X259238Y362072D01*
X259113Y362022D01*
X258980Y361980D01*
X258838Y361939D01*
X258680Y361905D01*
X258513Y361880D01*
X258530Y361872D01*
X258572Y361855D01*
X258630Y361822D01*
X258705Y361780D01*
X258872Y361672D01*
X258947Y361614D01*
X259022Y361555D01*
X259030D01*
X259038Y361539D01*
X259088Y361497D01*
X259155Y361422D01*
X259255Y361322D01*
X259363Y361206D01*
X259480Y361056D01*
X259605Y360889D01*
X259730Y360706D01*
X260838Y358973D01*
X259771D01*
X258930Y360298D01*
Y360306D01*
X258913Y360322D01*
X258897Y360356D01*
X258872Y360389D01*
X258838Y360439D01*
X258797Y360497D01*
X258713Y360622D01*
X258613Y360764D01*
X258513Y360906D01*
X258413Y361047D01*
X258313Y361172D01*
X258305Y361189D01*
X258272Y361222D01*
X258230Y361281D01*
X258172Y361339D01*
X258105Y361414D01*
X258030Y361489D01*
X257955Y361547D01*
X257880Y361605D01*
X257872Y361614D01*
X257847Y361622D01*
X257813Y361647D01*
X257764Y361672D01*
X257705Y361705D01*
X257639Y361730D01*
X257497Y361780D01*
X257489D01*
X257472Y361789D01*
X257439D01*
X257389Y361797D01*
X257322Y361805D01*
X257239D01*
X257147Y361814D01*
X256047D01*
Y358973D01*
X255198D01*
Y365379D01*
X258180D01*
X258255Y365371D01*
D02*
G37*
%LPC*%
G36*
X258197Y364671D02*
X256047D01*
Y362547D01*
X258005D01*
X258064Y362555D01*
X258197Y362564D01*
X258338Y362572D01*
X258497Y362597D01*
X258638Y362622D01*
X258772Y362663D01*
X258788Y362672D01*
X258830Y362688D01*
X258888Y362714D01*
X258963Y362755D01*
X259038Y362805D01*
X259121Y362872D01*
X259205Y362955D01*
X259272Y363047D01*
X259280Y363055D01*
X259296Y363097D01*
X259330Y363147D01*
X259363Y363222D01*
X259388Y363305D01*
X259422Y363405D01*
X259438Y363505D01*
X259446Y363622D01*
Y363630D01*
Y363638D01*
Y363663D01*
X259438Y363697D01*
X259430Y363780D01*
X259405Y363888D01*
X259363Y364005D01*
X259305Y364130D01*
X259221Y364255D01*
X259113Y364371D01*
X259097Y364388D01*
X259046Y364421D01*
X258972Y364463D01*
X258855Y364521D01*
X258788Y364546D01*
X258713Y364580D01*
X258630Y364605D01*
X258530Y364621D01*
X258430Y364646D01*
X258322Y364655D01*
X258197Y364671D01*
D02*
G37*
%LPD*%
D12*
X239698Y341223D02*
Y376723D01*
Y341223D02*
X270697D01*
Y376723D01*
X239698D02*
X270697D01*
M02*
