G04*
G04 #@! TF.GenerationSoftware,Altium Limited,Altium Designer,21.9.1 (22)*
G04*
G04 Layer_Color=65535*
%FSLAX44Y44*%
%MOMM*%
G71*
G04*
G04 #@! TF.SameCoordinates,79196508-F500-4B14-A944-684D4DD7C553*
G04*
G04*
G04 #@! TF.FilePolarity,Positive*
G04*
G01*
G75*
%ADD10C,0.2500*%
%ADD11C,0.1540*%
%ADD12C,0.2000*%
%ADD13C,0.2540*%
%ADD14C,0.1524*%
%ADD15C,0.0254*%
%ADD16C,0.1270*%
%ADD17C,0.1500*%
%ADD18C,0.0540*%
%ADD19C,0.0754*%
%ADD20C,0.1000*%
%ADD21C,0.0500*%
%ADD22C,0.5000*%
%ADD23C,0.0400*%
%ADD24C,0.1400*%
G36*
X227215Y74027D02*
X221605D01*
X227215Y79637D01*
Y74027D01*
D02*
G37*
D10*
X79385Y403293D02*
G03*
X79385Y403293I-1250J0D01*
G01*
X190235Y126493D02*
G03*
X190235Y126493I-1250J0D01*
G01*
X292694Y456047D02*
G03*
X292694Y456047I-1250J0D01*
G01*
X426549Y455871D02*
G03*
X426549Y455871I-1250J0D01*
G01*
X368402D02*
G03*
X368402Y455871I-1250J0D01*
G01*
D11*
X360857Y106489D02*
G03*
X360857Y106489I-2828J0D01*
G01*
X226404Y130138D02*
X219886D01*
Y133397D01*
X220972Y134483D01*
X223145D01*
X224231Y133397D01*
Y130138D01*
X220972Y141001D02*
X219886Y139915D01*
Y137742D01*
X220972Y136656D01*
X222059D01*
X223145Y137742D01*
Y139915D01*
X224231Y141001D01*
X225317D01*
X226404Y139915D01*
Y137742D01*
X225317Y136656D01*
D12*
X119388Y313529D02*
G03*
X119388Y313529I-1000J0D01*
G01*
X246448Y339223D02*
X263948D01*
X246448Y378723D02*
X263948D01*
X24635Y482193D02*
X71635D01*
X24635Y375193D02*
X71635D01*
Y482193D01*
X24635Y375193D02*
Y482193D01*
X29635Y375193D02*
Y482193D01*
X54485Y183145D02*
Y259345D01*
X29085D02*
X54485D01*
X29085Y183145D02*
Y259345D01*
Y183145D02*
X54485D01*
Y280146D02*
Y356346D01*
X29085D02*
X54485D01*
X29085Y280146D02*
Y356346D01*
Y280146D02*
X54485D01*
X334029Y100718D02*
Y131718D01*
X364029D01*
Y100718D02*
Y131718D01*
X334029Y100718D02*
X364029D01*
X191985Y138992D02*
X213985D01*
X191985Y132992D02*
X213985D01*
Y138992D01*
X191985Y132992D02*
Y138992D01*
X468447Y367557D02*
Y375557D01*
X444448Y367557D02*
Y375557D01*
X384151Y169452D02*
X409551D01*
X384151Y103350D02*
Y169452D01*
Y103350D02*
X409551D01*
Y169452D01*
X325194Y465547D02*
Y470547D01*
X294194D02*
X325194D01*
X294194Y465547D02*
X325194D01*
X294194D02*
Y470547D01*
X428049Y465371D02*
Y470371D01*
X459049Y465371D02*
Y470371D01*
X428049Y465371D02*
X459049D01*
X428049Y470371D02*
X459049D01*
X369903Y465371D02*
Y470371D01*
X400902Y465371D02*
Y470371D01*
X369903Y465371D02*
X400902D01*
X369903Y470371D02*
X400902D01*
D13*
X474679Y277494D02*
G03*
X474679Y277494I-80725J0D01*
G01*
D14*
X125711Y384379D02*
Y482931D01*
X178289D01*
X125711Y384379D02*
X178289D01*
Y482931D01*
X250676Y384379D02*
Y482931D01*
X198098D02*
X250676D01*
X198098Y384379D02*
Y482931D01*
Y384379D02*
X250676D01*
D15*
X80083Y489773D02*
Y536509D01*
Y489773D02*
X382446D01*
Y536509D01*
X80083D02*
X382446D01*
X80083Y53909D02*
X382446D01*
Y7173D02*
Y53909D01*
X80083Y7173D02*
X382446D01*
X80083D02*
Y53909D01*
D16*
X131388Y275230D02*
Y299730D01*
X161388Y245229D02*
X185888D01*
X201388Y275230D02*
Y299730D01*
X161388Y315230D02*
X185888D01*
X6124Y84042D02*
Y174045D01*
Y84042D02*
X96124D01*
X6124Y174045D02*
X150124D01*
Y146544D02*
Y174045D01*
X130625Y84042D02*
X150124D01*
Y111543D01*
X376051Y259405D02*
Y295404D01*
Y259405D02*
X412051D01*
Y295404D01*
X376051D02*
X412051D01*
X277672Y413366D02*
X306672D01*
X277672Y405746D02*
Y413366D01*
Y405746D02*
X306672D01*
Y413366D01*
X446340Y405843D02*
Y413463D01*
X417340Y405843D02*
X446340D01*
X417340D02*
Y413463D01*
X446340D01*
X364986Y405843D02*
Y413463D01*
X335985Y405843D02*
X364986D01*
X335985D02*
Y413463D01*
X364986D01*
X227215Y74027D02*
Y101026D01*
X217055D02*
X227215D01*
X217055Y74027D02*
Y101026D01*
Y74027D02*
X227215D01*
D17*
X426754Y28512D02*
Y32178D01*
Y30345D01*
X437750D01*
Y28512D01*
Y32178D01*
Y37676D02*
X426754D01*
X430420Y41341D01*
X426754Y45007D01*
X437750D01*
X426754Y48672D02*
X437750D01*
Y54170D01*
X435918Y56003D01*
X428587D01*
X426754Y54170D01*
Y48672D01*
Y67000D02*
Y59669D01*
X437750D01*
Y67000D01*
X432252Y59669D02*
Y63334D01*
X437750Y70665D02*
X430420D01*
X426754Y74331D01*
X430420Y77996D01*
X437750D01*
X432252D01*
Y70665D01*
X437750Y92658D02*
X426754D01*
X437750Y99989D01*
X426754D01*
X437750Y109153D02*
Y105487D01*
X435918Y103654D01*
X432252D01*
X430420Y105487D01*
Y109153D01*
X432252Y110985D01*
X434085D01*
Y103654D01*
X428587Y116484D02*
X430420D01*
Y114651D01*
Y118316D01*
Y116484D01*
X435918D01*
X437750Y118316D01*
X430420Y123814D02*
X435918D01*
X437750Y125647D01*
X435918Y127480D01*
X437750Y129313D01*
X435918Y131145D01*
X430420D01*
X437750Y136644D02*
Y140309D01*
X435918Y142142D01*
X432252D01*
X430420Y140309D01*
Y136644D01*
X432252Y134811D01*
X435918D01*
X437750Y136644D01*
X430420Y145807D02*
X437750D01*
X434085D01*
X432252Y147640D01*
X430420Y149473D01*
Y151306D01*
X437750Y156804D02*
X426754D01*
X434085D02*
X430420Y162302D01*
X434085Y156804D02*
X437750Y162302D01*
Y167800D02*
Y173299D01*
X435918Y175131D01*
X434085Y173299D01*
Y169633D01*
X432252Y167800D01*
X430420Y169633D01*
Y175131D01*
X443550Y28512D02*
Y24846D01*
X445382Y23014D01*
X452713D01*
X454546Y24846D01*
Y28512D01*
X452713Y30345D01*
X445382D01*
X443550Y28512D01*
X458212Y34010D02*
X447215D01*
Y39509D01*
X449048Y41341D01*
X452713D01*
X454546Y39509D01*
Y34010D01*
Y50505D02*
Y46839D01*
X452713Y45007D01*
X449048D01*
X447215Y46839D01*
Y50505D01*
X449048Y52338D01*
X450881D01*
Y45007D01*
X454546Y56003D02*
X447215D01*
Y61501D01*
X449048Y63334D01*
X454546D01*
X443550Y67000D02*
X450881D01*
X454546Y70665D01*
X450881Y74331D01*
X443550D01*
Y77996D02*
X454546D01*
Y85327D01*
X445382Y96323D02*
X443550Y94491D01*
Y90825D01*
X445382Y88993D01*
X452713D01*
X454546Y90825D01*
Y94491D01*
X452713Y96323D01*
X443550Y110985D02*
X454546D01*
Y116484D01*
X452713Y118316D01*
X445382D01*
X443550Y116484D01*
Y110985D01*
X454546Y121982D02*
Y125647D01*
Y123814D01*
X447215D01*
Y121982D01*
X454546Y131145D02*
X447215D01*
Y132978D01*
X449048Y134811D01*
X454546D01*
X449048D01*
X447215Y136644D01*
X449048Y138476D01*
X454546D01*
Y142142D02*
X447215D01*
Y143975D01*
X449048Y145807D01*
X454546D01*
X449048D01*
X447215Y147640D01*
X449048Y149473D01*
X454546D01*
Y153138D02*
Y156804D01*
Y154971D01*
X447215D01*
Y153138D01*
X454546Y162302D02*
X447215D01*
Y167800D01*
X449048Y169633D01*
X454546D01*
X458212Y176964D02*
Y178797D01*
X456379Y180630D01*
X447215D01*
Y175131D01*
X449048Y173299D01*
X452713D01*
X454546Y175131D01*
Y180630D01*
D18*
X60188Y220649D02*
Y217317D01*
X61854Y215651D01*
X63520Y217317D01*
Y220649D01*
X65186Y215651D02*
X66852D01*
X66019D01*
Y218983D01*
X65186D01*
X69351Y215651D02*
Y218983D01*
X71851D01*
X72684Y218150D01*
Y215651D01*
X63816Y192763D02*
X62983Y193596D01*
X61317D01*
X60484Y192763D01*
Y189430D01*
X61317Y188597D01*
X62983D01*
X63816Y189430D01*
Y191096D01*
X62150D01*
X65482Y188597D02*
Y191929D01*
X67982D01*
X68815Y191096D01*
Y188597D01*
X73813Y193596D02*
Y188597D01*
X71314D01*
X70481Y189430D01*
Y191096D01*
X71314Y191929D01*
X73813D01*
X224970Y359249D02*
Y364487D01*
X227590D01*
X228463Y363614D01*
Y361868D01*
X227590Y360995D01*
X224970D01*
X226716D02*
X228463Y359249D01*
X230209D02*
X231955D01*
X231082D01*
Y364487D01*
X230209Y363614D01*
X75657Y478430D02*
Y483668D01*
X78276D01*
X79149Y482795D01*
Y481049D01*
X78276Y480176D01*
X75657D01*
X77403D02*
X79149Y478430D01*
X83514D02*
X81768D01*
X80895Y479303D01*
Y481049D01*
X81768Y481922D01*
X83514D01*
X84387Y481049D01*
Y480176D01*
X80895D01*
X87879Y476684D02*
X88752D01*
X89625Y477557D01*
Y481922D01*
X87006D01*
X86133Y481049D01*
Y479303D01*
X87006Y478430D01*
X89625D01*
X31094Y366214D02*
X29348D01*
X30221D01*
Y361849D01*
X29348Y360976D01*
X28475D01*
X27602Y361849D01*
X36332Y360976D02*
X32840D01*
X36332Y364468D01*
Y365341D01*
X35459Y366214D01*
X33713D01*
X32840Y365341D01*
X32030Y271142D02*
X30284D01*
X31157D01*
Y266777D01*
X30284Y265904D01*
X29411D01*
X28538Y266777D01*
X33776Y265904D02*
X35522D01*
X34649D01*
Y271142D01*
X33776Y270269D01*
X318270Y137084D02*
Y140576D01*
X320016Y142322D01*
X321762Y140576D01*
Y137084D01*
Y139703D01*
X318270D01*
X323508Y137084D02*
Y140576D01*
X324381D01*
X325254Y139703D01*
Y137084D01*
Y139703D01*
X326127Y140576D01*
X327000Y139703D01*
Y137084D01*
X328746Y135338D02*
Y140576D01*
X331366D01*
X332239Y139703D01*
Y137957D01*
X331366Y137084D01*
X328746D01*
D19*
X60541Y344698D02*
Y341206D01*
X62287Y339460D01*
X64033Y341206D01*
Y344698D01*
X65779Y339460D02*
X67526D01*
X66652D01*
Y344698D01*
X65779D01*
X72764Y339460D02*
X71018D01*
X70145Y340333D01*
Y342079D01*
X71018Y342952D01*
X72764D01*
X73637Y342079D01*
Y341206D01*
X70145D01*
X78875Y344698D02*
Y339460D01*
X76256D01*
X75383Y340333D01*
Y342079D01*
X76256Y342952D01*
X78875D01*
X59704Y314296D02*
Y310804D01*
X61450Y309058D01*
X63197Y310804D01*
Y314296D01*
X64943Y309058D02*
X66689D01*
X65816D01*
Y312550D01*
X64943D01*
X69308D02*
Y309058D01*
Y310804D01*
X70181Y311677D01*
X71054Y312550D01*
X71927D01*
D20*
X364396Y276467D02*
X371060D01*
X367728Y279799D02*
Y273134D01*
X108701Y474631D02*
Y479629D01*
X111200D01*
X112033Y478796D01*
Y477130D01*
X111200Y476297D01*
X108701D01*
X113699Y479629D02*
X117031D01*
X115365D01*
Y474631D01*
X122030D02*
X118697D01*
X122030Y477963D01*
Y478796D01*
X121197Y479629D01*
X119530D01*
X118697Y478796D01*
X182838Y467763D02*
Y472762D01*
X185337D01*
X186170Y471929D01*
Y470263D01*
X185337Y469430D01*
X182838D01*
X187836Y472762D02*
X191168D01*
X189502D01*
Y467763D01*
X192834D02*
X194501D01*
X193668D01*
Y472762D01*
X192834Y471929D01*
D21*
X402275Y128130D02*
X405607D01*
X403941Y129796D02*
Y126464D01*
X391278Y173202D02*
Y178200D01*
X393777D01*
X394610Y177367D01*
Y175701D01*
X393777Y174868D01*
X391278D01*
X396276Y178200D02*
Y173202D01*
X398775D01*
X399608Y174035D01*
Y177367D01*
X398775Y178200D01*
X396276D01*
X244599Y77485D02*
X244885Y77771D01*
X244599Y78057D01*
X244314Y77771D01*
X244599Y77485D01*
X391460Y7703D02*
X385462D01*
Y10702D01*
X386462Y11702D01*
X388461D01*
X389461Y10702D01*
Y7703D01*
X391460Y17700D02*
Y13701D01*
X387462Y17700D01*
X386462D01*
X385462Y16700D01*
Y14701D01*
X386462Y13701D01*
X390957Y529585D02*
X384959D01*
Y532584D01*
X385959Y533583D01*
X387958D01*
X388958Y532584D01*
Y529585D01*
X390957Y535583D02*
Y537582D01*
Y536582D01*
X384959D01*
X385959Y535583D01*
X103672Y168668D02*
X101673D01*
X102672D01*
Y163670D01*
X101673Y162670D01*
X100673D01*
X99673Y163670D01*
X106671Y166669D02*
X108670D01*
X109670Y165669D01*
Y162670D01*
X106671D01*
X105671Y163670D01*
X106671Y164669D01*
X109670D01*
X115668Y166669D02*
X112669D01*
X111669Y165669D01*
Y163670D01*
X112669Y162670D01*
X115668D01*
X117667D02*
Y168668D01*
Y164669D02*
X120667Y166669D01*
X117667Y164669D02*
X120667Y162670D01*
D22*
X301767Y430758D02*
X301719Y430805D01*
X301672Y430758D01*
X301719Y430710D01*
X301767Y430758D01*
X451357Y418276D02*
X451310Y418323D01*
X451262Y418276D01*
X451310Y418228D01*
X451357Y418276D01*
X360081Y430855D02*
X360033Y430903D01*
X359986Y430855D01*
X360033Y430808D01*
X360081Y430855D01*
D23*
X83036Y390204D02*
X82370Y390871D01*
X81037D01*
X80371Y390204D01*
Y387538D01*
X81037Y386872D01*
X82370D01*
X83036Y387538D01*
X84369Y386872D02*
X85702D01*
X85036D01*
Y390871D01*
X84369Y390204D01*
X98473Y447110D02*
X97807Y447777D01*
X96474D01*
X95807Y447110D01*
Y444445D01*
X96474Y443778D01*
X97807D01*
X98473Y444445D01*
X102472Y447777D02*
X101139Y447110D01*
X99806Y445777D01*
Y444445D01*
X100472Y443778D01*
X101805D01*
X102472Y444445D01*
Y445111D01*
X101805Y445777D01*
X99806D01*
X103805Y443112D02*
X106470D01*
X109803Y443778D02*
Y447777D01*
X107803Y445777D01*
X110469D01*
X472987Y380092D02*
X476985D01*
Y378093D01*
X476319Y377426D01*
X474986D01*
X474319Y378093D01*
Y380092D01*
Y378759D02*
X472987Y377426D01*
Y374094D02*
X476985D01*
X474986Y376093D01*
Y373427D01*
X472320Y372095D02*
Y369429D01*
X472987Y368096D02*
Y366763D01*
Y367429D01*
X476985D01*
X476319Y368096D01*
Y364764D02*
X476985Y364097D01*
Y362764D01*
X476319Y362098D01*
X475652D01*
X474986Y362764D01*
Y363431D01*
Y362764D01*
X474319Y362098D01*
X473653D01*
X472987Y362764D01*
Y364097D01*
X473653Y364764D01*
X284076Y385055D02*
Y389054D01*
X285408Y387721D01*
X286741Y389054D01*
Y385055D01*
X290074Y389054D02*
X288741D01*
X288074Y388387D01*
Y385722D01*
X288741Y385055D01*
X290074D01*
X290740Y385722D01*
Y388387D01*
X290074Y389054D01*
X294739Y388387D02*
X294072Y389054D01*
X292740D01*
X292073Y388387D01*
Y387721D01*
X292740Y387055D01*
X294072D01*
X294739Y386388D01*
Y385722D01*
X294072Y385055D01*
X292740D01*
X292073Y385722D01*
X298738Y389054D02*
X296072D01*
Y387055D01*
X297405D01*
X296072D01*
Y385055D01*
X302736Y389054D02*
X300070D01*
Y385055D01*
X302736D01*
X300070Y387055D02*
X301403D01*
X304069Y389054D02*
X306735D01*
X305402D01*
Y385055D01*
X308068Y384389D02*
X310734D01*
X312066Y389054D02*
X313399D01*
X312733D01*
Y385055D01*
X312066D01*
X313399D01*
X315399D02*
Y389054D01*
X317398D01*
X318065Y388387D01*
Y387055D01*
X317398Y386388D01*
X315399D01*
X316732D02*
X318065Y385055D01*
X271171Y481349D02*
X270505Y482015D01*
X269172D01*
X268505Y481349D01*
Y478683D01*
X269172Y478016D01*
X270505D01*
X271171Y478683D01*
X275170Y482015D02*
X273837Y481349D01*
X272504Y480016D01*
Y478683D01*
X273170Y478016D01*
X274503D01*
X275170Y478683D01*
Y479349D01*
X274503Y480016D01*
X272504D01*
X276503Y477350D02*
X279168D01*
X280501Y481349D02*
X281168Y482015D01*
X282501D01*
X283167Y481349D01*
Y480682D01*
X282501Y480016D01*
X281834D01*
X282501D01*
X283167Y479349D01*
Y478683D01*
X282501Y478016D01*
X281168D01*
X280501Y478683D01*
X325691Y480427D02*
Y484426D01*
X327024Y483093D01*
X328356Y484426D01*
Y480427D01*
X332355Y483759D02*
X331689Y484426D01*
X330356D01*
X329689Y483759D01*
Y481094D01*
X330356Y480427D01*
X331689D01*
X332355Y481094D01*
Y482426D01*
X331022D01*
X333688Y484426D02*
Y480427D01*
X335687D01*
X336354Y481094D01*
Y483759D01*
X335687Y484426D01*
X333688D01*
X337687Y479761D02*
X340353D01*
X341685Y484426D02*
X343018D01*
X342352D01*
Y480427D01*
X341685D01*
X343018D01*
X345018D02*
Y484426D01*
X347017D01*
X347683Y483759D01*
Y482426D01*
X347017Y481760D01*
X345018D01*
X346351D02*
X347683Y480427D01*
X326726Y438498D02*
Y442496D01*
X328726D01*
X329392Y441830D01*
Y440497D01*
X328726Y439831D01*
X326726D01*
X328059D02*
X329392Y438498D01*
X332724D02*
Y442496D01*
X330725Y440497D01*
X333391D01*
X334724Y437831D02*
X337390D01*
X341388Y438498D02*
X338722D01*
X341388Y441163D01*
Y441830D01*
X340722Y442496D01*
X339389D01*
X338722Y441830D01*
X342721D02*
X343388Y442496D01*
X344721D01*
X345387Y441830D01*
Y441163D01*
X344721Y440497D01*
X344054D01*
X344721D01*
X345387Y439831D01*
Y439164D01*
X344721Y438498D01*
X343388D01*
X342721Y439164D01*
X465479Y446189D02*
X469478D01*
Y444190D01*
X468811Y443523D01*
X467478D01*
X466812Y444190D01*
Y446189D01*
Y444856D02*
X465479Y443523D01*
Y440191D02*
X469478D01*
X467478Y442191D01*
Y439525D01*
X464813Y438192D02*
Y435526D01*
X465479Y431527D02*
Y434193D01*
X468145Y431527D01*
X468811D01*
X469478Y432194D01*
Y433527D01*
X468811Y434193D01*
X465479Y427529D02*
Y430194D01*
X468145Y427529D01*
X468811D01*
X469478Y428195D01*
Y429528D01*
X468811Y430194D01*
X354033Y437075D02*
Y441073D01*
X356033D01*
X356699Y440407D01*
Y439074D01*
X356033Y438408D01*
X354033D01*
X355366D02*
X356699Y437075D01*
X360031D02*
Y441073D01*
X358032Y439074D01*
X360698D01*
X362031Y436408D02*
X364697D01*
X368695Y437075D02*
X366029D01*
X368695Y439740D01*
Y440407D01*
X368029Y441073D01*
X366696D01*
X366029Y440407D01*
X370028Y437075D02*
X371361D01*
X370695D01*
Y441073D01*
X370028Y440407D01*
X391498Y398926D02*
Y402924D01*
X392831Y401591D01*
X394164Y402924D01*
Y398926D01*
X397496Y402924D02*
X396163D01*
X395496Y402258D01*
Y399592D01*
X396163Y398926D01*
X397496D01*
X398162Y399592D01*
Y402258D01*
X397496Y402924D01*
X402161Y402258D02*
X401494Y402924D01*
X400162D01*
X399495Y402258D01*
Y401591D01*
X400162Y400925D01*
X401494D01*
X402161Y400258D01*
Y399592D01*
X401494Y398926D01*
X400162D01*
X399495Y399592D01*
X406160Y402924D02*
X403494D01*
Y400925D01*
X404827D01*
X403494D01*
Y398926D01*
X410158Y402924D02*
X407492D01*
Y398926D01*
X410158D01*
X407492Y400925D02*
X408825D01*
X411491Y402924D02*
X414157D01*
X412824D01*
Y398926D01*
X415490Y398259D02*
X418156D01*
X422154Y402258D02*
X421488Y402924D01*
X420155D01*
X419489Y402258D01*
Y399592D01*
X420155Y398926D01*
X421488D01*
X422154Y399592D01*
X423487Y402924D02*
X424820D01*
X424154D01*
Y398926D01*
X423487D01*
X424820D01*
X440416Y488943D02*
Y492941D01*
X441749Y491609D01*
X443082Y492941D01*
Y488943D01*
X447081Y492275D02*
X446415Y492941D01*
X445082D01*
X444415Y492275D01*
Y489609D01*
X445082Y488943D01*
X446415D01*
X447081Y489609D01*
Y490942D01*
X445748D01*
X448414Y492941D02*
Y488943D01*
X450413D01*
X451080Y489609D01*
Y492275D01*
X450413Y492941D01*
X448414D01*
X452413Y488276D02*
X455078D01*
X459077Y492275D02*
X458411Y492941D01*
X457078D01*
X456411Y492275D01*
Y489609D01*
X457078Y488943D01*
X458411D01*
X459077Y489609D01*
X460410Y492941D02*
X461743D01*
X461076D01*
Y488943D01*
X460410D01*
X461743D01*
X387687Y489892D02*
Y493890D01*
X389019Y492557D01*
X390352Y493890D01*
Y489892D01*
X394351Y493224D02*
X393685Y493890D01*
X392352D01*
X391685Y493224D01*
Y490558D01*
X392352Y489892D01*
X393685D01*
X394351Y490558D01*
Y491891D01*
X393018D01*
X395684Y493890D02*
Y489892D01*
X397683D01*
X398350Y490558D01*
Y493224D01*
X397683Y493890D01*
X395684D01*
X399683Y489225D02*
X402348D01*
X406347Y493224D02*
X405681Y493890D01*
X404348D01*
X403681Y493224D01*
Y490558D01*
X404348Y489892D01*
X405681D01*
X406347Y490558D01*
X410080Y448593D02*
X409414Y449260D01*
X408081D01*
X407415Y448593D01*
Y445928D01*
X408081Y445261D01*
X409414D01*
X410080Y445928D01*
X414079Y449260D02*
X412746Y448593D01*
X411413Y447261D01*
Y445928D01*
X412080Y445261D01*
X413413D01*
X414079Y445928D01*
Y446594D01*
X413413Y447261D01*
X411413D01*
X415412Y444595D02*
X418078D01*
X422076Y445261D02*
X419411D01*
X422076Y447927D01*
Y448593D01*
X421410Y449260D01*
X420077D01*
X419411Y448593D01*
X335198Y461440D02*
X334532Y462107D01*
X333199D01*
X332532Y461440D01*
Y458774D01*
X333199Y458108D01*
X334532D01*
X335198Y458774D01*
X339197Y462107D02*
X337864Y461440D01*
X336531Y460107D01*
Y458774D01*
X337197Y458108D01*
X338530D01*
X339197Y458774D01*
Y459441D01*
X338530Y460107D01*
X336531D01*
X340530Y457441D02*
X343195D01*
X344528Y458108D02*
X345861D01*
X345195D01*
Y462107D01*
X344528Y461440D01*
X308324Y82388D02*
X307657Y83054D01*
X306325D01*
X305658Y82388D01*
Y79722D01*
X306325Y79056D01*
X307657D01*
X308324Y79722D01*
X309657Y79056D02*
X310990D01*
X310323D01*
Y83054D01*
X309657Y82388D01*
X312989D02*
X313655Y83054D01*
X314988D01*
X315655Y82388D01*
Y81721D01*
X314988Y81055D01*
X314322D01*
X314988D01*
X315655Y80388D01*
Y79722D01*
X314988Y79056D01*
X313655D01*
X312989Y79722D01*
X303106Y134923D02*
Y138921D01*
X305105D01*
X305772Y138255D01*
Y136922D01*
X305105Y136255D01*
X303106D01*
X304439D02*
X305772Y134923D01*
X307104D02*
X308437D01*
X307771D01*
Y138921D01*
X307104Y138255D01*
X310437D02*
X311103Y138921D01*
X312436D01*
X313103Y138255D01*
Y135589D01*
X312436Y134923D01*
X311103D01*
X310437Y135589D01*
Y138255D01*
X363818Y306225D02*
Y302226D01*
Y304225D01*
X366484D01*
Y306225D01*
Y302226D01*
X367817Y306225D02*
Y302226D01*
X370482D01*
X274780Y138502D02*
X274114Y139168D01*
X272781D01*
X272115Y138502D01*
Y135836D01*
X272781Y135169D01*
X274114D01*
X274780Y135836D01*
X276113Y135169D02*
X277446D01*
X276780D01*
Y139168D01*
X276113Y138502D01*
X282111Y135169D02*
X279445D01*
X282111Y137835D01*
Y138502D01*
X281445Y139168D01*
X280112D01*
X279445Y138502D01*
X212108Y105141D02*
Y107807D01*
X213440Y109140D01*
X214773Y107807D01*
Y105141D01*
Y107141D01*
X212108D01*
X216106Y109140D02*
Y105141D01*
X218106D01*
X218772Y105808D01*
Y108474D01*
X218106Y109140D01*
X216106D01*
X222771Y108474D02*
X222104Y109140D01*
X220771D01*
X220105Y108474D01*
Y105808D01*
X220771Y105141D01*
X222104D01*
X222771Y105808D01*
X224104Y104475D02*
X226769D01*
X228102Y105141D02*
Y109140D01*
X230102D01*
X230768Y108474D01*
Y107141D01*
X230102Y106474D01*
X228102D01*
X232101Y109140D02*
Y105141D01*
X234100D01*
X234767Y105808D01*
Y108474D01*
X234100Y109140D01*
X232101D01*
X357739Y385055D02*
Y389054D01*
X359072Y387721D01*
X360405Y389054D01*
Y385055D01*
X363737Y389054D02*
X362404D01*
X361738Y388387D01*
Y385722D01*
X362404Y385055D01*
X363737D01*
X364403Y385722D01*
Y388387D01*
X363737Y389054D01*
X368402Y388387D02*
X367736Y389054D01*
X366403D01*
X365736Y388387D01*
Y387721D01*
X366403Y387055D01*
X367736D01*
X368402Y386388D01*
Y385722D01*
X367736Y385055D01*
X366403D01*
X365736Y385722D01*
X372401Y389054D02*
X369735D01*
Y387055D01*
X371068D01*
X369735D01*
Y385055D01*
X376399Y389054D02*
X373734D01*
Y385055D01*
X376399D01*
X373734Y387055D02*
X375067D01*
X377732Y389054D02*
X380398D01*
X379065D01*
Y385055D01*
X381731Y384389D02*
X384397D01*
X388396Y388387D02*
X387729Y389054D01*
X386396D01*
X385730Y388387D01*
Y385722D01*
X386396Y385055D01*
X387729D01*
X388396Y385722D01*
X334645Y89879D02*
X333979Y90545D01*
X332646D01*
X331980Y89879D01*
Y87213D01*
X332646Y86546D01*
X333979D01*
X334645Y87213D01*
X335978D02*
X336645Y86546D01*
X337978D01*
X338644Y87213D01*
Y89879D01*
X337978Y90545D01*
X336645D01*
X335978Y89879D01*
Y89212D01*
X336645Y88546D01*
X338644D01*
X369746Y62975D02*
X369079Y63641D01*
X367746D01*
X367080Y62975D01*
Y60309D01*
X367746Y59642D01*
X369079D01*
X369746Y60309D01*
X371078Y59642D02*
X372411D01*
X371745D01*
Y63641D01*
X371078Y62975D01*
X374411D02*
X375077Y63641D01*
X376410D01*
X377077Y62975D01*
Y60309D01*
X376410Y59642D01*
X375077D01*
X374411Y60309D01*
Y62975D01*
X347145Y64952D02*
X346478Y65619D01*
X345145D01*
X344479Y64952D01*
Y62286D01*
X345145Y61620D01*
X346478D01*
X347145Y62286D01*
X348477Y61620D02*
X349810D01*
X349144D01*
Y65619D01*
X348477Y64952D01*
X351810Y61620D02*
X353143D01*
X352476D01*
Y65619D01*
X351810Y64952D01*
X369340Y96369D02*
Y100368D01*
X371339D01*
X372006Y99701D01*
Y98369D01*
X371339Y97702D01*
X369340D01*
X370673D02*
X372006Y96369D01*
X376004Y100368D02*
X373339D01*
Y98369D01*
X374672Y99035D01*
X375338D01*
X376004Y98369D01*
Y97036D01*
X375338Y96369D01*
X374005D01*
X373339Y97036D01*
X390811Y61337D02*
Y65336D01*
X392810D01*
X393477Y64670D01*
Y63337D01*
X392810Y62670D01*
X390811D01*
X392144D02*
X393477Y61337D01*
X397476Y65336D02*
X396143Y64670D01*
X394810Y63337D01*
Y62004D01*
X395476Y61337D01*
X396809D01*
X397476Y62004D01*
Y62670D01*
X396809Y63337D01*
X394810D01*
X338546Y165303D02*
Y169301D01*
X340545D01*
X341212Y168635D01*
Y167302D01*
X340545Y166635D01*
X338546D01*
X339879D02*
X341212Y165303D01*
X342545Y169301D02*
X345210D01*
Y168635D01*
X342545Y165969D01*
Y165303D01*
X356062Y165868D02*
Y169866D01*
X358061D01*
X358728Y169200D01*
Y167867D01*
X358061Y167200D01*
X356062D01*
X357395D02*
X358728Y165868D01*
X360061Y169200D02*
X360727Y169866D01*
X362060D01*
X362726Y169200D01*
Y168533D01*
X362060Y167867D01*
X362726Y167200D01*
Y166534D01*
X362060Y165868D01*
X360727D01*
X360061Y166534D01*
Y167200D01*
X360727Y167867D01*
X360061Y168533D01*
Y169200D01*
X360727Y167867D02*
X362060D01*
X289138Y134509D02*
Y138508D01*
X291137D01*
X291803Y137841D01*
Y136508D01*
X291137Y135842D01*
X289138D01*
X290471D02*
X291803Y134509D01*
X293136Y135175D02*
X293803Y134509D01*
X295136D01*
X295802Y135175D01*
Y137841D01*
X295136Y138508D01*
X293803D01*
X293136Y137841D01*
Y137175D01*
X293803Y136508D01*
X295802D01*
X306391Y93815D02*
Y97813D01*
X308390D01*
X309056Y97147D01*
Y95814D01*
X308390Y95148D01*
X306391D01*
X307724D02*
X309056Y93815D01*
X310389D02*
X311722D01*
X311056D01*
Y97813D01*
X310389Y97147D01*
X313722Y93815D02*
X315055D01*
X314388D01*
Y97813D01*
X313722Y97147D01*
X240005Y64629D02*
X239338Y65295D01*
X238005D01*
X237339Y64629D01*
Y61963D01*
X238005Y61297D01*
X239338D01*
X240005Y61963D01*
X241338Y65295D02*
X244003D01*
Y64629D01*
X241338Y61963D01*
Y61297D01*
X259032Y88206D02*
X258365Y88872D01*
X257032D01*
X256366Y88206D01*
Y85540D01*
X257032Y84873D01*
X258365D01*
X259032Y85540D01*
X260364Y88206D02*
X261031Y88872D01*
X262364D01*
X263030Y88206D01*
Y87539D01*
X262364Y86873D01*
X263030Y86206D01*
Y85540D01*
X262364Y84873D01*
X261031D01*
X260364Y85540D01*
Y86206D01*
X261031Y86873D01*
X260364Y87539D01*
Y88206D01*
X261031Y86873D02*
X262364D01*
D24*
X113034Y333642D02*
X115034D01*
X114034D01*
Y327644D01*
X113034D01*
X115034D01*
X118033D02*
Y333642D01*
X121032D01*
X122031Y332642D01*
Y330643D01*
X121032Y329643D01*
X118033D01*
X120032D02*
X122031Y327644D01*
M02*
