G04*
G04 #@! TF.GenerationSoftware,Altium Limited,Altium Designer,21.9.1 (22)*
G04*
G04 Layer_Color=2752767*
%FSLAX44Y44*%
%MOMM*%
G71*
G04*
G04 #@! TF.SameCoordinates,79196508-F500-4B14-A944-684D4DD7C553*
G04*
G04*
G04 #@! TF.FilePolarity,Positive*
G04*
G01*
G75*
%ADD81C,0.0508*%
%ADD82C,0.0677*%
D81*
X51103Y452062D02*
Y456125D01*
X55167D01*
Y452062D01*
X51103D01*
Y426661D02*
Y430726D01*
X55167D01*
Y426661D01*
X51103D01*
Y401261D02*
Y405326D01*
X55167D01*
Y401261D01*
X51103D01*
X41785Y193813D02*
X39753Y197877D01*
X43817D01*
X41785Y193813D01*
Y219213D02*
X39753Y223277D01*
X43817D01*
X41785Y219213D01*
Y244613D02*
X39753Y248677D01*
X43817D01*
X41785Y244613D01*
Y290814D02*
X39753Y294878D01*
X43817D01*
X41785Y290814D01*
Y316214D02*
X39753Y320278D01*
X43817D01*
X41785Y316214D01*
Y341614D02*
X39753Y345678D01*
X43817D01*
X41785Y341614D01*
X370762Y523809D02*
X371778Y524825D01*
X372794D01*
X371778Y525841D01*
X372794Y526857D01*
X371778D01*
X370762Y527873D01*
X369746Y526857D01*
X368730D01*
X369746Y525841D01*
X368730Y524825D01*
X369746D01*
X370762Y523809D01*
X345362D02*
X346378Y524825D01*
X347394D01*
X346378Y525841D01*
X347394Y526857D01*
X346378D01*
X345362Y527873D01*
X344346Y526857D01*
X343330D01*
X344346Y525841D01*
X343330Y524825D01*
X344346D01*
X345362Y523809D01*
X319962D02*
X320978Y524825D01*
X321994D01*
X320978Y525841D01*
X321994Y526857D01*
X320978D01*
X319962Y527873D01*
X318946Y526857D01*
X317930D01*
X318946Y525841D01*
X317930Y524825D01*
X318946D01*
X319962Y523809D01*
X294562D02*
X295578Y524825D01*
X296594D01*
X295578Y525841D01*
X296594Y526857D01*
X295578D01*
X294562Y527873D01*
X293546Y526857D01*
X292530D01*
X293546Y525841D01*
X292530Y524825D01*
X293546D01*
X294562Y523809D01*
X269162D02*
X270178Y524825D01*
X271194D01*
X270178Y525841D01*
X271194Y526857D01*
X270178D01*
X269162Y527873D01*
X268146Y526857D01*
X267130D01*
X268146Y525841D01*
X267130Y524825D01*
X268146D01*
X269162Y523809D01*
X243762D02*
X244778Y524825D01*
X245794D01*
X244778Y525841D01*
X245794Y526857D01*
X244778D01*
X243762Y527873D01*
X242746Y526857D01*
X241730D01*
X242746Y525841D01*
X241730Y524825D01*
X242746D01*
X243762Y523809D01*
X218362D02*
X219378Y524825D01*
X220394D01*
X219378Y525841D01*
X220394Y526857D01*
X219378D01*
X218362Y527873D01*
X217346Y526857D01*
X216330D01*
X217346Y525841D01*
X216330Y524825D01*
X217346D01*
X218362Y523809D01*
X192962D02*
X193978Y524825D01*
X194994D01*
X193978Y525841D01*
X194994Y526857D01*
X193978D01*
X192962Y527873D01*
X191946Y526857D01*
X190930D01*
X191946Y525841D01*
X190930Y524825D01*
X191946D01*
X192962Y523809D01*
X167562D02*
X168578Y524825D01*
X169594D01*
X168578Y525841D01*
X169594Y526857D01*
X168578D01*
X167562Y527873D01*
X166546Y526857D01*
X165530D01*
X166546Y525841D01*
X165530Y524825D01*
X166546D01*
X167562Y523809D01*
X142162D02*
X143178Y524825D01*
X144194D01*
X143178Y525841D01*
X144194Y526857D01*
X143178D01*
X142162Y527873D01*
X141146Y526857D01*
X140130D01*
X141146Y525841D01*
X140130Y524825D01*
X141146D01*
X142162Y523809D01*
X116762D02*
X117778Y524825D01*
X118794D01*
X117778Y525841D01*
X118794Y526857D01*
X117778D01*
X116762Y527873D01*
X115746Y526857D01*
X114730D01*
X115746Y525841D01*
X114730Y524825D01*
X115746D01*
X116762Y523809D01*
X91362D02*
X92378Y524825D01*
X93394D01*
X92378Y525841D01*
X93394Y526857D01*
X92378D01*
X91362Y527873D01*
X90346Y526857D01*
X89330D01*
X90346Y525841D01*
X89330Y524825D01*
X90346D01*
X91362Y523809D01*
X370762Y498409D02*
X371778Y499425D01*
X372794D01*
X371778Y500441D01*
X372794Y501457D01*
X371778D01*
X370762Y502473D01*
X369746Y501457D01*
X368730D01*
X369746Y500441D01*
X368730Y499425D01*
X369746D01*
X370762Y498409D01*
X345362D02*
X346378Y499425D01*
X347394D01*
X346378Y500441D01*
X347394Y501457D01*
X346378D01*
X345362Y502473D01*
X344346Y501457D01*
X343330D01*
X344346Y500441D01*
X343330Y499425D01*
X344346D01*
X345362Y498409D01*
X319962D02*
X320978Y499425D01*
X321994D01*
X320978Y500441D01*
X321994Y501457D01*
X320978D01*
X319962Y502473D01*
X318946Y501457D01*
X317930D01*
X318946Y500441D01*
X317930Y499425D01*
X318946D01*
X319962Y498409D01*
X294562D02*
X295578Y499425D01*
X296594D01*
X295578Y500441D01*
X296594Y501457D01*
X295578D01*
X294562Y502473D01*
X293546Y501457D01*
X292530D01*
X293546Y500441D01*
X292530Y499425D01*
X293546D01*
X294562Y498409D01*
X269162D02*
X270178Y499425D01*
X271194D01*
X270178Y500441D01*
X271194Y501457D01*
X270178D01*
X269162Y502473D01*
X268146Y501457D01*
X267130D01*
X268146Y500441D01*
X267130Y499425D01*
X268146D01*
X269162Y498409D01*
X243762D02*
X244778Y499425D01*
X245794D01*
X244778Y500441D01*
X245794Y501457D01*
X244778D01*
X243762Y502473D01*
X242746Y501457D01*
X241730D01*
X242746Y500441D01*
X241730Y499425D01*
X242746D01*
X243762Y498409D01*
X218362D02*
X219378Y499425D01*
X220394D01*
X219378Y500441D01*
X220394Y501457D01*
X219378D01*
X218362Y502473D01*
X217346Y501457D01*
X216330D01*
X217346Y500441D01*
X216330Y499425D01*
X217346D01*
X218362Y498409D01*
X192962D02*
X193978Y499425D01*
X194994D01*
X193978Y500441D01*
X194994Y501457D01*
X193978D01*
X192962Y502473D01*
X191946Y501457D01*
X190930D01*
X191946Y500441D01*
X190930Y499425D01*
X191946D01*
X192962Y498409D01*
X167562D02*
X168578Y499425D01*
X169594D01*
X168578Y500441D01*
X169594Y501457D01*
X168578D01*
X167562Y502473D01*
X166546Y501457D01*
X165530D01*
X166546Y500441D01*
X165530Y499425D01*
X166546D01*
X167562Y498409D01*
X142162D02*
X143178Y499425D01*
X144194D01*
X143178Y500441D01*
X144194Y501457D01*
X143178D01*
X142162Y502473D01*
X141146Y501457D01*
X140130D01*
X141146Y500441D01*
X140130Y499425D01*
X141146D01*
X142162Y498409D01*
X116762D02*
X117778Y499425D01*
X118794D01*
X117778Y500441D01*
X118794Y501457D01*
X117778D01*
X116762Y502473D01*
X115746Y501457D01*
X114730D01*
X115746Y500441D01*
X114730Y499425D01*
X115746D01*
X116762Y498409D01*
X91362D02*
X92378Y499425D01*
X93394D01*
X92378Y500441D01*
X93394Y501457D01*
X92378D01*
X91362Y502473D01*
X90346Y501457D01*
X89330D01*
X90346Y500441D01*
X89330Y499425D01*
X90346D01*
X91362Y498409D01*
X141092Y127012D02*
Y131076D01*
X145156D01*
Y127012D01*
X141092D01*
X81092D02*
Y131076D01*
X85156D01*
Y127012D01*
X81092D01*
X111092Y80011D02*
Y84075D01*
X115156D01*
Y80011D01*
X111092D01*
X396851Y114017D02*
X394818Y118082D01*
X398882D01*
X396851Y114017D01*
Y155088D02*
X394818Y159152D01*
X398882D01*
X396851Y155088D01*
X91362Y15809D02*
X92378Y16825D01*
X93394D01*
X92378Y17841D01*
X93394Y18857D01*
X92378D01*
X91362Y19873D01*
X90346Y18857D01*
X89330D01*
X90346Y17841D01*
X89330Y16825D01*
X90346D01*
X91362Y15809D01*
X116762D02*
X117778Y16825D01*
X118794D01*
X117778Y17841D01*
X118794Y18857D01*
X117778D01*
X116762Y19873D01*
X115746Y18857D01*
X114730D01*
X115746Y17841D01*
X114730Y16825D01*
X115746D01*
X116762Y15809D01*
X142162D02*
X143178Y16825D01*
X144194D01*
X143178Y17841D01*
X144194Y18857D01*
X143178D01*
X142162Y19873D01*
X141146Y18857D01*
X140130D01*
X141146Y17841D01*
X140130Y16825D01*
X141146D01*
X142162Y15809D01*
X167562D02*
X168578Y16825D01*
X169594D01*
X168578Y17841D01*
X169594Y18857D01*
X168578D01*
X167562Y19873D01*
X166546Y18857D01*
X165530D01*
X166546Y17841D01*
X165530Y16825D01*
X166546D01*
X167562Y15809D01*
X192962D02*
X193978Y16825D01*
X194994D01*
X193978Y17841D01*
X194994Y18857D01*
X193978D01*
X192962Y19873D01*
X191946Y18857D01*
X190930D01*
X191946Y17841D01*
X190930Y16825D01*
X191946D01*
X192962Y15809D01*
X218362D02*
X219378Y16825D01*
X220394D01*
X219378Y17841D01*
X220394Y18857D01*
X219378D01*
X218362Y19873D01*
X217346Y18857D01*
X216330D01*
X217346Y17841D01*
X216330Y16825D01*
X217346D01*
X218362Y15809D01*
X243762D02*
X244778Y16825D01*
X245794D01*
X244778Y17841D01*
X245794Y18857D01*
X244778D01*
X243762Y19873D01*
X242746Y18857D01*
X241730D01*
X242746Y17841D01*
X241730Y16825D01*
X242746D01*
X243762Y15809D01*
X269162D02*
X270178Y16825D01*
X271194D01*
X270178Y17841D01*
X271194Y18857D01*
X270178D01*
X269162Y19873D01*
X268146Y18857D01*
X267130D01*
X268146Y17841D01*
X267130Y16825D01*
X268146D01*
X269162Y15809D01*
X294562D02*
X295578Y16825D01*
X296594D01*
X295578Y17841D01*
X296594Y18857D01*
X295578D01*
X294562Y19873D01*
X293546Y18857D01*
X292530D01*
X293546Y17841D01*
X292530Y16825D01*
X293546D01*
X294562Y15809D01*
X319962D02*
X320978Y16825D01*
X321994D01*
X320978Y17841D01*
X321994Y18857D01*
X320978D01*
X319962Y19873D01*
X318946Y18857D01*
X317930D01*
X318946Y17841D01*
X317930Y16825D01*
X318946D01*
X319962Y15809D01*
X345362D02*
X346378Y16825D01*
X347394D01*
X346378Y17841D01*
X347394Y18857D01*
X346378D01*
X345362Y19873D01*
X344346Y18857D01*
X343330D01*
X344346Y17841D01*
X343330Y16825D01*
X344346D01*
X345362Y15809D01*
X370762D02*
X371778Y16825D01*
X372794D01*
X371778Y17841D01*
X372794Y18857D01*
X371778D01*
X370762Y19873D01*
X369746Y18857D01*
X368730D01*
X369746Y17841D01*
X368730Y16825D01*
X369746D01*
X370762Y15809D01*
X91362Y41209D02*
X92378Y42225D01*
X93394D01*
X92378Y43241D01*
X93394Y44257D01*
X92378D01*
X91362Y45273D01*
X90346Y44257D01*
X89330D01*
X90346Y43241D01*
X89330Y42225D01*
X90346D01*
X91362Y41209D01*
X142162D02*
X143178Y42225D01*
X144194D01*
X143178Y43241D01*
X144194Y44257D01*
X143178D01*
X142162Y45273D01*
X141146Y44257D01*
X140130D01*
X141146Y43241D01*
X140130Y42225D01*
X141146D01*
X142162Y41209D01*
X167562D02*
X168578Y42225D01*
X169594D01*
X168578Y43241D01*
X169594Y44257D01*
X168578D01*
X167562Y45273D01*
X166546Y44257D01*
X165530D01*
X166546Y43241D01*
X165530Y42225D01*
X166546D01*
X167562Y41209D01*
X192962D02*
X193978Y42225D01*
X194994D01*
X193978Y43241D01*
X194994Y44257D01*
X193978D01*
X192962Y45273D01*
X191946Y44257D01*
X190930D01*
X191946Y43241D01*
X190930Y42225D01*
X191946D01*
X192962Y41209D01*
X218362D02*
X219378Y42225D01*
X220394D01*
X219378Y43241D01*
X220394Y44257D01*
X219378D01*
X218362Y45273D01*
X217346Y44257D01*
X216330D01*
X217346Y43241D01*
X216330Y42225D01*
X217346D01*
X218362Y41209D01*
X243762D02*
X244778Y42225D01*
X245794D01*
X244778Y43241D01*
X245794Y44257D01*
X244778D01*
X243762Y45273D01*
X242746Y44257D01*
X241730D01*
X242746Y43241D01*
X241730Y42225D01*
X242746D01*
X243762Y41209D01*
X269162D02*
X270178Y42225D01*
X271194D01*
X270178Y43241D01*
X271194Y44257D01*
X270178D01*
X269162Y45273D01*
X268146Y44257D01*
X267130D01*
X268146Y43241D01*
X267130Y42225D01*
X268146D01*
X269162Y41209D01*
X294562D02*
X295578Y42225D01*
X296594D01*
X295578Y43241D01*
X296594Y44257D01*
X295578D01*
X294562Y45273D01*
X293546Y44257D01*
X292530D01*
X293546Y43241D01*
X292530Y42225D01*
X293546D01*
X294562Y41209D01*
X319962D02*
X320978Y42225D01*
X321994D01*
X320978Y43241D01*
X321994Y44257D01*
X320978D01*
X319962Y45273D01*
X318946Y44257D01*
X317930D01*
X318946Y43241D01*
X317930Y42225D01*
X318946D01*
X319962Y41209D01*
X345362D02*
X346378Y42225D01*
X347394D01*
X346378Y43241D01*
X347394Y44257D01*
X346378D01*
X345362Y45273D01*
X344346Y44257D01*
X343330D01*
X344346Y43241D01*
X343330Y42225D01*
X344346D01*
X345362Y41209D01*
X370762D02*
X371778Y42225D01*
X372794D01*
X371778Y43241D01*
X372794Y44257D01*
X371778D01*
X370762Y45273D01*
X369746Y44257D01*
X368730D01*
X369746Y43241D01*
X368730Y42225D01*
X369746D01*
X370762Y41209D01*
X116762D02*
X117778Y42225D01*
X118794D01*
X117778Y43241D01*
X118794Y44257D01*
X117778D01*
X116762Y45273D01*
X115746Y44257D01*
X114730D01*
X115746Y43241D01*
X114730Y42225D01*
X115746D01*
X116762Y41209D01*
X153068Y272796D02*
X154084Y274828D01*
X153068Y276860D01*
X155100Y275844D01*
X157132Y276860D01*
X156116Y274828D01*
X157132Y272796D01*
X155100Y273812D01*
X153068Y272796D01*
X324670Y421275D02*
Y420259D01*
X326702D01*
Y421275D01*
X327718D01*
Y423307D01*
X326702D01*
Y424323D01*
X324670D01*
Y423307D01*
X323654D01*
Y421275D01*
X324670D01*
X334867Y471086D02*
Y470070D01*
X336899D01*
Y471086D01*
X337915D01*
Y473118D01*
X336899D01*
Y474134D01*
X334867D01*
Y473118D01*
X333851D01*
Y471086D01*
X334867D01*
X419521Y435282D02*
Y434266D01*
X421553D01*
Y435282D01*
X422570D01*
Y437314D01*
X421553D01*
Y438330D01*
X419521D01*
Y437314D01*
X418506D01*
Y435282D01*
X419521D01*
X276370Y437039D02*
Y436023D01*
X278402D01*
Y437039D01*
X279418D01*
Y439071D01*
X278402D01*
Y440087D01*
X276370D01*
Y439071D01*
X275354D01*
Y437039D01*
X276370D01*
X467238Y479518D02*
Y478502D01*
X469270D01*
Y479518D01*
X470286D01*
Y481550D01*
X469270D01*
Y482566D01*
X467238D01*
Y481550D01*
X466222D01*
Y479518D01*
X467238D01*
X415662Y485597D02*
Y484581D01*
X417694D01*
Y485597D01*
X418710D01*
Y487629D01*
X417694D01*
Y488645D01*
X415662D01*
Y487629D01*
X414646D01*
Y485597D01*
X415662D01*
X253524Y126238D02*
Y125222D01*
X255556D01*
Y126238D01*
X256572D01*
Y128270D01*
X255556D01*
Y129286D01*
X253524D01*
Y128270D01*
X252508D01*
Y126238D01*
X253524D01*
X280619Y60815D02*
Y59799D01*
X282651D01*
Y60815D01*
X283667D01*
Y62847D01*
X282651D01*
Y63863D01*
X280619D01*
Y62847D01*
X279603D01*
Y60815D01*
X280619D01*
X324552Y63633D02*
Y62618D01*
X326584D01*
Y63633D01*
X327600D01*
Y65665D01*
X326584D01*
Y66681D01*
X324552D01*
Y65665D01*
X323536D01*
Y63633D01*
X324552D01*
X381079Y128947D02*
X382095Y130979D01*
X381079Y133011D01*
X383111Y131995D01*
X385143Y133011D01*
X384127Y130979D01*
X385143Y128947D01*
X383111Y129963D01*
X381079Y128947D01*
X347697Y115210D02*
Y114194D01*
X349729D01*
Y115210D01*
X350746D01*
Y117242D01*
X349729D01*
Y118258D01*
X347697D01*
Y117242D01*
X346682D01*
Y115210D01*
X347697D01*
X372735Y155129D02*
Y154113D01*
X374767D01*
Y155129D01*
X375783D01*
Y157161D01*
X374767D01*
Y158177D01*
X372735D01*
Y157161D01*
X371719D01*
Y155129D01*
X372735D01*
X405741Y71397D02*
Y70381D01*
X407773D01*
Y71397D01*
X408789D01*
Y73429D01*
X407773D01*
Y74445D01*
X405741D01*
Y73429D01*
X404725D01*
Y71397D01*
X405741D01*
X392065Y264067D02*
X393081Y266099D01*
X392065Y268131D01*
X394097Y267115D01*
X396129Y268131D01*
X395113Y266099D01*
X396129Y264067D01*
X394097Y265083D01*
X392065Y264067D01*
X392019Y275606D02*
X393035Y277638D01*
X392019Y279670D01*
X394051Y278654D01*
X396083Y279670D01*
X395067Y277638D01*
X396083Y275606D01*
X394051Y276622D01*
X392019Y275606D01*
Y287056D02*
X393035Y289088D01*
X392019Y291120D01*
X394051Y290104D01*
X396083Y291120D01*
X395067Y289088D01*
X396083Y287056D01*
X394051Y288072D01*
X392019Y287056D01*
X164348Y289036D02*
X165364Y291068D01*
X164348Y293100D01*
X166380Y292084D01*
X168412Y293100D01*
X167396Y291068D01*
X168412Y289036D01*
X166380Y290052D01*
X164348Y289036D01*
X174085Y272806D02*
X175101Y274838D01*
X174085Y276870D01*
X176117Y275854D01*
X178149Y276870D01*
X177133Y274838D01*
X178149Y272806D01*
X176117Y273822D01*
X174085Y272806D01*
D82*
X154159Y433763D02*
G03*
X154159Y433763I-2032J0D01*
G01*
Y458763D02*
G03*
X154159Y458763I-2032J0D01*
G01*
Y408763D02*
G03*
X154159Y408763I-2032J0D01*
G01*
X226546D02*
G03*
X226546Y408763I-2032J0D01*
G01*
Y433763D02*
G03*
X226546Y433763I-2032J0D01*
G01*
Y458763D02*
G03*
X226546Y458763I-2032J0D01*
G01*
M02*
