G04*
G04 #@! TF.GenerationSoftware,Altium Limited,Altium Designer,21.9.1 (22)*
G04*
G04 Layer_Physical_Order=2*
G04 Layer_Color=16711680*
%FSLAX44Y44*%
%MOMM*%
G71*
G04*
G04 #@! TF.SameCoordinates,79196508-F500-4B14-A944-684D4DD7C553*
G04*
G04*
G04 #@! TF.FilePolarity,Positive*
G04*
G01*
G75*
%ADD50C,1.3716*%
%ADD51R,1.3716X1.3716*%
%ADD66C,1.6000*%
%ADD67R,1.6000X1.6000*%
%ADD68R,1.5000X1.5000*%
%ADD69C,1.5000*%
%ADD70C,1.5240*%
%ADD71O,1.5000X3.0000*%
%ADD72O,3.0000X1.5000*%
%ADD73C,1.0000*%
%ADD74C,1.2700*%
%ADD75C,0.9000*%
G36*
X436208Y539732D02*
X436208Y539732D01*
X436208Y539732D01*
X439469Y538092D01*
X445673Y534244D01*
X451511Y529861D01*
X456936Y524975D01*
X461905Y519627D01*
X466379Y513858D01*
X470322Y507714D01*
X473703Y501243D01*
X475100Y497871D01*
Y413279D01*
X473830Y412556D01*
X473251Y412795D01*
X305155D01*
X304007Y412320D01*
X304007Y412320D01*
X303531Y411172D01*
X303529Y243393D01*
X303994Y242270D01*
X304004Y242245D01*
X305153Y241769D01*
X305153Y241769D01*
X473251D01*
X473830Y242009D01*
X475100Y241286D01*
Y195667D01*
X261099Y195667D01*
X261098Y186777D01*
X261098Y185562D01*
X261098D01*
X261098Y185507D01*
X262346Y185507D01*
X262368Y185507D01*
X263616Y185507D01*
X475100Y185507D01*
X475100Y65122D01*
X475100Y65122D01*
Y61577D01*
X474279Y54535D01*
X472648Y47635D01*
X470230Y40970D01*
X467056Y34630D01*
X463170Y28700D01*
X458623Y23260D01*
X453477Y18383D01*
X447801Y14134D01*
X441671Y10571D01*
X435170Y7741D01*
X428385Y5684D01*
X424896Y5054D01*
X8186Y5054D01*
Y540411D01*
X9085Y541307D01*
X436208Y539732D01*
D02*
G37*
G36*
X473251Y243393D02*
X305153D01*
X305155Y411172D01*
X473251D01*
Y243393D01*
D02*
G37*
%LPC*%
G36*
X370762Y535040D02*
X368381Y534727D01*
X366162Y533808D01*
X364257Y532346D01*
X362795Y530441D01*
X361876Y528222D01*
X361563Y525841D01*
X361876Y523461D01*
X362795Y521242D01*
X364257Y519337D01*
X366162Y517875D01*
X368381Y516956D01*
X370762Y516643D01*
X373143Y516956D01*
X375361Y517875D01*
X377266Y519337D01*
X378728Y521242D01*
X379647Y523461D01*
X379960Y525841D01*
X379647Y528222D01*
X378728Y530441D01*
X377266Y532346D01*
X375361Y533808D01*
X373143Y534727D01*
X370762Y535040D01*
D02*
G37*
G36*
X345362D02*
X342981Y534727D01*
X340762Y533808D01*
X338857Y532346D01*
X337395Y530441D01*
X336476Y528222D01*
X336163Y525841D01*
X336476Y523461D01*
X337395Y521242D01*
X338857Y519337D01*
X340762Y517875D01*
X342981Y516956D01*
X345362Y516643D01*
X347743Y516956D01*
X349961Y517875D01*
X351866Y519337D01*
X353328Y521242D01*
X354247Y523461D01*
X354560Y525841D01*
X354247Y528222D01*
X353328Y530441D01*
X351866Y532346D01*
X349961Y533808D01*
X347743Y534727D01*
X345362Y535040D01*
D02*
G37*
G36*
X319962D02*
X317581Y534727D01*
X315362Y533808D01*
X313457Y532346D01*
X311995Y530441D01*
X311076Y528222D01*
X310763Y525841D01*
X311076Y523461D01*
X311995Y521242D01*
X313457Y519337D01*
X315362Y517875D01*
X317581Y516956D01*
X319962Y516643D01*
X322342Y516956D01*
X324561Y517875D01*
X326466Y519337D01*
X327928Y521242D01*
X328847Y523461D01*
X329160Y525841D01*
X328847Y528222D01*
X327928Y530441D01*
X326466Y532346D01*
X324561Y533808D01*
X322342Y534727D01*
X319962Y535040D01*
D02*
G37*
G36*
X294562D02*
X292181Y534727D01*
X289962Y533808D01*
X288057Y532346D01*
X286595Y530441D01*
X285676Y528222D01*
X285363Y525841D01*
X285676Y523461D01*
X286595Y521242D01*
X288057Y519337D01*
X289962Y517875D01*
X292181Y516956D01*
X294562Y516643D01*
X296943Y516956D01*
X299161Y517875D01*
X301066Y519337D01*
X302528Y521242D01*
X303447Y523461D01*
X303760Y525841D01*
X303447Y528222D01*
X302528Y530441D01*
X301066Y532346D01*
X299161Y533808D01*
X296943Y534727D01*
X294562Y535040D01*
D02*
G37*
G36*
X269162D02*
X266781Y534727D01*
X264562Y533808D01*
X262657Y532346D01*
X261195Y530441D01*
X260276Y528222D01*
X259963Y525841D01*
X260276Y523461D01*
X261195Y521242D01*
X262657Y519337D01*
X264562Y517875D01*
X266781Y516956D01*
X269162Y516643D01*
X271542Y516956D01*
X273761Y517875D01*
X275666Y519337D01*
X277128Y521242D01*
X278047Y523461D01*
X278360Y525841D01*
X278047Y528222D01*
X277128Y530441D01*
X275666Y532346D01*
X273761Y533808D01*
X271542Y534727D01*
X269162Y535040D01*
D02*
G37*
G36*
X243762D02*
X241381Y534727D01*
X239162Y533808D01*
X237257Y532346D01*
X235795Y530441D01*
X234876Y528222D01*
X234563Y525841D01*
X234876Y523461D01*
X235795Y521242D01*
X237257Y519337D01*
X239162Y517875D01*
X241381Y516956D01*
X243762Y516643D01*
X246143Y516956D01*
X248361Y517875D01*
X250266Y519337D01*
X251728Y521242D01*
X252647Y523461D01*
X252960Y525841D01*
X252647Y528222D01*
X251728Y530441D01*
X250266Y532346D01*
X248361Y533808D01*
X246143Y534727D01*
X243762Y535040D01*
D02*
G37*
G36*
X218362D02*
X215981Y534727D01*
X213762Y533808D01*
X211857Y532346D01*
X210395Y530441D01*
X209476Y528222D01*
X209163Y525841D01*
X209476Y523461D01*
X210395Y521242D01*
X211857Y519337D01*
X213762Y517875D01*
X215981Y516956D01*
X218362Y516643D01*
X220742Y516956D01*
X222961Y517875D01*
X224866Y519337D01*
X226328Y521242D01*
X227247Y523461D01*
X227560Y525841D01*
X227247Y528222D01*
X226328Y530441D01*
X224866Y532346D01*
X222961Y533808D01*
X220742Y534727D01*
X218362Y535040D01*
D02*
G37*
G36*
X192962D02*
X190581Y534727D01*
X188362Y533808D01*
X186457Y532346D01*
X184995Y530441D01*
X184076Y528222D01*
X183763Y525841D01*
X184076Y523461D01*
X184995Y521242D01*
X186457Y519337D01*
X188362Y517875D01*
X190581Y516956D01*
X192962Y516643D01*
X195343Y516956D01*
X197561Y517875D01*
X199466Y519337D01*
X200928Y521242D01*
X201847Y523461D01*
X202160Y525841D01*
X201847Y528222D01*
X200928Y530441D01*
X199466Y532346D01*
X197561Y533808D01*
X195343Y534727D01*
X192962Y535040D01*
D02*
G37*
G36*
X167562D02*
X165181Y534727D01*
X162962Y533808D01*
X161057Y532346D01*
X159595Y530441D01*
X158676Y528222D01*
X158363Y525841D01*
X158676Y523461D01*
X159595Y521242D01*
X161057Y519337D01*
X162962Y517875D01*
X165181Y516956D01*
X167562Y516643D01*
X169942Y516956D01*
X172161Y517875D01*
X174066Y519337D01*
X175528Y521242D01*
X176447Y523461D01*
X176760Y525841D01*
X176447Y528222D01*
X175528Y530441D01*
X174066Y532346D01*
X172161Y533808D01*
X169942Y534727D01*
X167562Y535040D01*
D02*
G37*
G36*
X142162D02*
X139781Y534727D01*
X137562Y533808D01*
X135657Y532346D01*
X134195Y530441D01*
X133276Y528222D01*
X132963Y525841D01*
X133276Y523461D01*
X134195Y521242D01*
X135657Y519337D01*
X137562Y517875D01*
X139781Y516956D01*
X142162Y516643D01*
X144543Y516956D01*
X146761Y517875D01*
X148666Y519337D01*
X150128Y521242D01*
X151047Y523461D01*
X151360Y525841D01*
X151047Y528222D01*
X150128Y530441D01*
X148666Y532346D01*
X146761Y533808D01*
X144543Y534727D01*
X142162Y535040D01*
D02*
G37*
G36*
X116762D02*
X114381Y534727D01*
X112162Y533808D01*
X110257Y532346D01*
X108795Y530441D01*
X107876Y528222D01*
X107563Y525841D01*
X107876Y523461D01*
X108795Y521242D01*
X110257Y519337D01*
X112162Y517875D01*
X114381Y516956D01*
X116762Y516643D01*
X119143Y516956D01*
X121361Y517875D01*
X123266Y519337D01*
X124728Y521242D01*
X125647Y523461D01*
X125960Y525841D01*
X125647Y528222D01*
X124728Y530441D01*
X123266Y532346D01*
X121361Y533808D01*
X119143Y534727D01*
X116762Y535040D01*
D02*
G37*
G36*
X91362D02*
X88981Y534727D01*
X86762Y533808D01*
X84857Y532346D01*
X83395Y530441D01*
X82476Y528222D01*
X82163Y525841D01*
X82476Y523461D01*
X83395Y521242D01*
X84857Y519337D01*
X86762Y517875D01*
X88981Y516956D01*
X91362Y516643D01*
X93743Y516956D01*
X95961Y517875D01*
X97866Y519337D01*
X99328Y521242D01*
X100247Y523461D01*
X100560Y525841D01*
X100247Y528222D01*
X99328Y530441D01*
X97866Y532346D01*
X95961Y533808D01*
X93743Y534727D01*
X91362Y535040D01*
D02*
G37*
G36*
X370762Y509640D02*
X368381Y509327D01*
X366162Y508408D01*
X364257Y506946D01*
X362795Y505041D01*
X361876Y502822D01*
X361563Y500441D01*
X361876Y498061D01*
X362795Y495842D01*
X364257Y493937D01*
X366162Y492475D01*
X368381Y491556D01*
X370762Y491243D01*
X373143Y491556D01*
X375361Y492475D01*
X377266Y493937D01*
X378728Y495842D01*
X379647Y498061D01*
X379960Y500441D01*
X379647Y502822D01*
X378728Y505041D01*
X377266Y506946D01*
X375361Y508408D01*
X373143Y509327D01*
X370762Y509640D01*
D02*
G37*
G36*
X345362D02*
X342981Y509327D01*
X340762Y508408D01*
X338857Y506946D01*
X337395Y505041D01*
X336476Y502822D01*
X336163Y500441D01*
X336476Y498061D01*
X337395Y495842D01*
X338857Y493937D01*
X340762Y492475D01*
X342981Y491556D01*
X345362Y491243D01*
X347743Y491556D01*
X349961Y492475D01*
X351866Y493937D01*
X353328Y495842D01*
X354247Y498061D01*
X354560Y500441D01*
X354247Y502822D01*
X353328Y505041D01*
X351866Y506946D01*
X349961Y508408D01*
X347743Y509327D01*
X345362Y509640D01*
D02*
G37*
G36*
X319962D02*
X317581Y509327D01*
X315362Y508408D01*
X313457Y506946D01*
X311995Y505041D01*
X311076Y502822D01*
X310763Y500441D01*
X311076Y498061D01*
X311995Y495842D01*
X313457Y493937D01*
X315362Y492475D01*
X317581Y491556D01*
X319962Y491243D01*
X322342Y491556D01*
X324561Y492475D01*
X326466Y493937D01*
X327928Y495842D01*
X328847Y498061D01*
X329160Y500441D01*
X328847Y502822D01*
X327928Y505041D01*
X326466Y506946D01*
X324561Y508408D01*
X322342Y509327D01*
X319962Y509640D01*
D02*
G37*
G36*
X294562D02*
X292181Y509327D01*
X289962Y508408D01*
X288057Y506946D01*
X286595Y505041D01*
X285676Y502822D01*
X285363Y500441D01*
X285676Y498061D01*
X286595Y495842D01*
X288057Y493937D01*
X289962Y492475D01*
X292181Y491556D01*
X294562Y491243D01*
X296943Y491556D01*
X299161Y492475D01*
X301066Y493937D01*
X302528Y495842D01*
X303447Y498061D01*
X303760Y500441D01*
X303447Y502822D01*
X302528Y505041D01*
X301066Y506946D01*
X299161Y508408D01*
X296943Y509327D01*
X294562Y509640D01*
D02*
G37*
G36*
X269162D02*
X266781Y509327D01*
X264562Y508408D01*
X262657Y506946D01*
X261195Y505041D01*
X260276Y502822D01*
X259963Y500441D01*
X260276Y498061D01*
X261195Y495842D01*
X262657Y493937D01*
X264562Y492475D01*
X266781Y491556D01*
X269162Y491243D01*
X271542Y491556D01*
X273761Y492475D01*
X275666Y493937D01*
X277128Y495842D01*
X278047Y498061D01*
X278360Y500441D01*
X278047Y502822D01*
X277128Y505041D01*
X275666Y506946D01*
X273761Y508408D01*
X271542Y509327D01*
X269162Y509640D01*
D02*
G37*
G36*
X243762D02*
X241381Y509327D01*
X239162Y508408D01*
X237257Y506946D01*
X235795Y505041D01*
X234876Y502822D01*
X234563Y500441D01*
X234876Y498061D01*
X235795Y495842D01*
X237257Y493937D01*
X239162Y492475D01*
X241381Y491556D01*
X243762Y491243D01*
X246143Y491556D01*
X248361Y492475D01*
X250266Y493937D01*
X251728Y495842D01*
X252647Y498061D01*
X252960Y500441D01*
X252647Y502822D01*
X251728Y505041D01*
X250266Y506946D01*
X248361Y508408D01*
X246143Y509327D01*
X243762Y509640D01*
D02*
G37*
G36*
X218362D02*
X215981Y509327D01*
X213762Y508408D01*
X211857Y506946D01*
X210395Y505041D01*
X209476Y502822D01*
X209163Y500441D01*
X209476Y498061D01*
X210395Y495842D01*
X211857Y493937D01*
X213762Y492475D01*
X215981Y491556D01*
X218362Y491243D01*
X220742Y491556D01*
X222961Y492475D01*
X224866Y493937D01*
X226328Y495842D01*
X227247Y498061D01*
X227560Y500441D01*
X227247Y502822D01*
X226328Y505041D01*
X224866Y506946D01*
X222961Y508408D01*
X220742Y509327D01*
X218362Y509640D01*
D02*
G37*
G36*
X192962D02*
X190581Y509327D01*
X188362Y508408D01*
X186457Y506946D01*
X184995Y505041D01*
X184076Y502822D01*
X183763Y500441D01*
X184076Y498061D01*
X184995Y495842D01*
X186457Y493937D01*
X188362Y492475D01*
X190581Y491556D01*
X192962Y491243D01*
X195343Y491556D01*
X197561Y492475D01*
X199466Y493937D01*
X200928Y495842D01*
X201847Y498061D01*
X202160Y500441D01*
X201847Y502822D01*
X200928Y505041D01*
X199466Y506946D01*
X197561Y508408D01*
X195343Y509327D01*
X192962Y509640D01*
D02*
G37*
G36*
X167562D02*
X165181Y509327D01*
X162962Y508408D01*
X161057Y506946D01*
X159595Y505041D01*
X158676Y502822D01*
X158363Y500441D01*
X158676Y498061D01*
X159595Y495842D01*
X161057Y493937D01*
X162962Y492475D01*
X165181Y491556D01*
X167562Y491243D01*
X169942Y491556D01*
X172161Y492475D01*
X174066Y493937D01*
X175528Y495842D01*
X176447Y498061D01*
X176760Y500441D01*
X176447Y502822D01*
X175528Y505041D01*
X174066Y506946D01*
X172161Y508408D01*
X169942Y509327D01*
X167562Y509640D01*
D02*
G37*
G36*
X142162D02*
X139781Y509327D01*
X137562Y508408D01*
X135657Y506946D01*
X134195Y505041D01*
X133276Y502822D01*
X132963Y500441D01*
X133276Y498061D01*
X134195Y495842D01*
X135657Y493937D01*
X137562Y492475D01*
X139781Y491556D01*
X142162Y491243D01*
X144543Y491556D01*
X146761Y492475D01*
X148666Y493937D01*
X150128Y495842D01*
X151047Y498061D01*
X151360Y500441D01*
X151047Y502822D01*
X150128Y505041D01*
X148666Y506946D01*
X146761Y508408D01*
X144543Y509327D01*
X142162Y509640D01*
D02*
G37*
G36*
X116762D02*
X114381Y509327D01*
X112162Y508408D01*
X110257Y506946D01*
X108795Y505041D01*
X107876Y502822D01*
X107563Y500441D01*
X107876Y498061D01*
X108795Y495842D01*
X110257Y493937D01*
X112162Y492475D01*
X114381Y491556D01*
X116762Y491243D01*
X119143Y491556D01*
X121361Y492475D01*
X123266Y493937D01*
X124728Y495842D01*
X125647Y498061D01*
X125960Y500441D01*
X125647Y502822D01*
X124728Y505041D01*
X123266Y506946D01*
X121361Y508408D01*
X119143Y509327D01*
X116762Y509640D01*
D02*
G37*
G36*
X91362D02*
X88981Y509327D01*
X86762Y508408D01*
X84857Y506946D01*
X83395Y505041D01*
X82476Y502822D01*
X82163Y500441D01*
X82476Y498061D01*
X83395Y495842D01*
X84857Y493937D01*
X86762Y492475D01*
X88981Y491556D01*
X91362Y491243D01*
X93743Y491556D01*
X95961Y492475D01*
X97866Y493937D01*
X99328Y495842D01*
X100247Y498061D01*
X100560Y500441D01*
X100247Y502822D01*
X99328Y505041D01*
X97866Y506946D01*
X95961Y508408D01*
X93743Y509327D01*
X91362Y509640D01*
D02*
G37*
G36*
X224514Y467193D02*
X222332Y466906D01*
X220299Y466064D01*
X218553Y464724D01*
X217213Y462978D01*
X216371Y460945D01*
X216084Y458763D01*
X216371Y456581D01*
X217213Y454548D01*
X218553Y452802D01*
X220299Y451462D01*
X222332Y450620D01*
X224514Y450333D01*
X226696Y450620D01*
X228729Y451462D01*
X230475Y452802D01*
X231815Y454548D01*
X232657Y456581D01*
X232944Y458763D01*
X232657Y460945D01*
X231815Y462978D01*
X230475Y464724D01*
X228729Y466064D01*
X226696Y466906D01*
X224514Y467193D01*
D02*
G37*
G36*
X152127D02*
X149945Y466906D01*
X147912Y466064D01*
X146166Y464724D01*
X144826Y462978D01*
X143984Y460945D01*
X143697Y458763D01*
X143984Y456581D01*
X144826Y454548D01*
X146166Y452802D01*
X147912Y451462D01*
X149945Y450620D01*
X152127Y450333D01*
X154309Y450620D01*
X156342Y451462D01*
X158088Y452802D01*
X159428Y454548D01*
X160270Y456581D01*
X160557Y458763D01*
X160270Y460945D01*
X159428Y462978D01*
X158088Y464724D01*
X156342Y466064D01*
X154309Y466906D01*
X152127Y467193D01*
D02*
G37*
G36*
X53135Y463675D02*
X50655Y463349D01*
X48344Y462392D01*
X46360Y460869D01*
X44837Y458885D01*
X43880Y456573D01*
X43553Y454094D01*
X43880Y451614D01*
X44837Y449302D01*
X46360Y447318D01*
X48344Y445795D01*
X50655Y444838D01*
X53135Y444511D01*
X55615Y444838D01*
X57926Y445795D01*
X59911Y447318D01*
X61433Y449302D01*
X62391Y451614D01*
X62717Y454094D01*
X62391Y456573D01*
X61433Y458885D01*
X59911Y460869D01*
X57926Y462392D01*
X55615Y463349D01*
X53135Y463675D01*
D02*
G37*
G36*
X54405Y439157D02*
Y429963D01*
X63599D01*
X63404Y431445D01*
X62342Y434009D01*
X60652Y436211D01*
X58451Y437900D01*
X55887Y438962D01*
X54405Y439157D01*
D02*
G37*
G36*
X51865D02*
X50384Y438962D01*
X47820Y437900D01*
X45618Y436211D01*
X43928Y434009D01*
X42867Y431445D01*
X42671Y429963D01*
X51865D01*
Y439157D01*
D02*
G37*
G36*
X224514Y442193D02*
X222332Y441906D01*
X220299Y441064D01*
X218553Y439724D01*
X217213Y437978D01*
X216371Y435945D01*
X216084Y433763D01*
X216371Y431581D01*
X217213Y429548D01*
X218553Y427802D01*
X220299Y426463D01*
X222332Y425620D01*
X224514Y425333D01*
X226696Y425620D01*
X228729Y426463D01*
X230475Y427802D01*
X231815Y429548D01*
X232657Y431581D01*
X232944Y433763D01*
X232657Y435945D01*
X231815Y437978D01*
X230475Y439724D01*
X228729Y441064D01*
X226696Y441906D01*
X224514Y442193D01*
D02*
G37*
G36*
X152127D02*
X149945Y441906D01*
X147912Y441064D01*
X146166Y439724D01*
X144826Y437978D01*
X143984Y435945D01*
X143697Y433763D01*
X143984Y431581D01*
X144826Y429548D01*
X146166Y427802D01*
X147912Y426463D01*
X149945Y425620D01*
X152127Y425333D01*
X154309Y425620D01*
X156342Y426463D01*
X158088Y427802D01*
X159428Y429548D01*
X160270Y431581D01*
X160557Y433763D01*
X160270Y435945D01*
X159428Y437978D01*
X158088Y439724D01*
X156342Y441064D01*
X154309Y441906D01*
X152127Y442193D01*
D02*
G37*
G36*
X63599Y427424D02*
X54405D01*
Y418230D01*
X55887Y418425D01*
X58451Y419487D01*
X60652Y421176D01*
X62342Y423378D01*
X63404Y425942D01*
X63599Y427424D01*
D02*
G37*
G36*
X51865D02*
X42671D01*
X42867Y425942D01*
X43928Y423378D01*
X45618Y421176D01*
X47820Y419487D01*
X50384Y418425D01*
X51865Y418230D01*
Y427424D01*
D02*
G37*
G36*
X232872Y417121D02*
X216156D01*
Y400405D01*
X232872D01*
Y417121D01*
D02*
G37*
G36*
X160485D02*
X143769D01*
Y400405D01*
X160485D01*
Y417121D01*
D02*
G37*
G36*
X62635Y412794D02*
X43635D01*
Y393793D01*
X62635D01*
Y412794D01*
D02*
G37*
G36*
X41785Y352724D02*
X39436Y352414D01*
X37246Y351507D01*
X35366Y350065D01*
X33924Y348185D01*
X33017Y345995D01*
X32708Y343646D01*
X33017Y341297D01*
X33924Y339107D01*
X35366Y337227D01*
X37246Y335784D01*
X39436Y334878D01*
X41785Y334568D01*
X44135Y334878D01*
X46324Y335784D01*
X48204Y337227D01*
X49647Y339107D01*
X50553Y341297D01*
X50863Y343646D01*
X50553Y345995D01*
X49647Y348185D01*
X48204Y350065D01*
X46324Y351507D01*
X44135Y352414D01*
X41785Y352724D01*
D02*
G37*
G36*
Y327324D02*
X39436Y327014D01*
X37246Y326107D01*
X35366Y324665D01*
X33924Y322785D01*
X33017Y320595D01*
X32708Y318246D01*
X33017Y315896D01*
X33924Y313707D01*
X35366Y311827D01*
X37246Y310385D01*
X39436Y309478D01*
X41785Y309168D01*
X44135Y309478D01*
X46324Y310385D01*
X48204Y311827D01*
X49647Y313707D01*
X50553Y315896D01*
X50863Y318246D01*
X50553Y320595D01*
X49647Y322785D01*
X48204Y324665D01*
X46324Y326107D01*
X44135Y327014D01*
X41785Y327324D01*
D02*
G37*
G36*
X50785Y301846D02*
X32785D01*
Y283846D01*
X50785D01*
Y301846D01*
D02*
G37*
G36*
X41785Y255723D02*
X39436Y255413D01*
X37246Y254506D01*
X35366Y253064D01*
X33924Y251184D01*
X33017Y248994D01*
X32708Y246645D01*
X33017Y244296D01*
X33924Y242106D01*
X35366Y240226D01*
X37246Y238783D01*
X39436Y237877D01*
X41785Y237567D01*
X44135Y237877D01*
X46324Y238783D01*
X48204Y240226D01*
X49647Y242106D01*
X50553Y244296D01*
X50863Y246645D01*
X50553Y248994D01*
X49647Y251184D01*
X48204Y253064D01*
X46324Y254506D01*
X44135Y255413D01*
X41785Y255723D01*
D02*
G37*
G36*
Y230323D02*
X39436Y230013D01*
X37246Y229106D01*
X35366Y227664D01*
X33924Y225784D01*
X33017Y223594D01*
X32708Y221245D01*
X33017Y218895D01*
X33924Y216706D01*
X35366Y214826D01*
X37246Y213384D01*
X39436Y212477D01*
X41785Y212167D01*
X44135Y212477D01*
X46324Y213384D01*
X48204Y214826D01*
X49647Y216706D01*
X50553Y218895D01*
X50863Y221245D01*
X50553Y223594D01*
X49647Y225784D01*
X48204Y227664D01*
X46324Y229106D01*
X44135Y230013D01*
X41785Y230323D01*
D02*
G37*
G36*
X51825Y205885D02*
X43055D01*
Y197115D01*
X51825D01*
Y205885D01*
D02*
G37*
G36*
X40515D02*
X31745D01*
Y197115D01*
X40515D01*
Y205885D01*
D02*
G37*
G36*
X251841Y367410D02*
X83744D01*
X82596Y366935D01*
X82596Y366935D01*
X82121Y365787D01*
X82119Y198008D01*
X82584Y196885D01*
X82594Y196860D01*
X83742Y196384D01*
X83742Y196384D01*
X251841D01*
X252989Y196860D01*
X253464Y198008D01*
Y365787D01*
X252989Y366935D01*
X251841Y367410D01*
D02*
G37*
G36*
X51825Y194575D02*
X43055D01*
Y185805D01*
X51825D01*
Y194575D01*
D02*
G37*
G36*
X40515D02*
X31745D01*
Y185805D01*
X40515D01*
Y194575D01*
D02*
G37*
G36*
X396851Y166198D02*
X394501Y165889D01*
X392312Y164982D01*
X390432Y163539D01*
X388989Y161659D01*
X388082Y159470D01*
X387773Y157120D01*
X388082Y154771D01*
X388989Y152581D01*
X390432Y150701D01*
X392312Y149259D01*
X394501Y148352D01*
X396851Y148043D01*
X399200Y148352D01*
X401389Y149259D01*
X403269Y150701D01*
X404712Y152581D01*
X405619Y154771D01*
X405928Y157120D01*
X405619Y159470D01*
X404712Y161659D01*
X403269Y163539D01*
X401389Y164982D01*
X399200Y165889D01*
X396851Y166198D01*
D02*
G37*
G36*
X84394Y146503D02*
Y130314D01*
X93251D01*
Y136544D01*
X92906Y139164D01*
X91894Y141607D01*
X90285Y143704D01*
X88187Y145314D01*
X85745Y146325D01*
X84394Y146503D01*
D02*
G37*
G36*
X81854Y146503D02*
X80503Y146325D01*
X78061Y145314D01*
X75963Y143704D01*
X74354Y141607D01*
X73342Y139164D01*
X72997Y136544D01*
Y130314D01*
X81854D01*
Y146503D01*
D02*
G37*
G36*
X143124Y145621D02*
X140774Y145312D01*
X138585Y144405D01*
X136705Y142962D01*
X135262Y141082D01*
X134355Y138893D01*
X134046Y136544D01*
Y121544D01*
X134355Y119194D01*
X135262Y117005D01*
X136705Y115125D01*
X138585Y113682D01*
X140774Y112775D01*
X143124Y112466D01*
X145473Y112775D01*
X147663Y113682D01*
X149543Y115125D01*
X150985Y117005D01*
X151892Y119194D01*
X152201Y121544D01*
Y136544D01*
X151892Y138893D01*
X150985Y141082D01*
X149543Y142962D01*
X147663Y144405D01*
X145473Y145312D01*
X143124Y145621D01*
D02*
G37*
G36*
X81854Y127774D02*
X72997D01*
Y121544D01*
X73342Y118923D01*
X74354Y116480D01*
X75963Y114383D01*
X78061Y112774D01*
X80503Y111762D01*
X81854Y111584D01*
Y127774D01*
D02*
G37*
G36*
X93251D02*
X84394D01*
Y111584D01*
X85745Y111762D01*
X88187Y112774D01*
X90285Y114383D01*
X91894Y116480D01*
X92906Y118923D01*
X93251Y121544D01*
Y127774D01*
D02*
G37*
G36*
X405850Y125049D02*
X387850D01*
Y107050D01*
X405850D01*
Y125049D01*
D02*
G37*
G36*
X120624Y92170D02*
X114394D01*
Y83313D01*
X130583D01*
X130405Y84664D01*
X129394Y87107D01*
X127785Y89204D01*
X125687Y90813D01*
X123245Y91825D01*
X120624Y92170D01*
D02*
G37*
G36*
X111854D02*
X105624D01*
X103003Y91825D01*
X100561Y90813D01*
X98463Y89204D01*
X96854Y87107D01*
X95842Y84664D01*
X95665Y83313D01*
X111854D01*
Y92170D01*
D02*
G37*
G36*
X130583Y80773D02*
X114394D01*
Y71917D01*
X120624D01*
X123245Y72262D01*
X125687Y73274D01*
X127785Y74883D01*
X129394Y76980D01*
X130405Y79422D01*
X130583Y80773D01*
D02*
G37*
G36*
X111854D02*
X95665D01*
X95842Y79422D01*
X96854Y76980D01*
X98463Y74883D01*
X100561Y73274D01*
X103003Y72262D01*
X105624Y71917D01*
X111854D01*
Y80773D01*
D02*
G37*
G36*
X372032Y53322D02*
Y44511D01*
X380842D01*
X380660Y45894D01*
X379636Y48365D01*
X378008Y50488D01*
X375886Y52116D01*
X373414Y53140D01*
X372032Y53322D01*
D02*
G37*
G36*
X369492D02*
X368109Y53140D01*
X365638Y52116D01*
X363516Y50488D01*
X361887Y48365D01*
X360863Y45894D01*
X360681Y44511D01*
X369492D01*
Y53322D01*
D02*
G37*
G36*
X346632D02*
Y44511D01*
X355442D01*
X355260Y45894D01*
X354236Y48365D01*
X352608Y50488D01*
X350485Y52116D01*
X348014Y53140D01*
X346632Y53322D01*
D02*
G37*
G36*
X344092D02*
X342709Y53140D01*
X340238Y52116D01*
X338116Y50488D01*
X336487Y48365D01*
X335463Y45894D01*
X335281Y44511D01*
X344092D01*
Y53322D01*
D02*
G37*
G36*
X319962Y52440D02*
X317581Y52127D01*
X315362Y51208D01*
X313457Y49746D01*
X311995Y47841D01*
X311076Y45622D01*
X310763Y43241D01*
X311076Y40861D01*
X311995Y38642D01*
X313457Y36737D01*
X315362Y35275D01*
X317581Y34356D01*
X319962Y34043D01*
X322342Y34356D01*
X324561Y35275D01*
X326466Y36737D01*
X327928Y38642D01*
X328847Y40861D01*
X329160Y43241D01*
X328847Y45622D01*
X327928Y47841D01*
X326466Y49746D01*
X324561Y51208D01*
X322342Y52127D01*
X319962Y52440D01*
D02*
G37*
G36*
X294562D02*
X292181Y52127D01*
X289962Y51208D01*
X288057Y49746D01*
X286595Y47841D01*
X285676Y45622D01*
X285363Y43241D01*
X285676Y40861D01*
X286595Y38642D01*
X288057Y36737D01*
X289962Y35275D01*
X292181Y34356D01*
X294562Y34043D01*
X296943Y34356D01*
X299161Y35275D01*
X301066Y36737D01*
X302528Y38642D01*
X303447Y40861D01*
X303760Y43241D01*
X303447Y45622D01*
X302528Y47841D01*
X301066Y49746D01*
X299161Y51208D01*
X296943Y52127D01*
X294562Y52440D01*
D02*
G37*
G36*
X269162D02*
X266781Y52127D01*
X264562Y51208D01*
X262657Y49746D01*
X261195Y47841D01*
X260276Y45622D01*
X259963Y43241D01*
X260276Y40861D01*
X261195Y38642D01*
X262657Y36737D01*
X264562Y35275D01*
X266781Y34356D01*
X269162Y34043D01*
X271542Y34356D01*
X273761Y35275D01*
X275666Y36737D01*
X277128Y38642D01*
X278047Y40861D01*
X278360Y43241D01*
X278047Y45622D01*
X277128Y47841D01*
X275666Y49746D01*
X273761Y51208D01*
X271542Y52127D01*
X269162Y52440D01*
D02*
G37*
G36*
X243762D02*
X241381Y52127D01*
X239162Y51208D01*
X237257Y49746D01*
X235795Y47841D01*
X234876Y45622D01*
X234563Y43241D01*
X234876Y40861D01*
X235795Y38642D01*
X237257Y36737D01*
X239162Y35275D01*
X241381Y34356D01*
X243762Y34043D01*
X246143Y34356D01*
X248361Y35275D01*
X250266Y36737D01*
X251728Y38642D01*
X252647Y40861D01*
X252960Y43241D01*
X252647Y45622D01*
X251728Y47841D01*
X250266Y49746D01*
X248361Y51208D01*
X246143Y52127D01*
X243762Y52440D01*
D02*
G37*
G36*
X218362D02*
X215981Y52127D01*
X213762Y51208D01*
X211857Y49746D01*
X210395Y47841D01*
X209476Y45622D01*
X209163Y43241D01*
X209476Y40861D01*
X210395Y38642D01*
X211857Y36737D01*
X213762Y35275D01*
X215981Y34356D01*
X218362Y34043D01*
X220742Y34356D01*
X222961Y35275D01*
X224866Y36737D01*
X226328Y38642D01*
X227247Y40861D01*
X227560Y43241D01*
X227247Y45622D01*
X226328Y47841D01*
X224866Y49746D01*
X222961Y51208D01*
X220742Y52127D01*
X218362Y52440D01*
D02*
G37*
G36*
X192962D02*
X190581Y52127D01*
X188362Y51208D01*
X186457Y49746D01*
X184995Y47841D01*
X184076Y45622D01*
X183763Y43241D01*
X184076Y40861D01*
X184995Y38642D01*
X186457Y36737D01*
X188362Y35275D01*
X190581Y34356D01*
X192962Y34043D01*
X195343Y34356D01*
X197561Y35275D01*
X199466Y36737D01*
X200928Y38642D01*
X201847Y40861D01*
X202160Y43241D01*
X201847Y45622D01*
X200928Y47841D01*
X199466Y49746D01*
X197561Y51208D01*
X195343Y52127D01*
X192962Y52440D01*
D02*
G37*
G36*
X167562D02*
X165181Y52127D01*
X162962Y51208D01*
X161057Y49746D01*
X159595Y47841D01*
X158676Y45622D01*
X158363Y43241D01*
X158676Y40861D01*
X159595Y38642D01*
X161057Y36737D01*
X162962Y35275D01*
X165181Y34356D01*
X167562Y34043D01*
X169942Y34356D01*
X172161Y35275D01*
X174066Y36737D01*
X175528Y38642D01*
X176447Y40861D01*
X176760Y43241D01*
X176447Y45622D01*
X175528Y47841D01*
X174066Y49746D01*
X172161Y51208D01*
X169942Y52127D01*
X167562Y52440D01*
D02*
G37*
G36*
X142162D02*
X139781Y52127D01*
X137562Y51208D01*
X135657Y49746D01*
X134195Y47841D01*
X133276Y45622D01*
X132963Y43241D01*
X133276Y40861D01*
X134195Y38642D01*
X135657Y36737D01*
X137562Y35275D01*
X139781Y34356D01*
X142162Y34043D01*
X144543Y34356D01*
X146761Y35275D01*
X148666Y36737D01*
X150128Y38642D01*
X151047Y40861D01*
X151360Y43241D01*
X151047Y45622D01*
X150128Y47841D01*
X148666Y49746D01*
X146761Y51208D01*
X144543Y52127D01*
X142162Y52440D01*
D02*
G37*
G36*
X116762D02*
X114381Y52127D01*
X112162Y51208D01*
X110257Y49746D01*
X108795Y47841D01*
X107876Y45622D01*
X107563Y43241D01*
X107876Y40861D01*
X108795Y38642D01*
X110257Y36737D01*
X112162Y35275D01*
X114381Y34356D01*
X116762Y34043D01*
X119143Y34356D01*
X121361Y35275D01*
X123266Y36737D01*
X124728Y38642D01*
X125647Y40861D01*
X125960Y43241D01*
X125647Y45622D01*
X124728Y47841D01*
X123266Y49746D01*
X121361Y51208D01*
X119143Y52127D01*
X116762Y52440D01*
D02*
G37*
G36*
X91362D02*
X88981Y52127D01*
X86762Y51208D01*
X84857Y49746D01*
X83395Y47841D01*
X82476Y45622D01*
X82163Y43241D01*
X82476Y40861D01*
X83395Y38642D01*
X84857Y36737D01*
X86762Y35275D01*
X88981Y34356D01*
X91362Y34043D01*
X93743Y34356D01*
X95961Y35275D01*
X97866Y36737D01*
X99328Y38642D01*
X100247Y40861D01*
X100560Y43241D01*
X100247Y45622D01*
X99328Y47841D01*
X97866Y49746D01*
X95961Y51208D01*
X93743Y52127D01*
X91362Y52440D01*
D02*
G37*
G36*
X380842Y41971D02*
X372032D01*
Y33161D01*
X373414Y33343D01*
X375886Y34367D01*
X378008Y35995D01*
X379636Y38117D01*
X380660Y40589D01*
X380842Y41971D01*
D02*
G37*
G36*
X369492D02*
X360681D01*
X360863Y40589D01*
X361887Y38117D01*
X363516Y35995D01*
X365638Y34367D01*
X368109Y33343D01*
X369492Y33161D01*
Y41971D01*
D02*
G37*
G36*
X355442D02*
X346632D01*
Y33161D01*
X348014Y33343D01*
X350485Y34367D01*
X352608Y35995D01*
X354236Y38117D01*
X355260Y40589D01*
X355442Y41971D01*
D02*
G37*
G36*
X344092D02*
X335281D01*
X335463Y40589D01*
X336487Y38117D01*
X338116Y35995D01*
X340238Y34367D01*
X342709Y33343D01*
X344092Y33161D01*
Y41971D01*
D02*
G37*
G36*
X372032Y27922D02*
Y19111D01*
X380842D01*
X380660Y20494D01*
X379636Y22965D01*
X378008Y25088D01*
X375886Y26716D01*
X373414Y27740D01*
X372032Y27922D01*
D02*
G37*
G36*
X369492D02*
X368109Y27740D01*
X365638Y26716D01*
X363516Y25088D01*
X361887Y22965D01*
X360863Y20494D01*
X360681Y19111D01*
X369492D01*
Y27922D01*
D02*
G37*
G36*
X346632D02*
Y19111D01*
X355442D01*
X355260Y20494D01*
X354236Y22965D01*
X352608Y25088D01*
X350485Y26716D01*
X348014Y27740D01*
X346632Y27922D01*
D02*
G37*
G36*
X344092D02*
X342709Y27740D01*
X340238Y26716D01*
X338116Y25088D01*
X336487Y22965D01*
X335463Y20494D01*
X335281Y19111D01*
X344092D01*
Y27922D01*
D02*
G37*
G36*
X319962Y27040D02*
X317581Y26727D01*
X315362Y25808D01*
X313457Y24346D01*
X311995Y22441D01*
X311076Y20222D01*
X310763Y17841D01*
X311076Y15461D01*
X311995Y13242D01*
X313457Y11337D01*
X315362Y9875D01*
X317581Y8956D01*
X319962Y8643D01*
X322342Y8956D01*
X324561Y9875D01*
X326466Y11337D01*
X327928Y13242D01*
X328847Y15461D01*
X329160Y17841D01*
X328847Y20222D01*
X327928Y22441D01*
X326466Y24346D01*
X324561Y25808D01*
X322342Y26727D01*
X319962Y27040D01*
D02*
G37*
G36*
X294562D02*
X292181Y26727D01*
X289962Y25808D01*
X288057Y24346D01*
X286595Y22441D01*
X285676Y20222D01*
X285363Y17841D01*
X285676Y15461D01*
X286595Y13242D01*
X288057Y11337D01*
X289962Y9875D01*
X292181Y8956D01*
X294562Y8643D01*
X296943Y8956D01*
X299161Y9875D01*
X301066Y11337D01*
X302528Y13242D01*
X303447Y15461D01*
X303760Y17841D01*
X303447Y20222D01*
X302528Y22441D01*
X301066Y24346D01*
X299161Y25808D01*
X296943Y26727D01*
X294562Y27040D01*
D02*
G37*
G36*
X269162D02*
X266781Y26727D01*
X264562Y25808D01*
X262657Y24346D01*
X261195Y22441D01*
X260276Y20222D01*
X259963Y17841D01*
X260276Y15461D01*
X261195Y13242D01*
X262657Y11337D01*
X264562Y9875D01*
X266781Y8956D01*
X269162Y8643D01*
X271542Y8956D01*
X273761Y9875D01*
X275666Y11337D01*
X277128Y13242D01*
X278047Y15461D01*
X278360Y17841D01*
X278047Y20222D01*
X277128Y22441D01*
X275666Y24346D01*
X273761Y25808D01*
X271542Y26727D01*
X269162Y27040D01*
D02*
G37*
G36*
X243762D02*
X241381Y26727D01*
X239162Y25808D01*
X237257Y24346D01*
X235795Y22441D01*
X234876Y20222D01*
X234563Y17841D01*
X234876Y15461D01*
X235795Y13242D01*
X237257Y11337D01*
X239162Y9875D01*
X241381Y8956D01*
X243762Y8643D01*
X246143Y8956D01*
X248361Y9875D01*
X250266Y11337D01*
X251728Y13242D01*
X252647Y15461D01*
X252960Y17841D01*
X252647Y20222D01*
X251728Y22441D01*
X250266Y24346D01*
X248361Y25808D01*
X246143Y26727D01*
X243762Y27040D01*
D02*
G37*
G36*
X218362D02*
X215981Y26727D01*
X213762Y25808D01*
X211857Y24346D01*
X210395Y22441D01*
X209476Y20222D01*
X209163Y17841D01*
X209476Y15461D01*
X210395Y13242D01*
X211857Y11337D01*
X213762Y9875D01*
X215981Y8956D01*
X218362Y8643D01*
X220742Y8956D01*
X222961Y9875D01*
X224866Y11337D01*
X226328Y13242D01*
X227247Y15461D01*
X227560Y17841D01*
X227247Y20222D01*
X226328Y22441D01*
X224866Y24346D01*
X222961Y25808D01*
X220742Y26727D01*
X218362Y27040D01*
D02*
G37*
G36*
X192962D02*
X190581Y26727D01*
X188362Y25808D01*
X186457Y24346D01*
X184995Y22441D01*
X184076Y20222D01*
X183763Y17841D01*
X184076Y15461D01*
X184995Y13242D01*
X186457Y11337D01*
X188362Y9875D01*
X190581Y8956D01*
X192962Y8643D01*
X195343Y8956D01*
X197561Y9875D01*
X199466Y11337D01*
X200928Y13242D01*
X201847Y15461D01*
X202160Y17841D01*
X201847Y20222D01*
X200928Y22441D01*
X199466Y24346D01*
X197561Y25808D01*
X195343Y26727D01*
X192962Y27040D01*
D02*
G37*
G36*
X167562D02*
X165181Y26727D01*
X162962Y25808D01*
X161057Y24346D01*
X159595Y22441D01*
X158676Y20222D01*
X158363Y17841D01*
X158676Y15461D01*
X159595Y13242D01*
X161057Y11337D01*
X162962Y9875D01*
X165181Y8956D01*
X167562Y8643D01*
X169942Y8956D01*
X172161Y9875D01*
X174066Y11337D01*
X175528Y13242D01*
X176447Y15461D01*
X176760Y17841D01*
X176447Y20222D01*
X175528Y22441D01*
X174066Y24346D01*
X172161Y25808D01*
X169942Y26727D01*
X167562Y27040D01*
D02*
G37*
G36*
X142162D02*
X139781Y26727D01*
X137562Y25808D01*
X135657Y24346D01*
X134195Y22441D01*
X133276Y20222D01*
X132963Y17841D01*
X133276Y15461D01*
X134195Y13242D01*
X135657Y11337D01*
X137562Y9875D01*
X139781Y8956D01*
X142162Y8643D01*
X144543Y8956D01*
X146761Y9875D01*
X148666Y11337D01*
X150128Y13242D01*
X151047Y15461D01*
X151360Y17841D01*
X151047Y20222D01*
X150128Y22441D01*
X148666Y24346D01*
X146761Y25808D01*
X144543Y26727D01*
X142162Y27040D01*
D02*
G37*
G36*
X116762D02*
X114381Y26727D01*
X112162Y25808D01*
X110257Y24346D01*
X108795Y22441D01*
X107876Y20222D01*
X107563Y17841D01*
X107876Y15461D01*
X108795Y13242D01*
X110257Y11337D01*
X112162Y9875D01*
X114381Y8956D01*
X116762Y8643D01*
X119143Y8956D01*
X121361Y9875D01*
X123266Y11337D01*
X124728Y13242D01*
X125647Y15461D01*
X125960Y17841D01*
X125647Y20222D01*
X124728Y22441D01*
X123266Y24346D01*
X121361Y25808D01*
X119143Y26727D01*
X116762Y27040D01*
D02*
G37*
G36*
X91362D02*
X88981Y26727D01*
X86762Y25808D01*
X84857Y24346D01*
X83395Y22441D01*
X82476Y20222D01*
X82163Y17841D01*
X82476Y15461D01*
X83395Y13242D01*
X84857Y11337D01*
X86762Y9875D01*
X88981Y8956D01*
X91362Y8643D01*
X93743Y8956D01*
X95961Y9875D01*
X97866Y11337D01*
X99328Y13242D01*
X100247Y15461D01*
X100560Y17841D01*
X100247Y20222D01*
X99328Y22441D01*
X97866Y24346D01*
X95961Y25808D01*
X93743Y26727D01*
X91362Y27040D01*
D02*
G37*
G36*
X380842Y16571D02*
X372032D01*
Y7761D01*
X373414Y7943D01*
X375886Y8967D01*
X378008Y10595D01*
X379636Y12717D01*
X380660Y15189D01*
X380842Y16571D01*
D02*
G37*
G36*
X369492D02*
X360681D01*
X360863Y15189D01*
X361887Y12717D01*
X363516Y10595D01*
X365638Y8967D01*
X368109Y7943D01*
X369492Y7761D01*
Y16571D01*
D02*
G37*
G36*
X355442D02*
X346632D01*
Y7761D01*
X348014Y7943D01*
X350485Y8967D01*
X352608Y10595D01*
X354236Y12717D01*
X355260Y15189D01*
X355442Y16571D01*
D02*
G37*
G36*
X344092D02*
X335281D01*
X335463Y15189D01*
X336487Y12717D01*
X338116Y10595D01*
X340238Y8967D01*
X342709Y7943D01*
X344092Y7761D01*
Y16571D01*
D02*
G37*
%LPD*%
G36*
X251841Y198008D02*
X83742D01*
X83744Y365787D01*
X251841D01*
Y198008D01*
D02*
G37*
D50*
X152127Y433763D02*
D03*
Y458763D02*
D03*
X224514Y433763D02*
D03*
Y458763D02*
D03*
D51*
X152127Y408763D02*
D03*
X224514D02*
D03*
D66*
X53135Y454094D02*
D03*
Y428694D02*
D03*
D67*
Y403293D02*
D03*
D68*
X41785Y195845D02*
D03*
Y292846D02*
D03*
X396851Y116049D02*
D03*
D69*
X41785Y221245D02*
D03*
Y246645D02*
D03*
Y318246D02*
D03*
Y343646D02*
D03*
X396851Y157120D02*
D03*
D70*
X370762Y525841D02*
D03*
X345362D02*
D03*
X319962D02*
D03*
X294562D02*
D03*
X269162D02*
D03*
X243762D02*
D03*
X218362D02*
D03*
X192962D02*
D03*
X167562D02*
D03*
X142162D02*
D03*
X116762D02*
D03*
X91362D02*
D03*
X370762Y500441D02*
D03*
X345362D02*
D03*
X319962D02*
D03*
X294562D02*
D03*
X269162D02*
D03*
X243762D02*
D03*
X218362D02*
D03*
X192962D02*
D03*
X167562D02*
D03*
X142162D02*
D03*
X116762D02*
D03*
X91362D02*
D03*
Y17841D02*
D03*
X116762D02*
D03*
X142162D02*
D03*
X167562D02*
D03*
X192962D02*
D03*
X218362D02*
D03*
X243762D02*
D03*
X269162D02*
D03*
X294562D02*
D03*
X319962D02*
D03*
X345362D02*
D03*
X370762D02*
D03*
X91362Y43241D02*
D03*
X142162D02*
D03*
X167562D02*
D03*
X192962D02*
D03*
X218362D02*
D03*
X243762D02*
D03*
X269162D02*
D03*
X294562D02*
D03*
X319962D02*
D03*
X345362D02*
D03*
X370762D02*
D03*
X116762D02*
D03*
D71*
X143124Y129044D02*
D03*
X83124D02*
D03*
D72*
X113124Y82043D02*
D03*
D73*
X155100Y274828D02*
D03*
X394097Y266099D02*
D03*
X394051Y277638D02*
D03*
Y289088D02*
D03*
X166380Y291068D02*
D03*
X176117Y274838D02*
D03*
D74*
X325686Y422291D02*
D03*
X335883Y472102D02*
D03*
X420537Y436298D02*
D03*
X277386Y438055D02*
D03*
X468254Y480534D02*
D03*
X416678Y486613D02*
D03*
X254540Y127254D02*
D03*
X281635Y61831D02*
D03*
X325568Y64650D02*
D03*
X348713Y116226D02*
D03*
X373751Y156145D02*
D03*
X406757Y72413D02*
D03*
D75*
X383111Y130979D02*
D03*
M02*
