M48
;Layer_Color=9474304
;FILE_FORMAT=2:4
METRIC,LZ
;TYPE=PLATED
T1F00S00C0.3500
T2F00S00C0.7620
T3F00S00C0.8499
T4F00S00C0.8636
T5F00S00C0.8890
T6F00S00C0.8900
T7F00S00C0.9144
T8F00S00C1.0000
T9F00S00C1.0701
T10F00S00C2.6700
%
T01
X158496Y125707
X181356Y127231
X3429Y130279
X368808Y119611
X3429Y185143
X28956Y224767
X199644Y310111
X16764Y299443
X146304
X43434Y200383
T02
X328422Y038585
X358394
T03
X370586Y318493
X482346
T04
X12573Y107927
Y157965
T05
X368173Y251945
Y285473
X482473
Y251945
T06
X268478Y347957
X293878
T07
X108204Y025123
X133604
X159004
X184404
X216916Y052047
X274828
X26543Y388343
X29083
X472694Y222481
Y197081
X289052Y515089
X263652
T08
X025146Y02413
X050546
Y04953
X025146
Y07493
Y10033
X050546
Y07493
Y12573
X025146
Y15113
X050546
Y17653
Y20193
Y22733
Y25273
Y27813
Y30353
Y32893
Y35433
Y37973
X025146
Y35433
Y32893
Y30353
Y27813
Y25273
Y22733
Y20193
Y17653
X428498Y140198
Y079197
X476499Y109197
X507746Y10033
X533146
Y07493
Y04953
Y02413
X507746
Y04953
Y07493
Y12573
X533146
Y15113
X507746
Y17653
Y20193
Y22733
Y25273
Y27813
Y30353
Y32893
Y35433
Y37973
X533146
Y35433
Y32893
Y30353
Y27813
Y25273
Y22733
Y20193
Y17653
Y40513
Y43053
Y45593
X507746
Y43053
Y40513
X050546
Y43053
Y45593
X025146
Y43053
Y40513
T09
X33655Y234673
Y260073
Y285473
Y310873
T10
X4064Y466575
X1524
M30
