G04*
G04 #@! TF.GenerationSoftware,Altium Limited,Altium Designer,22.8.2 (66)*
G04*
G04 Layer_Color=8388736*
%FSLAX44Y44*%
%MOMM*%
G71*
G04*
G04 #@! TF.SameCoordinates,DB24DA2D-5A1C-4FC3-BAC6-6F5E0011B9E5*
G04*
G04*
G04 #@! TF.FilePolarity,Negative*
G04*
G01*
G75*
%ADD32R,1.3716X0.5588*%
G04:AMPARAMS|DCode=33|XSize=1.4732mm|YSize=1.4732mm|CornerRadius=0.7366mm|HoleSize=0mm|Usage=FLASHONLY|Rotation=0.000|XOffset=0mm|YOffset=0mm|HoleType=Round|Shape=RoundedRectangle|*
%AMROUNDEDRECTD33*
21,1,1.4732,0.0000,0,0,0.0*
21,1,0.0000,1.4732,0,0,0.0*
1,1,1.4732,0.0000,0.0000*
1,1,1.4732,0.0000,0.0000*
1,1,1.4732,0.0000,0.0000*
1,1,1.4732,0.0000,0.0000*
%
%ADD33ROUNDEDRECTD33*%
%ADD34R,1.3089X2.7033*%
%ADD35R,0.7620X3.8100*%
%ADD36R,1.9032X2.5532*%
%ADD37R,1.4986X1.7018*%
%ADD38R,1.7018X1.4986*%
%ADD39R,1.4031X1.0033*%
%ADD40R,2.5331X1.7633*%
%ADD41R,1.6637X0.7366*%
%ADD42R,2.0033X3.4031*%
%ADD43R,2.0033X1.1031*%
%ADD44R,3.2004X3.3020*%
%ADD45R,1.6256X0.5588*%
%ADD46R,10.6680X10.6172*%
%ADD47R,2.8956X1.2192*%
%ADD48O,1.6256X3.0480*%
%ADD49C,1.6012*%
%ADD50R,1.6012X1.6012*%
%ADD51O,3.0480X1.6256*%
%ADD52C,1.8084*%
%ADD53R,1.8084X1.8084*%
%ADD54C,1.6002*%
%ADD55R,1.6002X1.6002*%
%ADD56C,1.6256*%
%ADD57R,1.6256X1.6256*%
%ADD58C,4.2083*%
%ADD59C,1.4732*%
%ADD60R,1.4732X1.4732*%
%ADD61C,1.5748*%
%ADD62O,2.2032X4.2032*%
%ADD63O,4.2032X2.2032*%
%ADD64C,1.7112*%
%ADD65C,0.5532*%
D32*
X484251Y158577D02*
D03*
Y165077D02*
D03*
Y171577D02*
D03*
X464693D02*
D03*
Y165077D02*
D03*
Y158577D02*
D03*
D33*
X444754Y179047D02*
D03*
X154178Y323827D02*
D03*
X190500Y324081D02*
D03*
X166370Y85829D02*
D03*
D34*
X306128Y306555D02*
D03*
X278072D02*
D03*
D35*
X259207Y308079D02*
D03*
X208661D02*
D03*
D36*
X359410Y137302D02*
D03*
Y94300D02*
D03*
D37*
X377444Y225529D02*
D03*
X396240D02*
D03*
X420370Y224767D02*
D03*
X439166D02*
D03*
X107696Y254993D02*
D03*
X88900D02*
D03*
X107188Y279631D02*
D03*
X88392D02*
D03*
X107442Y305285D02*
D03*
X88646D02*
D03*
D38*
X303276Y242547D02*
D03*
Y223751D02*
D03*
X193040Y235181D02*
D03*
Y216385D02*
D03*
X126492Y232387D02*
D03*
Y213591D02*
D03*
X306324Y91417D02*
D03*
Y72621D02*
D03*
X95250Y232133D02*
D03*
Y213337D02*
D03*
D39*
X79248Y61590D02*
D03*
Y79588D02*
D03*
X80772Y36154D02*
D03*
Y18156D02*
D03*
X159512Y213736D02*
D03*
Y231734D02*
D03*
D40*
X155765Y60683D02*
D03*
X112966D02*
D03*
D41*
X185991Y300713D02*
D03*
Y288013D02*
D03*
Y275313D02*
D03*
Y262613D02*
D03*
X131509D02*
D03*
Y275313D02*
D03*
Y288013D02*
D03*
Y300713D02*
D03*
D42*
X277904Y246357D02*
D03*
D43*
X217904Y223357D02*
D03*
Y246357D02*
D03*
Y269357D02*
D03*
D44*
X390398Y187937D02*
D03*
D45*
X418846Y207437D02*
D03*
Y200937D02*
D03*
Y194437D02*
D03*
Y187937D02*
D03*
Y181437D02*
D03*
Y174937D02*
D03*
Y168438D02*
D03*
X361950D02*
D03*
Y174937D02*
D03*
Y181437D02*
D03*
Y187937D02*
D03*
Y194437D02*
D03*
Y200937D02*
D03*
Y207437D02*
D03*
D46*
X284480Y156187D02*
D03*
D47*
X200152Y122151D02*
D03*
Y139169D02*
D03*
Y156187D02*
D03*
Y173205D02*
D03*
Y190223D02*
D03*
D48*
X184404Y25123D02*
D03*
X159004D02*
D03*
X133604D02*
D03*
X108204D02*
D03*
X289052Y515089D02*
D03*
X263652D02*
D03*
X290830Y388343D02*
D03*
X265430D02*
D03*
D49*
X293878Y347957D02*
D03*
D50*
X268478D02*
D03*
D51*
X472694Y222481D02*
D03*
Y197081D02*
D03*
D52*
X336550Y310873D02*
D03*
Y285473D02*
D03*
Y260073D02*
D03*
D53*
Y234673D02*
D03*
D54*
X482473Y285473D02*
D03*
Y251945D02*
D03*
D55*
X368173Y285473D02*
D03*
Y251945D02*
D03*
D56*
X482346Y318493D02*
D03*
X274828Y52047D02*
D03*
D57*
X370586Y318493D02*
D03*
X216916Y52047D02*
D03*
D58*
X152400Y466575D02*
D03*
X406400D02*
D03*
D59*
X358394Y38585D02*
D03*
D60*
X328422D02*
D03*
D61*
X125730Y107927D02*
D03*
Y157965D02*
D03*
D62*
X476499Y109197D02*
D03*
D63*
X428498Y79197D02*
D03*
Y140198D02*
D03*
D64*
X507746Y24130D02*
D03*
X533146D02*
D03*
X507746Y49530D02*
D03*
X533146D02*
D03*
X507746Y100330D02*
D03*
X533146D02*
D03*
X507746Y74930D02*
D03*
X533146D02*
D03*
X25146Y24130D02*
D03*
X50546D02*
D03*
X25146Y49530D02*
D03*
X50546D02*
D03*
X25146Y100330D02*
D03*
X50546D02*
D03*
X25146Y74930D02*
D03*
X50546D02*
D03*
X507746Y125730D02*
D03*
X533146D02*
D03*
X507746Y151130D02*
D03*
X533146D02*
D03*
X25146Y125730D02*
D03*
X50546D02*
D03*
X25146Y151130D02*
D03*
X50546D02*
D03*
X507746Y455930D02*
D03*
X533146D02*
D03*
X507746Y430530D02*
D03*
X533146D02*
D03*
X507746Y405130D02*
D03*
X533146D02*
D03*
X507746Y379730D02*
D03*
X533146D02*
D03*
X507746Y354330D02*
D03*
X533146D02*
D03*
X507746Y328930D02*
D03*
X533146D02*
D03*
X507746Y303530D02*
D03*
X533146D02*
D03*
X507746Y278130D02*
D03*
X533146D02*
D03*
X507746Y252730D02*
D03*
X533146D02*
D03*
X507746Y227330D02*
D03*
X533146D02*
D03*
X507746Y201930D02*
D03*
X533146D02*
D03*
X507746Y176530D02*
D03*
X533146D02*
D03*
X25146Y455930D02*
D03*
X50546D02*
D03*
X25146Y430530D02*
D03*
X50546D02*
D03*
X25146Y405130D02*
D03*
X50546D02*
D03*
X25146Y379730D02*
D03*
X50546D02*
D03*
X25146Y354330D02*
D03*
X50546D02*
D03*
X25146Y328930D02*
D03*
X50546D02*
D03*
X25146Y303530D02*
D03*
X50546D02*
D03*
X25146Y278130D02*
D03*
X50546D02*
D03*
X25146Y252730D02*
D03*
X50546D02*
D03*
X25146Y227330D02*
D03*
X50546D02*
D03*
X25146Y201930D02*
D03*
X50546D02*
D03*
X25146Y176530D02*
D03*
X50546D02*
D03*
D65*
X342900Y185143D02*
D03*
X289560Y224767D02*
D03*
X342900Y130279D02*
D03*
X368808Y119611D02*
D03*
X158496Y125707D02*
D03*
X199644Y310111D02*
D03*
X434340Y200383D02*
D03*
X181356Y127231D02*
D03*
X146304Y299443D02*
D03*
X167640D02*
D03*
M02*
