G04*
G04 #@! TF.GenerationSoftware,Altium Limited,Altium Designer,22.8.2 (66)*
G04*
G04 Layer_Physical_Order=2*
G04 Layer_Color=16711680*
%FSLAX44Y44*%
%MOMM*%
G71*
G04*
G04 #@! TF.SameCoordinates,DB24DA2D-5A1C-4FC3-BAC6-6F5E0011B9E5*
G04*
G04*
G04 #@! TF.FilePolarity,Positive*
G04*
G01*
G75*
%ADD66C,0.1524*%
%ADD67O,1.4224X2.8448*%
%ADD68C,1.3980*%
%ADD69R,1.3980X1.3980*%
%ADD70O,2.8448X1.4224*%
%ADD71C,1.6052*%
%ADD72R,1.6052X1.6052*%
%ADD73C,1.3970*%
%ADD74R,1.3970X1.3970*%
%ADD75C,1.4224*%
%ADD76R,1.4224X1.4224*%
%ADD77C,4.0051*%
%ADD78C,1.2700*%
%ADD79R,1.2700X1.2700*%
%ADD80C,1.3716*%
%ADD81O,2.0000X4.0000*%
%ADD82O,4.0000X2.0000*%
%ADD83C,1.5080*%
%ADD84C,0.7564*%
D66*
X336550Y234673D02*
X336804Y235435D01*
X367284Y284203D02*
X368173Y285473D01*
X336804Y235435D02*
Y238483D01*
X367284Y268963D01*
Y284203D01*
X336550Y234673D02*
X336804Y233911D01*
X342900Y227815D01*
Y185143D02*
Y227815D01*
X335280Y259819D02*
X336550Y260073D01*
X300228Y224767D02*
X335280Y259819D01*
X289560Y224767D02*
X300228D01*
X336550Y285473D02*
X336804Y284203D01*
X370332Y317731D02*
X370586Y318493D01*
X336804Y284203D02*
X370332Y317731D01*
X335280Y310111D02*
X336550Y310873D01*
X326136Y300967D02*
X335280Y310111D01*
X326136Y281155D02*
Y300967D01*
Y281155D02*
X332232Y275059D01*
X336804D01*
X347472Y264391D01*
Y255247D02*
Y264391D01*
X341376Y249151D02*
X347472Y255247D01*
X330708Y249151D02*
X341376D01*
X326136Y244579D02*
X330708Y249151D01*
X326136Y192763D02*
Y244579D01*
Y192763D02*
X342900Y175999D01*
Y130279D02*
Y175999D01*
X108204Y104371D02*
X115824Y111991D01*
X108204Y25123D02*
Y104371D01*
X50546Y455930D02*
X51816Y454891D01*
X115824Y127231D02*
X123444Y119611D01*
X115824Y127231D02*
Y380215D01*
X51816Y444223D02*
X115824Y380215D01*
X51816Y444223D02*
Y454891D01*
X115824Y111991D02*
X123444Y119611D01*
X368808D01*
X125730Y157965D02*
X126492Y157711D01*
X158496Y125707D01*
X199644Y310111D02*
X246888Y357355D01*
X350520D01*
X434340Y273535D01*
Y200383D02*
Y273535D01*
X125730Y157965D02*
X126492Y159235D01*
Y288775D01*
X147828Y310111D01*
X199644D01*
X472440Y197335D02*
X472694Y197081D01*
X469392Y200383D02*
X472440Y197335D01*
X434340Y200383D02*
X469392D01*
X428498Y140198D02*
X429768Y139423D01*
X451104Y118087D01*
Y73891D02*
Y118087D01*
X402336Y25123D02*
X451104Y73891D01*
X184404Y25123D02*
X402336D01*
X274828Y52047D02*
X275844Y51031D01*
X327660Y38839D02*
X328422Y38585D01*
X275844Y51031D02*
X288036Y38839D01*
X327660D01*
X167640Y140947D02*
X181356Y127231D01*
X167640Y140947D02*
Y299443D01*
X146304D02*
X167640D01*
X428244Y79987D02*
X428498Y79197D01*
X382524Y125707D02*
X428244Y79987D01*
X365760Y125707D02*
X382524D01*
X364236Y124183D02*
X365760Y125707D01*
X339852Y124183D02*
X364236D01*
X295656Y168379D02*
X339852Y124183D01*
X268224Y168379D02*
X295656D01*
X268224Y346687D02*
X268478Y347957D01*
X268224Y168379D02*
Y346687D01*
X125730Y107927D02*
X126492Y107419D01*
X156972Y76939D01*
D67*
X184404Y25123D02*
D03*
X159004D02*
D03*
X133604D02*
D03*
X108204D02*
D03*
X289052Y515089D02*
D03*
X263652D02*
D03*
X290830Y388343D02*
D03*
X265430D02*
D03*
D68*
X293878Y347957D02*
D03*
D69*
X268478D02*
D03*
D70*
X472694Y222481D02*
D03*
Y197081D02*
D03*
D71*
X336550Y310873D02*
D03*
Y285473D02*
D03*
Y260073D02*
D03*
D72*
Y234673D02*
D03*
D73*
X482473Y285473D02*
D03*
Y251945D02*
D03*
D74*
X368173Y285473D02*
D03*
Y251945D02*
D03*
D75*
X482346Y318493D02*
D03*
X274828Y52047D02*
D03*
D76*
X370586Y318493D02*
D03*
X216916Y52047D02*
D03*
D77*
X152400Y466575D02*
D03*
X406400D02*
D03*
D78*
X358394Y38585D02*
D03*
D79*
X328422D02*
D03*
D80*
X125730Y107927D02*
D03*
Y157965D02*
D03*
D81*
X476499Y109197D02*
D03*
D82*
X428498Y79197D02*
D03*
Y140198D02*
D03*
D83*
X507746Y24130D02*
D03*
X533146D02*
D03*
X507746Y49530D02*
D03*
X533146D02*
D03*
X507746Y100330D02*
D03*
X533146D02*
D03*
X507746Y74930D02*
D03*
X533146D02*
D03*
X25146Y24130D02*
D03*
X50546D02*
D03*
X25146Y49530D02*
D03*
X50546D02*
D03*
X25146Y100330D02*
D03*
X50546D02*
D03*
X25146Y74930D02*
D03*
X50546D02*
D03*
X507746Y125730D02*
D03*
X533146D02*
D03*
X507746Y151130D02*
D03*
X533146D02*
D03*
X25146Y125730D02*
D03*
X50546D02*
D03*
X25146Y151130D02*
D03*
X50546D02*
D03*
X507746Y455930D02*
D03*
X533146D02*
D03*
X507746Y430530D02*
D03*
X533146D02*
D03*
X507746Y405130D02*
D03*
X533146D02*
D03*
X507746Y379730D02*
D03*
X533146D02*
D03*
X507746Y354330D02*
D03*
X533146D02*
D03*
X507746Y328930D02*
D03*
X533146D02*
D03*
X507746Y303530D02*
D03*
X533146D02*
D03*
X507746Y278130D02*
D03*
X533146D02*
D03*
X507746Y252730D02*
D03*
X533146D02*
D03*
X507746Y227330D02*
D03*
X533146D02*
D03*
X507746Y201930D02*
D03*
X533146D02*
D03*
X507746Y176530D02*
D03*
X533146D02*
D03*
X25146Y455930D02*
D03*
X50546D02*
D03*
X25146Y430530D02*
D03*
X50546D02*
D03*
X25146Y405130D02*
D03*
X50546D02*
D03*
X25146Y379730D02*
D03*
X50546D02*
D03*
X25146Y354330D02*
D03*
X50546D02*
D03*
X25146Y328930D02*
D03*
X50546D02*
D03*
X25146Y303530D02*
D03*
X50546D02*
D03*
X25146Y278130D02*
D03*
X50546D02*
D03*
X25146Y252730D02*
D03*
X50546D02*
D03*
X25146Y227330D02*
D03*
X50546D02*
D03*
X25146Y201930D02*
D03*
X50546D02*
D03*
X25146Y176530D02*
D03*
X50546D02*
D03*
D84*
X342900Y185143D02*
D03*
X289560Y224767D02*
D03*
X342900Y130279D02*
D03*
X368808Y119611D02*
D03*
X158496Y125707D02*
D03*
X199644Y310111D02*
D03*
X434340Y200383D02*
D03*
X181356Y127231D02*
D03*
X146304Y299443D02*
D03*
X167640D02*
D03*
M02*
