G04*
G04 #@! TF.GenerationSoftware,Altium Limited,Altium Designer,22.8.2 (66)*
G04*
G04 Layer_Color=255*
%FSLAX44Y44*%
%MOMM*%
G71*
G04*
G04 #@! TF.SameCoordinates,DB24DA2D-5A1C-4FC3-BAC6-6F5E0011B9E5*
G04*
G04*
G04 #@! TF.FilePolarity,Positive*
G04*
G01*
G75*
%ADD16R,1.1684X0.3556*%
G04:AMPARAMS|DCode=17|XSize=1.27mm|YSize=1.27mm|CornerRadius=0.635mm|HoleSize=0mm|Usage=FLASHONLY|Rotation=0.000|XOffset=0mm|YOffset=0mm|HoleType=Round|Shape=RoundedRectangle|*
%AMROUNDEDRECTD17*
21,1,1.2700,0.0000,0,0,0.0*
21,1,0.0000,1.2700,0,0,0.0*
1,1,1.2700,0.0000,0.0000*
1,1,1.2700,0.0000,0.0000*
1,1,1.2700,0.0000,0.0000*
1,1,1.2700,0.0000,0.0000*
%
%ADD17ROUNDEDRECTD17*%
%ADD18R,1.1057X2.5001*%
%ADD19R,0.5588X3.6068*%
%ADD20R,1.7000X2.3500*%
%ADD21R,1.2954X1.4986*%
%ADD22R,1.4986X1.2954*%
%ADD23R,1.1999X0.8001*%
%ADD24R,2.3299X1.5601*%
%ADD25R,1.4605X0.5334*%
%ADD26R,1.8001X3.1999*%
%ADD27R,1.8001X0.8999*%
%ADD28R,2.9972X3.0988*%
%ADD29R,1.4224X0.3556*%
%ADD30R,10.4648X10.4140*%
%ADD31R,2.6924X1.0160*%
%ADD67O,1.4224X2.8448*%
%ADD68C,1.3980*%
%ADD69R,1.3980X1.3980*%
%ADD70O,2.8448X1.4224*%
%ADD71C,1.6052*%
%ADD72R,1.6052X1.6052*%
%ADD73C,1.3970*%
%ADD74R,1.3970X1.3970*%
%ADD75C,1.4224*%
%ADD76R,1.4224X1.4224*%
%ADD77C,4.0051*%
%ADD78C,1.2700*%
%ADD79R,1.2700X1.2700*%
%ADD80C,1.3716*%
%ADD81O,2.0000X4.0000*%
%ADD82O,4.0000X2.0000*%
%ADD83C,1.5080*%
D16*
X484251Y158577D02*
D03*
Y165077D02*
D03*
Y171577D02*
D03*
X464693D02*
D03*
Y165077D02*
D03*
Y158577D02*
D03*
D17*
X444754Y179047D02*
D03*
X154178Y323827D02*
D03*
X190500Y324081D02*
D03*
X166370Y85829D02*
D03*
D18*
X306128Y306555D02*
D03*
X278072D02*
D03*
D19*
X259207Y308079D02*
D03*
X208661D02*
D03*
D20*
X359410Y137302D02*
D03*
Y94300D02*
D03*
D21*
X377444Y225529D02*
D03*
X396240D02*
D03*
X420370Y224767D02*
D03*
X439166D02*
D03*
X107696Y254993D02*
D03*
X88900D02*
D03*
X107188Y279631D02*
D03*
X88392D02*
D03*
X107442Y305285D02*
D03*
X88646D02*
D03*
D22*
X303276Y242547D02*
D03*
Y223751D02*
D03*
X193040Y235181D02*
D03*
Y216385D02*
D03*
X126492Y232387D02*
D03*
Y213591D02*
D03*
X306324Y91417D02*
D03*
Y72621D02*
D03*
X95250Y232133D02*
D03*
Y213337D02*
D03*
D23*
X79248Y61590D02*
D03*
Y79588D02*
D03*
X80772Y36154D02*
D03*
Y18156D02*
D03*
X159512Y213736D02*
D03*
Y231734D02*
D03*
D24*
X155765Y60683D02*
D03*
X112966D02*
D03*
D25*
X185991Y300713D02*
D03*
Y288013D02*
D03*
Y275313D02*
D03*
Y262613D02*
D03*
X131509D02*
D03*
Y275313D02*
D03*
Y288013D02*
D03*
Y300713D02*
D03*
D26*
X277904Y246357D02*
D03*
D27*
X217904Y223357D02*
D03*
Y246357D02*
D03*
Y269357D02*
D03*
D28*
X390398Y187937D02*
D03*
D29*
X418846Y207437D02*
D03*
Y200937D02*
D03*
Y194437D02*
D03*
Y187937D02*
D03*
Y181437D02*
D03*
Y174937D02*
D03*
Y168438D02*
D03*
X361950D02*
D03*
Y174937D02*
D03*
Y181437D02*
D03*
Y187937D02*
D03*
Y194437D02*
D03*
Y200937D02*
D03*
Y207437D02*
D03*
D30*
X284480Y156187D02*
D03*
D31*
X200152Y122151D02*
D03*
Y139169D02*
D03*
Y156187D02*
D03*
Y173205D02*
D03*
Y190223D02*
D03*
D67*
X184404Y25123D02*
D03*
X159004D02*
D03*
X133604D02*
D03*
X108204D02*
D03*
X289052Y515089D02*
D03*
X263652D02*
D03*
X290830Y388343D02*
D03*
X265430D02*
D03*
D68*
X293878Y347957D02*
D03*
D69*
X268478D02*
D03*
D70*
X472694Y222481D02*
D03*
Y197081D02*
D03*
D71*
X336550Y310873D02*
D03*
Y285473D02*
D03*
Y260073D02*
D03*
D72*
Y234673D02*
D03*
D73*
X482473Y285473D02*
D03*
Y251945D02*
D03*
D74*
X368173Y285473D02*
D03*
Y251945D02*
D03*
D75*
X482346Y318493D02*
D03*
X274828Y52047D02*
D03*
D76*
X370586Y318493D02*
D03*
X216916Y52047D02*
D03*
D77*
X152400Y466575D02*
D03*
X406400D02*
D03*
D78*
X358394Y38585D02*
D03*
D79*
X328422D02*
D03*
D80*
X125730Y107927D02*
D03*
Y157965D02*
D03*
D81*
X476499Y109197D02*
D03*
D82*
X428498Y79197D02*
D03*
Y140198D02*
D03*
D83*
X507746Y24130D02*
D03*
X533146D02*
D03*
X507746Y49530D02*
D03*
X533146D02*
D03*
X507746Y100330D02*
D03*
X533146D02*
D03*
X507746Y74930D02*
D03*
X533146D02*
D03*
X25146Y24130D02*
D03*
X50546D02*
D03*
X25146Y49530D02*
D03*
X50546D02*
D03*
X25146Y100330D02*
D03*
X50546D02*
D03*
X25146Y74930D02*
D03*
X50546D02*
D03*
X507746Y125730D02*
D03*
X533146D02*
D03*
X507746Y151130D02*
D03*
X533146D02*
D03*
X25146Y125730D02*
D03*
X50546D02*
D03*
X25146Y151130D02*
D03*
X50546D02*
D03*
X507746Y455930D02*
D03*
X533146D02*
D03*
X507746Y430530D02*
D03*
X533146D02*
D03*
X507746Y405130D02*
D03*
X533146D02*
D03*
X507746Y379730D02*
D03*
X533146D02*
D03*
X507746Y354330D02*
D03*
X533146D02*
D03*
X507746Y328930D02*
D03*
X533146D02*
D03*
X507746Y303530D02*
D03*
X533146D02*
D03*
X507746Y278130D02*
D03*
X533146D02*
D03*
X507746Y252730D02*
D03*
X533146D02*
D03*
X507746Y227330D02*
D03*
X533146D02*
D03*
X507746Y201930D02*
D03*
X533146D02*
D03*
X507746Y176530D02*
D03*
X533146D02*
D03*
X25146Y455930D02*
D03*
X50546D02*
D03*
X25146Y430530D02*
D03*
X50546D02*
D03*
X25146Y405130D02*
D03*
X50546D02*
D03*
X25146Y379730D02*
D03*
X50546D02*
D03*
X25146Y354330D02*
D03*
X50546D02*
D03*
X25146Y328930D02*
D03*
X50546D02*
D03*
X25146Y303530D02*
D03*
X50546D02*
D03*
X25146Y278130D02*
D03*
X50546D02*
D03*
X25146Y252730D02*
D03*
X50546D02*
D03*
X25146Y227330D02*
D03*
X50546D02*
D03*
X25146Y201930D02*
D03*
X50546D02*
D03*
X25146Y176530D02*
D03*
X50546D02*
D03*
M02*
