G04*
G04 #@! TF.GenerationSoftware,Altium Limited,Altium Designer,22.8.2 (66)*
G04*
G04 Layer_Color=32768*
%FSLAX44Y44*%
%MOMM*%
G71*
G04*
G04 #@! TF.SameCoordinates,DB24DA2D-5A1C-4FC3-BAC6-6F5E0011B9E5*
G04*
G04*
G04 #@! TF.FilePolarity,Positive*
G04*
G01*
G75*
%ADD66C,0.1524*%
%ADD88C,0.1999*%
%ADD89C,0.2032*%
%ADD90C,0.1270*%
%ADD93C,0.0648*%
%ADD96C,0.1010*%
D66*
X198374Y308079D02*
G03*
X196850Y308079I-762J0D01*
G01*
D02*
G03*
X198374Y308079I762J0D01*
G01*
X378714Y38585D02*
G03*
X308102Y38585I-35306J0D01*
G01*
D02*
G03*
X378714Y38585I35306J0D01*
G01*
X125730Y81765D02*
G03*
X125730Y184381I0J51308D01*
G01*
D02*
G03*
X125730Y81765I0J-51308D01*
G01*
X293116Y52047D02*
G03*
X198628Y52047I-47244J0D01*
G01*
D02*
G03*
X293116Y52047I47244J0D01*
G01*
X387350Y213337D02*
G03*
X393446Y213591I3048J127D01*
G01*
X351282Y207495D02*
G03*
X349758Y207495I-762J0D01*
G01*
D02*
G03*
X351282Y207495I762J0D01*
G01*
X472694Y175745D02*
X476250D01*
X472694Y154409D02*
X476250D01*
X174244Y12423D02*
X194564D01*
X174244Y37823D02*
X194564D01*
X171704Y35283D02*
X174244Y37823D01*
X171704Y14963D02*
X174244Y12423D01*
X194564D02*
X197104Y14963D01*
X194564Y37823D02*
X197104Y35283D01*
Y14963D02*
Y35283D01*
X98044Y12423D02*
X118364D01*
X123444D02*
X143764D01*
X95504Y14963D02*
X98044Y12423D01*
X118364D02*
X120904Y14963D01*
X123444Y12423D01*
X143764D02*
X146304Y14963D01*
X98044Y37823D02*
X118364D01*
X95504Y35283D02*
X98044Y37823D01*
X118364D02*
X120904Y35283D01*
X123444Y37823D01*
X143764D01*
X146304Y35283D01*
X169164Y37823D02*
X171704Y35283D01*
X169164Y12423D02*
X171704Y14963D01*
X146304D02*
X148844Y12423D01*
X169164D01*
X146304Y35283D02*
X148844Y37823D01*
X169164D01*
X95504Y14963D02*
Y35283D01*
X462534Y184381D02*
X482854D01*
X459994Y186921D02*
X462534Y184381D01*
X459994Y186921D02*
Y207241D01*
Y212321D02*
Y232641D01*
X462534Y235181D01*
X482854D01*
X485394Y212321D02*
Y232641D01*
X482854Y235181D02*
X485394Y232641D01*
X482854Y184381D02*
X485394Y186921D01*
Y207241D01*
X482854Y209781D02*
X485394Y207241D01*
X482854Y209781D02*
X485394Y212321D01*
X459994Y207241D02*
X462534Y209781D01*
X459994Y212321D02*
X462534Y209781D01*
X392557Y271249D02*
Y299697D01*
X458089D01*
Y271249D02*
Y299697D01*
X392557Y271249D02*
X458089D01*
X392557Y237721D02*
Y266169D01*
X458089D01*
Y237721D02*
Y266169D01*
X392557Y237721D02*
X458089D01*
X286766Y320271D02*
X297434D01*
X286766Y292839D02*
X297434D01*
X389636Y303253D02*
Y333733D01*
X463296D01*
Y303253D02*
Y333733D01*
X389636Y303253D02*
X463296D01*
X355346Y312143D02*
Y324843D01*
X348996Y318493D02*
X360934D01*
X214630Y327383D02*
X253238D01*
X214630Y288775D02*
X253238D01*
X252730Y378183D02*
Y398503D01*
X255270Y401043D01*
X275590D01*
X280670D02*
X300990D01*
X303530Y398503D01*
Y378183D02*
Y398503D01*
X280670Y375643D02*
X300990D01*
X303530Y378183D01*
X252730D02*
X255270Y375643D01*
X275590D01*
X278130Y378183D01*
X280670Y375643D01*
X275590Y401043D02*
X278130Y398503D01*
X280670Y401043D01*
X73249Y67589D02*
Y73589D01*
X85247Y67589D02*
Y73589D01*
X86771Y24155D02*
Y30155D01*
X74773Y24155D02*
Y30155D01*
X153512Y219735D02*
Y225735D01*
X165511Y219735D02*
Y225735D01*
X300482Y32235D02*
Y44935D01*
X294132Y38585D02*
X306832D01*
X119380Y192001D02*
X132080D01*
X125730Y185651D02*
Y198351D01*
X191008Y45697D02*
Y58397D01*
X184404Y52047D02*
X197104D01*
X137414Y307825D02*
X180086D01*
X137414Y255501D02*
X180086D01*
X368046Y213337D02*
X387350D01*
X412750D01*
X368046Y162537D02*
X412750D01*
X217170Y117325D02*
X226060D01*
X217170Y134343D02*
X226060D01*
X217170Y151361D02*
X226060D01*
X217170Y168379D02*
X226060D01*
X217170Y185397D02*
X226060D01*
X217170Y126977D02*
X226060D01*
X217170Y143995D02*
X226060D01*
X217170Y161013D02*
X226060D01*
X217170Y178031D02*
X226060D01*
X217170Y195049D02*
X226060D01*
X501396Y36830D02*
X539496D01*
X501396Y11430D02*
X539496D01*
X545846Y17780D01*
Y30480D01*
X539496Y36830D02*
X545846Y30480D01*
X495046D02*
X501396Y36830D01*
X495046Y17780D02*
Y30480D01*
Y17780D02*
X501396Y11430D01*
Y62230D02*
X539496D01*
X501396Y36830D02*
X539496D01*
X545846Y43180D01*
Y55880D01*
X539496Y62230D02*
X545846Y55880D01*
X495046D02*
X501396Y62230D01*
X495046Y43180D02*
Y55880D01*
Y43180D02*
X501396Y36830D01*
Y87630D02*
X539496D01*
X501396Y62230D02*
X539496D01*
X545846Y68580D01*
Y81280D01*
X539496Y87630D02*
X545846Y81280D01*
X539496Y87630D02*
X545846Y93980D01*
Y106680D01*
X539496Y113030D02*
X545846Y106680D01*
X495046D02*
X501396Y113030D01*
X495046Y93980D02*
Y106680D01*
Y93980D02*
X501396Y87630D01*
X495046Y81280D02*
X501396Y87630D01*
X495046Y68580D02*
Y81280D01*
Y68580D02*
X501396Y62230D01*
X18796Y36830D02*
X56896D01*
X18796Y11430D02*
X56896D01*
X63246Y17780D01*
Y30480D01*
X56896Y36830D02*
X63246Y30480D01*
X12446D02*
X18796Y36830D01*
X12446Y17780D02*
Y30480D01*
Y17780D02*
X18796Y11430D01*
Y62230D02*
X56896D01*
X18796Y36830D02*
X56896D01*
X63246Y43180D01*
Y55880D01*
X56896Y62230D02*
X63246Y55880D01*
X12446D02*
X18796Y62230D01*
X12446Y43180D02*
Y55880D01*
Y43180D02*
X18796Y36830D01*
Y87630D02*
X56896D01*
X18796Y62230D02*
X56896D01*
X63246Y68580D01*
Y81280D01*
X56896Y87630D02*
X63246Y81280D01*
X56896Y87630D02*
X63246Y93980D01*
Y106680D01*
X56896Y113030D02*
X63246Y106680D01*
X12446D02*
X18796Y113030D01*
X12446Y93980D02*
Y106680D01*
Y93980D02*
X18796Y87630D01*
X12446Y81280D02*
X18796Y87630D01*
X12446Y68580D02*
Y81280D01*
Y68580D02*
X18796Y62230D01*
X501396Y138430D02*
X539496D01*
X501396Y113030D02*
X539496D01*
X545846Y119380D01*
Y132080D01*
X539496Y138430D02*
X545846Y132080D01*
X495046D02*
X501396Y138430D01*
X495046Y119380D02*
Y132080D01*
Y119380D02*
X501396Y113030D01*
Y163830D02*
X539496D01*
X501396Y138430D02*
X539496D01*
X545846Y144780D01*
Y157480D01*
X539496Y163830D02*
X545846Y157480D01*
X495046D02*
X501396Y163830D01*
X495046Y144780D02*
Y157480D01*
Y144780D02*
X501396Y138430D01*
X18796D02*
X56896D01*
X18796Y113030D02*
X56896D01*
X63246Y119380D01*
Y132080D01*
X56896Y138430D02*
X63246Y132080D01*
X12446D02*
X18796Y138430D01*
X12446Y119380D02*
Y132080D01*
Y119380D02*
X18796Y113030D01*
Y163830D02*
X56896D01*
X18796Y138430D02*
X56896D01*
X63246Y144780D01*
Y157480D01*
X56896Y163830D02*
X63246Y157480D01*
X12446D02*
X18796Y163830D01*
X12446Y144780D02*
Y157480D01*
Y144780D02*
X18796Y138430D01*
X501396Y468630D02*
X539496D01*
Y443230D02*
X545846Y449580D01*
Y462280D01*
X539496Y468630D02*
X545846Y462280D01*
X495046D02*
X501396Y468630D01*
X495046Y449580D02*
Y462280D01*
Y449580D02*
X501396Y443230D01*
X539496D01*
Y417830D02*
X545846Y424180D01*
Y436880D01*
X539496Y443230D02*
X545846Y436880D01*
X495046D02*
X501396Y443230D01*
X495046Y424180D02*
Y436880D01*
Y424180D02*
X501396Y417830D01*
X539496D01*
Y392430D02*
X545846Y398780D01*
Y411480D01*
X539496Y417830D02*
X545846Y411480D01*
X495046D02*
X501396Y417830D01*
X495046Y398780D02*
Y411480D01*
Y398780D02*
X501396Y392430D01*
X539496D01*
Y367030D02*
X545846Y373380D01*
Y386080D01*
X539496Y392430D02*
X545846Y386080D01*
X495046D02*
X501396Y392430D01*
X495046Y373380D02*
Y386080D01*
Y373380D02*
X501396Y367030D01*
X539496D01*
Y341630D02*
X545846Y347980D01*
Y360680D01*
X539496Y367030D02*
X545846Y360680D01*
X495046D02*
X501396Y367030D01*
X495046Y347980D02*
Y360680D01*
Y347980D02*
X501396Y341630D01*
X539496D01*
Y316230D02*
X545846Y322580D01*
Y335280D01*
X539496Y341630D02*
X545846Y335280D01*
X495046D02*
X501396Y341630D01*
X495046Y322580D02*
Y335280D01*
Y322580D02*
X501396Y316230D01*
X539496D01*
Y290830D02*
X545846Y297180D01*
Y309880D01*
X539496Y316230D02*
X545846Y309880D01*
X495046D02*
X501396Y316230D01*
X495046Y297180D02*
Y309880D01*
Y297180D02*
X501396Y290830D01*
X539496D01*
X501396Y265430D02*
X539496D01*
X501396Y240030D02*
X539496D01*
X501396Y214630D02*
X539496D01*
X501396Y189230D02*
X539496D01*
X501396Y163830D02*
X539496D01*
X545846Y170180D01*
Y182880D01*
X539496Y189230D02*
X545846Y182880D01*
X539496Y189230D02*
X545846Y195580D01*
Y208280D01*
X539496Y214630D02*
X545846Y208280D01*
X539496Y214630D02*
X545846Y220980D01*
Y233680D01*
X539496Y240030D02*
X545846Y233680D01*
X539496Y240030D02*
X545846Y246380D01*
Y259080D01*
X539496Y265430D02*
X545846Y259080D01*
X539496Y265430D02*
X545846Y271780D01*
Y284480D01*
X539496Y290830D02*
X545846Y284480D01*
X495046D02*
X501396Y290830D01*
X495046Y271780D02*
Y284480D01*
Y271780D02*
X501396Y265430D01*
X495046Y259080D02*
X501396Y265430D01*
X495046Y246380D02*
Y259080D01*
Y246380D02*
X501396Y240030D01*
X495046Y233680D02*
X501396Y240030D01*
X495046Y220980D02*
Y233680D01*
Y220980D02*
X501396Y214630D01*
X495046Y208280D02*
X501396Y214630D01*
X495046Y195580D02*
Y208280D01*
Y195580D02*
X501396Y189230D01*
X495046Y182880D02*
X501396Y189230D01*
X495046Y170180D02*
Y182880D01*
Y170180D02*
X501396Y163830D01*
X18796Y468630D02*
X56896D01*
Y443230D02*
X63246Y449580D01*
Y462280D01*
X56896Y468630D02*
X63246Y462280D01*
X12446D02*
X18796Y468630D01*
X12446Y449580D02*
Y462280D01*
Y449580D02*
X18796Y443230D01*
X56896D01*
Y417830D02*
X63246Y424180D01*
Y436880D01*
X56896Y443230D02*
X63246Y436880D01*
X12446D02*
X18796Y443230D01*
X12446Y424180D02*
Y436880D01*
Y424180D02*
X18796Y417830D01*
X56896D01*
Y392430D02*
X63246Y398780D01*
Y411480D01*
X56896Y417830D02*
X63246Y411480D01*
X12446D02*
X18796Y417830D01*
X12446Y398780D02*
Y411480D01*
Y398780D02*
X18796Y392430D01*
X56896D01*
Y367030D02*
X63246Y373380D01*
Y386080D01*
X56896Y392430D02*
X63246Y386080D01*
X12446D02*
X18796Y392430D01*
X12446Y373380D02*
Y386080D01*
Y373380D02*
X18796Y367030D01*
X56896D01*
Y341630D02*
X63246Y347980D01*
Y360680D01*
X56896Y367030D02*
X63246Y360680D01*
X12446D02*
X18796Y367030D01*
X12446Y347980D02*
Y360680D01*
Y347980D02*
X18796Y341630D01*
X56896D01*
Y316230D02*
X63246Y322580D01*
Y335280D01*
X56896Y341630D02*
X63246Y335280D01*
X12446D02*
X18796Y341630D01*
X12446Y322580D02*
Y335280D01*
Y322580D02*
X18796Y316230D01*
X56896D01*
Y290830D02*
X63246Y297180D01*
Y309880D01*
X56896Y316230D02*
X63246Y309880D01*
X12446D02*
X18796Y316230D01*
X12446Y297180D02*
Y309880D01*
Y297180D02*
X18796Y290830D01*
X56896D01*
X18796Y265430D02*
X56896D01*
X18796Y240030D02*
X56896D01*
X18796Y214630D02*
X56896D01*
X18796Y189230D02*
X56896D01*
X18796Y163830D02*
X56896D01*
X63246Y170180D01*
Y182880D01*
X56896Y189230D02*
X63246Y182880D01*
X56896Y189230D02*
X63246Y195580D01*
Y208280D01*
X56896Y214630D02*
X63246Y208280D01*
X56896Y214630D02*
X63246Y220980D01*
Y233680D01*
X56896Y240030D02*
X63246Y233680D01*
X56896Y240030D02*
X63246Y246380D01*
Y259080D01*
X56896Y265430D02*
X63246Y259080D01*
X56896Y265430D02*
X63246Y271780D01*
Y284480D01*
X56896Y290830D02*
X63246Y284480D01*
X12446D02*
X18796Y290830D01*
X12446Y271780D02*
Y284480D01*
Y271780D02*
X18796Y265430D01*
X12446Y259080D02*
X18796Y265430D01*
X12446Y246380D02*
Y259080D01*
Y246380D02*
X18796Y240030D01*
X12446Y233680D02*
X18796Y240030D01*
X12446Y220980D02*
Y233680D01*
Y220980D02*
X18796Y214630D01*
X12446Y208280D02*
X18796Y214630D01*
X12446Y195580D02*
Y208280D01*
Y195580D02*
X18796Y189230D01*
X12446Y182880D02*
X18796Y189230D01*
X12446Y170180D02*
Y182880D01*
Y170180D02*
X18796Y163830D01*
D88*
X247028Y347957D02*
G03*
X247028Y347957I-1001J0D01*
G01*
X338051Y213172D02*
G03*
X338051Y213172I-1001J0D01*
G01*
X97818Y60683D02*
G03*
X97818Y60683I-1001J0D01*
G01*
X372430Y89880D02*
Y141722D01*
X346390Y85801D02*
Y141722D01*
X405892Y218925D02*
Y232133D01*
X448818Y218163D02*
Y231371D01*
X296672Y214099D02*
X309880D01*
X186436Y206733D02*
X199644D01*
X79248Y248389D02*
Y261597D01*
X78740Y273027D02*
Y286235D01*
X78994Y298681D02*
Y311889D01*
X119888Y203939D02*
X133096D01*
X299720Y62969D02*
X312928D01*
X88646Y203685D02*
X101854D01*
X208905Y277358D02*
X226903D01*
X230403Y213858D02*
Y278856D01*
Y213858D02*
X265405D01*
Y278856D01*
X230403D02*
X265405D01*
D89*
X471498Y132197D02*
Y148196D01*
Y5197D02*
Y84696D01*
X455498Y148196D02*
X471498D01*
X385498D02*
X401498D01*
X385498Y5197D02*
Y148196D01*
Y5197D02*
X471498D01*
D90*
X306329Y335257D02*
Y360657D01*
X256027D02*
X306329D01*
X256027Y335257D02*
Y360657D01*
Y335257D02*
X306329D01*
X323850Y219474D02*
Y326073D01*
X349250D01*
Y219474D02*
Y326073D01*
X323850Y219474D02*
X349250D01*
X406400Y488274D02*
Y555475D01*
X174099Y474375D02*
X384701D01*
X338549Y339575D02*
X488950D01*
X338549D02*
Y458676D01*
X220251D02*
X338549D01*
X220251Y339575D02*
Y458676D01*
X69850Y339575D02*
X220251D01*
X69850D02*
Y555475D01*
X152400D01*
Y488274D02*
Y555475D01*
X406400D02*
X488950D01*
Y339575D02*
Y555475D01*
X106365Y45933D02*
Y49682D01*
Y45933D02*
X162367D01*
Y49682D01*
Y71684D02*
Y75433D01*
X106365D02*
X162367D01*
X106365Y71684D02*
Y75433D01*
D93*
X492506Y147194D02*
X485312Y154389D01*
X492506D02*
X485312Y147194D01*
X492506Y150791D02*
X485312D01*
X488909Y154389D02*
Y147194D01*
X123190Y313770D02*
X130384Y306576D01*
X123190D02*
X130384Y313770D01*
X123190Y310173D02*
X130384D01*
X126787Y306576D02*
Y313770D01*
X202795Y210797D02*
X195601Y203603D01*
Y210797D02*
X202795Y203603D01*
X199198Y210797D02*
Y203603D01*
X195601Y207200D02*
X202795D01*
D96*
X188613Y-1547D02*
Y6870D01*
X184404Y2662D01*
X190016D01*
X159004Y5468D02*
X160407Y6870D01*
X163213D01*
X164616Y5468D01*
Y4065D01*
X163213Y2662D01*
X161810D01*
X163213D01*
X164616Y1259D01*
Y-144D01*
X163213Y-1547D01*
X160407D01*
X159004Y-144D01*
X139216Y-1547D02*
X133604D01*
X139216Y4065D01*
Y5468D01*
X137813Y6870D01*
X135007D01*
X133604Y5468D01*
X108204Y-1547D02*
X111010D01*
X109607D01*
Y6870D01*
X108204Y5468D01*
M02*
