G04*
G04 #@! TF.GenerationSoftware,Altium Limited,Altium Designer,22.8.2 (66)*
G04*
G04 Layer_Color=65535*
%FSLAX44Y44*%
%MOMM*%
G71*
G04*
G04 #@! TF.SameCoordinates,DB24DA2D-5A1C-4FC3-BAC6-6F5E0011B9E5*
G04*
G04*
G04 #@! TF.FilePolarity,Positive*
G04*
G01*
G75*
%ADD10C,0.0553*%
%ADD11C,0.0691*%
%ADD12C,0.0415*%
%ADD13C,0.0591*%
%ADD14C,0.0898*%
%ADD15C,0.0518*%
D10*
X262128Y369698D02*
X266732D01*
X264430Y372001D02*
Y367396D01*
X269035Y373152D02*
Y366245D01*
X273639D01*
X280546Y373152D02*
X275941D01*
Y366245D01*
X280546D01*
X275941Y369698D02*
X278243D01*
X282848Y373152D02*
Y366245D01*
X286301D01*
X287452Y367396D01*
Y372001D01*
X286301Y373152D01*
X282848D01*
X289754Y369698D02*
X294359D01*
X241152Y358310D02*
Y356007D01*
Y357158D01*
X246908D01*
X248059Y356007D01*
Y354856D01*
X246908Y353705D01*
X242304Y360612D02*
X241152Y361763D01*
Y364065D01*
X242304Y365216D01*
X243455D01*
X244606Y364065D01*
Y362914D01*
Y364065D01*
X245757Y365216D01*
X246908D01*
X248059Y364065D01*
Y361763D01*
X246908Y360612D01*
X319779Y86395D02*
X326686D01*
Y89848D01*
X325535Y90999D01*
X320930D01*
X319779Y89848D01*
Y86395D01*
X326686Y97906D02*
Y93302D01*
X322081Y97906D01*
X320930D01*
X319779Y96755D01*
Y94453D01*
X320930Y93302D01*
X163841Y196673D02*
X156934D01*
Y200126D01*
X158085Y201277D01*
X160388D01*
X161539Y200126D01*
Y196673D01*
Y198975D02*
X163841Y201277D01*
Y203580D02*
Y205882D01*
Y204731D01*
X156934D01*
X158085Y203580D01*
X170566Y70572D02*
Y63665D01*
X174019D01*
X175170Y64816D01*
Y69421D01*
X174019Y70572D01*
X170566D01*
X177473Y63665D02*
X179775D01*
X178624D01*
Y70572D01*
X177473Y69421D01*
X245319Y259758D02*
Y264363D01*
X244168Y265514D01*
X241866D01*
X240715Y264363D01*
Y259758D01*
X241866Y258607D01*
X244168D01*
X243017Y260909D02*
X245319Y258607D01*
X244168D02*
X245319Y259758D01*
X247621Y258607D02*
X249924D01*
X248773D01*
Y265514D01*
X247621Y264363D01*
X395002Y166904D02*
X392700D01*
X393851D01*
Y161148D01*
X392700Y159997D01*
X391549D01*
X390398Y161148D01*
X397305Y159997D02*
X399607D01*
X398456D01*
Y166904D01*
X397305Y165753D01*
D11*
X453898Y184938D02*
X458502D01*
X456200D01*
Y178031D01*
X460805D02*
Y184938D01*
X464258D01*
X465409Y183787D01*
Y181484D01*
X464258Y180333D01*
X460805D01*
X471164Y178031D02*
Y184938D01*
X467711Y181484D01*
X472315D01*
X122936Y332004D02*
X127540D01*
X125238D01*
Y325097D01*
X129843D02*
Y332004D01*
X133296D01*
X134447Y330853D01*
Y328550D01*
X133296Y327399D01*
X129843D01*
X136749Y330853D02*
X137900Y332004D01*
X140202D01*
X141354Y330853D01*
Y329701D01*
X140202Y328550D01*
X139051D01*
X140202D01*
X141354Y327399D01*
Y326248D01*
X140202Y325097D01*
X137900D01*
X136749Y326248D01*
X165100Y331750D02*
X169704D01*
X167402D01*
Y324843D01*
X172007D02*
Y331750D01*
X175460D01*
X176611Y330599D01*
Y328296D01*
X175460Y327145D01*
X172007D01*
X183517Y324843D02*
X178913D01*
X183517Y329448D01*
Y330599D01*
X182366Y331750D01*
X180064D01*
X178913Y330599D01*
X171450Y97816D02*
X176054D01*
X173752D01*
Y90909D01*
X178357D02*
Y97816D01*
X181810D01*
X182961Y96665D01*
Y94362D01*
X181810Y93211D01*
X178357D01*
X185263Y90909D02*
X187565D01*
X186414D01*
Y97816D01*
X185263Y96665D01*
X449277Y188986D02*
Y186683D01*
Y187834D01*
X455033D01*
X456184Y186683D01*
Y185532D01*
X455033Y184381D01*
X456184Y191288D02*
X449277D01*
Y194741D01*
X450429Y195892D01*
X452731D01*
X453882Y194741D01*
Y191288D01*
X456184Y202799D02*
Y198194D01*
X451580Y202799D01*
X450429D01*
X449277Y201648D01*
Y199345D01*
X450429Y198194D01*
X313711Y219372D02*
Y216494D01*
Y217933D01*
X320905D01*
X322344Y216494D01*
Y215055D01*
X320905Y213617D01*
X322344Y228005D02*
Y222250D01*
X316588Y228005D01*
X315149D01*
X313711Y226566D01*
Y223689D01*
X315149Y222250D01*
D12*
X363855Y295125D02*
Y302032D01*
X367308D01*
X368459Y300881D01*
Y298578D01*
X367308Y297427D01*
X363855D01*
X366157D02*
X368459Y295125D01*
X375366Y302032D02*
X373064Y300881D01*
X370762Y298578D01*
Y296276D01*
X371913Y295125D01*
X374215D01*
X375366Y296276D01*
Y297427D01*
X374215Y298578D01*
X370762D01*
X362331Y262867D02*
Y269774D01*
X365784D01*
X366935Y268623D01*
Y266320D01*
X365784Y265169D01*
X362331D01*
X364633D02*
X366935Y262867D01*
X373842Y269774D02*
X369238D01*
Y266320D01*
X371540Y267472D01*
X372691D01*
X373842Y266320D01*
Y264018D01*
X372691Y262867D01*
X370389D01*
X369238Y264018D01*
X274574Y328399D02*
Y335306D01*
X278027D01*
X279178Y334155D01*
Y331852D01*
X278027Y330701D01*
X274574D01*
X276876D02*
X279178Y328399D01*
X284934D02*
Y335306D01*
X281481Y331852D01*
X286085D01*
X364744Y334798D02*
Y327891D01*
X369348D01*
X376255D02*
X371651D01*
X376255Y332495D01*
Y333647D01*
X375104Y334798D01*
X372802D01*
X371651Y333647D01*
X237014Y337965D02*
X235863Y339116D01*
X233561D01*
X232410Y337965D01*
Y333360D01*
X233561Y332209D01*
X235863D01*
X237014Y333360D01*
X239317Y332209D02*
X241619D01*
X240468D01*
Y339116D01*
X239317Y337965D01*
X248525Y332209D02*
Y339116D01*
X245072Y335662D01*
X249676D01*
X72517Y19535D02*
X67337D01*
Y22125D01*
X68200Y22988D01*
X69927D01*
X70790Y22125D01*
Y19535D01*
Y21262D02*
X72517Y22988D01*
Y28168D02*
Y24715D01*
X69064Y28168D01*
X68200D01*
X67337Y27305D01*
Y25578D01*
X68200Y24715D01*
X306864Y16909D02*
X305713Y18060D01*
X303411D01*
X302260Y16909D01*
Y12304D01*
X303411Y11153D01*
X305713D01*
X306864Y12304D01*
X312620Y11153D02*
Y18060D01*
X309167Y14606D01*
X313771D01*
X79924Y173173D02*
X81075Y174324D01*
Y176626D01*
X79924Y177777D01*
X75319D01*
X74168Y176626D01*
Y174324D01*
X75319Y173173D01*
X74168Y170871D02*
Y168568D01*
Y169720D01*
X81075D01*
X79924Y170871D01*
X201676Y99594D02*
Y92687D01*
X206280D01*
X208583D02*
X210885D01*
X209734D01*
Y99594D01*
X208583Y98443D01*
X141478Y252756D02*
Y247000D01*
X142629Y245849D01*
X144931D01*
X146082Y247000D01*
Y252756D01*
X148385Y251605D02*
X149536Y252756D01*
X151838D01*
X152989Y251605D01*
Y250453D01*
X151838Y249302D01*
X150687D01*
X151838D01*
X152989Y248151D01*
Y247000D01*
X151838Y245849D01*
X149536D01*
X148385Y247000D01*
X483616Y141407D02*
Y147162D01*
X482465Y148313D01*
X480163D01*
X479012Y147162D01*
Y141407D01*
X472105Y148313D02*
X476709D01*
X472105Y143709D01*
Y142558D01*
X473256Y141407D01*
X475558D01*
X476709Y142558D01*
X308913Y172951D02*
X303157D01*
X302006Y171800D01*
Y169498D01*
X303157Y168347D01*
X308913D01*
X302006Y166045D02*
Y163742D01*
Y164893D01*
X308913D01*
X307761Y166045D01*
D13*
X362267Y470854D02*
Y463466D01*
Y467160D01*
X367192D01*
Y470854D01*
Y463466D01*
X374580Y469622D02*
X373349Y470854D01*
X370886D01*
X369655Y469622D01*
Y468391D01*
X370886Y467160D01*
X373349D01*
X374580Y465928D01*
Y464697D01*
X373349Y463466D01*
X370886D01*
X369655Y464697D01*
X377043Y463466D02*
X379505D01*
X378274D01*
Y470854D01*
X377043Y469622D01*
D14*
X364456Y213624D02*
X363305Y214775D01*
X361003D01*
X359852Y213624D01*
Y209020D01*
X361003Y207868D01*
X363305D01*
X364456Y209020D01*
X366758Y207868D02*
X369061D01*
X367910D01*
Y214775D01*
X366758Y213624D01*
X377118Y207868D02*
X372514D01*
X377118Y212473D01*
Y213624D01*
X375967Y214775D01*
X373665D01*
X372514Y213624D01*
X400778Y225308D02*
X399627Y226459D01*
X397325D01*
X396174Y225308D01*
Y220704D01*
X397325Y219552D01*
X399627D01*
X400778Y220704D01*
X403080Y219552D02*
X405383D01*
X404232D01*
Y226459D01*
X403080Y225308D01*
X408836Y219552D02*
X411138D01*
X409987D01*
Y226459D01*
X408836Y225308D01*
X296624Y255346D02*
X295473Y254195D01*
Y251892D01*
X296624Y250741D01*
X301228D01*
X302379Y251892D01*
Y254195D01*
X301228Y255346D01*
X302379Y257648D02*
Y259950D01*
Y258799D01*
X295473D01*
X296624Y257648D01*
Y263403D02*
X295473Y264554D01*
Y266856D01*
X296624Y268008D01*
X301228D01*
X302379Y266856D01*
Y264554D01*
X301228Y263403D01*
X296624D01*
X176482Y241376D02*
X175331Y240224D01*
Y237922D01*
X176482Y236771D01*
X181086D01*
X182237Y237922D01*
Y240224D01*
X181086Y241376D01*
Y243678D02*
X182237Y244829D01*
Y247131D01*
X181086Y248282D01*
X176482D01*
X175331Y247131D01*
Y244829D01*
X176482Y243678D01*
X177633D01*
X178784Y244829D01*
Y248282D01*
X78838Y242595D02*
X77687Y243746D01*
X75385D01*
X74234Y242595D01*
Y237991D01*
X75385Y236840D01*
X77687D01*
X78838Y237991D01*
X81141Y242595D02*
X82292Y243746D01*
X84594D01*
X85745Y242595D01*
Y241444D01*
X84594Y240293D01*
X85745Y239142D01*
Y237991D01*
X84594Y236840D01*
X82292D01*
X81141Y237991D01*
Y239142D01*
X82292Y240293D01*
X81141Y241444D01*
Y242595D01*
X82292Y240293D02*
X84594D01*
X71218Y292125D02*
X70067Y293276D01*
X67765D01*
X66614Y292125D01*
Y287521D01*
X67765Y286370D01*
X70067D01*
X71218Y287521D01*
X73521Y293276D02*
X78125D01*
Y292125D01*
X73521Y287521D01*
Y286370D01*
X82648Y322097D02*
X81497Y323248D01*
X79195D01*
X78044Y322097D01*
Y317493D01*
X79195Y316342D01*
X81497D01*
X82648Y317493D01*
X89555Y323248D02*
X87253Y322097D01*
X84951Y319795D01*
Y317493D01*
X86102Y316342D01*
X88404D01*
X89555Y317493D01*
Y318644D01*
X88404Y319795D01*
X84951D01*
X138636Y196418D02*
X137485Y195266D01*
Y192964D01*
X138636Y191813D01*
X143240D01*
X144391Y192964D01*
Y195266D01*
X143240Y196418D01*
X137485Y203324D02*
Y198720D01*
X140938D01*
X139787Y201022D01*
Y202173D01*
X140938Y203324D01*
X143240D01*
X144391Y202173D01*
Y199871D01*
X143240Y198720D01*
X291544Y93802D02*
X290393Y92650D01*
Y90348D01*
X291544Y89197D01*
X296148D01*
X297299Y90348D01*
Y92650D01*
X296148Y93802D01*
X291544Y96104D02*
X290393Y97255D01*
Y99557D01*
X291544Y100708D01*
X292695D01*
X293846Y99557D01*
Y98406D01*
Y99557D01*
X294997Y100708D01*
X296148D01*
X297299Y99557D01*
Y97255D01*
X296148Y96104D01*
X78692Y193370D02*
X77541Y192218D01*
Y189916D01*
X78692Y188765D01*
X83296D01*
X84447Y189916D01*
Y192218D01*
X83296Y193370D01*
X84447Y200276D02*
Y195672D01*
X79843Y200276D01*
X78692D01*
X77541Y199125D01*
Y196823D01*
X78692Y195672D01*
D15*
X93719Y68540D02*
X88539D01*
Y71130D01*
X89403Y71993D01*
X91129D01*
X91993Y71130D01*
Y68540D01*
Y70266D02*
X93719Y71993D01*
X89403Y73720D02*
X88539Y74583D01*
Y76309D01*
X89403Y77173D01*
X90266D01*
X91129Y76309D01*
Y75446D01*
Y76309D01*
X91993Y77173D01*
X92856D01*
X93719Y76309D01*
Y74583D01*
X92856Y73720D01*
M02*
