G04*
G04 #@! TF.GenerationSoftware,Altium Limited,Altium Designer,22.8.2 (66)*
G04*
G04 Layer_Color=16711935*
%FSLAX44Y44*%
%MOMM*%
G71*
G04*
G04 #@! TF.SameCoordinates,DB24DA2D-5A1C-4FC3-BAC6-6F5E0011B9E5*
G04*
G04*
G04 #@! TF.FilePolarity,Negative*
G04*
G01*
G75*
%ADD48O,1.6256X3.0480*%
%ADD49C,1.6012*%
%ADD50R,1.6012X1.6012*%
%ADD51O,3.0480X1.6256*%
%ADD52C,1.8084*%
%ADD53R,1.8084X1.8084*%
%ADD54C,1.6002*%
%ADD55R,1.6002X1.6002*%
%ADD56C,1.6256*%
%ADD57R,1.6256X1.6256*%
%ADD58C,4.2083*%
%ADD59C,1.4732*%
%ADD60R,1.4732X1.4732*%
%ADD61C,1.5748*%
%ADD62O,2.2032X4.2032*%
%ADD63O,4.2032X2.2032*%
%ADD64C,1.7112*%
%ADD65C,0.5532*%
D48*
X184404Y25123D02*
D03*
X159004D02*
D03*
X133604D02*
D03*
X108204D02*
D03*
X289052Y515089D02*
D03*
X263652D02*
D03*
X290830Y388343D02*
D03*
X265430D02*
D03*
D49*
X293878Y347957D02*
D03*
D50*
X268478D02*
D03*
D51*
X472694Y222481D02*
D03*
Y197081D02*
D03*
D52*
X336550Y310873D02*
D03*
Y285473D02*
D03*
Y260073D02*
D03*
D53*
Y234673D02*
D03*
D54*
X482473Y285473D02*
D03*
Y251945D02*
D03*
D55*
X368173Y285473D02*
D03*
Y251945D02*
D03*
D56*
X482346Y318493D02*
D03*
X274828Y52047D02*
D03*
D57*
X370586Y318493D02*
D03*
X216916Y52047D02*
D03*
D58*
X152400Y466575D02*
D03*
X406400D02*
D03*
D59*
X358394Y38585D02*
D03*
D60*
X328422D02*
D03*
D61*
X125730Y107927D02*
D03*
Y157965D02*
D03*
D62*
X476499Y109197D02*
D03*
D63*
X428498Y79197D02*
D03*
Y140198D02*
D03*
D64*
X507746Y24130D02*
D03*
X533146D02*
D03*
X507746Y49530D02*
D03*
X533146D02*
D03*
X507746Y100330D02*
D03*
X533146D02*
D03*
X507746Y74930D02*
D03*
X533146D02*
D03*
X25146Y24130D02*
D03*
X50546D02*
D03*
X25146Y49530D02*
D03*
X50546D02*
D03*
X25146Y100330D02*
D03*
X50546D02*
D03*
X25146Y74930D02*
D03*
X50546D02*
D03*
X507746Y125730D02*
D03*
X533146D02*
D03*
X507746Y151130D02*
D03*
X533146D02*
D03*
X25146Y125730D02*
D03*
X50546D02*
D03*
X25146Y151130D02*
D03*
X50546D02*
D03*
X507746Y455930D02*
D03*
X533146D02*
D03*
X507746Y430530D02*
D03*
X533146D02*
D03*
X507746Y405130D02*
D03*
X533146D02*
D03*
X507746Y379730D02*
D03*
X533146D02*
D03*
X507746Y354330D02*
D03*
X533146D02*
D03*
X507746Y328930D02*
D03*
X533146D02*
D03*
X507746Y303530D02*
D03*
X533146D02*
D03*
X507746Y278130D02*
D03*
X533146D02*
D03*
X507746Y252730D02*
D03*
X533146D02*
D03*
X507746Y227330D02*
D03*
X533146D02*
D03*
X507746Y201930D02*
D03*
X533146D02*
D03*
X507746Y176530D02*
D03*
X533146D02*
D03*
X25146Y455930D02*
D03*
X50546D02*
D03*
X25146Y430530D02*
D03*
X50546D02*
D03*
X25146Y405130D02*
D03*
X50546D02*
D03*
X25146Y379730D02*
D03*
X50546D02*
D03*
X25146Y354330D02*
D03*
X50546D02*
D03*
X25146Y328930D02*
D03*
X50546D02*
D03*
X25146Y303530D02*
D03*
X50546D02*
D03*
X25146Y278130D02*
D03*
X50546D02*
D03*
X25146Y252730D02*
D03*
X50546D02*
D03*
X25146Y227330D02*
D03*
X50546D02*
D03*
X25146Y201930D02*
D03*
X50546D02*
D03*
X25146Y176530D02*
D03*
X50546D02*
D03*
D65*
X342900Y185143D02*
D03*
X289560Y224767D02*
D03*
X342900Y130279D02*
D03*
X368808Y119611D02*
D03*
X158496Y125707D02*
D03*
X199644Y310111D02*
D03*
X434340Y200383D02*
D03*
X181356Y127231D02*
D03*
X146304Y299443D02*
D03*
X167640D02*
D03*
M02*
