G04*
G04 #@! TF.GenerationSoftware,Altium Limited,Altium Designer,22.8.2 (66)*
G04*
G04 Layer_Physical_Order=1*
G04 Layer_Color=255*
%FSLAX44Y44*%
%MOMM*%
G71*
G04*
G04 #@! TF.SameCoordinates,DB24DA2D-5A1C-4FC3-BAC6-6F5E0011B9E5*
G04*
G04*
G04 #@! TF.FilePolarity,Positive*
G04*
G01*
G75*
%ADD16R,1.1684X0.3556*%
G04:AMPARAMS|DCode=17|XSize=1.27mm|YSize=1.27mm|CornerRadius=0.635mm|HoleSize=0mm|Usage=FLASHONLY|Rotation=0.000|XOffset=0mm|YOffset=0mm|HoleType=Round|Shape=RoundedRectangle|*
%AMROUNDEDRECTD17*
21,1,1.2700,0.0000,0,0,0.0*
21,1,0.0000,1.2700,0,0,0.0*
1,1,1.2700,0.0000,0.0000*
1,1,1.2700,0.0000,0.0000*
1,1,1.2700,0.0000,0.0000*
1,1,1.2700,0.0000,0.0000*
%
%ADD17ROUNDEDRECTD17*%
%ADD18R,1.1057X2.5001*%
%ADD19R,0.5588X3.6068*%
%ADD20R,1.7000X2.3500*%
%ADD21R,1.2954X1.4986*%
%ADD22R,1.4986X1.2954*%
%ADD23R,1.1999X0.8001*%
%ADD24R,2.3299X1.5601*%
%ADD25R,1.4605X0.5334*%
%ADD26R,1.8001X3.1999*%
%ADD27R,1.8001X0.8999*%
%ADD28R,2.9972X3.0988*%
%ADD29R,1.4224X0.3556*%
%ADD30R,10.4648X10.4140*%
%ADD31R,2.6924X1.0160*%
%ADD66C,0.1524*%
%ADD67O,1.4224X2.8448*%
%ADD68C,1.3980*%
%ADD69R,1.3980X1.3980*%
%ADD70O,2.8448X1.4224*%
%ADD71C,1.6052*%
%ADD72R,1.6052X1.6052*%
%ADD73C,1.3970*%
%ADD74R,1.3970X1.3970*%
%ADD75C,1.4224*%
%ADD76R,1.4224X1.4224*%
%ADD77C,4.0051*%
%ADD78C,1.2700*%
%ADD79R,1.2700X1.2700*%
%ADD80C,1.3716*%
%ADD81O,2.0000X4.0000*%
%ADD82O,4.0000X2.0000*%
%ADD83C,1.5080*%
%ADD84C,0.7564*%
D16*
X484251Y158577D02*
D03*
Y165077D02*
D03*
Y171577D02*
D03*
X464693D02*
D03*
Y165077D02*
D03*
Y158577D02*
D03*
D17*
X444754Y179047D02*
D03*
X154178Y323827D02*
D03*
X190500Y324081D02*
D03*
X166370Y85829D02*
D03*
D18*
X306128Y306555D02*
D03*
X278072D02*
D03*
D19*
X259207Y308079D02*
D03*
X208661D02*
D03*
D20*
X359410Y137302D02*
D03*
Y94300D02*
D03*
D21*
X377444Y225529D02*
D03*
X396240D02*
D03*
X420370Y224767D02*
D03*
X439166D02*
D03*
X107696Y254993D02*
D03*
X88900D02*
D03*
X107188Y279631D02*
D03*
X88392D02*
D03*
X107442Y305285D02*
D03*
X88646D02*
D03*
D22*
X303276Y242547D02*
D03*
Y223751D02*
D03*
X193040Y235181D02*
D03*
Y216385D02*
D03*
X126492Y232387D02*
D03*
Y213591D02*
D03*
X306324Y91417D02*
D03*
Y72621D02*
D03*
X95250Y232133D02*
D03*
Y213337D02*
D03*
D23*
X79248Y61590D02*
D03*
Y79588D02*
D03*
X80772Y36154D02*
D03*
Y18156D02*
D03*
X159512Y213736D02*
D03*
Y231734D02*
D03*
D24*
X155765Y60683D02*
D03*
X112966D02*
D03*
D25*
X185991Y300713D02*
D03*
Y288013D02*
D03*
Y275313D02*
D03*
Y262613D02*
D03*
X131509D02*
D03*
Y275313D02*
D03*
Y288013D02*
D03*
Y300713D02*
D03*
D26*
X277904Y246357D02*
D03*
D27*
X217904Y223357D02*
D03*
Y246357D02*
D03*
Y269357D02*
D03*
D28*
X390398Y187937D02*
D03*
D29*
X418846Y207437D02*
D03*
Y200937D02*
D03*
Y194437D02*
D03*
Y187937D02*
D03*
Y181437D02*
D03*
Y174937D02*
D03*
Y168438D02*
D03*
X361950D02*
D03*
Y174937D02*
D03*
Y181437D02*
D03*
Y187937D02*
D03*
Y194437D02*
D03*
Y200937D02*
D03*
Y207437D02*
D03*
D30*
X284480Y156187D02*
D03*
D31*
X200152Y122151D02*
D03*
Y139169D02*
D03*
Y156187D02*
D03*
Y173205D02*
D03*
Y190223D02*
D03*
D66*
X472694Y222481D02*
X473964Y223243D01*
X481584Y250675D02*
X482473Y251945D01*
X473964Y223243D02*
X481584Y230863D01*
Y250675D01*
X306128Y306555D02*
X306324Y305539D01*
X367284Y285727D02*
X368173Y285473D01*
X306324Y305539D02*
X312420Y299443D01*
X338328D01*
X352044Y285727D01*
X367284D01*
X289560Y389359D02*
X290830Y388343D01*
X289052Y515089D02*
X289560Y514327D01*
Y389359D02*
Y514327D01*
X292608Y348211D02*
X293878Y347957D01*
X290830Y388343D02*
X291084Y387835D01*
Y349735D02*
X292608Y348211D01*
X291084Y349735D02*
Y387835D01*
X293878Y347957D02*
X294132Y346687D01*
X304800Y307063D02*
X306128Y306555D01*
X294132Y346687D02*
X304800Y336019D01*
Y307063D02*
Y336019D01*
X361188Y175999D02*
X361950Y174937D01*
X342900Y185143D02*
X352044Y175999D01*
X361188D01*
X336550Y260073D02*
X336804Y261343D01*
X481584Y284203D02*
X482473Y285473D01*
X336804Y261343D02*
X339852Y264391D01*
X370332D01*
X390144Y284203D01*
X481584D01*
X217904Y223357D02*
X217932Y224767D01*
X289560D01*
X368173Y251945D02*
X368808Y250675D01*
X418846Y181437D02*
X419100Y182095D01*
X368808Y250675D02*
X413004D01*
X429768Y233911D01*
Y214099D02*
Y233911D01*
Y214099D02*
X440436Y203431D01*
Y197335D02*
Y203431D01*
X425196Y182095D02*
X440436Y197335D01*
X419100Y182095D02*
X425196D01*
X277904Y246357D02*
X278892Y247627D01*
Y284203D01*
X154178Y323827D02*
X158496D01*
Y252199D02*
Y323827D01*
Y252199D02*
X184404Y226291D01*
X205740D01*
X263652Y387835D02*
X265430Y388343D01*
X263652Y514327D02*
Y515089D01*
Y387835D02*
Y514327D01*
X265176Y387835D02*
X265430Y388343D01*
X154178Y323827D02*
X155448D01*
X236220Y387835D02*
X263652D01*
X265176D01*
X172212Y323827D02*
X236220Y387835D01*
X155448Y323827D02*
X158496D01*
X172212D01*
X217904Y246357D02*
X217932Y247627D01*
X335280Y284203D02*
X336550Y285473D01*
X217932Y247627D02*
X254508Y284203D01*
X278892D02*
X335280D01*
X254508D02*
X278892D01*
X216408Y246103D02*
X217904Y246357D01*
X361188Y182095D02*
X361950Y181437D01*
X205740Y235435D02*
X216408Y246103D01*
X205740Y218671D02*
Y226291D01*
Y235435D01*
Y218671D02*
X210312Y214099D01*
X335280D01*
X339852Y209527D01*
Y197335D02*
Y209527D01*
Y197335D02*
X355092Y182095D01*
X361188D01*
X419100Y224767D02*
X420370D01*
X417576Y188191D02*
X418846Y187937D01*
X408432Y214099D02*
X419100Y224767D01*
X408432Y191239D02*
Y214099D01*
Y191239D02*
X411480Y188191D01*
X417576D01*
X376428Y224767D02*
X377444Y225529D01*
X417576Y174475D02*
X418846Y174937D01*
X371856Y220195D02*
X376428Y224767D01*
X371856Y171427D02*
Y220195D01*
Y171427D02*
X373380Y169903D01*
X406908D01*
X411480Y174475D01*
X417576D01*
X303276Y223243D02*
Y223751D01*
X361188Y195811D02*
X361950Y194437D01*
X303276Y223243D02*
X309372Y217147D01*
X336804D01*
X342900Y211051D01*
Y206479D02*
Y211051D01*
Y206479D02*
X353568Y195811D01*
X361188D01*
X303276Y242547D02*
X309372Y241531D01*
X377952Y276583D02*
Y308587D01*
X376428Y275059D02*
X377952Y276583D01*
X336804Y275059D02*
X376428D01*
X309372Y247627D02*
X336804Y275059D01*
X309372Y241531D02*
Y247627D01*
X336550Y310873D02*
X336804Y310111D01*
X481584Y317731D02*
X482346Y318493D01*
X336804Y310111D02*
X338328Y308587D01*
X377952D02*
X379476D01*
X338328D02*
X377952D01*
X379476D02*
X388620Y317731D01*
X481584D01*
X358140Y95227D02*
X359410Y94300D01*
X342900Y130279D02*
X358140Y115039D01*
Y95227D02*
Y115039D01*
X361188Y208003D02*
X361950Y207437D01*
X303276Y241531D02*
Y242547D01*
X348996Y220195D02*
X361188Y208003D01*
X330708Y220195D02*
X348996D01*
X309372Y241531D02*
X330708Y220195D01*
X303276Y241531D02*
X309372D01*
X361950Y207437D02*
X362712Y206479D01*
X361950Y200937D02*
X362712Y201907D01*
Y206479D01*
X88392Y304015D02*
X88646Y305285D01*
X88392Y279631D02*
Y304015D01*
Y255247D02*
X88900Y254993D01*
X88392Y255247D02*
Y279631D01*
X417576Y168379D02*
X418846Y168438D01*
X368808Y119611D02*
X417576Y168379D01*
X50546Y455930D02*
X51816Y454891D01*
X131509Y288013D02*
X132588Y288775D01*
X51816Y454891D02*
X60960Y445747D01*
Y404599D02*
Y445747D01*
Y404599D02*
X152400Y313159D01*
Y296395D02*
Y313159D01*
X144780Y288775D02*
X152400Y296395D01*
X132588Y288775D02*
X144780D01*
X185991Y275313D02*
X187452Y275059D01*
X204216Y258295D02*
X205740D01*
X187452Y275059D02*
X204216Y258295D01*
X216408Y268963D02*
X217904Y269357D01*
X193040Y235181D02*
X193548Y235435D01*
Y246103D02*
X205740Y258295D01*
X216408Y268963D01*
X193548Y235435D02*
Y246103D01*
X185928Y287251D02*
X185991Y288013D01*
X185928Y276583D02*
X185991Y275313D01*
X185928Y276583D02*
Y287251D01*
X185991Y288013D02*
X187452Y288775D01*
X190500Y323827D02*
Y324081D01*
X187452Y288775D02*
X196596Y297919D01*
Y304015D01*
X190500Y310111D02*
X196596Y304015D01*
X190500Y310111D02*
Y323827D01*
X158496Y232387D02*
X159512Y231734D01*
X126492Y232387D02*
X158496D01*
X89916Y46459D02*
X121920D01*
X79248Y60175D02*
Y61590D01*
X80772Y18156D02*
Y19027D01*
X79248Y60175D02*
X89916Y49507D01*
Y31219D02*
Y46459D01*
Y49507D01*
X80772Y22075D02*
X89916Y31219D01*
X80772Y19027D02*
Y22075D01*
X199644Y172951D02*
X200152Y173205D01*
X195072Y172951D02*
X199644D01*
X141732Y119611D02*
X195072Y172951D01*
X141732Y66271D02*
Y119611D01*
X121920Y46459D02*
X141732Y66271D01*
X199644Y191239D02*
X200152Y190223D01*
X159512Y213736D02*
X160020Y212575D01*
X178308D02*
X199644Y191239D01*
X160020Y212575D02*
X178308D01*
X418846Y200937D02*
X419100Y200383D01*
X418846Y194437D02*
X419100Y195811D01*
Y200383D01*
X166116Y86083D02*
X166370Y85829D01*
X112966Y60683D02*
X118872Y66271D01*
X135636Y83035D01*
X472440Y195811D02*
X472694Y197081D01*
X444754Y179047D02*
X445008D01*
X455676D02*
X472440Y195811D01*
X445008Y179047D02*
X455676D01*
X158496Y125707D02*
X166116Y118087D01*
Y86083D02*
Y118087D01*
X68580Y73891D02*
X73152Y69319D01*
X68580Y73891D02*
Y204955D01*
X112776Y61699D02*
X112966Y60683D01*
X80772Y36154D02*
Y37315D01*
X105156Y69319D02*
X112776Y61699D01*
X73152Y69319D02*
X105156D01*
X70104Y66271D02*
X73152Y69319D01*
X70104Y57127D02*
Y66271D01*
Y57127D02*
X80772Y46459D01*
Y37315D02*
Y46459D01*
X207264Y308587D02*
X208661Y308079D01*
X199644Y310111D02*
X201168Y308587D01*
X207264D01*
X125730Y157965D02*
X126492Y157711D01*
X135636Y83035D02*
Y111991D01*
X126492Y121135D02*
X135636Y111991D01*
X126492Y121135D02*
Y157711D01*
X94488Y230863D02*
X95250Y232133D01*
X68580Y204955D02*
X94488Y230863D01*
X418846Y200937D02*
X419100Y200383D01*
X434340D01*
X418846Y207437D02*
X419100Y206479D01*
X418846Y200937D02*
X419100Y201907D01*
Y206479D01*
X199644Y137899D02*
X200152Y139169D01*
X175260Y60175D02*
Y130279D01*
X182880Y137899D01*
X199644D01*
X216408Y52555D02*
X216916Y52047D01*
X155765Y60683D02*
X156972Y60175D01*
X208788D02*
X216408Y52555D01*
X156972Y60175D02*
X175260D01*
X208788D01*
X159004Y25123D02*
X160020D01*
X284988Y41887D02*
X300228Y26647D01*
X179832Y41887D02*
X284988D01*
X163068Y25123D02*
X179832Y41887D01*
X160020Y25123D02*
X163068D01*
X483108Y171427D02*
X484251Y171577D01*
X478536Y171427D02*
X483108D01*
X475488Y168379D02*
X478536Y171427D01*
X475488Y154663D02*
Y168379D01*
X431292Y110467D02*
X475488Y154663D01*
X425196Y110467D02*
X431292D01*
X394716Y79987D02*
X425196Y110467D01*
X353568Y79987D02*
X394716D01*
X300228Y26647D02*
X353568Y79987D01*
X507492Y201907D02*
X507746Y201930D01*
X484251Y171577D02*
X484632Y172951D01*
Y179047D02*
X507492Y201907D01*
X484632Y172951D02*
Y179047D01*
X428244Y140947D02*
X428498Y140198D01*
X463296Y171427D02*
X464693Y171577D01*
X428244Y140947D02*
X458724Y171427D01*
X463296D01*
X199644Y122659D02*
X200152Y122151D01*
X195072Y127231D02*
X199644Y122659D01*
X181356Y127231D02*
X195072D01*
X274320Y52555D02*
X274828Y52047D01*
X200152Y122151D02*
X201168Y121135D01*
X205740D02*
X274320Y52555D01*
X201168Y121135D02*
X205740D01*
X274828Y52047D02*
X275844Y52555D01*
X306324Y72367D02*
Y72621D01*
X275844Y52555D02*
X295656Y72367D01*
X306324D01*
X107188Y279631D02*
X108204D01*
X107696Y254993D02*
X108204Y255247D01*
Y279631D01*
X107442Y305285D02*
X111252Y300967D01*
X107188Y279631D02*
X108204D01*
Y297919D02*
X111252Y300967D01*
X108204Y279631D02*
Y297919D01*
X131509Y300713D02*
X132588Y299443D01*
X185928D02*
X185991Y300713D01*
X132588Y299443D02*
X146304D01*
X167640D02*
X185928D01*
X107442Y305285D02*
X108204Y304015D01*
X131064Y300967D02*
X131509Y300713D01*
X108204Y304015D02*
X111252Y300967D01*
X131064D01*
X328422Y38585D02*
X329184Y38839D01*
X483108Y157711D02*
X484251Y158577D01*
X329184Y38839D02*
X338328Y47983D01*
X367284D01*
X411480Y92179D01*
X417576D01*
X483108Y157711D01*
X79248Y79588D02*
Y79987D01*
Y84559D02*
X102108Y107419D01*
X79248Y79987D02*
Y84559D01*
X283464Y156187D02*
X284480D01*
X266700Y165331D02*
X275844Y156187D01*
X283464D01*
X358140Y136375D02*
X359410Y137302D01*
X284480Y156187D02*
X306324Y136375D01*
X358140D01*
X440436Y212575D02*
X512064D01*
X518160Y206479D01*
Y197335D02*
Y206479D01*
X512064Y191239D02*
X518160Y197335D01*
X507492Y191239D02*
X512064D01*
X496824Y180571D02*
X507492Y191239D01*
X496824Y172951D02*
Y180571D01*
X490728Y166855D02*
X496824Y172951D01*
X490728Y163807D02*
Y166855D01*
X438912Y227815D02*
X439166Y224767D01*
X507492Y430507D02*
X507746Y430530D01*
X438912Y227815D02*
X492252Y281155D01*
Y404599D01*
X507492Y419839D01*
Y430507D01*
X438912Y224767D02*
X439166D01*
X396240Y225529D02*
Y226291D01*
X438912Y227815D02*
Y229339D01*
Y224767D02*
Y227815D01*
X406908Y261343D02*
X438912Y229339D01*
X359664Y261343D02*
X406908D01*
X358140Y259819D02*
X359664Y261343D01*
X358140Y244579D02*
Y259819D01*
Y244579D02*
X361188Y241531D01*
X381000D01*
X396240Y226291D01*
X439166Y224767D02*
X440436D01*
Y212575D02*
Y224767D01*
X359410Y137302D02*
X359664Y137899D01*
X361188Y168379D02*
X361950Y168438D01*
X359664Y137899D02*
X361188Y139423D01*
Y168379D01*
X359410Y137302D02*
X359664Y136375D01*
X463296Y163807D02*
X464693Y165077D01*
X359664Y119611D02*
Y136375D01*
Y119611D02*
X365760Y113515D01*
X405384D02*
X429768D01*
X365760D02*
X405384D01*
X429768D02*
X451104Y134851D01*
Y156187D01*
X458724Y163807D01*
X463296D01*
X390398Y187937D02*
X391668Y188191D01*
X396240Y224767D02*
Y225529D01*
X391668Y188191D02*
X396240Y192763D01*
Y224767D01*
X507746Y455930D02*
X509016Y454891D01*
X507746Y430530D02*
X509016Y432031D01*
Y454891D01*
X531876Y456415D02*
X533146Y455930D01*
X507746D02*
X509016Y456415D01*
X531876D01*
Y430507D02*
X533146Y430530D01*
X507746D02*
X509016Y430507D01*
X531876D01*
X428498Y79197D02*
X429768Y79987D01*
X475488Y108943D02*
X476499Y109197D01*
X429768Y79987D02*
X458724Y108943D01*
X475488D01*
X428244Y78463D02*
X428498Y79197D01*
X358394Y38585D02*
X359664Y38839D01*
X388620D02*
X428244Y78463D01*
X359664Y38839D02*
X388620D01*
X476499Y109197D02*
X477012Y110467D01*
X484251Y165077D02*
X484632Y163807D01*
X477012Y110467D02*
X493776Y127231D01*
Y160759D01*
X490728Y163807D02*
X493776Y160759D01*
X484632Y163807D02*
X490728D01*
X95250Y213337D02*
X102108Y214099D01*
Y107419D02*
Y214099D01*
X193040Y216385D02*
X193548Y215623D01*
X216408Y156187D02*
Y195811D01*
X196596Y215623D02*
X216408Y195811D01*
X193548Y215623D02*
X196596D01*
X265176Y165331D02*
X265430Y166601D01*
X200152Y156187D02*
X201168D01*
X256032D02*
X265176Y165331D01*
X201168Y156187D02*
X216408D01*
X256032D01*
X306324Y91417D02*
Y92179D01*
Y136375D01*
X283464Y156187D02*
X284480D01*
X265430Y166601D02*
X266700Y165331D01*
X126492Y213591D02*
Y214099D01*
X192024Y217147D02*
X193040Y216385D01*
X126492Y214099D02*
X132588Y220195D01*
X167640D01*
X170688Y217147D01*
X192024D01*
X95250Y213337D02*
X96012Y214099D01*
X105156D02*
X115824Y224767D01*
X96012Y214099D02*
X102108D01*
X105156D01*
X126492Y213591D02*
Y214099D01*
X131064Y261343D02*
X131509Y262613D01*
X115824Y224767D02*
X126492Y214099D01*
X115824Y224767D02*
Y240007D01*
X131064Y255247D01*
Y261343D01*
X124968Y107419D02*
X125730Y107927D01*
X102108Y107419D02*
X124968D01*
X259080Y308587D02*
X259207Y308079D01*
X259080Y308587D02*
Y346687D01*
X268224D02*
X268478Y347957D01*
X185928Y262867D02*
X185991Y262613D01*
X199644Y346687D02*
X259080D01*
X268224D01*
X161544Y308587D02*
X199644Y346687D01*
X161544Y285727D02*
Y308587D01*
Y285727D02*
X178308Y268963D01*
X179832D01*
X185928Y262867D01*
X259207Y308079D02*
X260604Y307063D01*
X277368D02*
X278072Y306555D01*
X260604Y307063D02*
X277368D01*
D67*
X184404Y25123D02*
D03*
X159004D02*
D03*
X133604D02*
D03*
X108204D02*
D03*
X289052Y515089D02*
D03*
X263652D02*
D03*
X290830Y388343D02*
D03*
X265430D02*
D03*
D68*
X293878Y347957D02*
D03*
D69*
X268478D02*
D03*
D70*
X472694Y222481D02*
D03*
Y197081D02*
D03*
D71*
X336550Y310873D02*
D03*
Y285473D02*
D03*
Y260073D02*
D03*
D72*
Y234673D02*
D03*
D73*
X482473Y285473D02*
D03*
Y251945D02*
D03*
D74*
X368173Y285473D02*
D03*
Y251945D02*
D03*
D75*
X482346Y318493D02*
D03*
X274828Y52047D02*
D03*
D76*
X370586Y318493D02*
D03*
X216916Y52047D02*
D03*
D77*
X152400Y466575D02*
D03*
X406400D02*
D03*
D78*
X358394Y38585D02*
D03*
D79*
X328422D02*
D03*
D80*
X125730Y107927D02*
D03*
Y157965D02*
D03*
D81*
X476499Y109197D02*
D03*
D82*
X428498Y79197D02*
D03*
Y140198D02*
D03*
D83*
X507746Y24130D02*
D03*
X533146D02*
D03*
X507746Y49530D02*
D03*
X533146D02*
D03*
X507746Y100330D02*
D03*
X533146D02*
D03*
X507746Y74930D02*
D03*
X533146D02*
D03*
X25146Y24130D02*
D03*
X50546D02*
D03*
X25146Y49530D02*
D03*
X50546D02*
D03*
X25146Y100330D02*
D03*
X50546D02*
D03*
X25146Y74930D02*
D03*
X50546D02*
D03*
X507746Y125730D02*
D03*
X533146D02*
D03*
X507746Y151130D02*
D03*
X533146D02*
D03*
X25146Y125730D02*
D03*
X50546D02*
D03*
X25146Y151130D02*
D03*
X50546D02*
D03*
X507746Y455930D02*
D03*
X533146D02*
D03*
X507746Y430530D02*
D03*
X533146D02*
D03*
X507746Y405130D02*
D03*
X533146D02*
D03*
X507746Y379730D02*
D03*
X533146D02*
D03*
X507746Y354330D02*
D03*
X533146D02*
D03*
X507746Y328930D02*
D03*
X533146D02*
D03*
X507746Y303530D02*
D03*
X533146D02*
D03*
X507746Y278130D02*
D03*
X533146D02*
D03*
X507746Y252730D02*
D03*
X533146D02*
D03*
X507746Y227330D02*
D03*
X533146D02*
D03*
X507746Y201930D02*
D03*
X533146D02*
D03*
X507746Y176530D02*
D03*
X533146D02*
D03*
X25146Y455930D02*
D03*
X50546D02*
D03*
X25146Y430530D02*
D03*
X50546D02*
D03*
X25146Y405130D02*
D03*
X50546D02*
D03*
X25146Y379730D02*
D03*
X50546D02*
D03*
X25146Y354330D02*
D03*
X50546D02*
D03*
X25146Y328930D02*
D03*
X50546D02*
D03*
X25146Y303530D02*
D03*
X50546D02*
D03*
X25146Y278130D02*
D03*
X50546D02*
D03*
X25146Y252730D02*
D03*
X50546D02*
D03*
X25146Y227330D02*
D03*
X50546D02*
D03*
X25146Y201930D02*
D03*
X50546D02*
D03*
X25146Y176530D02*
D03*
X50546D02*
D03*
D84*
X342900Y185143D02*
D03*
X289560Y224767D02*
D03*
X342900Y130279D02*
D03*
X368808Y119611D02*
D03*
X158496Y125707D02*
D03*
X199644Y310111D02*
D03*
X434340Y200383D02*
D03*
X181356Y127231D02*
D03*
X146304Y299443D02*
D03*
X167640D02*
D03*
M02*
