G04*
G04 #@! TF.GenerationSoftware,Altium Limited,Altium Designer,22.8.2 (66)*
G04*
G04 Layer_Color=255*
%FSLAX44Y44*%
%MOMM*%
G71*
G04*
G04 #@! TF.SameCoordinates,DB24DA2D-5A1C-4FC3-BAC6-6F5E0011B9E5*
G04*
G04*
G04 #@! TF.FilePolarity,Positive*
G04*
G01*
G75*
%ADD67O,1.4224X2.8448*%
%ADD68C,1.3980*%
%ADD69R,1.3980X1.3980*%
%ADD70O,2.8448X1.4224*%
%ADD71C,1.6052*%
%ADD72R,1.6052X1.6052*%
%ADD73C,1.3970*%
%ADD74R,1.3970X1.3970*%
%ADD75C,1.4224*%
%ADD76R,1.4224X1.4224*%
%ADD77C,4.0051*%
%ADD78C,1.2700*%
%ADD79R,1.2700X1.2700*%
%ADD80C,1.3716*%
%ADD81O,2.0000X4.0000*%
%ADD82O,4.0000X2.0000*%
%ADD83C,1.5080*%
D67*
X184404Y25123D02*
D03*
X159004D02*
D03*
X133604D02*
D03*
X108204D02*
D03*
X289052Y515089D02*
D03*
X263652D02*
D03*
X290830Y388343D02*
D03*
X265430D02*
D03*
D68*
X293878Y347957D02*
D03*
D69*
X268478D02*
D03*
D70*
X472694Y222481D02*
D03*
Y197081D02*
D03*
D71*
X336550Y310873D02*
D03*
Y285473D02*
D03*
Y260073D02*
D03*
D72*
Y234673D02*
D03*
D73*
X482473Y285473D02*
D03*
Y251945D02*
D03*
D74*
X368173Y285473D02*
D03*
Y251945D02*
D03*
D75*
X482346Y318493D02*
D03*
X274828Y52047D02*
D03*
D76*
X370586Y318493D02*
D03*
X216916Y52047D02*
D03*
D77*
X152400Y466575D02*
D03*
X406400D02*
D03*
D78*
X358394Y38585D02*
D03*
D79*
X328422D02*
D03*
D80*
X125730Y107927D02*
D03*
Y157965D02*
D03*
D81*
X476499Y109197D02*
D03*
D82*
X428498Y79197D02*
D03*
Y140198D02*
D03*
D83*
X507746Y24130D02*
D03*
X533146D02*
D03*
X507746Y49530D02*
D03*
X533146D02*
D03*
X507746Y100330D02*
D03*
X533146D02*
D03*
X507746Y74930D02*
D03*
X533146D02*
D03*
X25146Y24130D02*
D03*
X50546D02*
D03*
X25146Y49530D02*
D03*
X50546D02*
D03*
X25146Y100330D02*
D03*
X50546D02*
D03*
X25146Y74930D02*
D03*
X50546D02*
D03*
X507746Y125730D02*
D03*
X533146D02*
D03*
X507746Y151130D02*
D03*
X533146D02*
D03*
X25146Y125730D02*
D03*
X50546D02*
D03*
X25146Y151130D02*
D03*
X50546D02*
D03*
X507746Y455930D02*
D03*
X533146D02*
D03*
X507746Y430530D02*
D03*
X533146D02*
D03*
X507746Y405130D02*
D03*
X533146D02*
D03*
X507746Y379730D02*
D03*
X533146D02*
D03*
X507746Y354330D02*
D03*
X533146D02*
D03*
X507746Y328930D02*
D03*
X533146D02*
D03*
X507746Y303530D02*
D03*
X533146D02*
D03*
X507746Y278130D02*
D03*
X533146D02*
D03*
X507746Y252730D02*
D03*
X533146D02*
D03*
X507746Y227330D02*
D03*
X533146D02*
D03*
X507746Y201930D02*
D03*
X533146D02*
D03*
X507746Y176530D02*
D03*
X533146D02*
D03*
X25146Y455930D02*
D03*
X50546D02*
D03*
X25146Y430530D02*
D03*
X50546D02*
D03*
X25146Y405130D02*
D03*
X50546D02*
D03*
X25146Y379730D02*
D03*
X50546D02*
D03*
X25146Y354330D02*
D03*
X50546D02*
D03*
X25146Y328930D02*
D03*
X50546D02*
D03*
X25146Y303530D02*
D03*
X50546D02*
D03*
X25146Y278130D02*
D03*
X50546D02*
D03*
X25146Y252730D02*
D03*
X50546D02*
D03*
X25146Y227330D02*
D03*
X50546D02*
D03*
X25146Y201930D02*
D03*
X50546D02*
D03*
X25146Y176530D02*
D03*
X50546D02*
D03*
M02*
