G04*
G04 #@! TF.GenerationSoftware,Altium Limited,Altium Designer,23.6.0 (18)*
G04*
G04 Layer_Physical_Order=2*
G04 Layer_Color=16711680*
%FSLAX44Y44*%
%MOMM*%
G71*
G04*
G04 #@! TF.SameCoordinates,5EE9EB4A-2ACB-4C3E-BE2F-BD42E06AEEC1*
G04*
G04*
G04 #@! TF.FilePolarity,Positive*
G04*
G01*
G75*
%ADD50R,1.2700X1.2700*%
%ADD51C,1.2700*%
%ADD63C,1.5240*%
%ADD64C,1.2060*%
%ADD65R,1.2060X1.2060*%
%ADD66O,1.5000X3.0000*%
%ADD67C,1.4000*%
%ADD68R,1.4000X1.4000*%
%ADD69O,3.0000X1.5000*%
%ADD70C,0.9000*%
%ADD71C,1.0000*%
G36*
X345950Y539190D02*
X345950Y539191D01*
X348996Y538277D01*
X354898Y535910D01*
X360564Y533022D01*
X365947Y529637D01*
X371003Y525780D01*
X375692Y521485D01*
X379976Y516786D01*
X383820Y511720D01*
X387193Y506329D01*
X390067Y500656D01*
X392420Y494748D01*
X394232Y488653D01*
X395488Y482419D01*
X396178Y476097D01*
X396298Y469739D01*
X395845Y463396D01*
X395334Y460258D01*
X395334Y48422D01*
X395334Y48422D01*
X394207Y45532D01*
X391445Y39977D01*
X388195Y34693D01*
X384483Y29722D01*
X380341Y25105D01*
X375800Y20878D01*
X370898Y17075D01*
X365674Y13729D01*
X360171Y10865D01*
X354433Y8506D01*
X348507Y6673D01*
X342440Y5379D01*
X339360Y5006D01*
X6480Y5006D01*
Y9812D01*
X7750Y10439D01*
X8648Y9749D01*
X10867Y8830D01*
X13248Y8517D01*
X15629Y8830D01*
X17847Y9749D01*
X19752Y11211D01*
X21214Y13116D01*
X22133Y15335D01*
X22447Y17716D01*
X22133Y20096D01*
X21214Y22315D01*
X19752Y24220D01*
X17847Y25682D01*
X15629Y26601D01*
X13248Y26914D01*
X10867Y26601D01*
X8648Y25682D01*
X7750Y24992D01*
X6480Y25619D01*
Y35212D01*
X7750Y35839D01*
X8648Y35149D01*
X10867Y34230D01*
X13248Y33917D01*
X15629Y34230D01*
X17847Y35149D01*
X19752Y36611D01*
X21214Y38516D01*
X22133Y40735D01*
X22447Y43116D01*
X22133Y45496D01*
X21214Y47715D01*
X19752Y49620D01*
X17847Y51082D01*
X15629Y52001D01*
X13248Y52314D01*
X10867Y52001D01*
X8648Y51082D01*
X7750Y50392D01*
X6480Y51019D01*
X6480Y492577D01*
X7750Y493204D01*
X8640Y492520D01*
X10859Y491601D01*
X13240Y491288D01*
X15620Y491601D01*
X17839Y492520D01*
X19744Y493982D01*
X21206Y495887D01*
X22125Y498106D01*
X22438Y500487D01*
X22125Y502868D01*
X21206Y505086D01*
X19744Y506991D01*
X17839Y508453D01*
X15620Y509372D01*
X13240Y509685D01*
X10859Y509372D01*
X8640Y508453D01*
X7750Y507770D01*
X6480Y508396D01*
Y517977D01*
X7750Y518604D01*
X8640Y517920D01*
X10859Y517001D01*
X13240Y516688D01*
X15620Y517001D01*
X17839Y517920D01*
X19744Y519382D01*
X21206Y521287D01*
X22125Y523506D01*
X22438Y525887D01*
X22125Y528268D01*
X21206Y530486D01*
X19744Y532391D01*
X17839Y533853D01*
X15620Y534772D01*
X13240Y535085D01*
X10859Y534772D01*
X8640Y533853D01*
X7750Y533170D01*
X6480Y533796D01*
Y539190D01*
X345950Y539191D01*
X345950Y539190D01*
D02*
G37*
%LPC*%
G36*
X292640Y535085D02*
X290259Y534772D01*
X288040Y533853D01*
X286135Y532391D01*
X284673Y530486D01*
X283755Y528268D01*
X283441Y525887D01*
X283755Y523506D01*
X284673Y521287D01*
X286135Y519382D01*
X288040Y517920D01*
X290259Y517001D01*
X292640Y516688D01*
X295021Y517001D01*
X297239Y517920D01*
X299144Y519382D01*
X300606Y521287D01*
X301525Y523506D01*
X301838Y525887D01*
X301525Y528268D01*
X300606Y530486D01*
X299144Y532391D01*
X297239Y533853D01*
X295021Y534772D01*
X292640Y535085D01*
D02*
G37*
G36*
X267240D02*
X264859Y534772D01*
X262640Y533853D01*
X260735Y532391D01*
X259273Y530486D01*
X258354Y528268D01*
X258041Y525887D01*
X258354Y523506D01*
X259273Y521287D01*
X260735Y519382D01*
X262640Y517920D01*
X264859Y517001D01*
X267240Y516688D01*
X269620Y517001D01*
X271839Y517920D01*
X273744Y519382D01*
X275206Y521287D01*
X276125Y523506D01*
X276438Y525887D01*
X276125Y528268D01*
X275206Y530486D01*
X273744Y532391D01*
X271839Y533853D01*
X269620Y534772D01*
X267240Y535085D01*
D02*
G37*
G36*
X241840D02*
X239459Y534772D01*
X237240Y533853D01*
X235335Y532391D01*
X233873Y530486D01*
X232955Y528268D01*
X232641Y525887D01*
X232955Y523506D01*
X233873Y521287D01*
X235335Y519382D01*
X237240Y517920D01*
X239459Y517001D01*
X241840Y516688D01*
X244221Y517001D01*
X246439Y517920D01*
X248344Y519382D01*
X249806Y521287D01*
X250725Y523506D01*
X251038Y525887D01*
X250725Y528268D01*
X249806Y530486D01*
X248344Y532391D01*
X246439Y533853D01*
X244221Y534772D01*
X241840Y535085D01*
D02*
G37*
G36*
X216440D02*
X214059Y534772D01*
X211840Y533853D01*
X209935Y532391D01*
X208473Y530486D01*
X207554Y528268D01*
X207241Y525887D01*
X207554Y523506D01*
X208473Y521287D01*
X209935Y519382D01*
X211840Y517920D01*
X214059Y517001D01*
X216440Y516688D01*
X218820Y517001D01*
X221039Y517920D01*
X222944Y519382D01*
X224406Y521287D01*
X225325Y523506D01*
X225638Y525887D01*
X225325Y528268D01*
X224406Y530486D01*
X222944Y532391D01*
X221039Y533853D01*
X218820Y534772D01*
X216440Y535085D01*
D02*
G37*
G36*
X191040D02*
X188659Y534772D01*
X186440Y533853D01*
X184535Y532391D01*
X183073Y530486D01*
X182155Y528268D01*
X181841Y525887D01*
X182155Y523506D01*
X183073Y521287D01*
X184535Y519382D01*
X186440Y517920D01*
X188659Y517001D01*
X191040Y516688D01*
X193421Y517001D01*
X195639Y517920D01*
X197544Y519382D01*
X199006Y521287D01*
X199925Y523506D01*
X200238Y525887D01*
X199925Y528268D01*
X199006Y530486D01*
X197544Y532391D01*
X195639Y533853D01*
X193421Y534772D01*
X191040Y535085D01*
D02*
G37*
G36*
X165640D02*
X163259Y534772D01*
X161040Y533853D01*
X159135Y532391D01*
X157673Y530486D01*
X156755Y528268D01*
X156441Y525887D01*
X156755Y523506D01*
X157673Y521287D01*
X159135Y519382D01*
X161040Y517920D01*
X163259Y517001D01*
X165640Y516688D01*
X168020Y517001D01*
X170239Y517920D01*
X172144Y519382D01*
X173606Y521287D01*
X174525Y523506D01*
X174838Y525887D01*
X174525Y528268D01*
X173606Y530486D01*
X172144Y532391D01*
X170239Y533853D01*
X168020Y534772D01*
X165640Y535085D01*
D02*
G37*
G36*
X140240D02*
X137859Y534772D01*
X135640Y533853D01*
X133735Y532391D01*
X132273Y530486D01*
X131355Y528268D01*
X131041Y525887D01*
X131355Y523506D01*
X132273Y521287D01*
X133735Y519382D01*
X135640Y517920D01*
X137859Y517001D01*
X140240Y516688D01*
X142620Y517001D01*
X144839Y517920D01*
X146744Y519382D01*
X148206Y521287D01*
X149125Y523506D01*
X149438Y525887D01*
X149125Y528268D01*
X148206Y530486D01*
X146744Y532391D01*
X144839Y533853D01*
X142620Y534772D01*
X140240Y535085D01*
D02*
G37*
G36*
X114840D02*
X112459Y534772D01*
X110240Y533853D01*
X108335Y532391D01*
X106873Y530486D01*
X105955Y528268D01*
X105641Y525887D01*
X105955Y523506D01*
X106873Y521287D01*
X108335Y519382D01*
X110240Y517920D01*
X112459Y517001D01*
X114840Y516688D01*
X117220Y517001D01*
X119439Y517920D01*
X121344Y519382D01*
X122806Y521287D01*
X123725Y523506D01*
X124038Y525887D01*
X123725Y528268D01*
X122806Y530486D01*
X121344Y532391D01*
X119439Y533853D01*
X117220Y534772D01*
X114840Y535085D01*
D02*
G37*
G36*
X89440D02*
X87059Y534772D01*
X84840Y533853D01*
X82935Y532391D01*
X81473Y530486D01*
X80555Y528268D01*
X80241Y525887D01*
X80555Y523506D01*
X81473Y521287D01*
X82935Y519382D01*
X84840Y517920D01*
X87059Y517001D01*
X89440Y516688D01*
X91820Y517001D01*
X94039Y517920D01*
X95944Y519382D01*
X97406Y521287D01*
X98325Y523506D01*
X98638Y525887D01*
X98325Y528268D01*
X97406Y530486D01*
X95944Y532391D01*
X94039Y533853D01*
X91820Y534772D01*
X89440Y535085D01*
D02*
G37*
G36*
X64040D02*
X61659Y534772D01*
X59440Y533853D01*
X57535Y532391D01*
X56073Y530486D01*
X55155Y528268D01*
X54841Y525887D01*
X55155Y523506D01*
X56073Y521287D01*
X57535Y519382D01*
X59440Y517920D01*
X61659Y517001D01*
X64040Y516688D01*
X66420Y517001D01*
X68639Y517920D01*
X70544Y519382D01*
X72006Y521287D01*
X72925Y523506D01*
X73238Y525887D01*
X72925Y528268D01*
X72006Y530486D01*
X70544Y532391D01*
X68639Y533853D01*
X66420Y534772D01*
X64040Y535085D01*
D02*
G37*
G36*
X38640D02*
X36259Y534772D01*
X34040Y533853D01*
X32135Y532391D01*
X30673Y530486D01*
X29755Y528268D01*
X29441Y525887D01*
X29755Y523506D01*
X30673Y521287D01*
X32135Y519382D01*
X34040Y517920D01*
X36259Y517001D01*
X38640Y516688D01*
X41020Y517001D01*
X43239Y517920D01*
X45144Y519382D01*
X46606Y521287D01*
X47525Y523506D01*
X47838Y525887D01*
X47525Y528268D01*
X46606Y530486D01*
X45144Y532391D01*
X43239Y533853D01*
X41020Y534772D01*
X38640Y535085D01*
D02*
G37*
G36*
X292640Y509685D02*
X290259Y509372D01*
X288040Y508453D01*
X286135Y506991D01*
X284673Y505086D01*
X283755Y502868D01*
X283441Y500487D01*
X283755Y498106D01*
X284673Y495887D01*
X286135Y493982D01*
X288040Y492520D01*
X290259Y491601D01*
X292640Y491288D01*
X295021Y491601D01*
X297239Y492520D01*
X299144Y493982D01*
X300606Y495887D01*
X301525Y498106D01*
X301838Y500487D01*
X301525Y502868D01*
X300606Y505086D01*
X299144Y506991D01*
X297239Y508453D01*
X295021Y509372D01*
X292640Y509685D01*
D02*
G37*
G36*
X267240D02*
X264859Y509372D01*
X262640Y508453D01*
X260735Y506991D01*
X259273Y505086D01*
X258354Y502868D01*
X258041Y500487D01*
X258354Y498106D01*
X259273Y495887D01*
X260735Y493982D01*
X262640Y492520D01*
X264859Y491601D01*
X267240Y491288D01*
X269620Y491601D01*
X271839Y492520D01*
X273744Y493982D01*
X275206Y495887D01*
X276125Y498106D01*
X276438Y500487D01*
X276125Y502868D01*
X275206Y505086D01*
X273744Y506991D01*
X271839Y508453D01*
X269620Y509372D01*
X267240Y509685D01*
D02*
G37*
G36*
X241840D02*
X239459Y509372D01*
X237240Y508453D01*
X235335Y506991D01*
X233873Y505086D01*
X232955Y502868D01*
X232641Y500487D01*
X232955Y498106D01*
X233873Y495887D01*
X235335Y493982D01*
X237240Y492520D01*
X239459Y491601D01*
X241840Y491288D01*
X244221Y491601D01*
X246439Y492520D01*
X248344Y493982D01*
X249806Y495887D01*
X250725Y498106D01*
X251038Y500487D01*
X250725Y502868D01*
X249806Y505086D01*
X248344Y506991D01*
X246439Y508453D01*
X244221Y509372D01*
X241840Y509685D01*
D02*
G37*
G36*
X216440D02*
X214059Y509372D01*
X211840Y508453D01*
X209935Y506991D01*
X208473Y505086D01*
X207554Y502868D01*
X207241Y500487D01*
X207554Y498106D01*
X208473Y495887D01*
X209935Y493982D01*
X211840Y492520D01*
X214059Y491601D01*
X216440Y491288D01*
X218820Y491601D01*
X221039Y492520D01*
X222944Y493982D01*
X224406Y495887D01*
X225325Y498106D01*
X225638Y500487D01*
X225325Y502868D01*
X224406Y505086D01*
X222944Y506991D01*
X221039Y508453D01*
X218820Y509372D01*
X216440Y509685D01*
D02*
G37*
G36*
X191040D02*
X188659Y509372D01*
X186440Y508453D01*
X184535Y506991D01*
X183073Y505086D01*
X182155Y502868D01*
X181841Y500487D01*
X182155Y498106D01*
X183073Y495887D01*
X184535Y493982D01*
X186440Y492520D01*
X188659Y491601D01*
X191040Y491288D01*
X193421Y491601D01*
X195639Y492520D01*
X197544Y493982D01*
X199006Y495887D01*
X199925Y498106D01*
X200238Y500487D01*
X199925Y502868D01*
X199006Y505086D01*
X197544Y506991D01*
X195639Y508453D01*
X193421Y509372D01*
X191040Y509685D01*
D02*
G37*
G36*
X165640D02*
X163259Y509372D01*
X161040Y508453D01*
X159135Y506991D01*
X157673Y505086D01*
X156755Y502868D01*
X156441Y500487D01*
X156755Y498106D01*
X157673Y495887D01*
X159135Y493982D01*
X161040Y492520D01*
X163259Y491601D01*
X165640Y491288D01*
X168020Y491601D01*
X170239Y492520D01*
X172144Y493982D01*
X173606Y495887D01*
X174525Y498106D01*
X174838Y500487D01*
X174525Y502868D01*
X173606Y505086D01*
X172144Y506991D01*
X170239Y508453D01*
X168020Y509372D01*
X165640Y509685D01*
D02*
G37*
G36*
X140240D02*
X137859Y509372D01*
X135640Y508453D01*
X133735Y506991D01*
X132273Y505086D01*
X131355Y502868D01*
X131041Y500487D01*
X131355Y498106D01*
X132273Y495887D01*
X133735Y493982D01*
X135640Y492520D01*
X137859Y491601D01*
X140240Y491288D01*
X142620Y491601D01*
X144839Y492520D01*
X146744Y493982D01*
X148206Y495887D01*
X149125Y498106D01*
X149438Y500487D01*
X149125Y502868D01*
X148206Y505086D01*
X146744Y506991D01*
X144839Y508453D01*
X142620Y509372D01*
X140240Y509685D01*
D02*
G37*
G36*
X114840D02*
X112459Y509372D01*
X110240Y508453D01*
X108335Y506991D01*
X106873Y505086D01*
X105955Y502868D01*
X105641Y500487D01*
X105955Y498106D01*
X106873Y495887D01*
X108335Y493982D01*
X110240Y492520D01*
X112459Y491601D01*
X114840Y491288D01*
X117220Y491601D01*
X119439Y492520D01*
X121344Y493982D01*
X122806Y495887D01*
X123725Y498106D01*
X124038Y500487D01*
X123725Y502868D01*
X122806Y505086D01*
X121344Y506991D01*
X119439Y508453D01*
X117220Y509372D01*
X114840Y509685D01*
D02*
G37*
G36*
X89440D02*
X87059Y509372D01*
X84840Y508453D01*
X82935Y506991D01*
X81473Y505086D01*
X80555Y502868D01*
X80241Y500487D01*
X80555Y498106D01*
X81473Y495887D01*
X82935Y493982D01*
X84840Y492520D01*
X87059Y491601D01*
X89440Y491288D01*
X91820Y491601D01*
X94039Y492520D01*
X95944Y493982D01*
X97406Y495887D01*
X98325Y498106D01*
X98638Y500487D01*
X98325Y502868D01*
X97406Y505086D01*
X95944Y506991D01*
X94039Y508453D01*
X91820Y509372D01*
X89440Y509685D01*
D02*
G37*
G36*
X64040D02*
X61659Y509372D01*
X59440Y508453D01*
X57535Y506991D01*
X56073Y505086D01*
X55155Y502868D01*
X54841Y500487D01*
X55155Y498106D01*
X56073Y495887D01*
X57535Y493982D01*
X59440Y492520D01*
X61659Y491601D01*
X64040Y491288D01*
X66420Y491601D01*
X68639Y492520D01*
X70544Y493982D01*
X72006Y495887D01*
X72925Y498106D01*
X73238Y500487D01*
X72925Y502868D01*
X72006Y505086D01*
X70544Y506991D01*
X68639Y508453D01*
X66420Y509372D01*
X64040Y509685D01*
D02*
G37*
G36*
X38640D02*
X36259Y509372D01*
X34040Y508453D01*
X32135Y506991D01*
X30673Y505086D01*
X29755Y502868D01*
X29441Y500487D01*
X29755Y498106D01*
X30673Y495887D01*
X32135Y493982D01*
X34040Y492520D01*
X36259Y491601D01*
X38640Y491288D01*
X41020Y491601D01*
X43239Y492520D01*
X45144Y493982D01*
X46606Y495887D01*
X47525Y498106D01*
X47838Y500487D01*
X47525Y502868D01*
X46606Y505086D01*
X45144Y506991D01*
X43239Y508453D01*
X41020Y509372D01*
X38640Y509685D01*
D02*
G37*
G36*
X99272Y446666D02*
Y438482D01*
X107458D01*
X107297Y439702D01*
X106336Y442023D01*
X104807Y444015D01*
X102814Y445545D01*
X100493Y446506D01*
X99272Y446666D01*
D02*
G37*
G36*
X96733Y446666D02*
X95512Y446506D01*
X93191Y445545D01*
X91199Y444015D01*
X89670Y442023D01*
X88708Y439702D01*
X88548Y438482D01*
X96733D01*
Y446666D01*
D02*
G37*
G36*
X156503Y445711D02*
X139503D01*
Y428711D01*
X156503D01*
Y445711D01*
D02*
G37*
G36*
X96733Y435942D02*
X88547D01*
X88708Y434721D01*
X89670Y432400D01*
X91199Y430407D01*
X93191Y428878D01*
X95512Y427917D01*
X96733Y427756D01*
Y435942D01*
D02*
G37*
G36*
X107458D02*
X99272D01*
Y427756D01*
X100493Y427917D01*
X102814Y428878D01*
X104807Y430407D01*
X106336Y432400D01*
X107297Y434721D01*
X107458Y435942D01*
D02*
G37*
G36*
X44809Y387821D02*
X42843Y387563D01*
X41011Y386804D01*
X39438Y385597D01*
X38231Y384024D01*
X37472Y382192D01*
X37213Y380227D01*
X37472Y378261D01*
X38231Y376429D01*
X39438Y374856D01*
X41011Y373649D01*
X42843Y372890D01*
X44809Y372631D01*
X46774Y372890D01*
X48606Y373649D01*
X50179Y374856D01*
X51386Y376429D01*
X52145Y378261D01*
X52403Y380227D01*
X52145Y382192D01*
X51386Y384024D01*
X50179Y385597D01*
X48606Y386804D01*
X46774Y387563D01*
X44809Y387821D01*
D02*
G37*
G36*
X52339Y336956D02*
X37278D01*
Y321897D01*
X52339D01*
Y336956D01*
D02*
G37*
G36*
X46287Y267401D02*
X31227D01*
Y252341D01*
X46287D01*
Y267401D01*
D02*
G37*
G36*
X40027Y243347D02*
Y236140D01*
X47234D01*
X47107Y237108D01*
X46243Y239192D01*
X44869Y240983D01*
X43079Y242356D01*
X40994Y243220D01*
X40027Y243347D01*
D02*
G37*
G36*
X37487D02*
X36520Y243220D01*
X34435Y242356D01*
X32645Y240983D01*
X31271Y239192D01*
X30408Y237108D01*
X30280Y236140D01*
X37487D01*
Y243347D01*
D02*
G37*
G36*
X47234Y233600D02*
X40027D01*
Y226394D01*
X40994Y226521D01*
X43079Y227385D01*
X44869Y228758D01*
X46243Y230548D01*
X47107Y232633D01*
X47234Y233600D01*
D02*
G37*
G36*
X37487D02*
X30280D01*
X30408Y232633D01*
X31271Y230548D01*
X32645Y228758D01*
X34435Y227385D01*
X36520Y226521D01*
X37487Y226394D01*
Y233600D01*
D02*
G37*
G36*
X375327Y358166D02*
X245327D01*
X244179Y357691D01*
X244179Y357691D01*
X243704Y356543D01*
X243702Y226543D01*
X244167Y225420D01*
X244178Y225395D01*
X245326Y224919D01*
X245326Y224919D01*
X375327D01*
X376475Y225395D01*
X376951Y226543D01*
Y356543D01*
X376475Y357691D01*
X375327Y358166D01*
D02*
G37*
G36*
X83585Y181304D02*
Y165114D01*
X92442D01*
Y171344D01*
X92097Y173965D01*
X91085Y176408D01*
X89476Y178505D01*
X87379Y180114D01*
X84936Y181126D01*
X83585Y181304D01*
D02*
G37*
G36*
X81045Y181304D02*
X79694Y181126D01*
X77252Y180114D01*
X75155Y178505D01*
X73545Y176408D01*
X72534Y173965D01*
X72189Y171344D01*
Y165114D01*
X81045D01*
Y181304D01*
D02*
G37*
G36*
X142315Y180422D02*
X139966Y180113D01*
X137776Y179206D01*
X135896Y177763D01*
X134454Y175883D01*
X133547Y173694D01*
X133237Y171344D01*
Y156344D01*
X133547Y153995D01*
X134454Y151806D01*
X135896Y149926D01*
X137776Y148483D01*
X139966Y147576D01*
X142315Y147267D01*
X144664Y147576D01*
X146854Y148483D01*
X148734Y149926D01*
X150176Y151806D01*
X151083Y153995D01*
X151393Y156344D01*
Y171344D01*
X151083Y173694D01*
X150176Y175883D01*
X148734Y177763D01*
X146854Y179206D01*
X144664Y180113D01*
X142315Y180422D01*
D02*
G37*
G36*
X92442Y162575D02*
X83585D01*
Y146385D01*
X84936Y146563D01*
X87379Y147575D01*
X89476Y149184D01*
X91085Y151281D01*
X92097Y153723D01*
X92442Y156344D01*
Y162575D01*
D02*
G37*
G36*
X81045D02*
X72189D01*
Y156344D01*
X72534Y153723D01*
X73545Y151281D01*
X75155Y149184D01*
X77252Y147575D01*
X79694Y146563D01*
X81045Y146385D01*
Y162575D01*
D02*
G37*
G36*
X330536Y152039D02*
X328487Y151769D01*
X326577Y150978D01*
X324937Y149720D01*
X323679Y148080D01*
X322888Y146171D01*
X322618Y144122D01*
X322888Y142072D01*
X323679Y140163D01*
X324937Y138523D01*
X326577Y137264D01*
X328487Y136474D01*
X330536Y136204D01*
X332585Y136474D01*
X334495Y137264D01*
X336134Y138523D01*
X337393Y140163D01*
X338184Y142072D01*
X338453Y144122D01*
X338184Y146171D01*
X337393Y148080D01*
X336134Y149720D01*
X334495Y150978D01*
X332585Y151769D01*
X330536Y152039D01*
D02*
G37*
G36*
X119815Y126971D02*
X113585D01*
Y118114D01*
X129775D01*
X129597Y119465D01*
X128585Y121908D01*
X126976Y124005D01*
X124878Y125614D01*
X122436Y126626D01*
X119815Y126971D01*
D02*
G37*
G36*
X111045D02*
X104815D01*
X102194Y126626D01*
X99752Y125614D01*
X97654Y124005D01*
X96045Y121908D01*
X95034Y119465D01*
X94856Y118114D01*
X111045D01*
Y126971D01*
D02*
G37*
G36*
X338386Y126572D02*
X322686D01*
Y110871D01*
X338386D01*
Y126572D01*
D02*
G37*
G36*
X129775Y115574D02*
X113585D01*
Y106718D01*
X119815D01*
X122436Y107063D01*
X124878Y108074D01*
X126976Y109684D01*
X128585Y111781D01*
X129597Y114223D01*
X129775Y115574D01*
D02*
G37*
G36*
X111045D02*
X94856D01*
X95034Y114223D01*
X96045Y111781D01*
X97654Y109684D01*
X99752Y108074D01*
X102194Y107063D01*
X104815Y106718D01*
X111045D01*
Y115574D01*
D02*
G37*
G36*
X268518Y53196D02*
Y44385D01*
X277328D01*
X277146Y45768D01*
X276123Y48239D01*
X274494Y50362D01*
X272372Y51990D01*
X269900Y53014D01*
X268518Y53196D01*
D02*
G37*
G36*
X293918D02*
Y44385D01*
X302728D01*
X302546Y45768D01*
X301523Y48239D01*
X299894Y50362D01*
X297772Y51990D01*
X295300Y53014D01*
X293918Y53196D01*
D02*
G37*
G36*
X265978D02*
X264596Y53014D01*
X262124Y51990D01*
X260002Y50362D01*
X258373Y48239D01*
X257349Y45768D01*
X257167Y44385D01*
X265978D01*
Y53196D01*
D02*
G37*
G36*
X291378D02*
X289996Y53014D01*
X287524Y51990D01*
X285402Y50362D01*
X283773Y48239D01*
X282749Y45768D01*
X282567Y44385D01*
X291378D01*
Y53196D01*
D02*
G37*
G36*
X241848Y52314D02*
X239467Y52001D01*
X237248Y51082D01*
X235343Y49620D01*
X233882Y47715D01*
X232963Y45496D01*
X232649Y43116D01*
X232963Y40735D01*
X233882Y38516D01*
X235343Y36611D01*
X237248Y35149D01*
X239467Y34230D01*
X241848Y33917D01*
X244229Y34230D01*
X246447Y35149D01*
X248352Y36611D01*
X249814Y38516D01*
X250733Y40735D01*
X251047Y43116D01*
X250733Y45496D01*
X249814Y47715D01*
X248352Y49620D01*
X246447Y51082D01*
X244229Y52001D01*
X241848Y52314D01*
D02*
G37*
G36*
X216448D02*
X214067Y52001D01*
X211849Y51082D01*
X209943Y49620D01*
X208482Y47715D01*
X207563Y45496D01*
X207249Y43116D01*
X207563Y40735D01*
X208482Y38516D01*
X209943Y36611D01*
X211849Y35149D01*
X214067Y34230D01*
X216448Y33917D01*
X218829Y34230D01*
X221047Y35149D01*
X222952Y36611D01*
X224414Y38516D01*
X225333Y40735D01*
X225647Y43116D01*
X225333Y45496D01*
X224414Y47715D01*
X222952Y49620D01*
X221047Y51082D01*
X218829Y52001D01*
X216448Y52314D01*
D02*
G37*
G36*
X191048D02*
X188667Y52001D01*
X186448Y51082D01*
X184543Y49620D01*
X183082Y47715D01*
X182163Y45496D01*
X181849Y43116D01*
X182163Y40735D01*
X183082Y38516D01*
X184543Y36611D01*
X186448Y35149D01*
X188667Y34230D01*
X191048Y33917D01*
X193429Y34230D01*
X195647Y35149D01*
X197552Y36611D01*
X199014Y38516D01*
X199933Y40735D01*
X200247Y43116D01*
X199933Y45496D01*
X199014Y47715D01*
X197552Y49620D01*
X195647Y51082D01*
X193429Y52001D01*
X191048Y52314D01*
D02*
G37*
G36*
X165648D02*
X163267Y52001D01*
X161049Y51082D01*
X159143Y49620D01*
X157682Y47715D01*
X156763Y45496D01*
X156449Y43116D01*
X156763Y40735D01*
X157682Y38516D01*
X159143Y36611D01*
X161049Y35149D01*
X163267Y34230D01*
X165648Y33917D01*
X168029Y34230D01*
X170247Y35149D01*
X172152Y36611D01*
X173614Y38516D01*
X174533Y40735D01*
X174847Y43116D01*
X174533Y45496D01*
X173614Y47715D01*
X172152Y49620D01*
X170247Y51082D01*
X168029Y52001D01*
X165648Y52314D01*
D02*
G37*
G36*
X140248D02*
X137867Y52001D01*
X135648Y51082D01*
X133743Y49620D01*
X132282Y47715D01*
X131363Y45496D01*
X131049Y43116D01*
X131363Y40735D01*
X132282Y38516D01*
X133743Y36611D01*
X135648Y35149D01*
X137867Y34230D01*
X140248Y33917D01*
X142629Y34230D01*
X144847Y35149D01*
X146752Y36611D01*
X148214Y38516D01*
X149133Y40735D01*
X149447Y43116D01*
X149133Y45496D01*
X148214Y47715D01*
X146752Y49620D01*
X144847Y51082D01*
X142629Y52001D01*
X140248Y52314D01*
D02*
G37*
G36*
X114848D02*
X112467Y52001D01*
X110248Y51082D01*
X108343Y49620D01*
X106882Y47715D01*
X105963Y45496D01*
X105649Y43116D01*
X105963Y40735D01*
X106882Y38516D01*
X108343Y36611D01*
X110248Y35149D01*
X112467Y34230D01*
X114848Y33917D01*
X117229Y34230D01*
X119447Y35149D01*
X121352Y36611D01*
X122814Y38516D01*
X123733Y40735D01*
X124047Y43116D01*
X123733Y45496D01*
X122814Y47715D01*
X121352Y49620D01*
X119447Y51082D01*
X117229Y52001D01*
X114848Y52314D01*
D02*
G37*
G36*
X89448D02*
X87067Y52001D01*
X84848Y51082D01*
X82943Y49620D01*
X81482Y47715D01*
X80563Y45496D01*
X80249Y43116D01*
X80563Y40735D01*
X81482Y38516D01*
X82943Y36611D01*
X84848Y35149D01*
X87067Y34230D01*
X89448Y33917D01*
X91829Y34230D01*
X94047Y35149D01*
X95952Y36611D01*
X97414Y38516D01*
X98333Y40735D01*
X98647Y43116D01*
X98333Y45496D01*
X97414Y47715D01*
X95952Y49620D01*
X94047Y51082D01*
X91829Y52001D01*
X89448Y52314D01*
D02*
G37*
G36*
X64048D02*
X61667Y52001D01*
X59448Y51082D01*
X57543Y49620D01*
X56082Y47715D01*
X55163Y45496D01*
X54849Y43116D01*
X55163Y40735D01*
X56082Y38516D01*
X57543Y36611D01*
X59448Y35149D01*
X61667Y34230D01*
X64048Y33917D01*
X66429Y34230D01*
X68647Y35149D01*
X70552Y36611D01*
X72014Y38516D01*
X72933Y40735D01*
X73247Y43116D01*
X72933Y45496D01*
X72014Y47715D01*
X70552Y49620D01*
X68647Y51082D01*
X66429Y52001D01*
X64048Y52314D01*
D02*
G37*
G36*
X38648D02*
X36267Y52001D01*
X34049Y51082D01*
X32143Y49620D01*
X30682Y47715D01*
X29763Y45496D01*
X29449Y43116D01*
X29763Y40735D01*
X30682Y38516D01*
X32143Y36611D01*
X34049Y35149D01*
X36267Y34230D01*
X38648Y33917D01*
X41029Y34230D01*
X43247Y35149D01*
X45152Y36611D01*
X46614Y38516D01*
X47533Y40735D01*
X47847Y43116D01*
X47533Y45496D01*
X46614Y47715D01*
X45152Y49620D01*
X43247Y51082D01*
X41029Y52001D01*
X38648Y52314D01*
D02*
G37*
G36*
X302728Y41845D02*
X293918D01*
Y33035D01*
X295300Y33217D01*
X297772Y34241D01*
X299894Y35869D01*
X301523Y37992D01*
X302546Y40463D01*
X302728Y41845D01*
D02*
G37*
G36*
X277328D02*
X268518D01*
Y33035D01*
X269900Y33217D01*
X272372Y34241D01*
X274494Y35869D01*
X276123Y37992D01*
X277146Y40463D01*
X277328Y41845D01*
D02*
G37*
G36*
X291378D02*
X282567D01*
X282749Y40463D01*
X283773Y37992D01*
X285402Y35869D01*
X287524Y34241D01*
X289996Y33217D01*
X291378Y33035D01*
Y41845D01*
D02*
G37*
G36*
X265978D02*
X257167D01*
X257349Y40463D01*
X258373Y37992D01*
X260002Y35869D01*
X262124Y34241D01*
X264596Y33217D01*
X265978Y33035D01*
Y41845D01*
D02*
G37*
G36*
X268518Y27796D02*
Y18986D01*
X277328D01*
X277146Y20368D01*
X276123Y22839D01*
X274494Y24962D01*
X272372Y26590D01*
X269900Y27614D01*
X268518Y27796D01*
D02*
G37*
G36*
X293918D02*
Y18986D01*
X302728D01*
X302546Y20368D01*
X301523Y22839D01*
X299894Y24962D01*
X297772Y26590D01*
X295300Y27614D01*
X293918Y27796D01*
D02*
G37*
G36*
X265978D02*
X264596Y27614D01*
X262124Y26590D01*
X260002Y24962D01*
X258373Y22839D01*
X257349Y20368D01*
X257167Y18986D01*
X265978D01*
Y27796D01*
D02*
G37*
G36*
X291378D02*
X289996Y27614D01*
X287524Y26590D01*
X285402Y24962D01*
X283773Y22839D01*
X282749Y20368D01*
X282567Y18986D01*
X291378D01*
Y27796D01*
D02*
G37*
G36*
X241848Y26914D02*
X239467Y26601D01*
X237248Y25682D01*
X235343Y24220D01*
X233882Y22315D01*
X232963Y20096D01*
X232649Y17716D01*
X232963Y15335D01*
X233882Y13116D01*
X235343Y11211D01*
X237248Y9749D01*
X239467Y8830D01*
X241848Y8517D01*
X244229Y8830D01*
X246447Y9749D01*
X248352Y11211D01*
X249814Y13116D01*
X250733Y15335D01*
X251047Y17716D01*
X250733Y20096D01*
X249814Y22315D01*
X248352Y24220D01*
X246447Y25682D01*
X244229Y26601D01*
X241848Y26914D01*
D02*
G37*
G36*
X216448D02*
X214067Y26601D01*
X211849Y25682D01*
X209943Y24220D01*
X208482Y22315D01*
X207563Y20096D01*
X207249Y17716D01*
X207563Y15335D01*
X208482Y13116D01*
X209943Y11211D01*
X211849Y9749D01*
X214067Y8830D01*
X216448Y8517D01*
X218829Y8830D01*
X221047Y9749D01*
X222952Y11211D01*
X224414Y13116D01*
X225333Y15335D01*
X225647Y17716D01*
X225333Y20096D01*
X224414Y22315D01*
X222952Y24220D01*
X221047Y25682D01*
X218829Y26601D01*
X216448Y26914D01*
D02*
G37*
G36*
X191048D02*
X188667Y26601D01*
X186448Y25682D01*
X184543Y24220D01*
X183082Y22315D01*
X182163Y20096D01*
X181849Y17716D01*
X182163Y15335D01*
X183082Y13116D01*
X184543Y11211D01*
X186448Y9749D01*
X188667Y8830D01*
X191048Y8517D01*
X193429Y8830D01*
X195647Y9749D01*
X197552Y11211D01*
X199014Y13116D01*
X199933Y15335D01*
X200247Y17716D01*
X199933Y20096D01*
X199014Y22315D01*
X197552Y24220D01*
X195647Y25682D01*
X193429Y26601D01*
X191048Y26914D01*
D02*
G37*
G36*
X165648D02*
X163267Y26601D01*
X161049Y25682D01*
X159143Y24220D01*
X157682Y22315D01*
X156763Y20096D01*
X156449Y17716D01*
X156763Y15335D01*
X157682Y13116D01*
X159143Y11211D01*
X161049Y9749D01*
X163267Y8830D01*
X165648Y8517D01*
X168029Y8830D01*
X170247Y9749D01*
X172152Y11211D01*
X173614Y13116D01*
X174533Y15335D01*
X174847Y17716D01*
X174533Y20096D01*
X173614Y22315D01*
X172152Y24220D01*
X170247Y25682D01*
X168029Y26601D01*
X165648Y26914D01*
D02*
G37*
G36*
X140248D02*
X137867Y26601D01*
X135648Y25682D01*
X133743Y24220D01*
X132282Y22315D01*
X131363Y20096D01*
X131049Y17716D01*
X131363Y15335D01*
X132282Y13116D01*
X133743Y11211D01*
X135648Y9749D01*
X137867Y8830D01*
X140248Y8517D01*
X142629Y8830D01*
X144847Y9749D01*
X146752Y11211D01*
X148214Y13116D01*
X149133Y15335D01*
X149447Y17716D01*
X149133Y20096D01*
X148214Y22315D01*
X146752Y24220D01*
X144847Y25682D01*
X142629Y26601D01*
X140248Y26914D01*
D02*
G37*
G36*
X114848D02*
X112467Y26601D01*
X110248Y25682D01*
X108343Y24220D01*
X106882Y22315D01*
X105963Y20096D01*
X105649Y17716D01*
X105963Y15335D01*
X106882Y13116D01*
X108343Y11211D01*
X110248Y9749D01*
X112467Y8830D01*
X114848Y8517D01*
X117229Y8830D01*
X119447Y9749D01*
X121352Y11211D01*
X122814Y13116D01*
X123733Y15335D01*
X124047Y17716D01*
X123733Y20096D01*
X122814Y22315D01*
X121352Y24220D01*
X119447Y25682D01*
X117229Y26601D01*
X114848Y26914D01*
D02*
G37*
G36*
X89448D02*
X87067Y26601D01*
X84848Y25682D01*
X82943Y24220D01*
X81482Y22315D01*
X80563Y20096D01*
X80249Y17716D01*
X80563Y15335D01*
X81482Y13116D01*
X82943Y11211D01*
X84848Y9749D01*
X87067Y8830D01*
X89448Y8517D01*
X91829Y8830D01*
X94047Y9749D01*
X95952Y11211D01*
X97414Y13116D01*
X98333Y15335D01*
X98647Y17716D01*
X98333Y20096D01*
X97414Y22315D01*
X95952Y24220D01*
X94047Y25682D01*
X91829Y26601D01*
X89448Y26914D01*
D02*
G37*
G36*
X64048D02*
X61667Y26601D01*
X59448Y25682D01*
X57543Y24220D01*
X56082Y22315D01*
X55163Y20096D01*
X54849Y17716D01*
X55163Y15335D01*
X56082Y13116D01*
X57543Y11211D01*
X59448Y9749D01*
X61667Y8830D01*
X64048Y8517D01*
X66429Y8830D01*
X68647Y9749D01*
X70552Y11211D01*
X72014Y13116D01*
X72933Y15335D01*
X73247Y17716D01*
X72933Y20096D01*
X72014Y22315D01*
X70552Y24220D01*
X68647Y25682D01*
X66429Y26601D01*
X64048Y26914D01*
D02*
G37*
G36*
X38648D02*
X36267Y26601D01*
X34049Y25682D01*
X32143Y24220D01*
X30682Y22315D01*
X29763Y20096D01*
X29449Y17716D01*
X29763Y15335D01*
X30682Y13116D01*
X32143Y11211D01*
X34049Y9749D01*
X36267Y8830D01*
X38648Y8517D01*
X41029Y8830D01*
X43247Y9749D01*
X45152Y11211D01*
X46614Y13116D01*
X47533Y15335D01*
X47847Y17716D01*
X47533Y20096D01*
X46614Y22315D01*
X45152Y24220D01*
X43247Y25682D01*
X41029Y26601D01*
X38648Y26914D01*
D02*
G37*
G36*
X302728Y16445D02*
X293918D01*
Y7635D01*
X295300Y7817D01*
X297772Y8841D01*
X299894Y10469D01*
X301523Y12592D01*
X302546Y15063D01*
X302728Y16445D01*
D02*
G37*
G36*
X277328D02*
X268518D01*
Y7635D01*
X269900Y7817D01*
X272372Y8841D01*
X274494Y10469D01*
X276123Y12592D01*
X277146Y15063D01*
X277328Y16445D01*
D02*
G37*
G36*
X291378D02*
X282567D01*
X282749Y15063D01*
X283773Y12592D01*
X285402Y10469D01*
X287524Y8841D01*
X289996Y7817D01*
X291378Y7635D01*
Y16445D01*
D02*
G37*
G36*
X265978D02*
X257167D01*
X257349Y15063D01*
X258373Y12592D01*
X260002Y10469D01*
X262124Y8841D01*
X264596Y7817D01*
X265978Y7635D01*
Y16445D01*
D02*
G37*
%LPD*%
G36*
X375327Y226543D02*
X245326D01*
X245327Y356543D01*
X375327D01*
Y226543D01*
D02*
G37*
D50*
X330536Y118722D02*
D03*
D51*
Y144122D02*
D03*
X21623Y81145D02*
D03*
X227581Y471302D02*
D03*
X308376Y485814D02*
D03*
X359952Y479734D02*
D03*
X312102Y434630D02*
D03*
X217384Y421491D02*
D03*
X170132Y391752D02*
D03*
X11061Y297355D02*
D03*
X205724Y315939D02*
D03*
X135500Y267321D02*
D03*
X176418Y127293D02*
D03*
X203513Y61870D02*
D03*
X247446Y64688D02*
D03*
X270592Y116265D02*
D03*
X295629Y156184D02*
D03*
X328635Y72452D02*
D03*
D63*
X292640Y500487D02*
D03*
X267240D02*
D03*
X241840D02*
D03*
X216440D02*
D03*
X191040D02*
D03*
X165640D02*
D03*
X140240D02*
D03*
X114840D02*
D03*
X89440D02*
D03*
X64040D02*
D03*
X38640D02*
D03*
X13240D02*
D03*
X292640Y525887D02*
D03*
X267240D02*
D03*
X241840D02*
D03*
X216440D02*
D03*
X191040D02*
D03*
X165640D02*
D03*
X140240D02*
D03*
X114840D02*
D03*
X89440D02*
D03*
X64040D02*
D03*
X38640D02*
D03*
X13240D02*
D03*
X89448Y43116D02*
D03*
X64048D02*
D03*
X241848D02*
D03*
X216448D02*
D03*
X267248D02*
D03*
X13248D02*
D03*
X38648D02*
D03*
X114848D02*
D03*
X140248D02*
D03*
X165648D02*
D03*
X191048D02*
D03*
X292648D02*
D03*
X13248Y17716D02*
D03*
X38648D02*
D03*
X64048D02*
D03*
X89448D02*
D03*
X114848D02*
D03*
X140248D02*
D03*
X165648D02*
D03*
X191048D02*
D03*
X216448D02*
D03*
X241848D02*
D03*
X267248D02*
D03*
X292648D02*
D03*
D64*
X44809Y380227D02*
D03*
X38757Y234870D02*
D03*
D65*
X44809Y329426D02*
D03*
X38757Y259871D02*
D03*
D66*
X142315Y163844D02*
D03*
X82315D02*
D03*
D67*
X98003Y437211D02*
D03*
D68*
X148003D02*
D03*
D69*
X112315Y116844D02*
D03*
D70*
X304989Y131018D02*
D03*
D71*
X312440Y279097D02*
D03*
X312394Y290636D02*
D03*
Y302086D02*
D03*
M02*
