G04*
G04 #@! TF.GenerationSoftware,Altium Limited,Altium Designer,23.6.0 (18)*
G04*
G04 Layer_Color=65535*
%FSLAX44Y44*%
%MOMM*%
G71*
G04*
G04 #@! TF.SameCoordinates,5EE9EB4A-2ACB-4C3E-BE2F-BD42E06AEEC1*
G04*
G04*
G04 #@! TF.FilePolarity,Positive*
G04*
G01*
G75*
%ADD10C,0.1524*%
%ADD11C,0.1270*%
%ADD12C,0.2500*%
%ADD13C,0.2540*%
%ADD14C,0.1540*%
%ADD15C,0.2000*%
%ADD16C,0.1500*%
%ADD17C,0.1000*%
%ADD18C,0.5000*%
%ADD19C,0.0500*%
%ADD20C,0.0400*%
%ADD21R,0.5000X1.0000*%
G36*
X149093Y74065D02*
X143483D01*
X149093Y79675D01*
Y74065D01*
D02*
G37*
D10*
X362286Y131421D02*
G03*
X362286Y131421I-31750J0D01*
G01*
X330536Y84431D02*
Y97132D01*
X324186Y86972D02*
X336886D01*
X324186Y94592D02*
X330536Y86972D01*
X325456Y94592D02*
X330536Y86972D01*
X326726Y94592D02*
X330536Y86972D01*
X327996Y94592D02*
X330536Y86972D01*
X329266Y94592D02*
X330536Y86972D01*
X336886Y94592D01*
X330536Y86972D02*
X335616Y94592D01*
X330536Y86972D02*
X334346Y94592D01*
X330536Y86972D02*
X333076Y94592D01*
X330536Y86972D02*
X331806Y94592D01*
X324186D02*
X336886D01*
D11*
X84808Y354826D02*
G03*
X84808Y354826I-40000J0D01*
G01*
X70257Y247370D02*
G03*
X70257Y247370I-31500J0D01*
G01*
X173003Y437211D02*
G03*
X173003Y437211I-50000J0D01*
G01*
X338038Y405044D02*
Y412664D01*
X309038Y405044D02*
X338038D01*
X309038D02*
Y412664D01*
X338038D01*
X256684Y405044D02*
Y412664D01*
X227683Y405044D02*
X256684D01*
X227683D02*
Y412664D01*
X256684D01*
X294394Y308402D02*
X330394D01*
Y272402D02*
Y308402D01*
X294394Y272402D02*
X330394D01*
X294394D02*
Y308402D01*
X138933Y74066D02*
X149093D01*
X138933D02*
Y101065D01*
X149093D01*
Y74066D02*
Y101065D01*
X9605Y423099D02*
Y469100D01*
X37604Y423099D02*
Y469100D01*
X9605Y423099D02*
X14604D01*
X9605Y469100D02*
X14604D01*
X32605Y423099D02*
X37604D01*
X32605Y469100D02*
X37604D01*
X14604Y459100D02*
Y469100D01*
X32605Y459100D02*
Y469100D01*
X9605Y459100D02*
X14495D01*
X32605D02*
X37604D01*
X194500Y219821D02*
Y314821D01*
X75500Y219821D02*
Y314821D01*
X190500Y215821D02*
X194500Y219821D01*
X75500D02*
X80500Y214821D01*
X5315Y118843D02*
Y208846D01*
Y118843D02*
X95315D01*
X5315Y208846D02*
X149315D01*
Y181345D02*
Y208846D01*
X129816Y118843D02*
X149315D01*
Y146344D01*
D12*
X318247Y455072D02*
G03*
X318247Y455072I-1250J0D01*
G01*
X260100D02*
G03*
X260100Y455072I-1250J0D01*
G01*
D13*
X393023Y290492D02*
G03*
X393023Y290492I-80725J0D01*
G01*
D14*
X282735Y106528D02*
G03*
X282735Y106528I-2828J0D01*
G01*
X53875Y62324D02*
Y68842D01*
X57134D01*
X58221Y67756D01*
Y65583D01*
X57134Y64497D01*
X53875D01*
X64738Y67756D02*
X63652Y68842D01*
X61480D01*
X60393Y67756D01*
Y66669D01*
X61480Y65583D01*
X63652D01*
X64738Y64497D01*
Y63411D01*
X63652Y62324D01*
X61480D01*
X60393Y63411D01*
D15*
X54847Y72320D02*
X64597D01*
X42847Y103320D02*
X64597D01*
X360268Y399688D02*
X368268D01*
X360268Y384688D02*
X368268D01*
X277457Y379238D02*
X285457D01*
X277457Y403238D02*
X285457D01*
X319747Y464572D02*
Y469571D01*
X350747Y464572D02*
Y469571D01*
X319747Y464572D02*
X350747D01*
X319747Y469571D02*
X350747D01*
X261600Y464572D02*
Y469571D01*
X292600Y464572D02*
Y469571D01*
X261600Y464572D02*
X292600D01*
X261600Y469571D02*
X292600D01*
X255907Y100757D02*
Y131757D01*
X285907D01*
Y100757D02*
Y131757D01*
X255907Y100757D02*
X285907D01*
X364483Y56609D02*
Y53277D01*
X366149Y51611D01*
X372814D01*
X374480Y53277D01*
Y56609D01*
X372814Y58276D01*
X366149D01*
X364483Y56609D01*
X377812Y61608D02*
X367816D01*
Y66606D01*
X369482Y68272D01*
X372814D01*
X374480Y66606D01*
Y61608D01*
Y76603D02*
Y73271D01*
X372814Y71605D01*
X369482D01*
X367816Y73271D01*
Y76603D01*
X369482Y78269D01*
X371148D01*
Y71605D01*
X374480Y81601D02*
X367816D01*
Y86600D01*
X369482Y88266D01*
X374480D01*
X364483Y91598D02*
X371148D01*
X374480Y94930D01*
X371148Y98263D01*
X364483D01*
Y101595D02*
X374480D01*
Y108259D01*
X366149Y118256D02*
X364483Y116590D01*
Y113258D01*
X366149Y111592D01*
X372814D01*
X374480Y113258D01*
Y116590D01*
X372814Y118256D01*
X374480Y121588D02*
Y124921D01*
Y123255D01*
X364483D01*
X366149Y121588D01*
X374480Y129919D02*
X372814D01*
Y131585D01*
X374480D01*
Y129919D01*
X366149Y138250D02*
X364483Y139916D01*
Y143248D01*
X366149Y144914D01*
X367816D01*
X369482Y143248D01*
Y141582D01*
Y143248D01*
X371148Y144914D01*
X372814D01*
X374480Y143248D01*
Y139916D01*
X372814Y138250D01*
X374480Y148247D02*
X372814D01*
Y149913D01*
X374480D01*
Y148247D01*
Y163242D02*
Y156577D01*
X367816Y163242D01*
X366149D01*
X364483Y161576D01*
Y158243D01*
X366149Y156577D01*
D16*
X380811Y51746D02*
Y55412D01*
Y53579D01*
X391808D01*
Y51746D01*
Y55412D01*
Y60910D02*
X380811D01*
X384477Y64576D01*
X380811Y68241D01*
X391808D01*
X380811Y71906D02*
X391808D01*
Y77405D01*
X389975Y79237D01*
X382644D01*
X380811Y77405D01*
Y71906D01*
Y90234D02*
Y82903D01*
X391808D01*
Y90234D01*
X386310Y82903D02*
Y86568D01*
X391808Y93899D02*
X384477D01*
X380811Y97565D01*
X384477Y101230D01*
X391808D01*
X386310D01*
Y93899D01*
X391808Y115892D02*
X380811D01*
X391808Y123223D01*
X380811D01*
X391808Y132387D02*
Y128722D01*
X389975Y126889D01*
X386310D01*
X384477Y128722D01*
Y132387D01*
X386310Y134220D01*
X388142D01*
Y126889D01*
X382644Y139718D02*
X384477D01*
Y137885D01*
Y141551D01*
Y139718D01*
X389975D01*
X391808Y141551D01*
X384477Y147049D02*
X389975D01*
X391808Y148882D01*
X389975Y150714D01*
X391808Y152547D01*
X389975Y154380D01*
X384477D01*
X391808Y159878D02*
Y163544D01*
X389975Y165376D01*
X386310D01*
X384477Y163544D01*
Y159878D01*
X386310Y158045D01*
X389975D01*
X391808Y159878D01*
X384477Y169042D02*
X391808D01*
X388142D01*
X386310Y170875D01*
X384477Y172707D01*
Y174540D01*
X391808Y180038D02*
X380811D01*
X388142D02*
X384477Y185536D01*
X388142Y180038D02*
X391808Y185536D01*
Y191035D02*
Y196533D01*
X389975Y198366D01*
X388142Y196533D01*
Y192868D01*
X386310Y191035D01*
X384477Y192868D01*
Y198366D01*
D17*
X46574Y305144D02*
Y311809D01*
X43241Y308477D02*
X49906D01*
X282739Y289464D02*
X289404D01*
X286072Y292796D02*
Y286132D01*
X50719Y287513D02*
Y280848D01*
X54052Y284181D02*
X47387D01*
X184184Y434293D02*
X177519D01*
X180851Y430961D02*
Y437625D01*
D18*
X333133Y430056D02*
X333086Y430104D01*
X333038Y430056D01*
X333086Y430008D01*
X333133Y430056D01*
X251779D02*
X251731Y430104D01*
X251684Y430056D01*
X251731Y430008D01*
X251779Y430056D01*
D19*
X166478Y77524D02*
X166763Y77810D01*
X166478Y78095D01*
X166192Y77810D01*
X166478Y77524D01*
X306754Y534909D02*
X312752D01*
Y531910D01*
X311753Y530910D01*
X309753D01*
X308754Y531910D01*
Y534909D01*
X306754Y528911D02*
Y526912D01*
Y527911D01*
X312752D01*
X311753Y528911D01*
D20*
X355629Y436049D02*
Y440048D01*
X357629D01*
X358295Y439381D01*
Y438049D01*
X357629Y437382D01*
X355629D01*
X356962D02*
X358295Y436049D01*
X361627D02*
Y440048D01*
X359628Y438049D01*
X362294D01*
X363627Y435383D02*
X366292D01*
X370291Y436049D02*
X367625D01*
X370291Y438715D01*
Y439381D01*
X369625Y440048D01*
X368292D01*
X367625Y439381D01*
X374290Y436049D02*
X371624D01*
X374290Y438715D01*
Y439381D01*
X373623Y440048D01*
X372290D01*
X371624Y439381D01*
X245832Y435833D02*
Y439832D01*
X247831D01*
X248497Y439166D01*
Y437833D01*
X247831Y437166D01*
X245832D01*
X247164D02*
X248497Y435833D01*
X251830D02*
Y439832D01*
X249830Y437833D01*
X252496D01*
X253829Y435167D02*
X256495D01*
X260494Y435833D02*
X257828D01*
X260494Y438499D01*
Y439166D01*
X259827Y439832D01*
X258494D01*
X257828Y439166D01*
X261826Y435833D02*
X263159D01*
X262493D01*
Y439832D01*
X261826Y439166D01*
X354701Y408924D02*
Y412923D01*
X356700D01*
X357367Y412256D01*
Y410923D01*
X356700Y410257D01*
X354701D01*
X356034D02*
X357367Y408924D01*
X360699D02*
Y412923D01*
X358700Y410923D01*
X361365D01*
X362698Y408258D02*
X365364D01*
X366697Y408924D02*
X368030D01*
X367364D01*
Y412923D01*
X366697Y412256D01*
X372695Y408924D02*
X370029D01*
X372695Y411590D01*
Y412256D01*
X372029Y412923D01*
X370696D01*
X370029Y412256D01*
X272922Y407778D02*
Y411776D01*
X274921D01*
X275587Y411110D01*
Y409777D01*
X274921Y409110D01*
X272922D01*
X274254D02*
X275587Y407778D01*
X278920D02*
Y411776D01*
X276920Y409777D01*
X279586D01*
X280919Y407111D02*
X283585D01*
X284918Y407778D02*
X286250D01*
X285584D01*
Y411776D01*
X284918Y411110D01*
X288250Y407778D02*
X289583D01*
X288916D01*
Y411776D01*
X288250Y411110D01*
X307525Y382768D02*
Y386767D01*
X308858Y385434D01*
X310191Y386767D01*
Y382768D01*
X313523Y386767D02*
X312190D01*
X311524Y386100D01*
Y383435D01*
X312190Y382768D01*
X313523D01*
X314190Y383435D01*
Y386100D01*
X313523Y386767D01*
X318189Y386100D02*
X317522Y386767D01*
X316189D01*
X315523Y386100D01*
Y385434D01*
X316189Y384767D01*
X317522D01*
X318189Y384101D01*
Y383435D01*
X317522Y382768D01*
X316189D01*
X315523Y383435D01*
X322187Y386767D02*
X319522D01*
Y384767D01*
X320854D01*
X319522D01*
Y382768D01*
X326186Y386767D02*
X323520D01*
Y382768D01*
X326186D01*
X323520Y384767D02*
X324853D01*
X327519Y386767D02*
X330185D01*
X328852D01*
Y382768D01*
X331517Y382102D02*
X334183D01*
X335516Y386767D02*
X336849D01*
X336183D01*
Y382768D01*
X335516D01*
X336849D01*
X327208Y488030D02*
Y492029D01*
X328540Y490696D01*
X329873Y492029D01*
Y488030D01*
X333872Y491362D02*
X333206Y492029D01*
X331873D01*
X331206Y491362D01*
Y488697D01*
X331873Y488030D01*
X333206D01*
X333872Y488697D01*
Y490029D01*
X332539D01*
X335205Y492029D02*
Y488030D01*
X337204D01*
X337871Y488697D01*
Y491362D01*
X337204Y492029D01*
X335205D01*
X339204Y487364D02*
X341870D01*
X343202Y492029D02*
X344535D01*
X343869D01*
Y488030D01*
X343202D01*
X344535D01*
X231233Y480752D02*
Y484751D01*
X232566Y483418D01*
X233899Y484751D01*
Y480752D01*
X237897Y484084D02*
X237231Y484751D01*
X235898D01*
X235231Y484084D01*
Y481418D01*
X235898Y480752D01*
X237231D01*
X237897Y481418D01*
Y482751D01*
X236564D01*
X239230Y484751D02*
Y480752D01*
X241230D01*
X241896Y481418D01*
Y484084D01*
X241230Y484751D01*
X239230D01*
X243229Y480085D02*
X245895D01*
X249893Y484084D02*
X249227Y484751D01*
X247894D01*
X247228Y484084D01*
Y481418D01*
X247894Y480752D01*
X249227D01*
X249893Y481418D01*
X301778Y447794D02*
X301112Y448461D01*
X299779D01*
X299113Y447794D01*
Y445128D01*
X299779Y444462D01*
X301112D01*
X301778Y445128D01*
X305777Y448461D02*
X304444Y447794D01*
X303111Y446461D01*
Y445128D01*
X303778Y444462D01*
X305111D01*
X305777Y445128D01*
Y445795D01*
X305111Y446461D01*
X303111D01*
X307110Y443796D02*
X309776D01*
X313775Y444462D02*
X311109D01*
X313775Y447128D01*
Y447794D01*
X313108Y448461D01*
X311775D01*
X311109Y447794D01*
X242457Y448010D02*
X241791Y448676D01*
X240458D01*
X239792Y448010D01*
Y445344D01*
X240458Y444678D01*
X241791D01*
X242457Y445344D01*
X246456Y448676D02*
X245123Y448010D01*
X243790Y446677D01*
Y445344D01*
X244457Y444678D01*
X245790D01*
X246456Y445344D01*
Y446011D01*
X245790Y446677D01*
X243790D01*
X247789Y444011D02*
X250455D01*
X251788Y444678D02*
X253121D01*
X252454D01*
Y448676D01*
X251788Y448010D01*
X230202Y82427D02*
X229536Y83093D01*
X228203D01*
X227536Y82427D01*
Y79761D01*
X228203Y79095D01*
X229536D01*
X230202Y79761D01*
X231535Y79095D02*
X232868D01*
X232201D01*
Y83093D01*
X231535Y82427D01*
X234867D02*
X235534Y83093D01*
X236866D01*
X237533Y82427D01*
Y81760D01*
X236866Y81094D01*
X236200D01*
X236866D01*
X237533Y80427D01*
Y79761D01*
X236866Y79095D01*
X235534D01*
X234867Y79761D01*
X224984Y134961D02*
Y138960D01*
X226983D01*
X227650Y138294D01*
Y136961D01*
X226983Y136294D01*
X224984D01*
X226317D02*
X227650Y134961D01*
X228983D02*
X230316D01*
X229649D01*
Y138960D01*
X228983Y138294D01*
X232315D02*
X232981Y138960D01*
X234314D01*
X234981Y138294D01*
Y135628D01*
X234314Y134961D01*
X232981D01*
X232315Y135628D01*
Y138294D01*
X287812Y319253D02*
Y315254D01*
Y317253D01*
X290478D01*
Y319253D01*
Y315254D01*
X291811Y319253D02*
Y315254D01*
X294477D01*
X196658Y138540D02*
X195992Y139207D01*
X194659D01*
X193993Y138540D01*
Y135875D01*
X194659Y135208D01*
X195992D01*
X196658Y135875D01*
X197991Y135208D02*
X199324D01*
X198658D01*
Y139207D01*
X197991Y138540D01*
X203989Y135208D02*
X201324D01*
X203989Y137874D01*
Y138540D01*
X203323Y139207D01*
X201990D01*
X201324Y138540D01*
X80513Y480713D02*
X79846Y481379D01*
X78513D01*
X77847Y480713D01*
Y478047D01*
X78513Y477380D01*
X79846D01*
X80513Y478047D01*
X83845Y477380D02*
Y481379D01*
X81846Y479380D01*
X84511D01*
X60564Y421983D02*
Y425982D01*
X62564D01*
X63230Y425315D01*
Y423983D01*
X62564Y423316D01*
X60564D01*
X61897D02*
X63230Y421983D01*
X64563Y425315D02*
X65230Y425982D01*
X66563D01*
X67229Y425315D01*
Y424649D01*
X66563Y423983D01*
X65896D01*
X66563D01*
X67229Y423316D01*
Y422650D01*
X66563Y421983D01*
X65230D01*
X64563Y422650D01*
X44162Y421758D02*
Y425757D01*
X46162D01*
X46828Y425091D01*
Y423758D01*
X46162Y423091D01*
X44162D01*
X45495D02*
X46828Y421758D01*
X50827D02*
X48161D01*
X50827Y424424D01*
Y425091D01*
X50160Y425757D01*
X48828D01*
X48161Y425091D01*
X158172Y207296D02*
Y203297D01*
X160171D01*
X160838Y203964D01*
Y206630D01*
X160171Y207296D01*
X158172D01*
X164836Y206630D02*
X164170Y207296D01*
X162837D01*
X162171Y206630D01*
Y203964D01*
X162837Y203297D01*
X164170D01*
X164836Y203964D01*
X166169Y205297D02*
X168835D01*
X170168Y207296D02*
Y203297D01*
X172167D01*
X172834Y203964D01*
Y206630D01*
X172167Y207296D01*
X170168D01*
X176832Y206630D02*
X176166Y207296D01*
X174833D01*
X174167Y206630D01*
Y203964D01*
X174833Y203297D01*
X176166D01*
X176832Y203964D01*
X29007Y289351D02*
X28341Y290017D01*
X27008D01*
X26342Y289351D01*
Y286685D01*
X27008Y286019D01*
X28341D01*
X29007Y286685D01*
X33006Y286019D02*
X30340D01*
X33006Y288684D01*
Y289351D01*
X32340Y290017D01*
X31007D01*
X30340Y289351D01*
X21134Y486457D02*
Y482458D01*
X23133D01*
X23800Y483124D01*
Y485790D01*
X23133Y486457D01*
X21134D01*
X25133Y482458D02*
X26465D01*
X25799D01*
Y486457D01*
X25133Y485790D01*
X210351Y363506D02*
Y367504D01*
X212350D01*
X213016Y366838D01*
Y365505D01*
X212350Y364839D01*
X210351D01*
X211684D02*
X213016Y363506D01*
X214349D02*
X215682D01*
X215016D01*
Y367504D01*
X214349Y366838D01*
X212350Y380391D02*
X211684Y381057D01*
X210351D01*
X209684Y380391D01*
Y377725D01*
X210351Y377058D01*
X211684D01*
X212350Y377725D01*
X216349Y381057D02*
X213683D01*
Y379058D01*
X215016Y379724D01*
X215682D01*
X216349Y379058D01*
Y377725D01*
X215682Y377058D01*
X214349D01*
X213683Y377725D01*
X11905Y276976D02*
X11238Y277642D01*
X9905D01*
X9239Y276976D01*
Y274310D01*
X9905Y273644D01*
X11238D01*
X11905Y274310D01*
X13238Y273644D02*
X14570D01*
X13904D01*
Y277642D01*
X13238Y276976D01*
X212350Y353350D02*
X211684Y354017D01*
X210351D01*
X209684Y353350D01*
Y350684D01*
X210351Y350018D01*
X211684D01*
X212350Y350684D01*
X213683Y353350D02*
X214349Y354017D01*
X215682D01*
X216349Y353350D01*
Y352684D01*
X215682Y352017D01*
X215016D01*
X215682D01*
X216349Y351351D01*
Y350684D01*
X215682Y350018D01*
X214349D01*
X213683Y350684D01*
X4911Y387276D02*
Y383278D01*
X7577D01*
X8910D02*
X10243D01*
X9576D01*
Y387276D01*
X8910Y386610D01*
X133986Y105180D02*
Y107846D01*
X135319Y109179D01*
X136651Y107846D01*
Y105180D01*
Y107179D01*
X133986D01*
X137984Y109179D02*
Y105180D01*
X139984D01*
X140650Y105847D01*
Y108512D01*
X139984Y109179D01*
X137984D01*
X144649Y108512D02*
X143982Y109179D01*
X142650D01*
X141983Y108512D01*
Y105847D01*
X142650Y105180D01*
X143982D01*
X144649Y105847D01*
X145982Y104514D02*
X148648D01*
X149980Y105180D02*
Y109179D01*
X151980D01*
X152646Y108512D01*
Y107179D01*
X151980Y106513D01*
X149980D01*
X153979Y109179D02*
Y105180D01*
X155979D01*
X156645Y105847D01*
Y108512D01*
X155979Y109179D01*
X153979D01*
X225339Y382337D02*
Y386335D01*
X226672Y385003D01*
X228005Y386335D01*
Y382337D01*
X231337Y386335D02*
X230004D01*
X229338Y385669D01*
Y383003D01*
X230004Y382337D01*
X231337D01*
X232003Y383003D01*
Y385669D01*
X231337Y386335D01*
X236002Y385669D02*
X235336Y386335D01*
X234003D01*
X233336Y385669D01*
Y385003D01*
X234003Y384336D01*
X235336D01*
X236002Y383670D01*
Y383003D01*
X235336Y382337D01*
X234003D01*
X233336Y383003D01*
X240001Y386335D02*
X237335D01*
Y384336D01*
X238668D01*
X237335D01*
Y382337D01*
X244000Y386335D02*
X241334D01*
Y382337D01*
X244000D01*
X241334Y384336D02*
X242666D01*
X245332Y386335D02*
X247998D01*
X246665D01*
Y382337D01*
X249331Y381670D02*
X251997D01*
X255996Y385669D02*
X255329Y386335D01*
X253996D01*
X253330Y385669D01*
Y383003D01*
X253996Y382337D01*
X255329D01*
X255996Y383003D01*
X256524Y89917D02*
X255857Y90584D01*
X254524D01*
X253858Y89917D01*
Y87252D01*
X254524Y86585D01*
X255857D01*
X256524Y87252D01*
X257857D02*
X258523Y86585D01*
X259856D01*
X260522Y87252D01*
Y89917D01*
X259856Y90584D01*
X258523D01*
X257857Y89917D01*
Y89251D01*
X258523Y88585D01*
X260522D01*
X291624Y63013D02*
X290957Y63680D01*
X289625D01*
X288958Y63013D01*
Y60348D01*
X289625Y59681D01*
X290957D01*
X291624Y60348D01*
X292957Y59681D02*
X294290D01*
X293623D01*
Y63680D01*
X292957Y63013D01*
X296289D02*
X296955Y63680D01*
X298288D01*
X298955Y63013D01*
Y60348D01*
X298288Y59681D01*
X296955D01*
X296289Y60348D01*
Y63013D01*
X269023Y64991D02*
X268356Y65658D01*
X267023D01*
X266357Y64991D01*
Y62325D01*
X267023Y61659D01*
X268356D01*
X269023Y62325D01*
X270356Y61659D02*
X271688D01*
X271022D01*
Y65658D01*
X270356Y64991D01*
X273688Y61659D02*
X275021D01*
X274354D01*
Y65658D01*
X273688Y64991D01*
X337775Y160629D02*
Y164628D01*
X339774D01*
X340440Y163961D01*
Y162628D01*
X339774Y161962D01*
X337775D01*
X341773Y164628D02*
Y160629D01*
X343773D01*
X344439Y161295D01*
Y163961D01*
X343773Y164628D01*
X341773D01*
X291218Y96408D02*
Y100407D01*
X293218D01*
X293884Y99740D01*
Y98407D01*
X293218Y97741D01*
X291218D01*
X292551D02*
X293884Y96408D01*
X297883Y100407D02*
X295217D01*
Y98407D01*
X296550Y99074D01*
X297216D01*
X297883Y98407D01*
Y97074D01*
X297216Y96408D01*
X295883D01*
X295217Y97074D01*
X312689Y61376D02*
Y65375D01*
X314689D01*
X315355Y64708D01*
Y63376D01*
X314689Y62709D01*
X312689D01*
X314022D02*
X315355Y61376D01*
X319354Y65375D02*
X318021Y64708D01*
X316688Y63376D01*
Y62043D01*
X317354Y61376D01*
X318687D01*
X319354Y62043D01*
Y62709D01*
X318687Y63376D01*
X316688D01*
X260424Y165341D02*
Y169340D01*
X262423D01*
X263090Y168674D01*
Y167341D01*
X262423Y166674D01*
X260424D01*
X261757D02*
X263090Y165341D01*
X264423Y169340D02*
X267089D01*
Y168674D01*
X264423Y166008D01*
Y165341D01*
X277940Y165906D02*
Y169905D01*
X279939D01*
X280606Y169239D01*
Y167906D01*
X279939Y167239D01*
X277940D01*
X279273D02*
X280606Y165906D01*
X281939Y169239D02*
X282605Y169905D01*
X283938D01*
X284604Y169239D01*
Y168572D01*
X283938Y167906D01*
X284604Y167239D01*
Y166573D01*
X283938Y165906D01*
X282605D01*
X281939Y166573D01*
Y167239D01*
X282605Y167906D01*
X281939Y168572D01*
Y169239D01*
X282605Y167906D02*
X283938D01*
X211016Y134548D02*
Y138546D01*
X213015D01*
X213682Y137880D01*
Y136547D01*
X213015Y135881D01*
X211016D01*
X212349D02*
X213682Y134548D01*
X215014Y135214D02*
X215681Y134548D01*
X217014D01*
X217680Y135214D01*
Y137880D01*
X217014Y138546D01*
X215681D01*
X215014Y137880D01*
Y137214D01*
X215681Y136547D01*
X217680D01*
X228269Y93854D02*
Y97852D01*
X230268D01*
X230935Y97186D01*
Y95853D01*
X230268Y95186D01*
X228269D01*
X229602D02*
X230935Y93854D01*
X232268D02*
X233601D01*
X232934D01*
Y97852D01*
X232268Y97186D01*
X235600Y93854D02*
X236933D01*
X236266D01*
Y97852D01*
X235600Y97186D01*
X161883Y64668D02*
X161216Y65334D01*
X159883D01*
X159217Y64668D01*
Y62002D01*
X159883Y61336D01*
X161216D01*
X161883Y62002D01*
X163216Y65334D02*
X165882D01*
Y64668D01*
X163216Y62002D01*
Y61336D01*
X180910Y88245D02*
X180243Y88911D01*
X178910D01*
X178244Y88245D01*
Y85579D01*
X178910Y84912D01*
X180243D01*
X180910Y85579D01*
X182243Y88245D02*
X182909Y88911D01*
X184242D01*
X184909Y88245D01*
Y87578D01*
X184242Y86912D01*
X184909Y86245D01*
Y85579D01*
X184242Y84912D01*
X182909D01*
X182243Y85579D01*
Y86245D01*
X182909Y86912D01*
X182243Y87578D01*
Y88245D01*
X182909Y86912D02*
X184242D01*
D21*
X12105Y464104D02*
D03*
X35104D02*
D03*
M02*
