G04*
G04 #@! TF.GenerationSoftware,Altium Limited,Altium Designer,23.6.0 (18)*
G04*
G04 Layer_Physical_Order=1*
G04 Layer_Color=255*
%FSLAX44Y44*%
%MOMM*%
G71*
G04*
G04 #@! TF.SameCoordinates,5EE9EB4A-2ACB-4C3E-BE2F-BD42E06AEEC1*
G04*
G04*
G04 #@! TF.FilePolarity,Positive*
G04*
G01*
G75*
%ADD22R,0.6500X1.1000*%
%ADD23R,1.0000X0.6000*%
%ADD24R,1.1000X1.7000*%
%ADD25R,1.1000X2.6000*%
G04:AMPARAMS|DCode=26|XSize=0.6mm|YSize=1mm|CornerRadius=0.075mm|HoleSize=0mm|Usage=FLASHONLY|Rotation=180.000|XOffset=0mm|YOffset=0mm|HoleType=Round|Shape=RoundedRectangle|*
%AMROUNDEDRECTD26*
21,1,0.6000,0.8500,0,0,180.0*
21,1,0.4500,1.0000,0,0,180.0*
1,1,0.1500,-0.2250,0.4250*
1,1,0.1500,0.2250,0.4250*
1,1,0.1500,0.2250,-0.4250*
1,1,0.1500,-0.2250,-0.4250*
%
%ADD26ROUNDEDRECTD26*%
%ADD27R,0.9000X0.8000*%
%ADD28R,0.8000X0.9000*%
%ADD29R,0.5000X3.3000*%
%ADD30R,1.3000X3.3000*%
G04:AMPARAMS|DCode=31|XSize=0.6mm|YSize=1mm|CornerRadius=0.075mm|HoleSize=0mm|Usage=FLASHONLY|Rotation=270.000|XOffset=0mm|YOffset=0mm|HoleType=Round|Shape=RoundedRectangle|*
%AMROUNDEDRECTD31*
21,1,0.6000,0.8500,0,0,270.0*
21,1,0.4500,1.0000,0,0,270.0*
1,1,0.1500,-0.4250,-0.2250*
1,1,0.1500,-0.4250,0.2250*
1,1,0.1500,0.4250,0.2250*
1,1,0.1500,0.4250,-0.2250*
%
%ADD31ROUNDEDRECTD31*%
G04:AMPARAMS|DCode=32|XSize=2.2mm|YSize=1.5mm|CornerRadius=0.1875mm|HoleSize=0mm|Usage=FLASHONLY|Rotation=90.000|XOffset=0mm|YOffset=0mm|HoleType=Round|Shape=RoundedRectangle|*
%AMROUNDEDRECTD32*
21,1,2.2000,1.1250,0,0,90.0*
21,1,1.8250,1.5000,0,0,90.0*
1,1,0.3750,0.5625,0.9125*
1,1,0.3750,0.5625,-0.9125*
1,1,0.3750,-0.5625,-0.9125*
1,1,0.3750,-0.5625,0.9125*
%
%ADD32ROUNDEDRECTD32*%
G04:AMPARAMS|DCode=33|XSize=10.5mm|YSize=10.5mm|CornerRadius=1.3125mm|HoleSize=0mm|Usage=FLASHONLY|Rotation=90.000|XOffset=0mm|YOffset=0mm|HoleType=Round|Shape=RoundedRectangle|*
%AMROUNDEDRECTD33*
21,1,10.5000,7.8750,0,0,90.0*
21,1,7.8750,10.5000,0,0,90.0*
1,1,2.6250,3.9375,3.9375*
1,1,2.6250,3.9375,-3.9375*
1,1,2.6250,-3.9375,-3.9375*
1,1,2.6250,-3.9375,3.9375*
%
%ADD33ROUNDEDRECTD33*%
G04:AMPARAMS|DCode=34|XSize=2.95mm|YSize=1.05mm|CornerRadius=0.1313mm|HoleSize=0mm|Usage=FLASHONLY|Rotation=90.000|XOffset=0mm|YOffset=0mm|HoleType=Round|Shape=RoundedRectangle|*
%AMROUNDEDRECTD34*
21,1,2.9500,0.7875,0,0,90.0*
21,1,2.6875,1.0500,0,0,90.0*
1,1,0.2625,0.3938,1.3438*
1,1,0.2625,0.3938,-1.3438*
1,1,0.2625,-0.3938,-1.3438*
1,1,0.2625,-0.3938,1.3438*
%
%ADD34ROUNDEDRECTD34*%
G04:AMPARAMS|DCode=35|XSize=0.41mm|YSize=1.02mm|CornerRadius=0.1025mm|HoleSize=0mm|Usage=FLASHONLY|Rotation=90.000|XOffset=0mm|YOffset=0mm|HoleType=Round|Shape=RoundedRectangle|*
%AMROUNDEDRECTD35*
21,1,0.4100,0.8150,0,0,90.0*
21,1,0.2050,1.0200,0,0,90.0*
1,1,0.2050,0.4075,0.1025*
1,1,0.2050,0.4075,-0.1025*
1,1,0.2050,-0.4075,-0.1025*
1,1,0.2050,-0.4075,0.1025*
%
%ADD35ROUNDEDRECTD35*%
%ADD50R,1.2700X1.2700*%
%ADD51C,1.2700*%
%ADD61C,0.3000*%
%ADD62C,0.4000*%
%ADD63C,1.5240*%
%ADD64C,1.2060*%
%ADD65R,1.2060X1.2060*%
%ADD66O,1.5000X3.0000*%
%ADD67C,1.4000*%
%ADD68R,1.4000X1.4000*%
%ADD69O,3.0000X1.5000*%
%ADD70C,0.9000*%
%ADD71C,1.0000*%
G36*
X351918Y539845D02*
Y539845D01*
X351918D01*
X355927Y537387D01*
X363469Y531770D01*
X370475Y525497D01*
X376888Y518618D01*
X382656Y511190D01*
X387731Y503273D01*
X392073Y494931D01*
X395647Y486232D01*
X397035Y481740D01*
X397035Y50709D01*
X397035Y50709D01*
X396025Y47580D01*
X393395Y41555D01*
X390180Y35820D01*
X386411Y30432D01*
X382127Y25445D01*
X377369Y20907D01*
X372185Y16864D01*
X366624Y13356D01*
X360744Y10416D01*
X354600Y8074D01*
X348255Y6353D01*
X341770Y5270D01*
X338490Y5053D01*
X7094Y5053D01*
Y9506D01*
X8233Y10068D01*
X8648Y9749D01*
X10867Y8830D01*
X13248Y8517D01*
X15629Y8830D01*
X17847Y9749D01*
X19752Y11211D01*
X21214Y13116D01*
X22133Y15335D01*
X22447Y17716D01*
X22133Y20096D01*
X21214Y22315D01*
X19752Y24220D01*
X17847Y25682D01*
X15629Y26601D01*
X13248Y26914D01*
X10867Y26601D01*
X8648Y25682D01*
X8233Y25363D01*
X7094Y25924D01*
Y34906D01*
X8233Y35468D01*
X8648Y35149D01*
X10867Y34230D01*
X13248Y33917D01*
X15629Y34230D01*
X17847Y35149D01*
X19752Y36611D01*
X21214Y38516D01*
X22133Y40735D01*
X22447Y43116D01*
X22133Y45496D01*
X21214Y47715D01*
X19752Y49620D01*
X17847Y51082D01*
X15629Y52001D01*
X13248Y52314D01*
X10867Y52001D01*
X8648Y51082D01*
X8233Y50763D01*
X7094Y51325D01*
X7094Y289127D01*
X8364Y289975D01*
X9011Y289707D01*
X11061Y289437D01*
X13110Y289707D01*
X15019Y290498D01*
X16659Y291756D01*
X16706Y291817D01*
X17976Y291385D01*
Y291238D01*
X28976D01*
Y303238D01*
X17976D01*
X17976Y303238D01*
Y303238D01*
X16706Y302893D01*
X16659Y302954D01*
X15019Y304212D01*
X13110Y305003D01*
X11061Y305273D01*
X9011Y305003D01*
X8364Y304735D01*
X7094Y305583D01*
X7094Y492271D01*
X8233Y492833D01*
X8640Y492520D01*
X10859Y491601D01*
X13240Y491288D01*
X15620Y491601D01*
X17839Y492520D01*
X19744Y493982D01*
X21206Y495887D01*
X22125Y498106D01*
X22438Y500487D01*
X22125Y502868D01*
X21206Y505086D01*
X19744Y506991D01*
X17839Y508453D01*
X15620Y509372D01*
X13240Y509685D01*
X10859Y509372D01*
X8640Y508453D01*
X8233Y508140D01*
X7094Y508702D01*
Y517672D01*
X8233Y518233D01*
X8640Y517920D01*
X10859Y517001D01*
X13240Y516688D01*
X15620Y517001D01*
X17839Y517920D01*
X19744Y519382D01*
X21206Y521287D01*
X22125Y523506D01*
X22438Y525887D01*
X22125Y528268D01*
X21206Y530486D01*
X19744Y532391D01*
X17839Y533853D01*
X15620Y534772D01*
X13240Y535085D01*
X10859Y534772D01*
X8640Y533853D01*
X8233Y533540D01*
X7094Y534102D01*
Y539845D01*
X350738D01*
X351918Y539845D01*
D02*
G37*
%LPC*%
G36*
X267240Y535085D02*
X264859Y534772D01*
X262640Y533853D01*
X260735Y532391D01*
X259273Y530486D01*
X258354Y528268D01*
X258041Y525887D01*
X258354Y523506D01*
X259273Y521287D01*
X260735Y519382D01*
X262640Y517920D01*
X264859Y517001D01*
X267240Y516688D01*
X269620Y517001D01*
X271839Y517920D01*
X273744Y519382D01*
X275206Y521287D01*
X276125Y523506D01*
X276438Y525887D01*
X276125Y528268D01*
X275206Y530486D01*
X273744Y532391D01*
X271839Y533853D01*
X269620Y534772D01*
X267240Y535085D01*
D02*
G37*
G36*
X241840D02*
X239459Y534772D01*
X237240Y533853D01*
X235335Y532391D01*
X233873Y530486D01*
X232955Y528268D01*
X232641Y525887D01*
X232955Y523506D01*
X233873Y521287D01*
X235335Y519382D01*
X237240Y517920D01*
X239459Y517001D01*
X241840Y516688D01*
X244221Y517001D01*
X246439Y517920D01*
X248344Y519382D01*
X249806Y521287D01*
X250725Y523506D01*
X251038Y525887D01*
X250725Y528268D01*
X249806Y530486D01*
X248344Y532391D01*
X246439Y533853D01*
X244221Y534772D01*
X241840Y535085D01*
D02*
G37*
G36*
X216440D02*
X214059Y534772D01*
X211840Y533853D01*
X209935Y532391D01*
X208473Y530486D01*
X207554Y528268D01*
X207241Y525887D01*
X207554Y523506D01*
X208473Y521287D01*
X209935Y519382D01*
X211840Y517920D01*
X214059Y517001D01*
X216440Y516688D01*
X218820Y517001D01*
X221039Y517920D01*
X222944Y519382D01*
X224406Y521287D01*
X225325Y523506D01*
X225638Y525887D01*
X225325Y528268D01*
X224406Y530486D01*
X222944Y532391D01*
X221039Y533853D01*
X218820Y534772D01*
X216440Y535085D01*
D02*
G37*
G36*
X191040D02*
X188659Y534772D01*
X186440Y533853D01*
X184535Y532391D01*
X183073Y530486D01*
X182155Y528268D01*
X181841Y525887D01*
X182155Y523506D01*
X183073Y521287D01*
X184535Y519382D01*
X186440Y517920D01*
X188659Y517001D01*
X191040Y516688D01*
X193421Y517001D01*
X195639Y517920D01*
X197544Y519382D01*
X199006Y521287D01*
X199925Y523506D01*
X200238Y525887D01*
X199925Y528268D01*
X199006Y530486D01*
X197544Y532391D01*
X195639Y533853D01*
X193421Y534772D01*
X191040Y535085D01*
D02*
G37*
G36*
X165640D02*
X163259Y534772D01*
X161040Y533853D01*
X159135Y532391D01*
X157673Y530486D01*
X156755Y528268D01*
X156441Y525887D01*
X156755Y523506D01*
X157673Y521287D01*
X159135Y519382D01*
X161040Y517920D01*
X163259Y517001D01*
X165640Y516688D01*
X168020Y517001D01*
X170239Y517920D01*
X172144Y519382D01*
X173606Y521287D01*
X174525Y523506D01*
X174838Y525887D01*
X174525Y528268D01*
X173606Y530486D01*
X172144Y532391D01*
X170239Y533853D01*
X168020Y534772D01*
X165640Y535085D01*
D02*
G37*
G36*
X140240D02*
X137859Y534772D01*
X135640Y533853D01*
X133735Y532391D01*
X132273Y530486D01*
X131355Y528268D01*
X131041Y525887D01*
X131355Y523506D01*
X132273Y521287D01*
X133735Y519382D01*
X135640Y517920D01*
X137859Y517001D01*
X140240Y516688D01*
X142620Y517001D01*
X144839Y517920D01*
X146744Y519382D01*
X148206Y521287D01*
X149125Y523506D01*
X149438Y525887D01*
X149125Y528268D01*
X148206Y530486D01*
X146744Y532391D01*
X144839Y533853D01*
X142620Y534772D01*
X140240Y535085D01*
D02*
G37*
G36*
X114840D02*
X112459Y534772D01*
X110240Y533853D01*
X108335Y532391D01*
X106873Y530486D01*
X105955Y528268D01*
X105641Y525887D01*
X105955Y523506D01*
X106873Y521287D01*
X108335Y519382D01*
X110240Y517920D01*
X112459Y517001D01*
X114840Y516688D01*
X117220Y517001D01*
X119439Y517920D01*
X121344Y519382D01*
X122806Y521287D01*
X123725Y523506D01*
X124038Y525887D01*
X123725Y528268D01*
X122806Y530486D01*
X121344Y532391D01*
X119439Y533853D01*
X117220Y534772D01*
X114840Y535085D01*
D02*
G37*
G36*
X89440D02*
X87059Y534772D01*
X84840Y533853D01*
X82935Y532391D01*
X81473Y530486D01*
X80555Y528268D01*
X80241Y525887D01*
X80555Y523506D01*
X81473Y521287D01*
X82935Y519382D01*
X84840Y517920D01*
X87059Y517001D01*
X89440Y516688D01*
X91820Y517001D01*
X94039Y517920D01*
X95944Y519382D01*
X97406Y521287D01*
X98325Y523506D01*
X98638Y525887D01*
X98325Y528268D01*
X97406Y530486D01*
X95944Y532391D01*
X94039Y533853D01*
X91820Y534772D01*
X89440Y535085D01*
D02*
G37*
G36*
X64040D02*
X61659Y534772D01*
X59440Y533853D01*
X57535Y532391D01*
X56073Y530486D01*
X55155Y528268D01*
X54841Y525887D01*
X55155Y523506D01*
X56073Y521287D01*
X57535Y519382D01*
X59440Y517920D01*
X61659Y517001D01*
X64040Y516688D01*
X66420Y517001D01*
X68639Y517920D01*
X70544Y519382D01*
X72006Y521287D01*
X72925Y523506D01*
X73238Y525887D01*
X72925Y528268D01*
X72006Y530486D01*
X70544Y532391D01*
X68639Y533853D01*
X66420Y534772D01*
X64040Y535085D01*
D02*
G37*
G36*
X38640D02*
X36259Y534772D01*
X34040Y533853D01*
X32135Y532391D01*
X30673Y530486D01*
X29755Y528268D01*
X29441Y525887D01*
X29755Y523506D01*
X30673Y521287D01*
X32135Y519382D01*
X34040Y517920D01*
X36259Y517001D01*
X38640Y516688D01*
X41020Y517001D01*
X43239Y517920D01*
X45144Y519382D01*
X46606Y521287D01*
X47525Y523506D01*
X47838Y525887D01*
X47525Y528268D01*
X46606Y530486D01*
X45144Y532391D01*
X43239Y533853D01*
X41020Y534772D01*
X38640Y535085D01*
D02*
G37*
G36*
X292640Y509685D02*
X290259Y509372D01*
X288040Y508453D01*
X286135Y506991D01*
X284673Y505086D01*
X283755Y502868D01*
X283535Y501203D01*
X283181D01*
X282011Y500971D01*
X281018Y500308D01*
X281018Y500308D01*
X276568Y495858D01*
X275492Y496577D01*
X276125Y498106D01*
X276438Y500487D01*
X276125Y502868D01*
X275206Y505086D01*
X273744Y506991D01*
X271839Y508453D01*
X269620Y509372D01*
X267240Y509685D01*
X264859Y509372D01*
X262640Y508453D01*
X260735Y506991D01*
X259273Y505086D01*
X258354Y502868D01*
X258041Y500487D01*
X258354Y498106D01*
X259273Y495887D01*
X260735Y493982D01*
X262640Y492520D01*
X264859Y491601D01*
X267240Y491288D01*
X269620Y491601D01*
X271149Y492235D01*
X271869Y491158D01*
X268688Y487977D01*
X268025Y486985D01*
X267843Y486072D01*
X262850D01*
Y472072D01*
X271081D01*
X272351Y472072D01*
Y472072D01*
X272351D01*
Y472072D01*
X291350D01*
Y476013D01*
X300797D01*
Y465371D01*
X312797D01*
Y476371D01*
X309856D01*
Y478091D01*
X310425Y478166D01*
X312335Y478957D01*
X313975Y480215D01*
X315233Y481855D01*
X316024Y483764D01*
X316294Y485814D01*
X316024Y487863D01*
X315233Y489773D01*
X313975Y491413D01*
X312335Y492671D01*
X310425Y493462D01*
X308376Y493731D01*
X306327Y493462D01*
X304417Y492671D01*
X302778Y491413D01*
X301519Y489773D01*
X300728Y487863D01*
X300458Y485814D01*
X300728Y483764D01*
X300985Y483144D01*
X300176Y482130D01*
X291350D01*
Y486072D01*
X277093D01*
X276607Y487245D01*
X284153Y494791D01*
X285567Y494722D01*
X286135Y493982D01*
X288040Y492520D01*
X290259Y491601D01*
X292640Y491288D01*
X295021Y491601D01*
X297239Y492520D01*
X299144Y493982D01*
X300606Y495887D01*
X301525Y498106D01*
X301838Y500487D01*
X301525Y502868D01*
X300606Y505086D01*
X299144Y506991D01*
X297239Y508453D01*
X295021Y509372D01*
X292640Y509685D01*
D02*
G37*
G36*
X241840D02*
X239459Y509372D01*
X237240Y508453D01*
X235335Y506991D01*
X233873Y505086D01*
X232955Y502868D01*
X232641Y500487D01*
X232955Y498106D01*
X233873Y495887D01*
X235335Y493982D01*
X237240Y492520D01*
X239459Y491601D01*
X241840Y491288D01*
X244221Y491601D01*
X246439Y492520D01*
X248344Y493982D01*
X249806Y495887D01*
X250725Y498106D01*
X251038Y500487D01*
X250725Y502868D01*
X249806Y505086D01*
X248344Y506991D01*
X246439Y508453D01*
X244221Y509372D01*
X241840Y509685D01*
D02*
G37*
G36*
X216440D02*
X214059Y509372D01*
X211840Y508453D01*
X209935Y506991D01*
X208473Y505086D01*
X207554Y502868D01*
X207241Y500487D01*
X207554Y498106D01*
X208473Y495887D01*
X209935Y493982D01*
X211840Y492520D01*
X214059Y491601D01*
X216440Y491288D01*
X218820Y491601D01*
X221039Y492520D01*
X222944Y493982D01*
X224406Y495887D01*
X225325Y498106D01*
X225638Y500487D01*
X225325Y502868D01*
X224406Y505086D01*
X222944Y506991D01*
X221039Y508453D01*
X218820Y509372D01*
X216440Y509685D01*
D02*
G37*
G36*
X191040D02*
X188659Y509372D01*
X186440Y508453D01*
X184535Y506991D01*
X183073Y505086D01*
X182155Y502868D01*
X181841Y500487D01*
X182155Y498106D01*
X183073Y495887D01*
X184535Y493982D01*
X186440Y492520D01*
X188659Y491601D01*
X191040Y491288D01*
X193421Y491601D01*
X195639Y492520D01*
X197544Y493982D01*
X199006Y495887D01*
X199925Y498106D01*
X200238Y500487D01*
X199925Y502868D01*
X199006Y505086D01*
X197544Y506991D01*
X195639Y508453D01*
X193421Y509372D01*
X191040Y509685D01*
D02*
G37*
G36*
X165640D02*
X163259Y509372D01*
X161040Y508453D01*
X159135Y506991D01*
X157673Y505086D01*
X156755Y502868D01*
X156441Y500487D01*
X156755Y498106D01*
X157673Y495887D01*
X159135Y493982D01*
X161040Y492520D01*
X163259Y491601D01*
X165640Y491288D01*
X168020Y491601D01*
X170239Y492520D01*
X172144Y493982D01*
X173606Y495887D01*
X174525Y498106D01*
X174838Y500487D01*
X174525Y502868D01*
X173606Y505086D01*
X172144Y506991D01*
X170239Y508453D01*
X168020Y509372D01*
X165640Y509685D01*
D02*
G37*
G36*
X140240D02*
X137859Y509372D01*
X135640Y508453D01*
X133735Y506991D01*
X132273Y505086D01*
X131355Y502868D01*
X131041Y500487D01*
X131355Y498106D01*
X132273Y495887D01*
X133735Y493982D01*
X135640Y492520D01*
X137859Y491601D01*
X140240Y491288D01*
X142620Y491601D01*
X144839Y492520D01*
X146744Y493982D01*
X148206Y495887D01*
X149125Y498106D01*
X149438Y500487D01*
X149125Y502868D01*
X148206Y505086D01*
X146744Y506991D01*
X144839Y508453D01*
X142620Y509372D01*
X140240Y509685D01*
D02*
G37*
G36*
X114840D02*
X112459Y509372D01*
X110240Y508453D01*
X108335Y506991D01*
X106873Y505086D01*
X105955Y502868D01*
X105641Y500487D01*
X105955Y498106D01*
X106873Y495887D01*
X108335Y493982D01*
X110240Y492520D01*
X112459Y491601D01*
X114840Y491288D01*
X117220Y491601D01*
X119439Y492520D01*
X121344Y493982D01*
X122806Y495887D01*
X123725Y498106D01*
X124038Y500487D01*
X123725Y502868D01*
X122806Y505086D01*
X121344Y506991D01*
X119439Y508453D01*
X117220Y509372D01*
X114840Y509685D01*
D02*
G37*
G36*
X89440D02*
X87059Y509372D01*
X84840Y508453D01*
X82935Y506991D01*
X81473Y505086D01*
X80555Y502868D01*
X80241Y500487D01*
X80555Y498106D01*
X81473Y495887D01*
X82935Y493982D01*
X84840Y492520D01*
X87059Y491601D01*
X89440Y491288D01*
X91820Y491601D01*
X94039Y492520D01*
X95944Y493982D01*
X97406Y495887D01*
X98325Y498106D01*
X98638Y500487D01*
X98325Y502868D01*
X97406Y505086D01*
X95944Y506991D01*
X94039Y508453D01*
X91820Y509372D01*
X89440Y509685D01*
D02*
G37*
G36*
X64040D02*
X61659Y509372D01*
X59440Y508453D01*
X57535Y506991D01*
X56073Y505086D01*
X55155Y502868D01*
X54841Y500487D01*
X55155Y498106D01*
X56073Y495887D01*
X57535Y493982D01*
X59440Y492520D01*
X61659Y491601D01*
X64040Y491288D01*
X66420Y491601D01*
X68639Y492520D01*
X70544Y493982D01*
X72006Y495887D01*
X72925Y498106D01*
X73238Y500487D01*
X72925Y502868D01*
X72006Y505086D01*
X70544Y506991D01*
X68639Y508453D01*
X66420Y509372D01*
X64040Y509685D01*
D02*
G37*
G36*
X38640D02*
X36259Y509372D01*
X34040Y508453D01*
X32135Y506991D01*
X30673Y505086D01*
X29755Y502868D01*
X29441Y500487D01*
X29755Y498106D01*
X30673Y495887D01*
X32135Y493982D01*
X34040Y492520D01*
X36259Y491601D01*
X38640Y491288D01*
X41020Y491601D01*
X43239Y492520D01*
X45144Y493982D01*
X46606Y495887D01*
X47525Y498106D01*
X47838Y500487D01*
X47525Y502868D01*
X46606Y505086D01*
X45144Y506991D01*
X43239Y508453D01*
X41020Y509372D01*
X38640Y509685D01*
D02*
G37*
G36*
X292640Y535085D02*
X290259Y534772D01*
X288040Y533853D01*
X286135Y532391D01*
X284673Y530486D01*
X283755Y528268D01*
X283441Y525887D01*
X283755Y523506D01*
X284673Y521287D01*
X286135Y519382D01*
X288040Y517920D01*
X290259Y517001D01*
X292640Y516688D01*
X295021Y517001D01*
X296047Y517427D01*
X322179Y491295D01*
Y486072D01*
X320997D01*
Y472072D01*
X338727D01*
X339997Y472072D01*
Y472072D01*
X339997D01*
Y472072D01*
X349497D01*
Y476013D01*
X352997D01*
X353095Y475776D01*
X354353Y474136D01*
X355993Y472878D01*
X357903Y472087D01*
X359952Y471817D01*
X362001Y472087D01*
X363911Y472878D01*
X365551Y474136D01*
X366809Y475776D01*
X367600Y477685D01*
X367870Y479734D01*
X367600Y481784D01*
X366809Y483693D01*
X365551Y485333D01*
X363911Y486591D01*
X362001Y487383D01*
X359952Y487652D01*
X357903Y487383D01*
X355993Y486591D01*
X354353Y485333D01*
X353095Y483693D01*
X352448Y482130D01*
X349497D01*
Y486072D01*
X341267D01*
X339997Y486072D01*
Y486072D01*
X339997D01*
Y486072D01*
X329316D01*
Y492773D01*
X329044Y494138D01*
X328271Y495296D01*
X301096Y522471D01*
X301525Y523506D01*
X301838Y525887D01*
X301525Y528268D01*
X300606Y530486D01*
X299144Y532391D01*
X297239Y533853D01*
X295021Y534772D01*
X292640Y535085D01*
D02*
G37*
G36*
X227581Y479220D02*
X225532Y478950D01*
X223622Y478159D01*
X221982Y476901D01*
X220724Y475261D01*
X219933Y473352D01*
X219663Y471302D01*
X219933Y469253D01*
X220724Y467343D01*
X221982Y465704D01*
X223622Y464445D01*
X225532Y463654D01*
X227581Y463385D01*
X229630Y463654D01*
X231540Y464445D01*
X233179Y465704D01*
X234438Y467343D01*
X234811Y468243D01*
X241724D01*
Y465371D01*
X253724D01*
Y476371D01*
X241724D01*
Y474361D01*
X234811D01*
X234438Y475261D01*
X233179Y476901D01*
X231540Y478159D01*
X229630Y478950D01*
X227581Y479220D01*
D02*
G37*
G36*
X319684Y463799D02*
Y459929D01*
X313837D01*
Y463410D01*
X308068D01*
Y456870D01*
Y450331D01*
X313837D01*
Y453812D01*
X318786D01*
X319684Y452914D01*
X319684Y447070D01*
X319957Y447032D01*
X320938Y447032D01*
X331537D01*
X331678Y445820D01*
Y444024D01*
X328274D01*
Y432024D01*
X337866D01*
X338392Y430754D01*
X334535Y426898D01*
X330788D01*
X329910Y426723D01*
X329166Y426226D01*
X328669Y425481D01*
X328494Y424603D01*
Y416103D01*
X328669Y415225D01*
X329166Y414481D01*
X329910Y413984D01*
X330788Y413809D01*
X335288D01*
X336166Y413984D01*
X336910Y414481D01*
X337407Y415225D01*
X337582Y416103D01*
Y419851D01*
X349755Y432024D01*
X353274D01*
Y444024D01*
X348316D01*
Y448072D01*
X349497D01*
Y462072D01*
X341267D01*
X339997Y462072D01*
X338727Y462072D01*
X332019D01*
Y463799D01*
X319684Y463799D01*
D02*
G37*
G36*
X246454Y463410D02*
X240684D01*
Y458140D01*
X246454D01*
Y463410D01*
D02*
G37*
G36*
X305528D02*
X299757D01*
Y458140D01*
X305528D01*
Y463410D01*
D02*
G37*
G36*
Y455601D02*
X299757D01*
Y450331D01*
X305528D01*
Y455601D01*
D02*
G37*
G36*
X246454D02*
X240684D01*
Y450331D01*
X246454D01*
Y455601D01*
D02*
G37*
G36*
X70147Y439567D02*
X58147D01*
Y437636D01*
X53340D01*
Y439567D01*
X41340D01*
Y428567D01*
X53340D01*
Y430499D01*
X58147D01*
Y428567D01*
X64600D01*
X95653Y397515D01*
X95653Y397515D01*
X96811Y396742D01*
X98176Y396470D01*
X125563D01*
X139661Y382372D01*
X139042Y381195D01*
X131562D01*
X129099Y380705D01*
X127011Y379310D01*
X125616Y377222D01*
X125134Y377047D01*
X124256Y376893D01*
X123485Y377408D01*
X122387Y377626D01*
X120843D01*
X111206Y387263D01*
X110048Y388037D01*
X108682Y388309D01*
X49322D01*
X47956Y388037D01*
X47066Y387442D01*
X46774Y387563D01*
X44809Y387821D01*
X42843Y387563D01*
X41011Y386804D01*
X40840Y386673D01*
X27173Y400340D01*
Y412533D01*
X29230D01*
X30546Y412795D01*
X31663Y413541D01*
X32409Y414657D01*
X32671Y415974D01*
Y434224D01*
X32409Y435541D01*
X31663Y436657D01*
X30546Y437403D01*
X29230Y437665D01*
X17980D01*
X16663Y437403D01*
X15546Y436657D01*
X14800Y435541D01*
X14539Y434224D01*
Y415974D01*
X14800Y414657D01*
X15546Y413541D01*
X16663Y412795D01*
X17980Y412533D01*
X20036D01*
Y398862D01*
X20308Y397496D01*
X21081Y396338D01*
X37217Y380203D01*
X37472Y378261D01*
X38231Y376429D01*
X39438Y374856D01*
X41011Y373649D01*
X42843Y372890D01*
X44809Y372631D01*
X46774Y372890D01*
X48606Y373649D01*
X50179Y374856D01*
X51386Y376429D01*
X52145Y378261D01*
X52403Y380227D01*
X53232Y381171D01*
X107204D01*
X108645Y379731D01*
X108118Y378461D01*
X106471D01*
X105337Y378687D01*
X97462D01*
X96329Y378461D01*
X93506D01*
Y349851D01*
X45286Y301630D01*
X44015Y302157D01*
Y304278D01*
X41044D01*
Y320615D01*
X41279Y320850D01*
X53378D01*
Y320857D01*
X53379D01*
Y337996D01*
X36239D01*
Y337990D01*
X36239D01*
Y325903D01*
X34952Y324617D01*
X34179Y323459D01*
X33907Y322094D01*
Y304278D01*
X30936D01*
Y304278D01*
X30935D01*
Y290198D01*
X35189D01*
Y268441D01*
X30187D01*
Y261141D01*
X38757D01*
X47327D01*
Y268441D01*
X42326D01*
Y289300D01*
X43224Y290198D01*
X44015Y290198D01*
X44016Y290198D01*
X44016Y291468D01*
X44016Y292771D01*
X44914Y293669D01*
X45940D01*
X47305Y293941D01*
X48463Y294715D01*
X97704Y343956D01*
X109334D01*
Y377246D01*
X110604Y377772D01*
X112126Y376250D01*
X111863Y375856D01*
X111645Y374759D01*
Y347884D01*
X111863Y346786D01*
X112485Y345856D01*
X113415Y345234D01*
X114512Y345016D01*
X122387D01*
X123485Y345234D01*
X124256Y345750D01*
X125134Y345595D01*
X125616Y345421D01*
X127011Y343333D01*
X129099Y341937D01*
X131562Y341448D01*
X131931D01*
Y324909D01*
X96125D01*
X92572Y324559D01*
X89155Y323523D01*
X86006Y321840D01*
X83246Y319575D01*
X80981Y316815D01*
X79298Y313666D01*
X78262Y310250D01*
X77912Y306696D01*
Y227946D01*
X78262Y224393D01*
X79298Y220977D01*
X80981Y217828D01*
X83246Y215068D01*
X86006Y212803D01*
X89155Y211120D01*
X92572Y210084D01*
X96125Y209734D01*
X174875D01*
X178428Y210084D01*
X181844Y211120D01*
X184993Y212803D01*
X187753Y215068D01*
X190018Y217828D01*
X191701Y220977D01*
X192737Y224393D01*
X193087Y227946D01*
Y306696D01*
X192737Y310250D01*
X191701Y313666D01*
X190018Y316815D01*
X187753Y319575D01*
X184993Y321840D01*
X181844Y323523D01*
X178428Y324559D01*
X174875Y324909D01*
X139068D01*
Y341448D01*
X139437D01*
X141900Y341937D01*
X143988Y343333D01*
X145384Y345421D01*
X145865Y345595D01*
X146744Y345750D01*
X147515Y345234D01*
X148612Y345016D01*
X156487D01*
X157585Y345234D01*
X158515Y345856D01*
X159136Y346786D01*
X159355Y347884D01*
Y374759D01*
X159136Y375856D01*
X158515Y376786D01*
X157585Y377408D01*
X156487Y377626D01*
X154500D01*
X129565Y402562D01*
X128407Y403335D01*
X127042Y403607D01*
X99655D01*
X70147Y433114D01*
Y439567D01*
D02*
G37*
G36*
Y453567D02*
X58147D01*
Y442567D01*
X70147D01*
Y444499D01*
X85669D01*
X90019Y440148D01*
X89721Y439430D01*
X89429Y437211D01*
X89721Y434992D01*
X90578Y432925D01*
X91940Y431149D01*
X93716Y429787D01*
X95784Y428930D01*
X98003Y428638D01*
X100222Y428930D01*
X102289Y429787D01*
X104065Y431149D01*
X105427Y432925D01*
X106284Y434992D01*
X106576Y437211D01*
X106284Y439430D01*
X105427Y441498D01*
X104065Y443274D01*
X102289Y444636D01*
X100222Y445493D01*
X98003Y445785D01*
X95784Y445493D01*
X95066Y445195D01*
X89670Y450591D01*
X88512Y451364D01*
X87147Y451636D01*
X70147D01*
Y453567D01*
D02*
G37*
G36*
X254764Y463410D02*
X248994D01*
Y456870D01*
Y450331D01*
X254764D01*
Y453812D01*
X260912D01*
X261810Y452914D01*
X261810Y447032D01*
X261810Y447032D01*
X263080Y447032D01*
X273391D01*
X273532Y445820D01*
Y444438D01*
X273119Y444024D01*
X266665D01*
Y432024D01*
X273459D01*
X273945Y430851D01*
X267017Y423922D01*
X256227D01*
Y424603D01*
X256053Y425481D01*
X255555Y426226D01*
X254811Y426723D01*
X253933Y426898D01*
X249433D01*
X248556Y426723D01*
X247811Y426226D01*
X247314Y425481D01*
X247139Y424603D01*
Y416103D01*
X247314Y415225D01*
X247811Y414481D01*
X248556Y413984D01*
X249433Y413809D01*
X253933D01*
X254811Y413984D01*
X255555Y414481D01*
X256053Y415225D01*
X256227Y416103D01*
Y416785D01*
X268495D01*
X269860Y417057D01*
X271018Y417830D01*
X285212Y432024D01*
X291665D01*
Y444024D01*
X289734D01*
Y448072D01*
X291350D01*
Y462072D01*
X274072D01*
X273391Y463112D01*
X273363Y463112D01*
X273363Y463112D01*
X272120Y463112D01*
X261810Y463112D01*
Y459929D01*
X254764D01*
Y463410D01*
D02*
G37*
G36*
X312102Y442548D02*
X310053Y442278D01*
X308144Y441487D01*
X306504Y440229D01*
X305245Y438589D01*
X304454Y436679D01*
X304185Y434630D01*
X304454Y432581D01*
X305245Y430671D01*
X306504Y429032D01*
X308144Y427773D01*
X309432Y427239D01*
X309553Y427073D01*
X309868Y425881D01*
X309846Y425747D01*
X309668Y425481D01*
X309494Y424603D01*
Y416103D01*
X309668Y415225D01*
X310166Y414481D01*
X310910Y413984D01*
X311788Y413809D01*
X316288D01*
X317166Y413984D01*
X317910Y414481D01*
X318407Y415225D01*
X318582Y416103D01*
Y424603D01*
X318407Y425481D01*
X317910Y426226D01*
X317166Y426723D01*
X317097Y426737D01*
Y428568D01*
X317701Y429032D01*
X318959Y430671D01*
X319750Y432581D01*
X320020Y434630D01*
X319750Y436679D01*
X318959Y438589D01*
X317701Y440229D01*
X316061Y441487D01*
X314152Y442278D01*
X312102Y442548D01*
D02*
G37*
G36*
X217384Y429409D02*
X215334Y429139D01*
X213425Y428348D01*
X211785Y427090D01*
X210527Y425450D01*
X209736Y423541D01*
X209466Y421491D01*
X209736Y419442D01*
X210527Y417533D01*
X211785Y415893D01*
X213425Y414634D01*
X215334Y413843D01*
X217384Y413574D01*
X219433Y413843D01*
X221343Y414634D01*
X222982Y415893D01*
X224241Y417533D01*
X224613Y418433D01*
X228140D01*
Y416103D01*
X228314Y415225D01*
X228811Y414481D01*
X229556Y413984D01*
X230434Y413809D01*
X234934D01*
X235812Y413984D01*
X236556Y414481D01*
X237053Y415225D01*
X237228Y416103D01*
Y424603D01*
X237053Y425481D01*
X236556Y426226D01*
X235812Y426723D01*
X234934Y426898D01*
X230434D01*
X229556Y426723D01*
X228811Y426226D01*
X228314Y425481D01*
X228140Y424603D01*
Y424550D01*
X224613D01*
X224241Y425450D01*
X222982Y427090D01*
X221343Y428348D01*
X219433Y429139D01*
X217384Y429409D01*
D02*
G37*
G36*
X274957Y405738D02*
X260957D01*
Y394807D01*
X249777D01*
X246728Y397856D01*
Y401604D01*
X246553Y402482D01*
X246056Y403226D01*
X245312Y403723D01*
X244434Y403898D01*
X239934D01*
X239056Y403723D01*
X238312Y403226D01*
X237814Y402482D01*
X237640Y401604D01*
Y393104D01*
X237814Y392226D01*
X238312Y391482D01*
X239056Y390984D01*
X239934Y390810D01*
X243681D01*
X245776Y388715D01*
X246933Y387942D01*
X248299Y387670D01*
X260957D01*
Y376738D01*
X274957D01*
Y405738D01*
D02*
G37*
G36*
X29230Y479666D02*
X17980D01*
X16663Y479404D01*
X15546Y478658D01*
X14800Y477541D01*
X14539Y476225D01*
Y457975D01*
X14800Y456658D01*
X15546Y455541D01*
X16663Y454795D01*
X17980Y454534D01*
X29230D01*
X30546Y454795D01*
X30736Y454922D01*
X40113Y445544D01*
X41271Y444770D01*
X41340Y444757D01*
Y442567D01*
X53340D01*
Y451762D01*
X59756Y458178D01*
X121990D01*
X139503Y440665D01*
Y428711D01*
X151456D01*
X193239Y386928D01*
X192713Y385658D01*
X187299D01*
X178683Y394275D01*
X177525Y395048D01*
X177240Y395105D01*
X176989Y395710D01*
X175731Y397350D01*
X174091Y398608D01*
X172181Y399399D01*
X170132Y399669D01*
X168083Y399399D01*
X166173Y398608D01*
X164533Y397350D01*
X163275Y395710D01*
X162484Y393801D01*
X162214Y391752D01*
X162484Y389702D01*
X163275Y387793D01*
X164533Y386153D01*
X166173Y384894D01*
X168083Y384104D01*
X170132Y383834D01*
X172181Y384104D01*
X174091Y384894D01*
X175731Y386153D01*
X176651Y386213D01*
X182752Y380111D01*
Y373658D01*
X193752D01*
Y384619D01*
X195022Y385145D01*
X196752Y383415D01*
Y373658D01*
X207712D01*
X293491Y287879D01*
X294394Y287276D01*
Y272402D01*
X302395D01*
Y308402D01*
X294394D01*
Y298729D01*
X293221Y298242D01*
X209282Y382181D01*
X208125Y382955D01*
X207752Y383029D01*
Y385658D01*
X204603D01*
X156503Y433758D01*
Y445711D01*
X144549D01*
X125991Y464270D01*
X124833Y465043D01*
X123468Y465315D01*
X58278D01*
X56912Y465043D01*
X55754Y464270D01*
X45052Y453567D01*
X42183D01*
X32671Y463080D01*
Y476225D01*
X32409Y477541D01*
X31663Y478658D01*
X30546Y479404D01*
X29230Y479666D01*
D02*
G37*
G36*
X325788Y403898D02*
X321288D01*
X320410Y403723D01*
X319666Y403226D01*
X319168Y402482D01*
X318994Y401604D01*
Y393104D01*
X319168Y392226D01*
X319666Y391482D01*
X320410Y390984D01*
X321288Y390810D01*
X325035D01*
X326181Y389664D01*
X327339Y388890D01*
X328704Y388619D01*
X343769D01*
Y382187D01*
X357769D01*
Y402187D01*
X343769D01*
Y395756D01*
X330182D01*
X328082Y397856D01*
Y401604D01*
X327907Y402482D01*
X327410Y403226D01*
X326666Y403723D01*
X325788Y403898D01*
D02*
G37*
G36*
X173537Y377626D02*
X165662D01*
X164565Y377408D01*
X163634Y376786D01*
X163013Y375856D01*
X162795Y374759D01*
Y347884D01*
X163013Y346786D01*
X163634Y345856D01*
X164565Y345234D01*
X165662Y345016D01*
X173537D01*
X174635Y345234D01*
X175565Y345856D01*
X176187Y346786D01*
X176405Y347884D01*
Y361938D01*
X182752D01*
Y359506D01*
X193752D01*
Y371506D01*
X182752D01*
Y369075D01*
X176405D01*
Y374759D01*
X176187Y375856D01*
X175565Y376786D01*
X174635Y377408D01*
X173537Y377626D01*
D02*
G37*
G36*
X207752Y371506D02*
X196752D01*
Y359506D01*
X198684D01*
Y357354D01*
X196752D01*
Y345354D01*
X207752D01*
Y357354D01*
X205821D01*
Y359506D01*
X207752D01*
Y371506D01*
D02*
G37*
G36*
X193752Y357354D02*
X182752D01*
Y345354D01*
X184684D01*
Y333410D01*
X184956Y332045D01*
X185729Y330887D01*
X198237Y318379D01*
X198076Y317988D01*
X197806Y315939D01*
X198076Y313890D01*
X198867Y311980D01*
X200125Y310340D01*
X201765Y309082D01*
X203674Y308291D01*
X205724Y308021D01*
X207773Y308291D01*
X209683Y309082D01*
X211322Y310340D01*
X212581Y311980D01*
X213372Y313890D01*
X213641Y315939D01*
X213372Y317988D01*
X212581Y319898D01*
X211322Y321538D01*
X209683Y322796D01*
X207773Y323587D01*
X205724Y323857D01*
X203674Y323587D01*
X203284Y323425D01*
X191821Y334888D01*
Y345354D01*
X193752D01*
Y357354D01*
D02*
G37*
G36*
X301957Y405738D02*
X287957D01*
Y376738D01*
X291388D01*
Y364520D01*
X291660Y363154D01*
X292433Y361997D01*
X335084Y319346D01*
Y304139D01*
X331568Y300622D01*
X330394Y301108D01*
Y308402D01*
X322394D01*
Y272402D01*
X330394D01*
Y289356D01*
X341176Y300137D01*
X341950Y301295D01*
X342221Y302660D01*
Y319298D01*
X380292Y357368D01*
X381065Y358526D01*
X381337Y359892D01*
Y382187D01*
X384768D01*
Y402187D01*
X370769D01*
Y382187D01*
X374200D01*
Y361370D01*
X338677Y325847D01*
X298525Y365998D01*
Y376738D01*
X301957D01*
Y405738D01*
D02*
G37*
G36*
X312394Y308642D02*
X310698Y308419D01*
X310658Y308402D01*
X304394D01*
Y272402D01*
X320394D01*
Y308402D01*
X314130D01*
X314091Y308419D01*
X312394Y308642D01*
D02*
G37*
G36*
X47327Y258601D02*
X40027D01*
Y251301D01*
X47327D01*
Y258601D01*
D02*
G37*
G36*
X37487D02*
X30187D01*
Y251301D01*
X37487D01*
Y258601D01*
D02*
G37*
G36*
X38757Y242465D02*
X36792Y242207D01*
X34960Y241448D01*
X33387Y240241D01*
X32180Y238668D01*
X31421Y236836D01*
X31162Y234870D01*
X31421Y232905D01*
X32180Y231073D01*
X33387Y229500D01*
X34960Y228293D01*
X36792Y227534D01*
X38757Y227276D01*
X40723Y227534D01*
X42555Y228293D01*
X44128Y229500D01*
X45335Y231073D01*
X46093Y232905D01*
X46352Y234870D01*
X46093Y236836D01*
X45335Y238668D01*
X44128Y240241D01*
X42555Y241448D01*
X40723Y242207D01*
X38757Y242465D01*
D02*
G37*
G36*
X295629Y164102D02*
X293580Y163832D01*
X291671Y163041D01*
X290031Y161782D01*
X288773Y160143D01*
X288277Y158946D01*
X287056D01*
Y161388D01*
X275056D01*
Y150388D01*
X287056D01*
Y152829D01*
X288522D01*
X288773Y152225D01*
X290031Y150585D01*
X291671Y149327D01*
X293580Y148536D01*
X295629Y148266D01*
X297679Y148536D01*
X299588Y149327D01*
X301228Y150585D01*
X302486Y152225D01*
X303277Y154135D01*
X303547Y156184D01*
X303277Y158233D01*
X302486Y160143D01*
X301228Y161782D01*
X299588Y163041D01*
X297679Y163832D01*
X295629Y164102D01*
D02*
G37*
G36*
X269706Y162274D02*
X263936D01*
Y157004D01*
X269706D01*
Y162274D01*
D02*
G37*
G36*
X261396D02*
X255626D01*
Y157004D01*
X261396D01*
Y162274D01*
D02*
G37*
G36*
X269706Y154464D02*
X263936D01*
Y149194D01*
X269706D01*
Y154464D01*
D02*
G37*
G36*
X261396D02*
X255626D01*
Y149194D01*
X261396D01*
Y154464D01*
D02*
G37*
G36*
X82315Y180422D02*
X79966Y180113D01*
X77776Y179206D01*
X75896Y177763D01*
X74454Y175883D01*
X73547Y173694D01*
X73238Y171344D01*
Y156344D01*
X73547Y153995D01*
X74454Y151806D01*
X75896Y149926D01*
X77776Y148483D01*
X79966Y147576D01*
X82315Y147267D01*
X84665Y147576D01*
X86854Y148483D01*
X88734Y149926D01*
X90177Y151806D01*
X91083Y153995D01*
X91393Y156344D01*
Y171344D01*
X91083Y173694D01*
X90177Y175883D01*
X88734Y177763D01*
X86854Y179206D01*
X84665Y180113D01*
X82315Y180422D01*
D02*
G37*
G36*
X330536Y152039D02*
X328487Y151769D01*
X326577Y150978D01*
X324937Y149720D01*
X323679Y148080D01*
X322888Y146171D01*
X322674Y144547D01*
X297063D01*
X297063Y144547D01*
X295893Y144314D01*
X294900Y143651D01*
X288326Y137077D01*
X287056Y137603D01*
Y147388D01*
X275056D01*
Y144793D01*
X268666D01*
Y147234D01*
X256666D01*
Y136234D01*
X256900D01*
X257386Y135061D01*
X254069Y131743D01*
X250214Y131744D01*
X250214Y129456D01*
X243832D01*
X242847Y129260D01*
X242012Y128702D01*
X241453Y127867D01*
X241257Y126882D01*
Y124832D01*
X241453Y123847D01*
X241561Y123686D01*
X240956Y122555D01*
X239707Y122453D01*
X236490Y125670D01*
Y132844D01*
X224490D01*
Y130402D01*
X220444D01*
Y132844D01*
X208444D01*
Y121844D01*
X220444D01*
Y124285D01*
X224490D01*
Y121844D01*
X231664D01*
X233491Y120017D01*
X233005Y118844D01*
X224490D01*
Y107844D01*
X225060D01*
X225546Y106670D01*
X221451Y102575D01*
X214277D01*
Y90575D01*
X225277D01*
Y97749D01*
X232652Y105125D01*
X232652Y105125D01*
X233316Y106117D01*
X233548Y107288D01*
X234588Y107844D01*
X236490D01*
Y110285D01*
X239299D01*
X240197Y109387D01*
X240197Y101694D01*
X240197D01*
X240818Y100424D01*
Y96355D01*
X247858D01*
X254898D01*
Y96548D01*
X256071Y97034D01*
X264597Y88508D01*
Y81334D01*
X276597D01*
Y92334D01*
X269422D01*
X263855Y97901D01*
X264342Y99074D01*
X282726Y99075D01*
X283624Y98177D01*
Y94598D01*
X281182D01*
Y82598D01*
X283624D01*
Y77574D01*
X281218D01*
Y75893D01*
X276597D01*
Y78334D01*
X264597D01*
Y67334D01*
X276597D01*
Y69775D01*
X281218D01*
Y65574D01*
X292218D01*
Y77574D01*
X289741D01*
Y82598D01*
X292183D01*
Y94598D01*
X289741D01*
Y97865D01*
X290951Y99075D01*
X291457D01*
X291456Y99580D01*
X294633Y102757D01*
X297982D01*
X298470Y102854D01*
X299741Y102059D01*
Y94598D01*
X295182D01*
Y82598D01*
X297624D01*
Y77574D01*
X295218D01*
Y65574D01*
X306217D01*
Y77574D01*
X303741D01*
Y82598D01*
X306182D01*
Y94598D01*
X305858D01*
Y109413D01*
X305858Y109413D01*
X305625Y110584D01*
X304962Y111576D01*
X304962Y111576D01*
X302060Y114478D01*
X302586Y115748D01*
X309293D01*
X309309Y115731D01*
X309309Y115731D01*
X310302Y115068D01*
X311472Y114836D01*
X311472Y114836D01*
X322686D01*
Y110871D01*
X326641D01*
Y101200D01*
X317775Y92334D01*
X310601D01*
Y81334D01*
X322601D01*
Y88508D01*
X331863Y97770D01*
X331863Y97770D01*
X332526Y98762D01*
X332759Y99933D01*
X332758Y99933D01*
Y110871D01*
X338386D01*
Y126572D01*
X322686D01*
Y120953D01*
X312739D01*
X312723Y120970D01*
X311730Y121633D01*
X310560Y121866D01*
X310560Y121866D01*
X302147D01*
X301929Y122126D01*
X301990Y123694D01*
X303494Y125198D01*
X304989Y124900D01*
X307330Y125366D01*
X309315Y126692D01*
X310641Y128677D01*
X311106Y131018D01*
X310641Y133359D01*
X309315Y135344D01*
X307330Y136670D01*
X304989Y137135D01*
X302648Y136670D01*
X300663Y135344D01*
X299337Y133359D01*
X298871Y131018D01*
X298963Y130556D01*
X298011Y129489D01*
X297887Y129456D01*
X291404D01*
X291400Y131500D01*
X298330Y138430D01*
X325059D01*
X326577Y137264D01*
X328487Y136474D01*
X330536Y136204D01*
X332585Y136474D01*
X334495Y137264D01*
X336134Y138523D01*
X337393Y140163D01*
X338184Y142072D01*
X338453Y144122D01*
X338184Y146171D01*
X337393Y148080D01*
X336134Y149720D01*
X334495Y150978D01*
X332585Y151769D01*
X330536Y152039D01*
D02*
G37*
G36*
X142315Y180422D02*
X139966Y180113D01*
X137776Y179206D01*
X135896Y177763D01*
X134454Y175883D01*
X133547Y173694D01*
X133237Y171344D01*
Y156344D01*
X133547Y153995D01*
X134454Y151806D01*
X135896Y149926D01*
X137776Y148483D01*
X139256Y147870D01*
Y145180D01*
X129606Y135530D01*
X63389D01*
X63389Y135530D01*
X62219Y135298D01*
X61226Y134635D01*
X32538Y105946D01*
X31875Y104953D01*
X31642Y103783D01*
X31642Y103783D01*
Y99078D01*
X31642Y99077D01*
X31875Y97907D01*
X32538Y96915D01*
X34295Y95157D01*
X34295Y95157D01*
X35287Y94494D01*
X36458Y94261D01*
X36458Y94261D01*
X38449D01*
X39347Y93363D01*
Y92235D01*
X38449Y91337D01*
X29834D01*
X28664Y91104D01*
X27671Y90441D01*
X25335Y88105D01*
X23672Y88793D01*
X21623Y89063D01*
X19574Y88793D01*
X17664Y88002D01*
X16024Y86744D01*
X14766Y85104D01*
X13975Y83195D01*
X13705Y81145D01*
X13975Y79096D01*
X14766Y77186D01*
X16024Y75547D01*
X17664Y74288D01*
X19574Y73497D01*
X21623Y73228D01*
X23672Y73497D01*
X25582Y74288D01*
X27222Y75547D01*
X28480Y77186D01*
X29271Y79096D01*
X29541Y81145D01*
X29271Y83195D01*
X29214Y83332D01*
X31101Y85219D01*
X38449D01*
X39347Y84321D01*
X39347Y83320D01*
X39347Y82050D01*
Y78146D01*
X36477Y75276D01*
X35814Y74283D01*
X35581Y73113D01*
X35581Y73113D01*
Y51717D01*
X34049Y51082D01*
X32143Y49620D01*
X30682Y47715D01*
X29763Y45496D01*
X29449Y43116D01*
X29763Y40735D01*
X30682Y38516D01*
X32143Y36611D01*
X34049Y35149D01*
X36267Y34230D01*
X38648Y33917D01*
X41029Y34230D01*
X43247Y35149D01*
X45152Y36611D01*
X46614Y38516D01*
X47533Y40735D01*
X47847Y43116D01*
X47533Y45496D01*
X46614Y47715D01*
X45152Y49620D01*
X43247Y51082D01*
X41699Y51723D01*
Y71846D01*
X43673Y73820D01*
X52347D01*
Y82050D01*
X52347Y82820D01*
X52347Y84090D01*
Y91550D01*
X52347Y92320D01*
X52347Y93590D01*
Y101820D01*
X39347D01*
Y100379D01*
X37759D01*
Y102516D01*
X64656Y129413D01*
X130873D01*
X130873Y129413D01*
X132044Y129646D01*
X133036Y130309D01*
X144478Y141750D01*
X145141Y142743D01*
X145374Y143913D01*
X145374Y143913D01*
Y147870D01*
X146854Y148483D01*
X148734Y149926D01*
X150176Y151806D01*
X151083Y153995D01*
X151393Y156344D01*
Y171344D01*
X151083Y173694D01*
X150176Y175883D01*
X148734Y177763D01*
X146854Y179206D01*
X144664Y180113D01*
X142315Y180422D01*
D02*
G37*
G36*
X176418Y135211D02*
X174369Y134941D01*
X172459Y134150D01*
X170819Y132892D01*
X169561Y131252D01*
X168770Y129342D01*
X168500Y127293D01*
X168770Y125244D01*
X169561Y123334D01*
X170819Y121694D01*
X172459Y120436D01*
X174369Y119645D01*
X176418Y119375D01*
X178467Y119645D01*
X180377Y120436D01*
X182017Y121694D01*
X183275Y123334D01*
X183648Y124234D01*
X192400D01*
Y121844D01*
X204400D01*
Y132844D01*
X192400D01*
Y130352D01*
X183648D01*
X183275Y131252D01*
X182017Y132892D01*
X180377Y134150D01*
X178467Y134941D01*
X176418Y135211D01*
D02*
G37*
G36*
X220444Y118844D02*
X208444D01*
Y116402D01*
X204400D01*
Y118844D01*
X192400D01*
Y107844D01*
X204400D01*
Y110285D01*
X208444D01*
Y107844D01*
X220444D01*
Y118844D01*
D02*
G37*
G36*
X119815Y125922D02*
X104815D01*
X102466Y125613D01*
X100276Y124706D01*
X98396Y123263D01*
X96954Y121383D01*
X96047Y119194D01*
X95737Y116844D01*
X96047Y114495D01*
X96954Y112305D01*
X98396Y110425D01*
X100276Y108983D01*
X102466Y108076D01*
X104815Y107767D01*
X119815D01*
X122165Y108076D01*
X124354Y108983D01*
X126234Y110425D01*
X127676Y112305D01*
X128583Y114495D01*
X128893Y116844D01*
X128583Y119194D01*
X127676Y121383D01*
X126234Y123263D01*
X124354Y124706D01*
X122165Y125613D01*
X119815Y125922D01*
D02*
G37*
G36*
X211277Y102575D02*
X200277D01*
Y99634D01*
X163500D01*
X163383Y100223D01*
X162886Y100967D01*
X162141Y101465D01*
X161264Y101639D01*
X152764D01*
X151886Y101465D01*
X151141Y100967D01*
X150644Y100223D01*
X150469Y99345D01*
Y94845D01*
X150644Y93967D01*
X151141Y93223D01*
X151383Y93062D01*
Y91629D01*
X151141Y91468D01*
X150644Y90723D01*
X150469Y89846D01*
Y85346D01*
X150644Y84468D01*
X150669Y84430D01*
X150670Y84003D01*
X149717Y82906D01*
X149508D01*
Y80843D01*
X149409Y80345D01*
Y75845D01*
X149508Y75348D01*
Y72409D01*
X164730Y72409D01*
X164727Y74138D01*
X165625Y75037D01*
X167154D01*
X167154Y70374D01*
X167154Y70374D01*
X167981Y69979D01*
Y64209D01*
X174521D01*
X181061D01*
Y69979D01*
X181061D01*
Y70211D01*
X181061D01*
Y82771D01*
X182270Y83307D01*
X183021Y82716D01*
Y71251D01*
X184658D01*
Y68939D01*
X183021D01*
Y56939D01*
X194021D01*
Y65377D01*
X195194Y65863D01*
X196238Y64819D01*
X195865Y63919D01*
X195595Y61870D01*
X195865Y59821D01*
X196656Y57911D01*
X197915Y56271D01*
X199554Y55013D01*
X201464Y54222D01*
X203513Y53952D01*
X205563Y54222D01*
X207472Y55013D01*
X209112Y56271D01*
X210370Y57911D01*
X211161Y59821D01*
X211320Y61025D01*
X222044Y71750D01*
X222708Y72742D01*
X222940Y73913D01*
X223919Y74560D01*
X225382D01*
Y86560D01*
X214382D01*
Y74560D01*
X214544D01*
X215030Y73387D01*
X209112Y67469D01*
X207472Y68727D01*
X205563Y69518D01*
X203513Y69788D01*
X201464Y69518D01*
X200564Y69145D01*
X194021Y75688D01*
Y83251D01*
X191336D01*
X191173Y83495D01*
X191173Y83495D01*
X184910Y89758D01*
X184910Y89759D01*
X184317Y90155D01*
X183918Y90421D01*
X183918Y90421D01*
X183918Y90422D01*
X183526Y90500D01*
X182747Y90654D01*
X182747Y90654D01*
X163397D01*
X163383Y90723D01*
X162886Y91468D01*
X162974Y92760D01*
X163725Y93516D01*
X200277D01*
Y90575D01*
X202823D01*
Y86560D01*
X200382D01*
Y74560D01*
X211382D01*
Y86560D01*
X208940D01*
Y90575D01*
X211277D01*
Y102575D01*
D02*
G37*
G36*
X80887Y102860D02*
X74618D01*
Y98590D01*
X80887D01*
Y102860D01*
D02*
G37*
G36*
X72077D02*
X65807D01*
Y98590D01*
X72077D01*
Y102860D01*
D02*
G37*
G36*
X254898Y93815D02*
X249128D01*
Y88545D01*
X254898D01*
Y93815D01*
D02*
G37*
G36*
X246588D02*
X240818D01*
Y88545D01*
X246588D01*
Y93815D01*
D02*
G37*
G36*
X328635Y80370D02*
X326586Y80100D01*
X324676Y79309D01*
X323759Y78605D01*
X322601Y78334D01*
X322601Y78334D01*
X322601Y78334D01*
X310601D01*
Y67334D01*
X322601D01*
X322601Y67334D01*
Y67334D01*
X322884Y67022D01*
X323036Y66853D01*
X323476Y66516D01*
X324676Y65595D01*
X326586Y64804D01*
X328635Y64534D01*
X330685Y64804D01*
X332594Y65595D01*
X334234Y66853D01*
X335492Y68493D01*
X336283Y70403D01*
X336553Y72452D01*
X336283Y74501D01*
X335492Y76411D01*
X334234Y78051D01*
X332594Y79309D01*
X330685Y80100D01*
X328635Y80370D01*
D02*
G37*
G36*
X80887Y96050D02*
X73348D01*
X65807D01*
Y91780D01*
X66847D01*
Y84090D01*
X66847Y83320D01*
X66847Y82050D01*
Y73820D01*
X79847D01*
Y82050D01*
X79847Y82820D01*
X79847Y84090D01*
Y91780D01*
X80887D01*
Y96050D01*
D02*
G37*
G36*
X253858Y86585D02*
X241858D01*
Y75585D01*
X244387D01*
Y71918D01*
X243487Y71545D01*
X241847Y70287D01*
X240589Y68647D01*
X239798Y66738D01*
X239528Y64688D01*
X239798Y62639D01*
X240589Y60729D01*
X241847Y59090D01*
X243487Y57831D01*
X245397Y57040D01*
X247446Y56771D01*
X249495Y57040D01*
X251405Y57831D01*
X253045Y59090D01*
X254303Y60729D01*
X255094Y62639D01*
X255364Y64688D01*
X255094Y66738D01*
X254303Y68647D01*
X253045Y70287D01*
X251405Y71545D01*
X250505Y71918D01*
Y75585D01*
X253858D01*
Y86585D01*
D02*
G37*
G36*
X181061Y61669D02*
X175791D01*
Y55899D01*
X181061D01*
Y61669D01*
D02*
G37*
G36*
X173251D02*
X167981D01*
Y55899D01*
X173251D01*
Y61669D01*
D02*
G37*
G36*
X135264Y101639D02*
X126764D01*
X125886Y101465D01*
X125141Y100967D01*
X124644Y100223D01*
X124630Y100154D01*
X117861D01*
X116691Y99921D01*
X115698Y99258D01*
X115364Y98757D01*
X67969Y51363D01*
X66429Y52001D01*
X64048Y52314D01*
X61667Y52001D01*
X59448Y51082D01*
X57543Y49620D01*
X56082Y47715D01*
X55163Y45496D01*
X54849Y43116D01*
X55163Y40735D01*
X56082Y38516D01*
X57543Y36611D01*
X59448Y35149D01*
X61667Y34230D01*
X64048Y33917D01*
X66429Y34230D01*
X68647Y35149D01*
X70552Y36611D01*
X72014Y38516D01*
X72933Y40735D01*
X73247Y43116D01*
X72933Y45496D01*
X72295Y47037D01*
X119295Y94037D01*
X124630D01*
X124644Y93967D01*
X125141Y93223D01*
X125383Y93062D01*
Y91629D01*
X125141Y91468D01*
X124644Y90723D01*
X124600Y90504D01*
X124188Y90422D01*
X123196Y89759D01*
X87282Y53845D01*
X86619Y52853D01*
X86394Y51722D01*
X84848Y51082D01*
X82943Y49620D01*
X81482Y47715D01*
X80563Y45496D01*
X80249Y43116D01*
X80563Y40735D01*
X81482Y38516D01*
X82943Y36611D01*
X84848Y35149D01*
X87067Y34230D01*
X89448Y33917D01*
X91829Y34230D01*
X94047Y35149D01*
X95952Y36611D01*
X97414Y38516D01*
X98333Y40735D01*
X98647Y43116D01*
X98333Y45496D01*
X97414Y47715D01*
X95952Y49620D01*
X94567Y50683D01*
X94314Y52225D01*
X123358Y81270D01*
X124529Y80644D01*
X124469Y80345D01*
Y76670D01*
X124455Y76596D01*
X124455Y76595D01*
Y75862D01*
X124244Y75652D01*
X123581Y74659D01*
X123348Y73489D01*
X123348Y73489D01*
Y49105D01*
X122078Y48674D01*
X121352Y49620D01*
X119447Y51082D01*
X117229Y52001D01*
X114848Y52314D01*
X112467Y52001D01*
X110248Y51082D01*
X108343Y49620D01*
X106882Y47715D01*
X105963Y45496D01*
X105649Y43116D01*
X105963Y40735D01*
X106882Y38516D01*
X108343Y36611D01*
X110248Y35149D01*
X112467Y34230D01*
X114848Y33917D01*
X117229Y34230D01*
X119447Y35149D01*
X121352Y36611D01*
X122078Y37557D01*
X123348Y37125D01*
Y30541D01*
X118769Y25963D01*
X117229Y26601D01*
X114848Y26914D01*
X112467Y26601D01*
X110248Y25682D01*
X108343Y24220D01*
X106882Y22315D01*
X105963Y20096D01*
X105649Y17716D01*
X105963Y15335D01*
X106882Y13116D01*
X108343Y11211D01*
X110248Y9749D01*
X112467Y8830D01*
X114848Y8517D01*
X117229Y8830D01*
X119447Y9749D01*
X121352Y11211D01*
X122814Y13116D01*
X123733Y15335D01*
X124047Y17716D01*
X123733Y20096D01*
X123095Y21637D01*
X128570Y27111D01*
X129233Y28104D01*
X129466Y29274D01*
X129466Y29274D01*
Y72222D01*
X129676Y72433D01*
X129676Y72433D01*
X130339Y73425D01*
X130365Y73552D01*
X135264D01*
X136141Y73726D01*
X136886Y74223D01*
X137383Y74968D01*
X137558Y75845D01*
Y80345D01*
X137383Y81223D01*
X136886Y81968D01*
X136643Y82130D01*
Y83561D01*
X136886Y83723D01*
X137383Y84468D01*
X137558Y85346D01*
Y89846D01*
X137383Y90723D01*
X136886Y91468D01*
X136644Y91629D01*
Y93062D01*
X136886Y93223D01*
X137383Y93967D01*
X137558Y94845D01*
Y99345D01*
X137383Y100223D01*
X136886Y100967D01*
X136141Y101465D01*
X135264Y101639D01*
D02*
G37*
G36*
X292648Y52314D02*
X290267Y52001D01*
X288048Y51082D01*
X286143Y49620D01*
X284682Y47715D01*
X283763Y45496D01*
X283449Y43116D01*
X283763Y40735D01*
X284682Y38516D01*
X286143Y36611D01*
X288048Y35149D01*
X290267Y34230D01*
X292648Y33917D01*
X295029Y34230D01*
X297247Y35149D01*
X299152Y36611D01*
X300614Y38516D01*
X301533Y40735D01*
X301847Y43116D01*
X301533Y45496D01*
X300614Y47715D01*
X299152Y49620D01*
X297247Y51082D01*
X295029Y52001D01*
X292648Y52314D01*
D02*
G37*
G36*
X267248D02*
X264867Y52001D01*
X262649Y51082D01*
X260743Y49620D01*
X259282Y47715D01*
X258363Y45496D01*
X258049Y43116D01*
X258363Y40735D01*
X259282Y38516D01*
X260743Y36611D01*
X262649Y35149D01*
X264867Y34230D01*
X267248Y33917D01*
X269629Y34230D01*
X271847Y35149D01*
X273752Y36611D01*
X275214Y38516D01*
X276133Y40735D01*
X276447Y43116D01*
X276133Y45496D01*
X275214Y47715D01*
X273752Y49620D01*
X271847Y51082D01*
X269629Y52001D01*
X267248Y52314D01*
D02*
G37*
G36*
X241848D02*
X239467Y52001D01*
X237248Y51082D01*
X235343Y49620D01*
X233882Y47715D01*
X232963Y45496D01*
X232649Y43116D01*
X232963Y40735D01*
X233882Y38516D01*
X235343Y36611D01*
X237248Y35149D01*
X239467Y34230D01*
X241848Y33917D01*
X244229Y34230D01*
X246447Y35149D01*
X248352Y36611D01*
X249814Y38516D01*
X250733Y40735D01*
X251047Y43116D01*
X250733Y45496D01*
X249814Y47715D01*
X248352Y49620D01*
X246447Y51082D01*
X244229Y52001D01*
X241848Y52314D01*
D02*
G37*
G36*
X216448D02*
X214067Y52001D01*
X211849Y51082D01*
X209943Y49620D01*
X208482Y47715D01*
X207563Y45496D01*
X207249Y43116D01*
X207563Y40735D01*
X208482Y38516D01*
X209943Y36611D01*
X211849Y35149D01*
X214067Y34230D01*
X216448Y33917D01*
X218829Y34230D01*
X221047Y35149D01*
X222952Y36611D01*
X224414Y38516D01*
X225333Y40735D01*
X225647Y43116D01*
X225333Y45496D01*
X224414Y47715D01*
X222952Y49620D01*
X221047Y51082D01*
X218829Y52001D01*
X216448Y52314D01*
D02*
G37*
G36*
X191048D02*
X188667Y52001D01*
X186448Y51082D01*
X184543Y49620D01*
X183082Y47715D01*
X182163Y45496D01*
X181849Y43116D01*
X182163Y40735D01*
X183082Y38516D01*
X184543Y36611D01*
X186448Y35149D01*
X188667Y34230D01*
X191048Y33917D01*
X193429Y34230D01*
X195647Y35149D01*
X197552Y36611D01*
X199014Y38516D01*
X199933Y40735D01*
X200247Y43116D01*
X199933Y45496D01*
X199014Y47715D01*
X197552Y49620D01*
X195647Y51082D01*
X193429Y52001D01*
X191048Y52314D01*
D02*
G37*
G36*
X165648D02*
X163267Y52001D01*
X161049Y51082D01*
X159143Y49620D01*
X157682Y47715D01*
X156763Y45496D01*
X156449Y43116D01*
X156763Y40735D01*
X157682Y38516D01*
X159143Y36611D01*
X161049Y35149D01*
X163267Y34230D01*
X165648Y33917D01*
X168029Y34230D01*
X170247Y35149D01*
X172152Y36611D01*
X173614Y38516D01*
X174533Y40735D01*
X174847Y43116D01*
X174533Y45496D01*
X173614Y47715D01*
X172152Y49620D01*
X170247Y51082D01*
X168029Y52001D01*
X165648Y52314D01*
D02*
G37*
G36*
X140248D02*
X137867Y52001D01*
X135648Y51082D01*
X133743Y49620D01*
X132282Y47715D01*
X131363Y45496D01*
X131049Y43116D01*
X131363Y40735D01*
X132282Y38516D01*
X133743Y36611D01*
X135648Y35149D01*
X137867Y34230D01*
X140248Y33917D01*
X142629Y34230D01*
X144847Y35149D01*
X146752Y36611D01*
X148214Y38516D01*
X149133Y40735D01*
X149447Y43116D01*
X149133Y45496D01*
X148214Y47715D01*
X146752Y49620D01*
X144847Y51082D01*
X142629Y52001D01*
X140248Y52314D01*
D02*
G37*
G36*
X292648Y26914D02*
X290267Y26601D01*
X288048Y25682D01*
X286143Y24220D01*
X284682Y22315D01*
X283763Y20096D01*
X283449Y17716D01*
X283763Y15335D01*
X284682Y13116D01*
X286143Y11211D01*
X288048Y9749D01*
X290267Y8830D01*
X292648Y8517D01*
X295029Y8830D01*
X297247Y9749D01*
X299152Y11211D01*
X300614Y13116D01*
X301533Y15335D01*
X301847Y17716D01*
X301533Y20096D01*
X300614Y22315D01*
X299152Y24220D01*
X297247Y25682D01*
X295029Y26601D01*
X292648Y26914D01*
D02*
G37*
G36*
X267248D02*
X264867Y26601D01*
X262649Y25682D01*
X260743Y24220D01*
X259282Y22315D01*
X258363Y20096D01*
X258049Y17716D01*
X258363Y15335D01*
X259282Y13116D01*
X260743Y11211D01*
X262649Y9749D01*
X264867Y8830D01*
X267248Y8517D01*
X269629Y8830D01*
X271847Y9749D01*
X273752Y11211D01*
X275214Y13116D01*
X276133Y15335D01*
X276447Y17716D01*
X276133Y20096D01*
X275214Y22315D01*
X273752Y24220D01*
X271847Y25682D01*
X269629Y26601D01*
X267248Y26914D01*
D02*
G37*
G36*
X241848D02*
X239467Y26601D01*
X237248Y25682D01*
X235343Y24220D01*
X233882Y22315D01*
X232963Y20096D01*
X232649Y17716D01*
X232963Y15335D01*
X233882Y13116D01*
X235343Y11211D01*
X237248Y9749D01*
X239467Y8830D01*
X241848Y8517D01*
X244229Y8830D01*
X246447Y9749D01*
X248352Y11211D01*
X249814Y13116D01*
X250733Y15335D01*
X251047Y17716D01*
X250733Y20096D01*
X249814Y22315D01*
X248352Y24220D01*
X246447Y25682D01*
X244229Y26601D01*
X241848Y26914D01*
D02*
G37*
G36*
X216448D02*
X214067Y26601D01*
X211849Y25682D01*
X209943Y24220D01*
X208482Y22315D01*
X207563Y20096D01*
X207249Y17716D01*
X207563Y15335D01*
X208482Y13116D01*
X209943Y11211D01*
X211849Y9749D01*
X214067Y8830D01*
X216448Y8517D01*
X218829Y8830D01*
X221047Y9749D01*
X222952Y11211D01*
X224414Y13116D01*
X225333Y15335D01*
X225647Y17716D01*
X225333Y20096D01*
X224414Y22315D01*
X222952Y24220D01*
X221047Y25682D01*
X218829Y26601D01*
X216448Y26914D01*
D02*
G37*
G36*
X191048D02*
X188667Y26601D01*
X186448Y25682D01*
X184543Y24220D01*
X183082Y22315D01*
X182163Y20096D01*
X181849Y17716D01*
X182163Y15335D01*
X183082Y13116D01*
X184543Y11211D01*
X186448Y9749D01*
X188667Y8830D01*
X191048Y8517D01*
X193429Y8830D01*
X195647Y9749D01*
X197552Y11211D01*
X199014Y13116D01*
X199933Y15335D01*
X200247Y17716D01*
X199933Y20096D01*
X199014Y22315D01*
X197552Y24220D01*
X195647Y25682D01*
X193429Y26601D01*
X191048Y26914D01*
D02*
G37*
G36*
X165648D02*
X163267Y26601D01*
X161049Y25682D01*
X159143Y24220D01*
X157682Y22315D01*
X156763Y20096D01*
X156449Y17716D01*
X156763Y15335D01*
X157682Y13116D01*
X159143Y11211D01*
X161049Y9749D01*
X163267Y8830D01*
X165648Y8517D01*
X168029Y8830D01*
X170247Y9749D01*
X172152Y11211D01*
X173614Y13116D01*
X174533Y15335D01*
X174847Y17716D01*
X174533Y20096D01*
X173614Y22315D01*
X172152Y24220D01*
X170247Y25682D01*
X168029Y26601D01*
X165648Y26914D01*
D02*
G37*
G36*
X140248D02*
X137867Y26601D01*
X135648Y25682D01*
X133743Y24220D01*
X132282Y22315D01*
X131363Y20096D01*
X131049Y17716D01*
X131363Y15335D01*
X132282Y13116D01*
X133743Y11211D01*
X135648Y9749D01*
X137867Y8830D01*
X140248Y8517D01*
X142629Y8830D01*
X144847Y9749D01*
X146752Y11211D01*
X148214Y13116D01*
X149133Y15335D01*
X149447Y17716D01*
X149133Y20096D01*
X148214Y22315D01*
X146752Y24220D01*
X144847Y25682D01*
X142629Y26601D01*
X140248Y26914D01*
D02*
G37*
G36*
X89448D02*
X87067Y26601D01*
X84848Y25682D01*
X82943Y24220D01*
X81482Y22315D01*
X80563Y20096D01*
X80249Y17716D01*
X80563Y15335D01*
X81482Y13116D01*
X82943Y11211D01*
X84848Y9749D01*
X87067Y8830D01*
X89448Y8517D01*
X91829Y8830D01*
X94047Y9749D01*
X95952Y11211D01*
X97414Y13116D01*
X98333Y15335D01*
X98647Y17716D01*
X98333Y20096D01*
X97414Y22315D01*
X95952Y24220D01*
X94047Y25682D01*
X91829Y26601D01*
X89448Y26914D01*
D02*
G37*
G36*
X64048D02*
X61667Y26601D01*
X59448Y25682D01*
X57543Y24220D01*
X56082Y22315D01*
X55163Y20096D01*
X54849Y17716D01*
X55163Y15335D01*
X56082Y13116D01*
X57543Y11211D01*
X59448Y9749D01*
X61667Y8830D01*
X64048Y8517D01*
X66429Y8830D01*
X68647Y9749D01*
X70552Y11211D01*
X72014Y13116D01*
X72933Y15335D01*
X73247Y17716D01*
X72933Y20096D01*
X72014Y22315D01*
X70552Y24220D01*
X68647Y25682D01*
X66429Y26601D01*
X64048Y26914D01*
D02*
G37*
G36*
X38648D02*
X36267Y26601D01*
X34049Y25682D01*
X32143Y24220D01*
X30682Y22315D01*
X29763Y20096D01*
X29449Y17716D01*
X29763Y15335D01*
X30682Y13116D01*
X32143Y11211D01*
X34049Y9749D01*
X36267Y8830D01*
X38648Y8517D01*
X41029Y8830D01*
X43247Y9749D01*
X45152Y11211D01*
X46614Y13116D01*
X47533Y15335D01*
X47847Y17716D01*
X47533Y20096D01*
X46614Y22315D01*
X45152Y24220D01*
X43247Y25682D01*
X41029Y26601D01*
X38648Y26914D01*
D02*
G37*
%LPD*%
G36*
X279386Y125049D02*
X279386Y107572D01*
X261909Y107572D01*
X261909Y125049D01*
X279386Y125049D01*
D02*
G37*
D22*
X267600Y479072D02*
D03*
X325747D02*
D03*
Y455072D02*
D03*
X335247D02*
D03*
X344747D02*
D03*
Y479072D02*
D03*
X335247D02*
D03*
X267600Y455072D02*
D03*
X277101D02*
D03*
X286600D02*
D03*
Y479072D02*
D03*
X277101D02*
D03*
D23*
X73347Y97320D02*
D03*
Y87820D02*
D03*
Y78320D02*
D03*
X45847D02*
D03*
Y87820D02*
D03*
Y97320D02*
D03*
D24*
X350769Y392187D02*
D03*
X377769D02*
D03*
D25*
X294957Y391238D02*
D03*
X267957D02*
D03*
D26*
X323538Y397354D02*
D03*
X314038Y420353D02*
D03*
X333038D02*
D03*
X242184Y397354D02*
D03*
X232684Y420353D02*
D03*
X251683D02*
D03*
D27*
X247724Y456870D02*
D03*
Y470871D02*
D03*
X306797Y456870D02*
D03*
Y470871D02*
D03*
X230490Y113344D02*
D03*
Y127344D02*
D03*
X316601Y72834D02*
D03*
Y86834D02*
D03*
X64147Y448067D02*
D03*
Y434067D02*
D03*
X47340D02*
D03*
Y448067D02*
D03*
X198400Y127344D02*
D03*
Y113344D02*
D03*
X270597Y86834D02*
D03*
Y72834D02*
D03*
X247858Y95085D02*
D03*
Y81085D02*
D03*
X214444Y113344D02*
D03*
Y127344D02*
D03*
X262666Y155734D02*
D03*
Y141734D02*
D03*
X281056Y141888D02*
D03*
Y155888D02*
D03*
D28*
X286165Y438024D02*
D03*
X272165D02*
D03*
X347774D02*
D03*
X333774D02*
D03*
X219882Y80560D02*
D03*
X205882D02*
D03*
X286718Y71574D02*
D03*
X300718D02*
D03*
X286682Y88598D02*
D03*
X300683D02*
D03*
X202252Y351354D02*
D03*
X188253D02*
D03*
X202252Y379658D02*
D03*
X188253D02*
D03*
X202252Y365506D02*
D03*
X188253D02*
D03*
X37476Y297238D02*
D03*
X23475D02*
D03*
X219777Y96575D02*
D03*
X205777D02*
D03*
X188521Y77251D02*
D03*
X174521D02*
D03*
X188521Y62939D02*
D03*
X174521D02*
D03*
D29*
X298395Y290402D02*
D03*
X326394D02*
D03*
D30*
X312394D02*
D03*
D31*
X131014Y87596D02*
D03*
Y97095D02*
D03*
X157014Y78095D02*
D03*
Y87596D02*
D03*
Y97095D02*
D03*
X131014Y78095D02*
D03*
D32*
X23605Y467100D02*
D03*
Y425099D02*
D03*
D33*
X135500Y267321D02*
D03*
D34*
X101400Y361321D02*
D03*
X169600D02*
D03*
X152550D02*
D03*
X135500D02*
D03*
X118450D02*
D03*
D35*
X247907Y106357D02*
D03*
Y112856D02*
D03*
Y119357D02*
D03*
Y125857D02*
D03*
X293907D02*
D03*
Y119357D02*
D03*
Y112856D02*
D03*
Y106357D02*
D03*
D50*
X330536Y118722D02*
D03*
D51*
Y144122D02*
D03*
X21623Y81145D02*
D03*
X227581Y471302D02*
D03*
X308376Y485814D02*
D03*
X359952Y479734D02*
D03*
X312102Y434630D02*
D03*
X217384Y421491D02*
D03*
X170132Y391752D02*
D03*
X11061Y297355D02*
D03*
X205724Y315939D02*
D03*
X135500Y267321D02*
D03*
X176418Y127293D02*
D03*
X203513Y61870D02*
D03*
X247446Y64688D02*
D03*
X270592Y116265D02*
D03*
X295629Y156184D02*
D03*
X328635Y72452D02*
D03*
D61*
X126407Y29274D02*
Y73489D01*
X114848Y17716D02*
X126407Y29274D01*
X38640Y43123D02*
X38648Y43116D01*
X38640Y43123D02*
Y73113D01*
X127514Y76596D02*
X129014Y78095D01*
X127514Y74595D02*
Y76596D01*
X126407Y73489D02*
X127514Y74595D01*
X129014Y78095D02*
X131014D01*
X64048Y43116D02*
X117861Y96929D01*
Y97095D01*
X89445Y51682D02*
X125358Y87596D01*
X267600Y479072D02*
Y481322D01*
X270851Y484572D01*
Y485814D01*
X283181Y498145D01*
X290298D01*
X292640Y500487D01*
X310560Y118807D02*
X311472Y117894D01*
X298885Y118807D02*
X310560D01*
X311472Y117894D02*
X329700D01*
X294457Y118807D02*
X298885D01*
X293907Y119357D02*
X294457Y118807D01*
X298885D02*
X298885Y118807D01*
X329700Y99933D02*
Y117894D01*
X316601Y86834D02*
X329700Y99933D01*
X297063Y141488D02*
X329700D01*
X284279Y128705D02*
X297063Y141488D01*
X299827Y125857D02*
X304989Y131018D01*
X293907Y125857D02*
X299827D01*
X34701Y99077D02*
Y103783D01*
X36458Y97320D02*
X45847D01*
X34701Y99077D02*
X36458Y97320D01*
X21623Y81145D02*
X22701D01*
X29834Y88278D01*
X40595D01*
X40746Y88429D01*
X34701Y103783D02*
X63389Y132472D01*
X38640Y73113D02*
X43847Y78320D01*
X45847D01*
X130873Y132472D02*
X142315Y143913D01*
X63389Y132472D02*
X130873D01*
X142315Y143913D02*
Y163844D01*
X188611Y77161D02*
X189010Y77560D01*
X188521Y77071D02*
X188611Y77161D01*
X187717Y60939D02*
Y76267D01*
X89445Y43279D02*
Y51682D01*
X247907Y125857D02*
X252846D01*
X247907D02*
X252508D01*
X171888Y78095D02*
X173717Y76267D01*
Y60939D02*
Y76267D01*
X359289Y479072D02*
X359952Y479734D01*
X344747Y479072D02*
X359289D01*
X335247D02*
X344747D01*
X306797Y484235D02*
X308376Y485814D01*
X301634Y479072D02*
X306797Y484235D01*
X286600Y479072D02*
X301634D01*
X277101D02*
X286600D01*
X306797Y470871D02*
Y484235D01*
X314038Y420353D02*
Y432695D01*
X312102Y434630D02*
X314038Y432695D01*
X231546Y421491D02*
X232684Y420353D01*
X217384Y421491D02*
X231546D01*
X227581Y471302D02*
X247293D01*
X323948Y456870D02*
X325747Y455072D01*
X306797Y456870D02*
X323948D01*
X265802D02*
X267600Y455072D01*
X247724Y456870D02*
X265802D01*
X300683Y71609D02*
Y88598D01*
Y71609D02*
X300718Y71574D01*
X300683Y88598D02*
X302799Y90716D01*
X214444Y113344D02*
X214991D01*
X215084Y113251D01*
X214444Y127344D02*
X230490D01*
X215084Y113251D02*
X215177Y113344D01*
X152550Y361321D02*
Y374530D01*
X170132Y391752D02*
X176159D01*
X9100Y297355D02*
X11061D01*
X8983Y297238D02*
X9100Y297355D01*
X169600Y361321D02*
X173785Y365506D01*
X118450Y361321D02*
Y374973D01*
X37476Y297238D02*
X38757Y295956D01*
X47340Y448067D02*
Y450809D01*
X219882Y73913D02*
Y80560D01*
X207839Y61870D02*
X219882Y73913D01*
X203513Y61870D02*
X207839D01*
X205777Y96575D02*
X205882Y96470D01*
Y80560D02*
Y96470D01*
X230490Y107288D02*
Y113344D01*
X219777Y96575D02*
X230490Y107288D01*
X157014Y97095D02*
X157534Y96575D01*
X205777D01*
X187717Y76267D02*
X188521Y77071D01*
Y77251D01*
Y76862D02*
Y77071D01*
Y76862D02*
X203513Y61870D01*
X198358Y127293D02*
X198400Y127251D01*
X247446Y80674D02*
X247858Y81085D01*
X247446Y64688D02*
Y80674D01*
X189010Y77560D02*
Y81333D01*
X182747Y87596D02*
X189010Y81333D01*
X295334Y155888D02*
X295629Y156184D01*
X281056Y155888D02*
X295334D01*
X328253Y72834D02*
X328635Y72452D01*
X316601Y72834D02*
X328253D01*
X157014Y87596D02*
X182747D01*
X157014Y78095D02*
X171888D01*
X125358Y87596D02*
X131014D01*
X117861Y97095D02*
X131014D01*
X238477Y119357D02*
X247907D01*
X230490Y127344D02*
X238477Y119357D01*
X247420Y113344D02*
X247907Y112856D01*
X230490Y113344D02*
X247420D01*
X247858Y95085D02*
X247907Y95134D01*
Y106357D01*
X286682Y71609D02*
X286718Y71574D01*
X285457Y72834D02*
X286682Y71609D01*
X270597Y72834D02*
X285457D01*
X286682Y71609D02*
Y88598D01*
Y99132D02*
X293907Y106357D01*
X286682Y88598D02*
Y99132D01*
X302799Y90716D02*
Y109413D01*
X299356Y112856D02*
X302799Y109413D01*
X293907Y112856D02*
X299356D01*
X262666Y136015D02*
Y141734D01*
X252508Y125857D02*
X262666Y136015D01*
X280903Y141734D02*
X281056Y141888D01*
X262666Y141734D02*
X280903D01*
X286806Y112856D02*
X293907D01*
X284279Y115383D02*
X286806Y112856D01*
X284279Y115383D02*
Y128705D01*
X256895Y100536D02*
X270597Y86834D01*
X256895Y100536D02*
Y121808D01*
X252846Y125857D02*
X256895Y121808D01*
X176418Y127293D02*
X198358D01*
X198400Y113344D02*
X214444D01*
X202252Y379658D02*
Y382962D01*
X101400Y352698D02*
Y361321D01*
D62*
X292640Y525880D02*
Y525887D01*
Y525880D02*
X325747Y492773D01*
Y479072D02*
Y492773D01*
X8983Y297238D02*
X23475D01*
X338653Y320776D02*
X377769Y359892D01*
X338653Y302661D02*
Y320776D01*
X326394Y290402D02*
X338653Y302661D01*
X377769Y359892D02*
Y392187D01*
X294957Y364520D02*
X338677Y320800D01*
X328704Y392187D02*
X350769D01*
X323538Y397354D02*
X328704Y392187D01*
X294957Y364520D02*
Y391238D01*
X248299D02*
X267957D01*
X242184Y397354D02*
X248299Y391238D01*
X347774Y435089D02*
Y438024D01*
X333038Y420353D02*
X347774Y435089D01*
X344747Y441051D02*
X347774Y438024D01*
X344747Y441051D02*
Y455072D01*
X333774Y438024D02*
X335247Y439497D01*
Y455072D01*
X272165Y438024D02*
X277101Y442959D01*
Y455072D01*
X286165Y454636D02*
X286600Y455072D01*
X286165Y438024D02*
Y454636D01*
X268495Y420353D02*
X286165Y438024D01*
X251683Y420353D02*
X268495D01*
X127042Y400038D02*
X152550Y374530D01*
X98176Y400038D02*
X127042D01*
X176159Y391752D02*
X188253Y379658D01*
Y333410D02*
X205724Y315939D01*
X188253Y333410D02*
Y351354D01*
X173785Y365506D02*
X188253D01*
X135500Y267321D02*
Y361321D01*
X202252Y351354D02*
Y365506D01*
X38757Y259871D02*
Y295956D01*
X87147Y448067D02*
X98003Y437211D01*
X64147Y448067D02*
X87147D01*
X58278Y461746D02*
X123468D01*
X47340Y450809D02*
X58278Y461746D01*
X123468D02*
X148003Y437211D01*
X64147Y434067D02*
X98176Y400038D01*
X47340Y434067D02*
X64147D01*
X42637Y448067D02*
X47340D01*
X23605Y467100D02*
X42637Y448067D01*
X296014Y290402D02*
X298395D01*
X202252Y379658D02*
X206759D01*
X148003Y437211D02*
X202252Y382962D01*
X206759Y379658D02*
X296014Y290402D01*
X37476Y297238D02*
X45940D01*
X101400Y352698D01*
X44809Y380227D02*
X49322Y384740D01*
X108682D01*
X118450Y374973D01*
X23605Y398862D02*
Y425099D01*
Y398862D02*
X42240Y380227D01*
X44809D01*
X37476Y322094D02*
X44809Y329426D01*
X37476Y297238D02*
Y322094D01*
D63*
X292640Y500487D02*
D03*
X267240D02*
D03*
X241840D02*
D03*
X216440D02*
D03*
X191040D02*
D03*
X165640D02*
D03*
X140240D02*
D03*
X114840D02*
D03*
X89440D02*
D03*
X64040D02*
D03*
X38640D02*
D03*
X13240D02*
D03*
X292640Y525887D02*
D03*
X267240D02*
D03*
X241840D02*
D03*
X216440D02*
D03*
X191040D02*
D03*
X165640D02*
D03*
X140240D02*
D03*
X114840D02*
D03*
X89440D02*
D03*
X64040D02*
D03*
X38640D02*
D03*
X13240D02*
D03*
X89448Y43116D02*
D03*
X64048D02*
D03*
X241848D02*
D03*
X216448D02*
D03*
X267248D02*
D03*
X13248D02*
D03*
X38648D02*
D03*
X114848D02*
D03*
X140248D02*
D03*
X165648D02*
D03*
X191048D02*
D03*
X292648D02*
D03*
X13248Y17716D02*
D03*
X38648D02*
D03*
X64048D02*
D03*
X89448D02*
D03*
X114848D02*
D03*
X140248D02*
D03*
X165648D02*
D03*
X191048D02*
D03*
X216448D02*
D03*
X241848D02*
D03*
X267248D02*
D03*
X292648D02*
D03*
D64*
X44809Y380227D02*
D03*
X38757Y234870D02*
D03*
D65*
X44809Y329426D02*
D03*
X38757Y259871D02*
D03*
D66*
X142315Y163844D02*
D03*
X82315D02*
D03*
D67*
X98003Y437211D02*
D03*
D68*
X148003D02*
D03*
D69*
X112315Y116844D02*
D03*
D70*
X304989Y131018D02*
D03*
D71*
X312440Y279097D02*
D03*
X312394Y290636D02*
D03*
Y302086D02*
D03*
M02*
