G04*
G04 #@! TF.GenerationSoftware,Altium Limited,Altium Designer,21.9.1 (22)*
G04*
G04 Layer_Color=255*
%FSLAX44Y44*%
%MOMM*%
G71*
G04*
G04 #@! TF.SameCoordinates,79196508-F500-4B14-A944-684D4DD7C553*
G04*
G04*
G04 #@! TF.FilePolarity,Positive*
G04*
G01*
G75*
%ADD50C,1.3716*%
%ADD51R,1.3716X1.3716*%
%ADD66C,1.6000*%
%ADD67R,1.6000X1.6000*%
%ADD68R,1.5000X1.5000*%
%ADD69C,1.5000*%
%ADD70C,1.5240*%
%ADD71O,1.5000X3.0000*%
%ADD72O,3.0000X1.5000*%
D50*
X152127Y433763D02*
D03*
Y458763D02*
D03*
X224514Y433763D02*
D03*
Y458763D02*
D03*
D51*
X152127Y408763D02*
D03*
X224514D02*
D03*
D66*
X53135Y454094D02*
D03*
Y428694D02*
D03*
D67*
Y403293D02*
D03*
D68*
X41785Y195845D02*
D03*
Y292846D02*
D03*
X396851Y116049D02*
D03*
D69*
X41785Y221245D02*
D03*
Y246645D02*
D03*
Y318246D02*
D03*
Y343646D02*
D03*
X396851Y157120D02*
D03*
D70*
X370762Y525841D02*
D03*
X345362D02*
D03*
X319962D02*
D03*
X294562D02*
D03*
X269162D02*
D03*
X243762D02*
D03*
X218362D02*
D03*
X192962D02*
D03*
X167562D02*
D03*
X142162D02*
D03*
X116762D02*
D03*
X91362D02*
D03*
X370762Y500441D02*
D03*
X345362D02*
D03*
X319962D02*
D03*
X294562D02*
D03*
X269162D02*
D03*
X243762D02*
D03*
X218362D02*
D03*
X192962D02*
D03*
X167562D02*
D03*
X142162D02*
D03*
X116762D02*
D03*
X91362D02*
D03*
Y17841D02*
D03*
X116762D02*
D03*
X142162D02*
D03*
X167562D02*
D03*
X192962D02*
D03*
X218362D02*
D03*
X243762D02*
D03*
X269162D02*
D03*
X294562D02*
D03*
X319962D02*
D03*
X345362D02*
D03*
X370762D02*
D03*
X91362Y43241D02*
D03*
X142162D02*
D03*
X167562D02*
D03*
X192962D02*
D03*
X218362D02*
D03*
X243762D02*
D03*
X269162D02*
D03*
X294562D02*
D03*
X319962D02*
D03*
X345362D02*
D03*
X370762D02*
D03*
X116762D02*
D03*
D71*
X143124Y129044D02*
D03*
X83124D02*
D03*
D72*
X113124Y82043D02*
D03*
M02*
