M48
;Layer_Color=9474304
;FILE_FORMAT=4:4
METRIC,LZ
;TYPE=PLATED
T1F00S00C0.5000
T2F00S00C0.7112
T3F00S00C0.8636
T4F00S00C0.9000
T5F00S00C1.0000
T6F00S00C1.0160
%
T01
X001551Y00274828
X00176117Y00274838
X0016638Y00291068
X00394051Y00289088
Y00277638
X00394097Y00266099
X00383111Y00130979
T02
X00281635Y00061831
X00325568Y0006465
X00348713Y00116226
X00406757Y00072413
X0025454Y00127254
X00373751Y00156145
X00325686Y00422291
X00335883Y00472102
X00277386Y00438055
X00420537Y00436298
X00416678Y00486613
X00468254Y00480534
T03
X00152127Y00408763
Y00433763
Y00458763
X00224514
Y00433763
Y00408763
T04
X00396851Y00116049
X00041785Y00195845
Y00221245
Y00246645
Y00292846
Y00318246
Y00343646
X00396851Y0015712
T05
X00113124Y00082043
X00143124Y00129044
X00083124
X00053135Y00403293
Y00428694
Y00454094
T06
X00116762Y00017841
X00142162
X00167562
X00192962
X00218362
X00243762
X00269162
X00294562
X00319962
X00345362
X00370762
Y00043241
X00345362
X00319962
X00294562
X00269162
X00243762
X00218362
X00192962
X00167562
X00142162
X00116762
X00091362
Y00017841
Y00500441
Y00525841
X00116762
X00142162
X00167562
X00192962
X00218362
X00243762
X00269162
X00294562
X00319962
X00345362
X00370762
Y00500441
X00345362
X00319962
X00294562
X00269162
X00243762
X00218362
X00192962
X00167562
X00142162
X00116762
M30
