M48
;Layer_Color=9474304
;FILE_FORMAT=4:4
METRIC,LZ
;TYPE=PLATED
T1F00S00C0.5000
T2F00S00C0.7112
T3F00S00C0.7620
T4F00S00C0.8000
T5F00S00C0.9000
T6F00S00C1.0000
T7F00S00C1.0160
%
T01
X00304989Y00131018
X0031244Y00279097
X00312394Y00290636
Y00302086
T02
X00021623Y00081145
X00176418Y00127293
X00203513Y0006187
X00247446Y00064688
X00270592Y00116265
X00328635Y00072452
X00011061Y00297355
X001355Y00267321
X00205724Y00315939
X00170132Y00391752
X00217384Y00421491
X00227581Y00471302
X00308376Y00485814
X00312102Y0043463
X00359952Y00479734
X00295629Y00156184
T03
X00330536Y00118722
Y00144122
T04
X00038757Y0023487
Y00259871
X00044809Y00329426
Y00380227
T05
X00098003Y00437211
X00148003
T06
X00112315Y00116844
X00142315Y00163844
X00082315
T07
X00038648Y00017716
Y00043116
X00064048
X00089448
X00114848
X00140248
X00165648
X00191048
X00216448
X00241848
X00267248
X00292648
Y00017716
X00267248
X00241848
X00216448
X00191048
X00165648
X00140248
X00114848
X00089448
X00064048
X00013248
Y00043116
X0001324Y00500487
Y00525887
X0003864
Y00500487
X0006404
X0008944
X0011484
X0014024
X0016564
X0019104
X0021644
X0024184
X0026724
X0029264
Y00525887
X0026724
X0024184
X0021644
X0019104
X0016564
X0014024
X0011484
X0008944
X0006404
M30
